<svg width="659" height="786" viewBox="0 0 659 786" fill="none" xmlns="http://www.w3.org/2000/svg">
<g clip-path="url(#clip0_219_118)">
<mask id="mask0_219_118" style="mask-type:luminance" maskUnits="userSpaceOnUse" x="-189" y="0" width="848" height="849">
<path d="M522.427 0.000110863L-189 135.28L-53.3373 848.719L658.09 713.439L522.427 0.000110863Z" fill="white"/>
</mask>
<g mask="url(#mask0_219_118)">
<mask id="mask1_219_118" style="mask-type:luminance" maskUnits="userSpaceOnUse" x="-119" y="40" width="707" height="769">
<path d="M462.583 40.6411L-118.416 151.12L6.50675 808.078L587.506 697.6L462.583 40.6411Z" fill="white"/>
</mask>
<g mask="url(#mask1_219_118)">
<path fill-rule="evenodd" clip-rule="evenodd" d="M558.854 582.262C561.027 578.283 562.998 573.288 560.614 569.43C558.466 565.954 553.501 565.178 549.67 566.589C545.839 568 542.883 571.055 540.07 574.009C510.634 604.928 481.2 635.848 451.769 666.767L451.78 666.774C456.232 666.507 460.634 667.851 464.183 670.564C467.732 673.277 470.192 677.176 471.116 681.553L471.741 682.216C487.895 666.935 503.519 651.142 518.613 634.838C533.639 618.61 548.257 601.704 558.854 582.262ZM548.115 588.814C548.539 588.208 548.392 587.372 547.787 586.947C547.182 586.522 546.348 586.668 545.925 587.274C528.323 612.448 507.93 635.538 485.137 656.102C484.589 656.597 484.544 657.445 485.039 657.995C485.533 658.546 486.378 658.591 486.926 658.096C509.869 637.396 530.397 614.154 548.115 588.814Z" fill="url(#paint0_linear_219_118)"/>
<path fill-rule="evenodd" clip-rule="evenodd" d="M192.838 402.718C193.896 402.569 194.93 402.281 195.913 401.86C196.422 401.634 196.884 401.315 197.277 400.92C199.344 398.814 198.522 395.35 197.634 392.536C196.512 388.975 195.511 385.381 194.631 381.755C192.893 374.632 191.621 367.402 190.822 360.113C189.806 350.976 189.517 341.772 189.96 332.589C190.226 327.071 190.752 321.581 191.536 316.119L192.397 316.256L209.551 314.886L209.527 314.572C209.211 291.461 201.142 269.122 186.621 251.155C176.783 260.857 167.834 271.273 161.021 283.046C154.443 294.327 150.163 306.805 148.428 319.759C147.595 325.636 147.158 331.563 147.122 337.499C147.094 341.2 147.194 344.889 147.421 348.566C148.479 366.002 152.125 383.172 155.99 400.211C156.612 402.958 157.499 406.048 159.995 407.344C160.449 407.581 160.936 407.745 161.44 407.833C163.046 408.048 164.678 407.962 166.253 407.582L192.838 402.718ZM192.292 286.722C192.536 286.024 192.169 285.259 191.472 285.013C190.776 284.767 190.013 285.134 189.768 285.833C178.849 317.059 176.464 350.654 182.861 383.134C183.005 383.86 183.707 384.334 184.432 384.191C185.157 384.048 185.628 383.344 185.484 382.617C179.179 350.607 181.53 317.496 192.292 286.722Z" fill="url(#paint1_linear_219_118)"/>
<path fill-rule="evenodd" clip-rule="evenodd" d="M265.672 279.329C264.512 276.084 263.401 272.821 262.341 269.538L262.757 269.41C282.09 274.538 302.383 274.508 321.322 268.115C340.26 261.721 357.136 248.634 366.82 231.112C376.529 213.537 378.651 192.831 379.661 172.765C379.796 170.138 379.748 167.118 377.76 165.395C376.154 164.008 373.827 163.978 371.704 164.027C371.071 164.038 370.436 164.051 369.801 164.063C369.374 164.071 368.948 164.079 368.523 164.087C360.579 164.239 352.637 164.397 344.696 164.561C344.657 164.561 344.62 164.562 344.581 164.562C344.359 164.566 344.142 164.57 343.919 164.581C342.968 164.571 342.028 164.775 341.167 165.177C337.756 166.962 338.724 171.981 339.653 175.725C343.87 192.751 335.912 211.331 322.467 222.525C309.022 233.72 290.978 238.234 273.488 238.076C269.159 238.033 264.835 237.747 260.537 237.219C257.805 236.892 255.09 236.481 252.393 235.984C252.228 251.446 256.743 266.6 265.341 279.446L265.672 279.329ZM371.883 177.717C371.804 176.981 371.145 176.448 370.411 176.526C369.676 176.605 369.146 177.266 369.225 178.002C372.144 205.121 360.28 233.393 338.909 250.246C338.329 250.703 338.229 251.546 338.686 252.128C339.143 252.71 339.983 252.811 340.564 252.354C362.658 234.93 374.9 205.754 371.883 177.717Z" fill="url(#paint2_linear_219_118)"/>
<path fill-rule="evenodd" clip-rule="evenodd" d="M233.389 211.391C248.905 204.076 258.46 186.213 256.846 169.092C255.225 151.982 243.012 136.532 227.088 130.155C211.164 123.779 192.221 126.326 177.985 135.891C163.75 145.456 154.325 161.574 151.976 178.603C151.521 181.904 151.272 185.339 151.022 188.788C150.211 199.985 149.389 211.323 141.476 218.683C135.359 224.374 127.015 225.687 118.56 227.018C112.494 227.973 106.371 228.937 100.973 231.532C86.895 238.303 80.333 254.877 78.3973 270.408C77.6717 276.231 77.4077 282.123 77.1442 288.01C76.7052 297.824 76.2661 307.621 73.6892 317.055C69.5659 332.146 57.6335 346.858 42.0233 347.144L40.2675 348.114C45.278 351.495 50.9727 353.721 56.9424 354.631C62.9113 355.541 69.0065 355.113 74.7879 353.377C80.5699 351.641 85.8935 348.64 90.3773 344.591C94.8602 340.542 98.3906 335.545 100.714 329.962C104.336 321.268 104.817 311.779 105.3 302.284C105.49 298.53 105.681 294.776 106.066 291.07C107.423 277.987 112.552 263.65 124.552 258.357C129.98 255.96 135.96 255.805 141.965 255.649C147.088 255.517 152.227 255.384 157.057 253.859C164.118 251.62 169.798 246.662 175.477 241.707C181.226 236.69 186.973 231.675 194.145 229.488C194.727 229.31 195.32 229.151 195.913 228.991C197.996 228.43 200.089 227.866 201.754 226.531C204.823 224.064 205.353 220.079 204.588 216.059C204.081 213.556 203.201 211.145 201.976 208.905C201.633 208.272 201.278 207.632 200.919 206.987C198.094 201.904 195.08 196.484 196.659 191.034L196.366 190.207C206.058 186.686 214.635 180.634 221.213 172.676C223.308 170.152 225.176 167.447 226.796 164.593L228.367 164.375C238.12 176.647 240.323 194.482 233.848 208.748C233.497 209.524 233.126 210.277 232.732 211.034L233.389 211.391ZM209.339 129.321C208.6 129.295 207.982 129.874 207.957 130.614C207.931 131.353 208.509 131.974 209.248 132C214.887 132.198 220.43 133.532 225.547 135.923C230.663 138.313 235.249 141.711 239.03 145.914C242.812 150.117 245.711 155.04 247.556 160.388C249.402 165.737 250.155 171.401 249.772 177.045C249.721 177.784 250.278 178.423 251.014 178.475C251.751 178.526 252.388 177.969 252.439 177.23C252.847 171.227 252.046 165.202 250.083 159.514C248.121 153.826 245.037 148.59 241.015 144.12C236.993 139.649 232.116 136.035 226.674 133.493C221.232 130.951 215.337 129.532 209.339 129.321Z" fill="#171717"/>
<path d="M435.295 715.069C432.411 717.554 429.508 720.02 426.587 722.464C421.815 726.464 411.904 733.106 406.775 725.686C401.83 718.522 411.96 708.591 416.404 703.917C428.189 691.534 439.978 679.151 451.77 666.767L451.78 666.773C456.233 666.506 460.634 667.851 464.184 670.564C467.733 673.276 470.193 677.176 471.117 681.552L471.742 682.216C459.858 693.471 447.71 704.422 435.295 715.069Z" fill="url(#paint3_linear_219_118)"/>
<path d="M331.417 654.598C331.914 660.216 332.41 665.833 332.907 671.451C333.044 672.107 332.943 672.791 332.621 673.379C332.08 674.109 331.024 674.138 330.126 674.09L320.435 673.64C319.949 673.614 319.914 673.476 319.654 673.061C319.649 673.035 319.651 672.998 319.646 672.971C319.246 667.863 318.804 662.756 318.32 657.652C317.857 652.592 317.347 647.537 316.788 642.489L317.17 642.444C326.041 642.184 334.867 641.098 343.537 639.202C351.702 651.558 363.697 660.878 377.667 665.72C369.311 667.664 360.738 669.612 352.237 668.501C343.736 667.389 335.163 662.563 332.05 654.541L331.417 654.598Z" fill="#171717"/>
<path d="M277.562 308.658L277.112 308.861C265.806 300.442 257.962 288.008 252.821 274.851C250.456 268.66 248.505 262.319 246.981 255.869C245.215 248.6 243.824 241.222 242.435 233.875C245.755 234.682 249.063 235.387 252.396 235.985C252.231 251.448 256.745 266.601 265.341 279.448L265.673 279.33C269.214 289.271 273.177 299.047 277.562 308.658Z" fill="#171717"/>
<path d="M246.981 255.868L245.291 256.271C242.678 246.344 236.848 237.484 228.744 230.448L228.803 230.236C233.363 231.561 237.898 232.8 242.438 233.874C243.824 241.224 245.218 248.599 246.981 255.868Z" fill="url(#paint4_linear_219_118)"/>
<path d="M245.288 256.273C246.491 260.841 246.985 265.566 246.754 270.283L246.419 270.429C243.494 263.299 238.241 258.04 230.709 256.399L230.304 256.13C231.558 254.091 231.445 251.229 231.03 248.743C229.935 241.48 227.193 234.564 223.015 228.528C224.948 229.107 226.877 229.677 228.8 230.238L228.741 230.45C236.845 237.485 242.675 246.346 245.288 256.273Z" fill="url(#paint5_linear_219_118)"/>
<path d="M318.142 657.667L318.32 657.651C318.809 662.752 319.251 667.859 319.646 672.971L318.932 673.034C306.423 654.756 287.47 641.897 266.192 635.892C244.996 629.986 222.428 631.539 202.25 640.292C205.431 636.749 208.626 633.216 211.835 629.691C212.113 629.384 212.398 629.075 212.676 628.768C230.866 620.497 252.213 620.376 271.498 625.632C290.868 630.909 306.602 641.197 318.142 657.667Z" fill="#171717"/>
<path d="M246.42 270.428L246.755 270.282C246.985 265.566 246.491 260.84 245.289 256.272L246.978 255.868C248.503 262.319 250.454 268.66 252.819 274.85C257.96 288.007 265.803 300.441 277.109 308.861L277.56 308.658C284.307 323.419 292.022 337.716 300.655 351.455C301.671 353.08 302.736 355.052 301.962 356.8C301.211 358.482 299.161 359.033 297.355 359.386L294.767 359.905C282.603 362.382 268.127 365.626 256.33 367.979L256.129 367.971C256.777 346.482 257.378 326.366 257.378 326.366L253.546 326.722L253.49 326.141L253.482 314.272L252.889 314.349L248.694 314.901L248.54 313.711C245.374 293.893 239.303 274.65 230.525 256.605L229.978 256.591C230.093 256.442 230.2 256.289 230.299 256.129L230.703 256.398C238.24 258.04 243.495 263.298 246.42 270.428Z" fill="url(#paint6_linear_219_118)"/>
<path d="M230.531 256.605C239.309 274.649 245.38 293.892 248.546 313.711L248.7 314.901L242.549 315.707L241.971 315.717L241.901 312.3L217.421 314.254L217.327 313.09C214.72 289.021 206.294 265.949 192.781 245.875L192.474 245.542C197.722 240.66 203.135 235.929 208.546 231.28C206.319 237.694 203.401 243.846 199.844 249.625C212.21 256.034 220.994 265.359 227.048 277.925L227.113 277.931C228.025 270.999 228.942 264.07 229.863 257.142L229.658 256.973C229.774 256.851 229.883 256.724 229.984 256.592L230.531 256.605Z" fill="url(#paint7_linear_219_118)"/>
<path d="M252.398 235.983C249.066 235.388 245.757 234.68 242.438 233.872C237.898 232.798 233.363 231.56 228.803 230.235C226.882 229.673 224.953 229.102 223.018 228.524L222.933 228.486C223.527 227.068 224.193 225.682 224.929 224.333C225.122 223.969 225.318 223.614 225.531 223.254L225.662 223.329C232.992 222.327 239.677 221.474 246.995 220.465C249.585 220.109 252.459 219.816 254.595 221.321C256.555 222.704 257.33 225.203 257.978 227.518C258.849 230.617 259.72 233.723 260.594 236.834L260.541 237.217C257.812 236.891 255.098 236.479 252.398 235.983Z" fill="#171717"/>
<path d="M229.204 257.402C229.367 257.271 229.52 257.126 229.66 256.97L229.865 257.14C228.951 264.073 228.035 271.002 227.115 277.929L227.05 277.923C220.996 265.357 212.214 256.031 199.846 249.623C203.403 243.844 206.321 237.692 208.548 231.278L208.618 231.074C210.653 238.111 213.409 244.918 216.841 251.388C218.124 253.691 219.612 255.991 221.829 257.397C224.047 258.803 227.183 259.079 229.204 257.402Z" fill="url(#paint8_linear_219_118)"/>
<path d="M186.621 251.156C176.783 260.858 167.834 271.274 161.021 283.047C160.025 279.321 159.359 275.516 159.03 271.674C158.698 267.767 159.421 263.843 161.125 260.316C163.193 256.356 166.765 253.439 170.344 250.795C182.29 241.978 194.588 235.342 207.641 228.286L207.779 228.25C208.048 229.19 208.328 230.138 208.615 231.074L208.545 231.278C203.133 235.927 197.722 240.659 192.474 245.541C190.494 247.388 188.536 249.254 186.621 251.156Z" fill="#171717"/>
<path d="M192.781 245.875C206.294 265.949 214.72 289.023 217.327 313.091L217.42 314.256L209.55 314.888L209.527 314.575C209.211 291.463 201.142 269.123 186.62 251.158C188.535 249.254 190.494 247.392 192.473 245.542L192.781 245.875Z" fill="#171717"/>
<path d="M201.027 641.492C170.301 620.712 130.401 614.172 94.7051 624.071L94.4568 623.863C99.9027 617.444 105.586 610.651 111.619 603.31C146.712 601.825 181.46 610.879 211.409 629.312L211.836 629.693C208.632 633.213 205.437 636.746 202.25 640.294C201.871 640.72 201.49 641.139 201.105 641.567L201.027 641.492Z" fill="#171717"/>
<path d="M113.855 500.454L113.813 500.47C105.202 504.947 96.1046 508.413 86.6993 510.802C82.676 505.905 77.5305 502.056 71.7035 499.587C65.8756 497.117 59.539 496.098 53.2362 496.618C62.8732 493.494 70.8757 485.255 80.9975 484.826C88.4179 484.498 95.2738 488.497 101.64 492.353C99.6456 486.638 97.6502 480.929 95.6529 475.227C99.1773 473.95 102.59 472.383 105.854 470.54L106.376 470.459C107.895 480.676 110.399 490.722 113.855 500.454Z" fill="#171717"/>
<path d="M30.8116 724.793L30.9718 724.916C66.0434 716.505 102.101 712.933 138.147 714.297C138.223 714.174 138.3 714.05 138.385 713.933C138.622 714.079 138.859 714.234 139.086 714.391L139.269 714.684C163.171 699.879 191.744 694.592 219.361 699.864C251.24 706.1 278.798 726.864 311.263 726.311L311.834 726.085C313.112 725.033 314.389 723.971 315.667 722.918L315.645 722.659C317.808 722.513 319.955 722.195 322.068 721.71C327.621 717.235 333.17 712.756 338.716 708.275L338.651 707.842C343.912 707.143 349.039 705.659 353.862 703.44L354.208 703.592C385.406 658.885 432.135 627.017 467.687 586.072L495.038 587.438L357.324 738.609L138.894 718.94L-4.08521 741.416L35.2443 700.765L35.1985 700.665C38.1652 699.432 41.2505 698.507 44.4056 697.905L44.4539 698.159C40.5248 704.782 28.7255 715.566 24.7883 722.191C28.1604 721.131 31.56 720.151 34.9862 719.251L35.0134 719.345C33.6054 721.16 32.2045 722.975 30.8116 724.793Z" fill="url(#paint9_linear_219_118)"/>
<path d="M220.793 241.502C220.17 237.082 221.194 232.639 222.926 228.489L222.935 228.487C223.529 227.069 224.195 225.684 224.93 224.335C225.124 223.971 225.32 223.616 225.532 223.256C227.841 219.133 230.552 215.217 232.73 211.036C233.124 210.279 233.495 209.527 233.847 208.75C240.321 194.485 238.119 176.649 228.365 164.377" stroke="#171717" stroke-width="2" stroke-linecap="round" stroke-linejoin="round"/>
<path d="M185.892 192.809C189.463 192.305 192.972 191.433 196.363 190.208C206.057 186.686 214.634 180.634 221.21 172.677C223.307 170.153 225.175 167.447 226.794 164.593C228.665 161.321 230.176 157.856 231.304 154.258" stroke="#171717" stroke-width="2" stroke-linecap="round" stroke-linejoin="round"/>
<path d="M233.389 211.392C248.905 204.076 258.461 186.214 256.847 169.093C255.233 151.972 243.027 136.53 227.094 130.154C211.161 123.777 192.225 126.324 177.991 135.889C163.756 145.455 154.33 161.572 151.981 178.601C150.049 192.621 151.831 209.054 141.481 218.681C130.977 228.456 113.901 225.317 100.978 231.531C86.9003 238.301 80.3465 254.874 78.4026 270.406C76.4587 285.938 77.825 301.951 73.6946 317.053C69.5641 332.155 57.6388 346.856 42.0287 347.142" stroke="#171717" stroke-width="2" stroke-linecap="round" stroke-linejoin="round"/>
<path d="M39.4259 347.528C39.7091 347.729 39.9905 347.921 40.272 348.113C45.2827 351.495 50.9774 353.721 56.947 354.631C62.916 355.541 69.0111 355.112 74.7924 353.376C80.5737 351.639 85.898 348.639 90.3811 344.59C94.8649 340.541 98.3953 335.544 100.719 329.96C105.769 317.834 104.718 304.15 106.07 291.068C107.422 277.986 112.556 263.648 124.557 258.356C134.616 253.914 146.571 257.173 157.061 253.857C171.27 249.354 179.893 233.835 194.15 229.487C196.773 228.687 199.618 228.246 201.759 226.53C204.828 224.063 205.358 220.078 204.593 216.057C204.086 213.555 203.205 211.143 201.981 208.904C198.934 203.28 194.88 197.175 196.663 191.033" stroke="#171717" stroke-width="2" stroke-linecap="round" stroke-linejoin="round"/>
<path d="M204.678 216.006L204.684 216.041C205.57 219.983 206.591 224.11 207.774 228.251C208.043 229.191 208.323 230.139 208.611 231.075C210.649 238.111 213.407 244.919 216.841 251.388C218.124 253.691 219.612 255.991 221.83 257.397C224.047 258.803 227.184 259.081 229.203 257.405C229.366 257.273 229.518 257.129 229.658 256.973C229.774 256.852 229.883 256.725 229.985 256.592C230.1 256.444 230.206 256.29 230.305 256.131C231.56 254.091 231.446 251.23 231.032 248.744C229.936 241.481 227.194 234.566 223.016 228.529" stroke="#171717" stroke-width="2" stroke-linecap="round" stroke-linejoin="round"/>
<path d="M223.015 228.527C224.948 229.106 226.877 229.676 228.8 230.238C233.36 231.563 237.895 232.801 242.435 233.875C245.754 234.682 249.062 235.387 252.396 235.985C255.094 236.482 257.809 236.893 260.54 237.22C264.838 237.748 269.163 238.034 273.492 238.077C290.982 238.235 309.025 233.721 322.47 222.527C335.915 211.332 343.873 192.752 339.656 175.726C338.727 171.982 337.759 166.963 341.17 165.178C342.032 164.776 342.972 164.572 343.922 164.582C344.183 164.569 344.436 164.566 344.699 164.562C352.64 164.398 360.583 164.24 368.526 164.088C369.584 164.068 370.65 164.047 371.708 164.029C373.83 163.979 376.158 164.009 377.764 165.397C379.751 167.119 379.8 170.139 379.664 172.766C378.654 192.832 376.532 213.538 366.823 231.113C357.139 248.635 340.263 261.722 321.325 268.116C302.386 274.509 282.094 274.539 262.76 269.411" stroke="#171717" stroke-width="2" stroke-linecap="round" stroke-linejoin="round"/>
<path d="M262.234 269.213C262.273 269.323 262.303 269.431 262.341 269.537C263.401 272.82 264.511 276.083 265.672 279.328C269.213 289.27 273.176 299.046 277.562 308.657C284.308 323.418 292.024 337.715 300.657 351.454C301.673 353.08 302.738 355.051 301.964 356.799C301.213 358.482 299.159 359.034 297.357 359.385L294.769 359.905C282.604 362.382 268.129 365.625 256.332 367.978" stroke="#171717" stroke-width="2" stroke-linecap="round" stroke-linejoin="round"/>
<path d="M208.6 231.232C208.584 231.244 208.561 231.266 208.545 231.278C203.133 235.927 197.722 240.659 192.474 245.541C190.494 247.39 188.536 249.254 186.621 251.156C176.783 260.858 167.834 271.274 161.021 283.047C154.443 294.328 150.163 306.807 148.429 319.762C147.595 325.638 147.159 331.565 147.122 337.501C147.09 341.2 147.191 344.889 147.422 348.568C148.478 366.001 152.125 383.173 155.991 400.213C156.613 402.96 157.499 406.047 159.996 407.347C160.45 407.582 160.936 407.748 161.44 407.836C163.046 408.05 164.679 407.965 166.253 407.584L192.838 402.72C193.896 402.57 194.93 402.282 195.913 401.863C196.421 401.636 196.884 401.316 197.276 400.921C199.343 398.818 198.521 395.354 197.632 392.537C196.51 388.976 195.51 385.382 194.629 381.756C192.891 374.633 191.62 367.403 190.821 360.114C189.804 350.976 189.516 341.773 189.959 332.591C190.216 327.075 190.741 321.585 191.535 316.12C193.141 304.933 195.856 293.934 199.641 283.29" stroke="#171717" stroke-width="2" stroke-linecap="round" stroke-linejoin="round"/>
<path d="M207.728 420.449L208.182 420.446C228.654 420.118 241.359 419.867 248.174 419.599C252.54 419.424 254.493 419.252 254.519 419.048C254.591 418.524 255.395 392.366 256.134 367.967C256.783 346.479 257.384 326.363 257.384 326.363L253.551 326.719L251.394 326.919L242.241 327.768L190.281 332.601" stroke="#171717" stroke-width="2" stroke-linecap="round" stroke-linejoin="round"/>
<path d="M146.496 337.501L138.293 338.097L128.767 402.914L126.01 421.657C126.01 421.657 133.305 421.661 163.37 421.184" stroke="#171717" stroke-width="2" stroke-linecap="round" stroke-linejoin="round"/>
<path d="M248.161 419.295L251.394 326.922L251.393 326.868" stroke="#171717" stroke-width="2" stroke-linecap="round" stroke-linejoin="round"/>
<path d="M253.495 326.141L253.487 314.272L252.894 314.349L248.7 314.901L242.55 315.706" stroke="#171717" stroke-width="2" stroke-linecap="round" stroke-linejoin="round"/>
<path d="M242.202 327.333L242.004 317.274L241.971 315.717L241.902 312.3L217.421 314.254L209.551 314.886L192.397 316.256" stroke="#171717" stroke-width="2" stroke-linecap="round" stroke-linejoin="round"/>
<path d="M147.58 319.638L137.579 320.895L124.073 403.078L128.516 402.879" stroke="#171717" stroke-width="2" stroke-linecap="round" stroke-linejoin="round"/>
<path d="M242.719 316.693C242.683 316.883 242.668 317.074 242.675 317.266C242.724 318.104 243.036 318.905 243.567 319.555C244.097 320.204 244.82 320.668 245.629 320.88C246.546 321.07 247.496 321.016 248.385 320.726C249.274 320.435 250.073 319.917 250.702 319.222C251.909 317.859 252.674 316.159 252.895 314.348C252.909 314.289 252.919 314.23 252.925 314.169" stroke="#171717" stroke-width="2" stroke-linecap="round" stroke-linejoin="round"/>
<path d="M194.916 381.689C198.243 381.156 200.867 378.21 201.666 374.92C202.464 371.631 201.67 368.125 200.152 365.103C199.334 363.303 198.054 361.754 196.442 360.615C195.629 360.057 194.687 359.719 193.706 359.631C192.725 359.543 191.739 359.71 190.841 360.115" stroke="#171717" stroke-width="2" stroke-linecap="round" stroke-linejoin="round"/>
<path d="M294.799 360.028C306.954 376.916 319.105 393.807 331.254 410.699C331.844 411.511 332.462 412.471 332.238 413.449C331.939 414.789 330.337 415.285 328.99 415.549C324.76 416.391 320.55 417.301 316.358 418.279C301.122 421.822 286.088 426.181 271.145 430.833C267.041 432.096 262.955 433.392 258.864 434.696C255.205 435.866 251.549 437.037 247.895 438.21C237.731 441.471 227.565 444.735 217.395 448.003C211.343 449.945 205.294 451.887 199.247 453.828C198.503 445.235 198.848 436.585 200.274 428.083" stroke="#171717" stroke-width="2" stroke-linecap="round" stroke-linejoin="round"/>
<path d="M161.456 407.539C161.449 407.641 161.439 407.734 161.44 407.833C161.117 412.355 161.886 416.889 163.681 421.051C165.066 424.32 167.064 427.293 169.564 429.81C171.938 432.196 174.993 434.226 178.357 434.221C181.721 434.217 185.024 430.598 184.802 427.238C185.938 429.871 188.858 432.589 191.723 432.626C194.587 432.664 199.302 430.558 196.819 424.508C197.606 426.001 198.825 427.221 200.314 428.009C201.791 428.935 203.489 429.446 205.23 429.485C207.813 429.34 211.273 428.354 211.38 425.768C211.477 423.612 209.894 421.867 208.182 420.447C207.88 420.196 207.571 419.953 207.275 419.718C205.363 418.245 203.45 416.768 201.536 415.289C199.475 413.707 197.42 412.124 195.372 410.54" stroke="#171717" stroke-width="2" stroke-linecap="round" stroke-linejoin="round"/>
<path d="M195.507 401.729C195.641 401.767 195.778 401.814 195.916 401.861C201.457 403.665 206.606 406.51 211.089 410.245C212.017 411.023 213.013 412.162 212.585 413.299C212.181 414.403 210.773 414.644 209.6 414.722C206.927 414.883 204.257 415.052 201.587 415.227" stroke="#171717" stroke-width="2" stroke-linecap="round" stroke-linejoin="round"/>
<path d="M106.348 470.274C106.36 470.335 106.363 470.399 106.374 470.46C109.255 489.852 115.683 508.547 125.333 525.605C130.097 534.016 135.7 542.061 142.865 548.548C145.427 550.876 148.199 552.961 151.143 554.779C156.396 558.107 162.281 560.306 168.424 561.234C184.499 563.491 200.942 555.233 210.984 542.453C216.296 535.549 220.169 527.642 222.372 519.204C224.325 511.88 225.331 504.333 225.368 496.75C225.511 480.475 221.875 464.406 217.618 448.697" stroke="#171717" stroke-width="2" stroke-linecap="round" stroke-linejoin="round"/>
<path d="M86.3191 511.284C94.1301 533.285 106.559 554.042 124.423 569.046C127.363 571.516 130.448 573.805 133.663 575.903C150.03 586.616 169.713 592.388 189.054 590.165C208.899 587.874 227.433 577.21 240.315 561.908C248.379 552.199 254.371 540.934 257.921 528.808C260.04 521.686 261.37 514.35 261.887 506.933C263.568 482.855 257.017 458.761 258.862 434.697C258.87 434.64 258.868 434.578 258.875 434.522" stroke="#171717" stroke-width="2" stroke-linecap="round" stroke-linejoin="round"/>
<path d="M86.9468 511.109L86.6979 510.802C82.6745 505.905 77.529 502.057 71.7021 499.587C65.8742 497.117 59.5375 496.098 53.2347 496.618C62.8717 493.494 70.8743 485.255 80.996 484.826C88.4164 484.498 95.2723 488.497 101.638 492.353C99.6442 486.638 97.6488 480.93 95.6514 475.227C99.1759 473.951 102.588 472.383 105.853 470.54" stroke="#171717" stroke-width="2" stroke-linecap="round" stroke-linejoin="round"/>
<path d="M271.01 430.412C271.054 430.55 271.1 430.696 271.144 430.833C282.741 466.178 292.421 502.124 300.143 538.514C307.452 572.868 313.007 607.571 316.785 642.488C317.337 647.541 317.847 652.596 318.317 657.651C318.807 662.752 319.249 667.859 319.643 672.971C319.648 672.997 319.646 673.034 319.651 673.06" stroke="#171717" stroke-width="2" stroke-linecap="round" stroke-linejoin="round"/>
<path d="M316.249 417.918C316.282 418.039 316.323 418.158 316.356 418.283C325.678 450.486 332.678 483.317 337.303 516.524C342.976 557.112 345.086 598.118 343.608 639.07" stroke="#171717" stroke-width="2" stroke-linecap="round" stroke-linejoin="round"/>
<path d="M343.346 638.917L343.537 639.208C351.703 651.564 363.697 660.884 377.668 665.726C369.312 667.67 360.739 669.618 352.238 668.507C343.737 667.395 335.162 662.563 332.049 654.541" stroke="#171717" stroke-width="2" stroke-linecap="round" stroke-linejoin="round"/>
<path d="M331.379 654.206C331.395 654.339 331.4 654.465 331.417 654.599C331.914 660.217 332.41 665.834 332.907 671.452C333.044 672.109 332.943 672.792 332.621 673.38C332.08 674.11 331.024 674.139 330.126 674.091L320.435 673.641C319.95 673.615 319.914 673.477 319.654 673.062" stroke="#171717" stroke-width="2" stroke-linecap="round" stroke-linejoin="round"/>
<path d="M86.0016 510.98C86.077 510.965 86.1522 510.944 86.2258 510.919L86.7024 510.801C96.107 508.413 105.204 504.947 113.816 500.47" stroke="#171717" stroke-width="2" stroke-linecap="round" stroke-linejoin="round"/>
<path d="M317.172 642.444C326.043 642.184 334.869 641.098 343.539 639.202L343.757 639.16" stroke="#171717" stroke-width="2" stroke-linecap="round" stroke-linejoin="round"/>
<path d="M343.922 164.478C340.041 163.579 335.888 162.531 333.274 159.518C332.424 158.532 331.762 157.149 332.289 155.957C332.508 155.543 332.824 155.189 333.211 154.927C333.597 154.665 334.042 154.502 334.507 154.453C335.437 154.365 336.376 154.432 337.284 154.652C340.329 155.21 343.378 155.774 346.431 156.343" stroke="#171717" stroke-width="2" stroke-linecap="round" stroke-linejoin="round"/>
<path d="M368.526 163.838C369.239 153.305 369.034 142.728 367.912 132.229C367.862 131.04 367.571 129.873 367.06 128.799C366.793 128.269 366.381 127.826 365.871 127.524C365.362 127.221 364.778 127.07 364.186 127.089C363.68 127.183 363.207 127.404 362.809 127.731C362.412 128.058 362.103 128.48 361.911 128.959C361.536 129.917 361.333 130.935 361.313 131.966C361.159 133.923 361.042 135.883 360.962 137.845C360.722 143.075 360.715 148.313 360.938 153.558" stroke="#171717" stroke-width="2" stroke-linecap="round" stroke-linejoin="round"/>
<path d="M360.842 137.838C360.713 135.05 359.885 132.339 358.436 129.955C358.143 129.371 357.665 128.902 357.076 128.621C356.605 128.512 356.111 128.565 355.673 128.77C355.235 128.975 354.879 129.321 354.661 129.754C354.26 130.638 354.075 131.605 354.122 132.576C354.061 134.971 354.073 137.37 354.173 139.761C354.361 144.715 354.887 149.651 355.749 154.533" stroke="#171717" stroke-width="2" stroke-linecap="round" stroke-linejoin="round"/>
<path d="M354.061 139.765C353.355 136.597 351.982 133.618 350.032 131.026C349.193 129.903 348.064 128.782 346.666 128.828C346.102 128.89 345.564 129.1 345.108 129.438C344.651 129.776 344.292 130.228 344.067 130.751C343.626 131.798 343.412 132.927 343.437 134.063C343.151 141.576 344.852 148.993 346.561 156.309L346.572 156.37C346.687 156.211 346.811 156.052 346.935 155.892" stroke="#171717" stroke-width="2" stroke-linecap="round" stroke-linejoin="round"/>
<path d="M229.798 183.441C229.467 182.896 229.014 182.435 228.475 182.096C227.936 181.756 227.326 181.548 226.692 181.487C226.058 181.425 225.42 181.512 224.826 181.742C224.233 181.971 223.701 182.337 223.274 182.808" stroke="#171717" stroke-width="2" stroke-linecap="round" stroke-linejoin="round"/>
<path d="M221.116 172.704C221.151 172.697 221.176 172.683 221.211 172.677C223.676 171.964 226.221 171.566 228.786 171.491" stroke="#171717" stroke-width="2" stroke-linecap="round" stroke-linejoin="round"/>
<path d="M212.867 184.268C212.621 183.823 212.243 183.465 211.784 183.244C211.326 183.024 210.812 182.951 210.311 183.036" stroke="#171717" stroke-width="2" stroke-linecap="round" stroke-linejoin="round"/>
<path d="M218.228 183.986C218.439 185.742 219.07 187.423 220.067 188.885C220.617 189.583 221.11 190.326 221.541 191.105C221.751 191.497 221.862 191.934 221.866 192.378C221.871 192.822 221.767 193.261 221.565 193.657C221.455 193.845 221.306 194.009 221.128 194.135C220.949 194.261 220.747 194.348 220.532 194.39C220.318 194.431 220.097 194.427 219.885 194.377C219.672 194.325 219.473 194.23 219.3 194.097" stroke="#171717" stroke-width="2" stroke-linecap="round" stroke-linejoin="round"/>
<path d="M215.954 206.038C215.587 206.415 215.129 206.69 214.625 206.836C214.12 206.984 213.586 206.998 213.075 206.877C212.595 206.759 212.162 206.498 211.833 206.129C211.503 205.76 211.294 205.299 211.23 204.808" stroke="#171717" stroke-width="2" stroke-linecap="round" stroke-linejoin="round"/>
<path d="M467.625 586.065L467.69 586.071L495.041 587.437L357.324 738.609L138.894 718.94L-4.08524 741.416L35.2406 700.765" stroke="#171717" stroke-width="2" stroke-linecap="round" stroke-linejoin="round"/>
<path d="M299.841 538.582C294.577 543.713 289.342 548.871 284.136 554.057C259.719 578.383 235.899 603.287 212.676 628.769C212.398 629.076 212.112 629.385 211.835 629.693C208.632 633.213 205.436 636.746 202.25 640.294C201.871 640.72 201.489 641.139 201.105 641.567C184.396 660.206 168.016 679.132 151.966 698.345C148.058 703.027 144.166 707.726 140.287 712.444L139.353 713.587C139.659 713.291 139.977 713.006 140.294 712.715" stroke="#171717" stroke-width="2" stroke-linecap="round" stroke-linejoin="round"/>
<path d="M138.078 714.41C138.098 714.37 138.128 714.337 138.148 714.297C138.223 714.174 138.299 714.05 138.385 713.933C138.544 713.667 138.712 713.409 138.88 713.146C142.508 707.606 146.915 702.621 151.965 698.343C158.934 692.457 166.785 687.707 175.229 684.268C190.196 678.075 206.453 675.566 222.627 674.619C241.796 673.493 261.865 674.716 278.682 684.025C288.738 689.589 297.186 697.816 307.501 702.885C317.179 707.566 328.014 709.289 338.656 707.84C343.917 707.139 349.044 705.656 353.867 703.438" stroke="#171717" stroke-width="2" stroke-linecap="round" stroke-linejoin="round"/>
<path d="M354.211 703.592C385.408 658.884 432.137 627.017 467.689 586.072C475.306 577.391 482.296 568.177 488.604 558.5" stroke="#171717" stroke-width="2" stroke-linecap="round" stroke-linejoin="round"/>
<path d="M488.095 557.624C470.946 557.974 452.301 557.845 438.719 547.329C430.444 540.926 425.162 531.416 417.632 524.152C407.389 514.266 393.239 508.97 379.052 508.148C364.864 507.326 350.656 510.737 337.652 516.475" stroke="#171717" stroke-width="2" stroke-linecap="round" stroke-linejoin="round"/>
<path d="M283.676 553.59C278.283 542.537 269.158 533.757 257.924 528.807C257.883 528.787 257.854 528.775 257.813 528.75" stroke="#171717" stroke-width="2" stroke-linecap="round" stroke-linejoin="round"/>
<path d="M183.185 521.999C171.639 535.072 163.611 542.557 151.156 554.758" stroke="#171717" stroke-width="2" stroke-linecap="round" stroke-linejoin="round"/>
<path d="M133.509 576.141C125.662 586.056 118.424 595.027 111.618 603.307C105.585 610.649 99.9025 617.441 94.4566 623.861C66.6864 656.593 44.9417 679.71 14.2784 715.975C14.2333 716.021 14.1909 716.068 14.1519 716.118" stroke="#171717" stroke-width="2" stroke-linecap="round" stroke-linejoin="round"/>
<path d="M13.8395 716.387C13.9855 716.25 14.1299 716.101 14.2781 715.975C22.7412 707.918 28.7218 703.406 35.1945 700.666C38.1611 699.431 41.2456 698.507 44.4014 697.905C49.9113 696.784 56.3957 696.206 65.0397 695.443C90.6596 693.287 116.281 699.681 137.921 713.629C138.075 713.727 138.23 713.825 138.386 713.932C138.622 714.078 138.861 714.233 139.087 714.39" stroke="#171717" stroke-width="2" stroke-linecap="round" stroke-linejoin="round"/>
<path d="M44.4502 698.159C40.5212 704.783 28.7218 715.567 24.7846 722.192" stroke="#171717" stroke-width="2" stroke-linecap="round" stroke-linejoin="round"/>
<path d="M24.7842 722.192C28.1563 721.132 31.5558 720.152 34.9821 719.251C68.3056 710.422 103.102 708.635 137.166 714.001C137.466 714.053 137.764 714.096 138.064 714.148" stroke="#171717" stroke-width="2" stroke-linecap="round" stroke-linejoin="round"/>
<path d="M137.057 714.058C137.095 714.043 137.13 714.024 137.164 714.001C137.413 713.877 137.67 713.751 137.919 713.627C138.241 713.466 138.556 713.306 138.879 713.144C139.351 712.909 139.815 712.675 140.287 712.44C154.961 705.138 169.93 698.236 185.768 694.05C202.765 689.563 220.982 688.345 237.868 693.294C252.467 697.567 265.351 706.178 278.958 713.004C290.607 718.839 303.021 723.546 315.649 722.654C317.812 722.508 319.959 722.19 322.072 721.705" stroke="#171717" stroke-width="2" stroke-linecap="round" stroke-linejoin="round"/>
<path d="M322.073 721.709C327.626 717.233 333.175 712.755 338.721 708.274" stroke="#171717" stroke-width="2" stroke-linecap="round" stroke-linejoin="round"/>
<path d="M139.013 714.842C139.102 714.789 139.183 714.737 139.273 714.683C163.174 699.878 191.748 694.591 219.364 699.863C251.243 706.099 278.801 726.864 311.267 726.311" stroke="#171717" stroke-width="2" stroke-linecap="round" stroke-linejoin="round"/>
<path d="M311.841 726.084C313.119 725.031 314.395 723.969 315.674 722.917" stroke="#171717" stroke-width="2" stroke-linecap="round" stroke-linejoin="round"/>
<path d="M138.668 714.316C138.495 714.313 138.32 714.301 138.147 714.298C102.102 712.933 66.0441 716.505 30.9719 724.917" stroke="#171717" stroke-width="2" stroke-linecap="round" stroke-linejoin="round"/>
<path d="M30.6514 724.996C30.7004 724.923 30.7608 724.857 30.8115 724.793C32.2053 722.972 33.6047 721.157 35.0097 719.347" stroke="#171717" stroke-width="2" stroke-linecap="round" stroke-linejoin="round"/>
<path d="M208.628 231.045C208.621 231.055 208.623 231.064 208.615 231.074L208.545 231.278C206.319 237.693 203.401 243.844 199.844 249.624" stroke="#171717" stroke-width="2" stroke-linecap="round" stroke-linejoin="round"/>
<path d="M199.844 249.624C212.209 256.031 220.994 265.358 227.048 277.923" stroke="#171717" stroke-width="2" stroke-linecap="round" stroke-linejoin="round"/>
<path d="M227.08 278.19C227.092 278.106 227.101 278.013 227.113 277.93C228.025 270.997 228.942 264.068 229.863 257.141" stroke="#171717" stroke-width="2" stroke-linecap="round" stroke-linejoin="round"/>
<path d="M230.71 256.397C238.24 258.04 243.496 263.298 246.421 270.428C246.456 270.497 246.487 270.568 246.516 270.641" stroke="#171717" stroke-width="2" stroke-linecap="round" stroke-linejoin="round"/>
<path d="M246.755 270.283C246.985 265.566 246.491 260.841 245.289 256.273C242.675 246.346 236.846 237.485 228.741 230.449" stroke="#171717" stroke-width="2" stroke-linecap="round" stroke-linejoin="round"/>
<path d="M192.781 245.874C206.294 265.949 214.72 289.022 217.327 313.091" stroke="#171717" stroke-width="2" stroke-linecap="round" stroke-linejoin="round"/>
<path d="M209.527 314.572C209.212 291.461 201.142 269.122 186.621 251.155C186.61 251.148 186.607 251.13 186.596 251.123" stroke="#171717" stroke-width="2" stroke-linecap="round" stroke-linejoin="round"/>
<path d="M242.431 233.849L242.436 233.875C243.824 241.224 245.217 248.6 246.98 255.869C248.506 262.318 250.456 268.66 252.821 274.851C257.962 288.008 265.805 300.442 277.112 308.861" stroke="#171717" stroke-width="2" stroke-linecap="round" stroke-linejoin="round"/>
<path d="M252.396 235.838C252.395 235.884 252.397 235.938 252.396 235.984C252.23 251.446 256.744 266.6 265.341 279.447" stroke="#171717" stroke-width="2" stroke-linecap="round" stroke-linejoin="round"/>
<path d="M260.595 236.835C259.722 233.727 258.85 230.621 257.978 227.518C257.329 225.204 256.555 222.707 254.595 221.321C252.46 219.817 249.585 220.109 246.995 220.466C239.677 221.472 232.99 222.328 225.663 223.33" stroke="#171717" stroke-width="2" stroke-linecap="round" stroke-linejoin="round"/>
<path d="M161.054 283.171C161.048 283.13 161.037 283.089 161.022 283.049C160.026 279.325 159.36 275.519 159.031 271.676C158.698 267.77 159.422 263.846 161.125 260.318C163.194 256.359 166.766 253.442 170.345 250.797C182.291 241.98 194.589 235.345 207.641 228.288" stroke="#171717" stroke-width="2" stroke-linecap="round" stroke-linejoin="round"/>
<path d="M221.501 518.969C208.647 518.02 195.727 519.041 183.185 521.999" stroke="#171717" stroke-width="2" stroke-linecap="round" stroke-linejoin="round"/>
<path d="M318.931 673.035C306.422 654.757 287.469 641.898 266.191 635.893C244.995 629.986 222.427 631.539 202.249 640.293C201.965 640.411 201.688 640.536 201.404 640.663" stroke="#171717" stroke-width="2" stroke-linecap="round" stroke-linejoin="round"/>
<path d="M318.142 657.667C306.602 641.197 290.868 630.909 271.498 625.633C252.213 620.378 230.867 620.5 212.676 628.769L212.464 628.864" stroke="#171717" stroke-width="2" stroke-linecap="round" stroke-linejoin="round"/>
<path d="M201.027 641.492C170.301 620.712 130.401 614.173 94.7054 624.071" stroke="#171717" stroke-width="2" stroke-linecap="round" stroke-linejoin="round"/>
<path d="M211.408 629.309C181.46 610.877 146.713 601.822 111.62 603.306C111.54 603.312 111.457 603.309 111.377 603.315" stroke="#171717" stroke-width="2" stroke-linecap="round" stroke-linejoin="round"/>
<path d="M451.769 666.767C439.983 679.149 428.195 691.533 416.403 703.918C411.959 708.592 401.827 718.523 406.774 725.686C411.904 733.104 421.819 726.464 426.587 722.465C429.505 720.018 432.408 717.552 435.294 715.069C447.71 704.423 459.859 693.471 471.74 682.216C487.885 666.949 503.51 651.156 518.613 634.838C533.639 618.61 548.257 601.704 558.854 582.262C561.027 578.283 562.998 573.288 560.614 569.43C558.465 565.954 553.502 565.178 549.67 566.589C545.838 568 542.883 571.055 540.07 574.009C510.63 604.93 481.196 635.849 451.769 666.767Z" stroke="#171717" stroke-width="2" stroke-linecap="round" stroke-linejoin="round"/>
<path d="M426.431 708.669C428.515 711.538 431.417 713.706 434.754 714.887C438.09 716.069 441.705 716.208 445.12 715.285C450.372 713.759 454.532 709.83 458.481 706.032L505.176 661.069" stroke="#171717" stroke-width="2" stroke-linecap="round" stroke-linejoin="round"/>
<path d="M471.117 681.553C470.194 677.176 467.733 673.277 464.184 670.564C460.635 667.852 456.233 666.506 451.781 666.774" stroke="#171717" stroke-width="2" stroke-linecap="round" stroke-linejoin="round"/>
<path d="M230.531 256.604C239.309 274.648 245.38 293.892 248.545 313.71" stroke="#171717" stroke-width="2" stroke-miterlimit="10"/>
<path d="M437.998 235.042C415.489 242.172 396.982 260.421 388.668 282.572C380.354 304.722 382.12 330.289 392.601 351.516C397.605 361.653 404.748 371.061 414.506 376.729C424.265 382.398 436.908 383.794 446.838 378.453C456.768 373.112 462.704 360.325 458.62 349.785C457.434 346.726 455.53 343.998 453.068 341.833C450.606 339.668 447.66 338.131 444.48 337.352C441.301 336.572 437.981 336.574 434.804 337.357C431.626 338.14 428.686 339.68 426.231 341.848C417.026 349.977 417.123 365.023 422.9 375.888C428.677 386.752 438.744 394.532 448.208 402.375C457.673 410.218 467.198 419.001 471.118 430.668C475.038 442.335 471.171 457.51 459.832 462.211" stroke="url(#paint10_linear_219_118)" stroke-width="2" stroke-linecap="round" stroke-linejoin="round"/>
<path d="M-2.12768 457.981C-11.2007 441.982 -20.2533 425.582 -23.9905 407.568C-27.7277 389.554 -25.4171 369.376 -13.6645 355.265C-7.79617 348.22 0.090803 343.024 5.60462 335.693C9.15759 330.9 11.6011 325.373 12.7573 319.512C13.9127 313.652 13.7527 307.605 12.2879 301.812C10.2332 293.934 4.25999 285.89 -3.85693 285.96C-9.77509 286.007 -14.9388 290.568 -17.3404 295.988C-21.4675 305.301 -18.0975 317.338 -9.73618 323.149C-1.37489 328.96 11.0452 327.893 18.2878 320.746C26.7232 312.421 27.1078 298.679 23.6443 287.321C17.525 267.255 0.710607 250.809 -19.4481 245.177" stroke="url(#paint11_linear_219_118)" stroke-width="2" stroke-linecap="round" stroke-linejoin="round"/>
<path d="M46.843 423.371L28.4961 407.58" stroke="url(#paint12_linear_219_118)" stroke-width="2" stroke-linecap="round" stroke-linejoin="round"/>
<path d="M30.2293 426.853C33.6776 418.073 37.9542 409.643 43.0012 401.68" stroke="url(#paint13_linear_219_118)" stroke-width="2" stroke-linecap="round" stroke-linejoin="round"/>
<path d="M163.553 116.416L150.42 108.008" stroke="url(#paint14_linear_219_118)" stroke-width="2" stroke-linecap="round" stroke-linejoin="round"/>
<path d="M152.287 122.106C154.65 114.675 157.013 107.244 159.377 99.8132" stroke="url(#paint15_linear_219_118)" stroke-width="2" stroke-linecap="round" stroke-linejoin="round"/>
<path d="M409.092 151.131L401.146 143.012" stroke="url(#paint16_linear_219_118)" stroke-width="2" stroke-linecap="round" stroke-linejoin="round"/>
<path d="M399.953 154.056L409.13 141.453" stroke="url(#paint17_linear_219_118)" stroke-width="2" stroke-linecap="round" stroke-linejoin="round"/>
<path d="M337.426 303.55L325.943 293.509" stroke="url(#paint18_linear_219_118)" stroke-width="2" stroke-linecap="round" stroke-linejoin="round"/>
<path d="M243.512 125.475L252.304 94.2689" stroke="#171717" stroke-width="2" stroke-linecap="round" stroke-linejoin="round"/>
<path d="M251.841 132.237L263.61 126.789" stroke="#171717" stroke-width="2" stroke-linecap="round" stroke-linejoin="round"/>
<path d="M231.83 121.275L223.47 104.246" stroke="#171717" stroke-width="2" stroke-linecap="round" stroke-linejoin="round"/>
<path d="M427.341 317.806L438.843 300.851" stroke="#171717" stroke-width="2" stroke-linecap="round" stroke-linejoin="round"/>
<path d="M424.395 302.316L440.699 313.983" stroke="#171717" stroke-width="2" stroke-linecap="round" stroke-linejoin="round"/>
<path d="M385.886 483.634L382.035 362.376" stroke="#171717" stroke-width="2" stroke-linecap="round" stroke-linejoin="round"/>
<path d="M400.394 489.222L417.425 460.944" stroke="#171717" stroke-width="2" stroke-linecap="round" stroke-linejoin="round"/>
<path d="M366.14 484.177L351.865 452.864" stroke="#171717" stroke-width="2" stroke-linecap="round" stroke-linejoin="round"/>
<path d="M326.68 304.281L336.683 292.78" stroke="url(#paint19_linear_219_118)" stroke-width="2" stroke-linecap="round" stroke-linejoin="round"/>
<path d="M54.3908 213.95L64.5303 209.507L59.7136 219.494L67.0715 227.793L56.1046 226.278L50.5133 235.85L48.5511 224.925L37.7379 222.542L47.4924 217.306L46.4002 206.26L54.3908 213.95Z" fill="#171717"/>
<path d="M301.844 188.333L311.634 191.291L302.284 195.424L302.514 205.672L295.695 198.029L286.046 201.405L291.182 192.548L284.988 184.386L294.982 186.556L300.803 178.137L301.844 188.333Z" stroke="#171717" stroke-width="2" stroke-linecap="round" stroke-linejoin="round"/>
<path fill-rule="evenodd" clip-rule="evenodd" d="M271.144 430.833C286.086 426.182 301.121 421.822 316.357 418.28C320.547 417.301 324.757 416.391 328.987 415.551C330.334 415.286 331.936 414.791 332.235 413.451C332.459 412.473 331.841 411.512 331.251 410.7C319.102 393.808 306.95 376.917 294.796 360.029L294.772 359.906C289.163 361.048 283.062 362.353 276.959 363.658C269.828 365.185 262.692 366.711 256.335 367.979L256.134 367.971C255.395 392.37 254.591 418.528 254.519 419.051C254.493 419.256 252.54 419.428 248.174 419.603C241.359 419.87 228.654 420.122 208.181 420.449C209.894 421.87 211.477 423.614 211.379 425.771C211.272 428.356 207.812 429.341 205.229 429.487C203.488 429.447 201.791 428.938 200.314 428.011L200.273 428.083C198.846 436.585 198.502 445.236 199.246 453.828C205.292 451.887 211.341 449.945 217.394 448.003C227.563 444.735 237.73 441.471 247.893 438.211C251.547 437.038 255.204 435.866 258.862 434.697C262.953 433.392 267.039 432.096 271.144 430.833ZM291.142 367.884C290.699 367.291 289.861 367.169 289.271 367.612C288.679 368.055 288.559 368.894 289.001 369.488C298.73 382.538 308.201 395.771 317.414 409.188C317.832 409.798 318.665 409.953 319.273 409.533C319.88 409.114 320.034 408.28 319.615 407.67C310.383 394.224 300.892 380.963 291.142 367.884Z" fill="#171717"/>
<path d="M231.778 439.744L260.188 463.449" stroke="#171717" stroke-width="2" stroke-linecap="round" stroke-linejoin="round"/>
<path d="M217.734 446.695L261.919 490.513" stroke="#171717" stroke-width="2" stroke-linecap="round" stroke-linejoin="round"/>
<path d="M222.211 470.242L262.08 509.317" stroke="#171717" stroke-width="2" stroke-linecap="round" stroke-linejoin="round"/>
<path d="M224.826 499.708L257.613 530.712" stroke="#171717" stroke-width="2" stroke-linecap="round" stroke-linejoin="round"/>
<path d="M221.458 526.886L248.044 552.221" stroke="#171717" stroke-width="2" stroke-linecap="round" stroke-linejoin="round"/>
<path d="M211.378 541.216L238.886 564.663" stroke="#171717" stroke-width="2" stroke-linecap="round" stroke-linejoin="round"/>
<path d="M199.846 552.397L224.627 577.219" stroke="#171717" stroke-width="2" stroke-linecap="round" stroke-linejoin="round"/>
<path d="M185.134 560.332L206.542 585.368" stroke="#171717" stroke-width="2" stroke-linecap="round" stroke-linejoin="round"/>
<path d="M165.479 560.216L189.065 589.974" stroke="#171717" stroke-width="2" stroke-linecap="round" stroke-linejoin="round"/>
<path d="M143.447 549.852L171.056 589.546" stroke="#171717" stroke-width="2" stroke-linecap="round" stroke-linejoin="round"/>
<path d="M104.871 504.111L155.46 586.091" stroke="#171717" stroke-width="2" stroke-linecap="round" stroke-linejoin="round"/>
<path d="M93.9849 507.466L133.683 574.823" stroke="#171717" stroke-width="2" stroke-linecap="round" stroke-linejoin="round"/>
<path d="M297.156 422.176L321.505 440.232" stroke="#171717" stroke-width="2" stroke-linecap="round" stroke-linejoin="round"/>
<path d="M277.403 423.792L328.355 465.039" stroke="#171717" stroke-width="2" stroke-linecap="round" stroke-linejoin="round"/>
<path d="M274.7 440.999L333.54 492.303" stroke="#171717" stroke-width="2" stroke-linecap="round" stroke-linejoin="round"/>
<path d="M283.239 470.194L337.665 518.485" stroke="#171717" stroke-width="2" stroke-linecap="round" stroke-linejoin="round"/>
<path d="M291.662 503.263L340.045 546.711" stroke="#171717" stroke-width="2" stroke-linecap="round" stroke-linejoin="round"/>
<path d="M298.728 531.454L342.481 568.506" stroke="#171717" stroke-width="2" stroke-linecap="round" stroke-linejoin="round"/>
<path d="M304.659 558.149L343.016 591.519" stroke="#171717" stroke-width="2" stroke-linecap="round" stroke-linejoin="round"/>
<path d="M307.9 581.93L343.629 614.943" stroke="#171717" stroke-width="2" stroke-linecap="round" stroke-linejoin="round"/>
<path d="M311.849 609.43L342.966 633.903" stroke="#171717" stroke-width="2" stroke-linecap="round" stroke-linejoin="round"/>
<path d="M302.648 415.14L281.57 463.663" stroke="#171717" stroke-width="2" stroke-linecap="round" stroke-linejoin="round"/>
<path d="M318.579 427.091L291.051 497.815" stroke="#171717" stroke-width="2" stroke-linecap="round" stroke-linejoin="round"/>
<path d="M327.296 463.956L298.277 526.831" stroke="#171717" stroke-width="2" stroke-linecap="round" stroke-linejoin="round"/>
<path d="M334.835 494.626L304.659 558.149" stroke="#171717" stroke-width="2" stroke-linecap="round" stroke-linejoin="round"/>
<path d="M340.178 531.704L310.511 593.418" stroke="#171717" stroke-width="2" stroke-linecap="round" stroke-linejoin="round"/>
<path d="M343.286 570.494L316.502 631.659" stroke="#171717" stroke-width="2" stroke-linecap="round" stroke-linejoin="round"/>
<path d="M237.878 438.156L226.062 499.472" stroke="#171717" stroke-width="2" stroke-linecap="round" stroke-linejoin="round"/>
<path d="M254.356 435.023L212.407 582.538" stroke="#171717" stroke-width="2" stroke-linecap="round" stroke-linejoin="round"/>
<path d="M260.518 472.481L229.393 573.103" stroke="#171717" stroke-width="2" stroke-linecap="round" stroke-linejoin="round"/>
<path d="M199.846 552.397L185.769 590.6" stroke="#171717" stroke-width="2" stroke-linecap="round" stroke-linejoin="round"/>
<path d="M179.034 561.919L165.799 588.834" stroke="#171717" stroke-width="2" stroke-linecap="round" stroke-linejoin="round"/>
<path d="M159.731 559.169L146.278 582.701" stroke="#171717" stroke-width="2" stroke-linecap="round" stroke-linejoin="round"/>
<path d="M139.935 547.096L132.447 575.058" stroke="#171717" stroke-width="2" stroke-linecap="round" stroke-linejoin="round"/>
<path d="M128.397 531.313L118.969 564.779" stroke="#171717" stroke-width="2" stroke-linecap="round" stroke-linejoin="round"/>
<path d="M121.45 517.224L107.903 551.475" stroke="#171717" stroke-width="2" stroke-linecap="round" stroke-linejoin="round"/>
<path d="M114.818 504.788L100.584 542.166" stroke="#171717" stroke-width="2" stroke-linecap="round" stroke-linejoin="round"/>
<path d="M91.9285 525.834L102.969 505.329" stroke="#171717" stroke-width="2" stroke-linecap="round" stroke-linejoin="round"/>
<g opacity="0.1">
<path d="M206.928 234.048C187.162 246.804 170.005 263.806 159.62 285.08C148.051 308.779 144.124 334.695 147.531 360.879C149.55 375.999 154.065 390.679 160.89 404.317C165.355 413.291 179.363 406.447 174.854 397.44C163.973 375.71 159.559 351.304 162.142 327.139C163.288 315.901 165.866 304.858 169.814 294.28C173.694 284.133 179.299 274.876 184.424 265.36C190.282 254.482 199.702 245.152 209.144 237.387C210.864 235.972 208.884 232.787 206.928 234.048Z" fill="#171717"/>
</g>
<g opacity="0.1">
<path d="M194.982 191.061C195.438 195.856 197.721 200.619 199.154 205.192C200.634 209.908 201.929 214.675 203.251 219.429C204.488 223.883 205.894 228.239 207.28 232.645C208.608 236.868 209.143 242.562 212.438 245.798C212.658 246.036 212.935 246.216 213.243 246.317C213.55 246.419 213.878 246.441 214.196 246.381C214.515 246.32 214.812 246.179 215.061 245.972C215.309 245.764 215.501 245.496 215.617 245.193C217.602 241.09 216.077 235.712 215.541 231.413C214.957 226.256 214.011 221.147 212.711 216.124C211.442 211.403 209.941 206.734 208.398 202.096C206.744 197.126 205.321 191.814 202.226 187.53C199.556 183.832 194.631 187.369 194.982 191.057L194.982 191.061Z" fill="#171717"/>
</g>
<g opacity="0.1">
<path d="M106.517 503.223C103.92 511.486 108.789 521.634 112.339 529.082C116.044 536.801 120.831 543.95 126.553 550.313C138.114 563.227 153.447 573.908 170.834 576.544C187.868 579.124 205.526 571.816 217.447 559.725C229.773 547.224 236.024 530.361 237.735 513.061C238.768 502.628 237.67 492.184 236.128 481.855C234.461 470.682 232.032 459.691 229.28 448.741C227.442 441.424 215.896 443.568 217.748 450.934C222.055 468.077 225.819 485.013 224.557 502.771C223.55 516.943 220.027 530.901 211.506 542.48C203.802 552.948 191.446 561.227 178.084 561.161C164.298 561.092 151.318 553.065 141.705 543.679C135.94 538.037 130.922 531.676 126.774 524.751C124.556 521 122.582 517.109 120.863 513.103C119.085 509.03 118.027 504.864 114.856 501.641C112.381 499.125 107.688 499.5 106.517 503.226L106.517 503.223Z" fill="#171717"/>
</g>
<g opacity="0.1">
<path d="M271.7 432.54C272.315 439.924 275.053 446.879 277.211 453.94C279.376 461.025 281.437 468.142 283.469 475.266C287.535 489.521 291.237 503.873 294.574 518.323C301.252 547.245 306.173 576.444 310.21 605.84C311.219 613.177 312.133 620.526 312.953 627.886C313.335 631.318 313.713 634.751 314.086 638.185C314.471 641.751 315.136 645.937 318.829 647.548C320.965 648.479 323.097 647.53 324.443 645.71C326.686 642.674 325.997 638.707 325.76 635.218C325.256 627.814 324.577 620.423 323.823 613.04C320.7 583.545 315.912 554.25 309.482 525.295C305.954 509.123 301.967 493.06 297.523 477.106C295.268 469.011 292.863 460.959 290.309 452.953C287.774 444.964 285.698 436.464 281.144 429.386C278.043 424.569 271.219 426.718 271.704 432.543L271.7 432.54Z" fill="#171717"/>
</g>
</g>
</g>
</g>
<defs>
<linearGradient id="paint0_linear_219_118" x1="498.46" y1="576.181" x2="516.987" y2="673.613" gradientUnits="userSpaceOnUse">
<stop stop-color="#FFB800"/>
<stop offset="1" stop-color="#FF7F0A"/>
</linearGradient>
<linearGradient id="paint1_linear_219_118" x1="163.932" y1="255.47" x2="191.966" y2="402.898" gradientUnits="userSpaceOnUse">
<stop stop-color="#FFB800"/>
<stop offset="1" stop-color="#FF7F0A"/>
</linearGradient>
<linearGradient id="paint2_linear_219_118" x1="309.229" y1="171.051" x2="327.629" y2="267.815" gradientUnits="userSpaceOnUse">
<stop stop-color="#FFB800"/>
<stop offset="1" stop-color="#FF7F0A"/>
</linearGradient>
<linearGradient id="paint3_linear_219_118" x1="432.554" y1="670.421" x2="442.662" y2="723.578" gradientUnits="userSpaceOnUse">
<stop stop-color="#FFB800"/>
<stop offset="1" stop-color="#FF7F0A"/>
</linearGradient>
<linearGradient id="paint4_linear_219_118" x1="235.174" y1="229.025" x2="240.528" y2="257.176" gradientUnits="userSpaceOnUse">
<stop stop-color="#FFB800"/>
<stop offset="1" stop-color="#FF7F0A"/>
</linearGradient>
<linearGradient id="paint5_linear_219_118" x1="231.272" y1="226.958" x2="239.778" y2="271.692" gradientUnits="userSpaceOnUse">
<stop stop-color="#FFB800"/>
<stop offset="1" stop-color="#FF7F0A"/>
</linearGradient>
<linearGradient id="paint6_linear_219_118" x1="255.725" y1="251.294" x2="277.16" y2="364.018" gradientUnits="userSpaceOnUse">
<stop stop-color="#FFB800"/>
<stop offset="1" stop-color="#FF7F0A"/>
</linearGradient>
<linearGradient id="paint7_linear_219_118" x1="211.264" y1="230.763" x2="228.011" y2="318.835" gradientUnits="userSpaceOnUse">
<stop stop-color="#FFB800"/>
<stop offset="1" stop-color="#FF7F0A"/>
</linearGradient>
<linearGradient id="paint8_linear_219_118" x1="210.544" y1="230.708" x2="219.788" y2="279.322" gradientUnits="userSpaceOnUse">
<stop stop-color="#FFB800"/>
<stop offset="1" stop-color="#FF7F0A"/>
</linearGradient>
<linearGradient id="paint9_linear_219_118" x1="238.851" y1="629.586" x2="262.993" y2="756.547" gradientUnits="userSpaceOnUse">
<stop stop-color="#FFB800"/>
<stop offset="1" stop-color="#FF7F0A"/>
</linearGradient>
<linearGradient id="paint10_linear_219_118" x1="403.827" y1="241.54" x2="446.278" y2="464.789" gradientUnits="userSpaceOnUse">
<stop stop-color="#FFB800"/>
<stop offset="1" stop-color="#FF7F0A"/>
</linearGradient>
<linearGradient id="paint11_linear_219_118" x1="-19.4807" y1="245.183" x2="20.177" y2="453.74" gradientUnits="userSpaceOnUse">
<stop stop-color="#FFB800"/>
<stop offset="1" stop-color="#FF7F0A"/>
</linearGradient>
<linearGradient id="paint12_linear_219_118" x1="35.9009" y1="406.172" x2="39.439" y2="424.779" gradientUnits="userSpaceOnUse">
<stop stop-color="#FFB800"/>
<stop offset="1" stop-color="#FF7F0A"/>
</linearGradient>
<linearGradient id="paint13_linear_219_118" x1="34.5278" y1="403.291" x2="38.702" y2="425.242" gradientUnits="userSpaceOnUse">
<stop stop-color="#FFB800"/>
<stop offset="1" stop-color="#FF7F0A"/>
</linearGradient>
<linearGradient id="paint14_linear_219_118" x1="155.986" y1="106.949" x2="157.987" y2="117.475" gradientUnits="userSpaceOnUse">
<stop stop-color="#FFB800"/>
<stop offset="1" stop-color="#FF7F0A"/>
</linearGradient>
<linearGradient id="paint15_linear_219_118" x1="153.91" y1="100.853" x2="157.754" y2="121.067" gradientUnits="userSpaceOnUse">
<stop stop-color="#FFB800"/>
<stop offset="1" stop-color="#FF7F0A"/>
</linearGradient>
<linearGradient id="paint16_linear_219_118" x1="404.236" y1="142.425" x2="406.003" y2="151.719" gradientUnits="userSpaceOnUse">
<stop stop-color="#FFB800"/>
<stop offset="1" stop-color="#FF7F0A"/>
</linearGradient>
<linearGradient id="paint17_linear_219_118" x1="403.545" y1="142.515" x2="405.537" y2="152.994" gradientUnits="userSpaceOnUse">
<stop stop-color="#FFB800"/>
<stop offset="1" stop-color="#FF7F0A"/>
</linearGradient>
<linearGradient id="paint18_linear_219_118" x1="330.562" y1="292.63" x2="332.806" y2="304.428" gradientUnits="userSpaceOnUse">
<stop stop-color="#FFB800"/>
<stop offset="1" stop-color="#FF7F0A"/>
</linearGradient>
<linearGradient id="paint19_linear_219_118" x1="330.8" y1="293.898" x2="332.562" y2="303.162" gradientUnits="userSpaceOnUse">
<stop stop-color="#FFB800"/>
<stop offset="1" stop-color="#FF7F0A"/>
</linearGradient>
<clipPath id="clip0_219_118">
<rect width="724.175" height="726.223" fill="white" transform="translate(-189 135.28) rotate(-10.7664)"/>
</clipPath>
</defs>
</svg>
