<svg width="579" height="547" viewBox="0 0 579 547" fill="none" xmlns="http://www.w3.org/2000/svg">
<g clip-path="url(#clip0_219_442)">
<mask id="mask0_219_442" style="mask-type:luminance" maskUnits="userSpaceOnUse" x="0" y="0" width="579" height="547">
<path d="M579 0H0V547H579V0Z" fill="white"/>
</mask>
<g mask="url(#mask0_219_442)">
<mask id="mask1_219_442" style="mask-type:luminance" maskUnits="userSpaceOnUse" x="51" y="21" width="478" height="505">
<path d="M528.338 21.6521H51.2656V525.918H528.338V21.6521Z" fill="white"/>
</mask>
<g mask="url(#mask1_219_442)">
<path d="M412.509 345.314L412.525 345.466L410.615 524.438L140.656 521.046V515.662L401.628 517.646L405.776 345.733V345.726C408.025 345.646 410.271 345.516 412.509 345.314Z" fill="#171717"/>
<path d="M407.284 284.212L407.957 255.295L408.232 255.303L413.487 255.259L413.243 278.396L414.007 278.735C412.079 280.881 409.851 282.77 407.384 284.349L407.284 284.212Z" fill="#171717"/>
<path d="M313.534 91.7245C307.133 91.7678 300.678 88.7371 297.141 83.6637C296.986 86.377 296.168 89.0191 294.751 91.3832C293.335 93.7478 291.357 95.77 288.974 97.2914C286.591 98.8127 283.867 99.7916 281.017 100.152C278.167 100.512 275.266 100.243 272.544 99.3666C274.757 101.533 276.412 104.152 277.381 107.019C278.351 109.887 278.609 112.927 278.136 115.904C277.662 118.881 276.471 121.715 274.652 124.187C272.833 126.66 270.436 128.703 267.648 130.16C269.969 131.653 271.806 133.726 272.954 136.147C274.102 138.568 274.515 141.242 274.149 143.872C273.977 144.958 273.663 146.019 273.216 147.032C272.367 148.97 271.08 150.709 269.444 152.126C267.808 153.544 265.863 154.606 263.746 155.237C270.01 161.429 271.966 171.041 269.078 179.111C268.512 180.723 267.742 182.263 266.786 183.701C260.996 192.39 248.644 196.604 238.309 193.414C240.097 201.8 239.631 210.842 235.445 218.428C231.259 226.014 222.978 231.829 213.927 231.995C204.875 232.162 195.769 225.775 194.631 217.295C189.475 224.483 178.988 227.795 170.294 224.98C168.376 224.354 166.572 223.45 164.947 222.302C159.217 218.313 155.598 211.549 156.071 204.802C156.666 196.135 163.946 188.269 172.952 186.552C166.528 183.896 163.098 176.614 164.053 170.054C165.008 163.494 169.675 157.779 175.457 154.026C181.24 150.273 188.063 148.238 194.883 146.694C190.996 142.939 188.324 138.213 187.182 133.073C186.039 127.932 186.473 122.59 188.432 117.675C190.392 112.759 193.795 108.474 198.243 105.323C202.692 102.172 207.999 100.285 213.543 99.8845C204.766 96.4925 200.167 86.2739 202.398 77.5635C204.628 68.8531 212.679 62.0839 221.8 59.6088C230.921 57.1336 240.859 58.541 249.575 62.0771C248.674 50.2346 259.238 38.6741 271.773 37.7863C284.308 36.8986 296.576 46.8574 297.538 58.6977C300.192 53.4151 306.98 50.7377 313.121 51.4231C319.263 52.1086 324.724 55.6231 328.918 59.917C335.663 66.8303 339.735 76.6091 337.52 85.7742C335.304 94.9393 325.642 102.553 315.807 101.145L314.721 101.405C313.919 98.2344 313.521 94.9843 313.534 91.7245Z" fill="#171717"/>
<path d="M414.006 278.734L413.242 278.395L413.483 255.259L408.228 255.302L407.953 255.295L408.09 249.189L142.807 261.927L140.938 313.705L140.739 313.734C140.269 313.328 139.657 313.1 139.02 313.092C137.271 313.1 136.163 314.839 135.476 316.361C133.227 321.317 131.522 326.477 130.388 331.761C128.343 341.234 128.102 350.975 129.678 360.527C130.067 362.858 130.312 365.947 131.496 368.328L130.946 368.393C120.671 365.275 114.346 357.396 109.496 348.279C97.7098 326.11 100.429 298.752 112.116 276.532C123.803 254.312 143.504 236.675 164.931 222.322L164.946 222.3C166.57 223.448 168.374 224.352 170.293 224.978C178.986 227.792 189.472 224.48 194.63 217.293C195.768 225.772 204.883 232.158 213.925 231.993C222.967 231.828 231.265 226.01 235.444 218.426C239.622 210.841 240.096 201.799 238.308 193.412C248.643 196.603 260.995 192.386 266.785 183.699C267.741 182.261 268.51 180.72 269.077 179.109L269.321 179.188C271.903 178.286 274.48 177.381 277.051 176.475L277.915 176.331C278.035 177.002 278.167 177.673 278.296 178.344C278.571 179.744 278.872 181.138 279.197 182.523C281.972 194.235 287.188 205.955 296.929 213.655C299.588 215.755 303.262 217.581 306.371 216.138C308.975 214.918 309.968 211.921 310.427 209.217C311.77 201.088 310.617 192.765 307.104 185.236C305.347 181.483 302.994 177.911 301.742 174.015C301.474 173.218 301.265 172.405 301.115 171.583C301.061 171.309 301.023 171.041 300.985 170.767H301C325.367 172.762 349.774 174.766 373.858 178.821C388.249 181.238 402.618 184.428 415.909 190.187C429.2 195.946 441.421 204.447 449.588 215.899C459.931 230.405 463.002 248.331 465.553 265.65C467.042 275.717 468.44 285.878 467.753 296.025C467.066 306.171 464.178 316.404 457.792 324.588C449.435 335.297 435.838 341.503 422.004 344.051C418.864 344.622 415.694 345.044 412.509 345.313C410.271 345.516 408.025 345.646 405.772 345.725C397.17 346.028 388.485 345.581 379.876 345.133C376.485 344.962 372.849 344.7 370.175 342.715C367.547 340.76 366.509 337.685 366.088 334.467C365.909 333.008 365.812 331.541 365.798 330.072C365.645 322.213 365.661 314.355 365.844 306.496C365.882 305.014 365.936 303.501 366.119 302.007C366.455 299.135 367.234 296.356 369.175 294.177C374.415 288.266 384.185 290.085 392.312 289.479C397.721 289.03 402.914 287.264 407.384 284.351C409.851 282.771 412.078 280.882 414.006 278.734Z" fill="url(#paint0_linear_219_442)"/>
<path d="M277.915 176.331L277.052 176.475C274.478 177.377 271.902 178.282 269.321 179.189L269.077 179.11C271.964 171.041 270.009 161.429 263.746 155.235C265.863 154.604 267.807 153.542 269.443 152.125C271.079 150.707 272.367 148.968 273.215 147.03C275.318 156.709 276.142 166.603 277.915 176.331Z" fill="#171717"/>
<path d="M248.896 375.313L286.509 340.883C286.509 340.883 265.922 368.284 248.896 391.009V375.313Z" fill="#171717"/>
<path d="M248.895 375.313V391.01C243.467 398.262 238.392 405.038 234.466 410.292H220.961C214.636 397.548 205.301 377.768 205.095 377.313L227.194 395.181L248.895 375.313Z" fill="#171717"/>
<path d="M220.96 410.292H234.466C229.814 416.527 226.773 420.627 226.651 420.857C226.474 421.196 224.085 416.607 220.96 410.292Z" fill="#171717"/>
<path d="M224.573 302.397C224.761 302.423 224.936 302.499 225.08 302.615C225.225 302.731 225.332 302.883 225.389 303.054C225.446 303.224 225.452 303.407 225.405 303.58C225.358 303.754 225.26 303.912 225.123 304.035L216.72 311.706C216.601 311.813 216.512 311.946 216.46 312.093C216.407 312.241 216.395 312.397 216.422 312.551L218.347 323.441C218.378 323.617 218.356 323.799 218.284 323.964C218.211 324.13 218.091 324.273 217.936 324.377C217.782 324.482 217.6 324.543 217.411 324.555C217.221 324.566 217.033 324.528 216.866 324.443L206.546 319.262C206.401 319.188 206.24 319.148 206.076 319.147C205.913 319.145 205.751 319.183 205.606 319.254L195.232 324.349C195.064 324.431 194.875 324.467 194.686 324.453C194.498 324.439 194.317 324.376 194.165 324.27C194.013 324.164 193.894 324.02 193.824 323.854C193.753 323.688 193.733 323.508 193.765 323.332L195.797 312.456C195.826 312.302 195.814 312.145 195.763 311.997C195.713 311.848 195.625 311.714 195.507 311.605L187.182 303.87C187.046 303.744 186.951 303.584 186.906 303.41C186.861 303.236 186.869 303.053 186.929 302.882C186.989 302.712 187.097 302.561 187.243 302.445C187.389 302.331 187.566 302.256 187.755 302.232L199.327 300.693C199.49 300.671 199.643 300.612 199.777 300.522C199.909 300.431 200.017 300.312 200.091 300.174L205.309 290.301C205.393 290.141 205.524 290.006 205.685 289.912C205.847 289.818 206.033 289.768 206.223 289.769C206.413 289.77 206.599 289.821 206.76 289.916C206.921 290.011 207.051 290.148 207.134 290.309L212.252 300.232C212.326 300.371 212.434 300.491 212.567 300.583C212.7 300.675 212.854 300.735 213.016 300.759L224.573 302.397Z" fill="url(#paint1_linear_219_442)"/>
<path d="M289.802 111.087C288.875 110.235 287.655 109.725 286.364 109.65C285.074 109.574 283.797 109.938 282.766 110.675" stroke="#171717" stroke-width="2" stroke-linecap="round" stroke-linejoin="round"/>
<path d="M306.552 112.219C306.89 111.784 307.322 111.422 307.819 111.156C308.317 110.891 308.868 110.729 309.438 110.681C310.006 110.634 310.58 110.701 311.119 110.879C311.658 111.057 312.151 111.342 312.564 111.714" stroke="#171717" stroke-width="2" stroke-linecap="round" stroke-linejoin="round"/>
<path d="M297.409 131.286C299.066 132.087 301.243 131.213 302.205 129.713C303.168 128.212 303.131 126.277 302.596 124.589C301.961 122.932 301.173 121.33 300.243 119.803C297.378 114.429 296.047 108.442 296.383 102.433C300.997 102.1 305.611 101.771 310.225 101.444" stroke="#171717" stroke-width="2" stroke-linecap="round" stroke-linejoin="round"/>
<path d="M281.459 140.747C281.82 141.83 282.441 142.821 283.272 143.641C284.104 144.462 285.124 145.091 286.253 145.479C287.383 145.868 288.593 146.006 289.788 145.882C290.983 145.758 292.132 145.376 293.146 144.766" stroke="#171717" stroke-width="2" stroke-linecap="round" stroke-linejoin="round"/>
<path d="M313.534 91.5513V91.7222C313.522 94.9843 313.922 98.2361 314.726 101.409C315.764 105.825 317.315 110.191 318.598 114.565C320.821 122.143 322.217 130.47 318.934 137.698C316.322 143.45 311.105 147.722 307.124 152.73C303.015 157.912 300.143 164.378 300.983 170.764C301.021 171.038 301.059 171.306 301.113 171.58C301.263 172.403 301.472 173.216 301.739 174.012C302.992 177.908 305.345 181.481 307.102 185.233C310.615 192.762 311.769 201.085 310.424 209.214C309.966 211.92 308.973 214.915 306.368 216.135C303.259 217.578 299.585 215.752 296.927 213.652C287.188 205.952 281.969 194.232 279.195 182.52C278.867 181.134 278.567 179.741 278.294 178.341C278.164 177.67 278.034 176.999 277.912 176.328C276.14 166.6 275.315 156.706 273.214 147.028C273.214 147.014 273.207 146.993 273.207 146.978" stroke="#171717" stroke-width="2" stroke-linecap="round" stroke-linejoin="round"/>
<path d="M318.659 90.9959C316.996 91.4677 315.27 91.7133 313.533 91.7247C307.132 91.768 300.677 88.7373 297.14 83.6639C297.083 83.5921 297.029 83.5174 296.979 83.4399" stroke="#171717" stroke-width="2" stroke-linecap="round" stroke-linejoin="round"/>
<path d="M297.111 81.2751C297.178 82.07 297.189 82.8677 297.142 83.6637C296.987 86.377 296.169 89.0191 294.752 91.3832C293.335 93.7478 291.358 95.77 288.975 97.2914C286.592 98.8127 283.868 99.7916 281.018 100.152C278.167 100.512 275.267 100.243 272.545 99.3666C274.757 101.533 276.412 104.152 277.382 107.019C278.352 109.887 278.61 112.927 278.137 115.904C277.663 118.881 276.471 121.715 274.652 124.187C272.834 126.66 270.437 128.703 267.649 130.16C269.97 131.653 271.807 133.726 272.955 136.147C274.102 138.568 274.515 141.242 274.149 143.872C273.977 144.958 273.664 146.019 273.216 147.032C272.367 148.97 271.08 150.709 269.444 152.126C267.808 153.544 265.864 154.606 263.747 155.237C270.01 161.429 271.966 171.041 269.078 179.111C268.512 180.723 267.742 182.263 266.786 183.701C260.996 192.39 248.644 196.604 238.309 193.414C240.097 201.8 239.631 210.842 235.445 218.428C231.259 226.014 222.975 231.826 213.929 231.992C204.882 232.159 195.771 225.772 194.633 217.292C189.477 224.48 178.989 227.792 170.296 224.977C168.377 224.351 166.574 223.447 164.949 222.299C159.219 218.311 155.6 211.547 156.073 204.799C156.668 196.132 163.948 188.266 172.954 186.549C166.53 183.893 163.1 176.612 164.055 170.052C165.01 163.491 169.677 157.776 175.459 154.023C181.242 150.271 188.065 148.235 194.885 146.691C190.999 142.936 188.328 138.21 187.185 133.07C186.044 127.93 186.478 122.59 188.437 117.675C190.396 112.76 193.799 108.475 198.247 105.324C202.693 102.172 208 100.286 213.544 99.8845C204.767 96.4925 200.168 86.2739 202.399 77.5635C204.629 68.8531 212.68 62.0839 221.801 59.6088C230.922 57.1336 240.86 58.541 249.576 62.0771C248.675 50.2346 259.239 38.6741 271.774 37.7863C284.308 36.8986 296.577 46.8574 297.539 58.6977C300.19 53.4151 306.98 50.7377 313.122 51.4231C319.264 52.1086 324.725 55.6231 328.919 59.917C335.664 66.8303 339.736 76.6091 337.52 85.7742C335.305 94.9393 325.642 102.553 315.808 101.145" stroke="#171717" stroke-width="2" stroke-linecap="round" stroke-linejoin="round"/>
<path d="M278.648 178.28C282.309 180.143 286.539 180.756 290.622 180.013C294.706 179.27 298.393 177.217 301.06 174.202" stroke="#171717" stroke-width="2" stroke-linecap="round" stroke-linejoin="round"/>
<path d="M269.321 179.189C271.903 178.287 274.479 177.383 277.051 176.476" stroke="#171717" stroke-width="2" stroke-linecap="round" stroke-linejoin="round"/>
<path d="M164.93 222.323C143.504 236.676 123.803 254.313 112.116 276.533C100.428 298.753 97.7066 326.111 109.496 348.28C114.346 357.397 120.671 365.275 130.945 368.394" stroke="#171717" stroke-width="2" stroke-linecap="round" stroke-linejoin="round"/>
<path d="M300.999 170.767C325.365 172.761 349.772 174.765 373.856 178.82C388.247 181.238 402.616 184.427 415.907 190.186C429.198 195.945 441.419 204.446 449.586 215.899C459.929 230.404 463 248.33 465.551 265.649C467.041 275.717 468.438 285.877 467.751 296.024C467.064 306.171 464.177 316.405 457.791 324.588C449.434 335.3 435.837 341.503 422.003 344.05C418.862 344.622 415.694 345.044 412.508 345.313C410.27 345.515 408.024 345.645 405.77 345.725C397.169 346.028 388.484 345.58 379.875 345.133C376.484 344.962 372.848 344.699 370.174 342.715C367.546 340.759 366.508 337.685 366.087 334.467C365.908 333.007 365.811 331.541 365.797 330.072C365.644 322.213 365.66 314.355 365.843 306.496C365.881 305.014 365.935 303.501 366.118 302.007C366.454 299.134 367.233 296.356 369.173 294.177C374.413 288.266 384.183 290.085 392.311 289.479C397.72 289.03 402.913 287.263 407.383 284.351C409.849 282.771 412.077 280.882 414.005 278.736C416.48 275.993 418.392 272.838 419.643 269.433" stroke="#171717" stroke-width="2" stroke-linecap="round" stroke-linejoin="round"/>
<path d="M138.783 373.401L133.642 515.61L140.654 515.661L401.624 517.646L405.772 345.733" stroke="#171717" stroke-width="2" stroke-linecap="round" stroke-linejoin="round"/>
<path d="M407.284 284.212L407.956 255.295L408.094 249.19L142.809 261.927L140.937 313.706" stroke="#171717" stroke-width="2" stroke-linecap="round" stroke-linejoin="round"/>
<path d="M413.242 278.395L413.487 255.259L408.231 255.302" stroke="#171717" stroke-width="2" stroke-linecap="round" stroke-linejoin="round"/>
<path d="M140.654 515.95V521.044L410.615 524.436L412.524 345.466" stroke="#171717" stroke-width="2" stroke-linecap="round" stroke-linejoin="round"/>
<path d="M334.762 322.834C331.034 322.647 327.612 322.663 320.83 323.325C319.021 323.496 317.148 323.715 315.597 324.609C314.047 325.504 312.901 327.272 313.382 328.925C314.106 331.436 317.583 331.941 320.341 331.949C339.155 332.021 346.511 333.529 365.318 333.601" stroke="#171717" stroke-width="2" stroke-linecap="round" stroke-linejoin="round"/>
<path d="M335.51 322.879C335.289 322.864 335.068 322.849 334.848 322.842" stroke="#171717" stroke-width="2" stroke-linecap="round" stroke-linejoin="round"/>
<path d="M336.785 322.952C336.525 322.937 336.258 322.914 336.006 322.907" stroke="#171717" stroke-width="2" stroke-linecap="round" stroke-linejoin="round"/>
<path d="M337.75 323.008C337.444 322.986 337.154 322.972 336.864 322.957" stroke="#171717" stroke-width="2" stroke-linecap="round" stroke-linejoin="round"/>
<path d="M346.961 323.434L346.314 323.414C343.389 323.327 341.097 323.212 339.134 323.089" stroke="#171717" stroke-width="2" stroke-linecap="round" stroke-linejoin="round"/>
<path d="M339.131 323.087C341.194 323.188 343.524 323.304 346.312 323.412" stroke="#171717" stroke-width="2" stroke-linecap="round" stroke-linejoin="round"/>
<path d="M339.131 323.088L338.421 323.044C338.344 323.044 338.275 323.037 338.199 323.037C338.18 323.031 338.16 323.029 338.139 323.029L337.75 323.008" stroke="#171717" stroke-width="2" stroke-linecap="round" stroke-linejoin="round"/>
<path d="M336.863 322.958C337.153 322.98 337.444 322.995 337.749 323.01" stroke="#171717" stroke-width="2" stroke-linecap="round" stroke-linejoin="round"/>
<path d="M336.863 322.959C336.838 322.952 336.812 322.95 336.786 322.951" stroke="#171717" stroke-width="2" stroke-linecap="round" stroke-linejoin="round"/>
<path d="M336.007 322.907C336.259 322.929 336.519 322.944 336.786 322.952" stroke="#171717" stroke-width="2" stroke-linecap="round" stroke-linejoin="round"/>
<path d="M336.007 322.907C335.839 322.9 335.671 322.893 335.511 322.878" stroke="#171717" stroke-width="2" stroke-linecap="round" stroke-linejoin="round"/>
<path d="M334.846 322.844C335.068 322.859 335.282 322.874 335.51 322.881" stroke="#171717" stroke-width="2" stroke-linecap="round" stroke-linejoin="round"/>
<path d="M334.846 322.845C334.823 322.845 334.792 322.837 334.762 322.837" stroke="#171717" stroke-width="2" stroke-linecap="round" stroke-linejoin="round"/>
<path d="M327.116 312.816C324.137 313.044 320.745 313.422 316.047 314.057C313.717 314.374 310.723 315.471 310.99 317.679C311.243 319.722 314.046 321.764 316.215 321.843C325.008 322.176 329.324 322.5 334.762 322.832" stroke="#171717" stroke-width="2" stroke-linecap="round" stroke-linejoin="round"/>
<path d="M336.626 312.421C333.196 312.478 330.439 312.559 327.217 312.811" stroke="#171717" stroke-width="2" stroke-linecap="round" stroke-linejoin="round"/>
<path d="M336.755 312.422C339.831 312.308 343.042 312.226 346.319 312.27C342.394 312.35 339.378 312.386 336.755 312.422Z" stroke="#171717" stroke-width="2" stroke-linecap="round" stroke-linejoin="round"/>
<path d="M336.756 312.421C336.713 312.43 336.669 312.43 336.626 312.421" stroke="#171717" stroke-width="2" stroke-linecap="round" stroke-linejoin="round"/>
<path d="M327.215 312.811C330.141 312.717 333.303 312.551 336.624 312.421" stroke="#171717" stroke-width="2" stroke-linecap="round" stroke-linejoin="round"/>
<path d="M327.215 312.811C327.182 312.817 327.148 312.82 327.115 312.819" stroke="#171717" stroke-width="2" stroke-linecap="round" stroke-linejoin="round"/>
<path d="M366.272 302.218C366.218 302.145 366.172 302.073 366.119 302.008C360.854 294.739 353.946 288.666 345.892 284.226C343.952 283.151 340.919 282.451 339.921 284.349C339.211 285.698 340.227 287.25 341.205 288.441C344.703 292.727 348.201 297.011 351.699 301.293C337.254 300.399 334.153 299.749 319.914 302.217C317.615 302.621 315.255 303.09 313.33 304.331C311.405 305.572 308.831 308.38 310.458 309.96C313.391 312.796 319.434 313.063 327.118 312.818" stroke="#171717" stroke-width="2" stroke-linecap="round" stroke-linejoin="round"/>
<path d="M158.59 357.683C162.296 357.027 166.036 356.564 169.796 356.298C171.726 356.16 173.814 356.103 175.456 357.077C178.298 358.766 178.42 362.923 176.503 365.528C174.586 368.133 171.316 369.504 168.139 370.521C160.533 372.933 152.529 374.028 144.512 373.754C142.61 373.701 140.718 373.481 138.859 373.097C136.652 372.607 134.528 371.791 133.031 370.427C132.388 369.821 131.868 369.109 131.495 368.327C130.311 365.945 130.067 362.857 129.677 360.526C128.102 350.974 128.342 341.233 130.388 331.761C131.522 326.477 133.227 321.316 135.475 316.36C136.163 314.838 137.27 313.098 139.02 313.092C139.657 313.099 140.268 313.327 140.739 313.734C141.224 314.135 141.592 314.646 141.808 315.22C142.152 316.382 142.245 317.596 142.083 318.792C141.616 325.526 141.153 332.259 140.693 338.991C149.292 336.287 158.313 334.977 167.375 335.117C169.908 335.153 173.112 335.81 173.608 338.162C173.891 339.526 173.028 340.926 171.836 341.742C170.587 342.486 169.2 343.002 167.75 343.264C161.051 344.867 154.346 346.473 147.637 348.085" stroke="#171717" stroke-width="2" stroke-linecap="round" stroke-linejoin="round"/>
<path d="M158.59 357.683C155.52 358.412 152.436 359.09 149.339 359.719C152.388 358.912 155.474 358.225 158.59 357.683Z" stroke="#171717" stroke-width="2" stroke-linecap="round" stroke-linejoin="round"/>
<path d="M146.269 348.41C146.727 348.302 147.177 348.193 147.636 348.085C154.486 346.509 161.464 345.482 168.497 345.018C170.223 344.904 172.011 344.831 173.653 345.364C175.296 345.898 176.77 347.183 176.976 348.807C177.157 350.322 176.212 351.794 174.929 352.718C173.587 353.572 172.097 354.195 170.526 354.559C166.577 355.685 162.596 356.726 158.584 357.683" stroke="#171717" stroke-width="2" stroke-linecap="round" stroke-linejoin="round"/>
<path d="M216.866 324.444L206.546 319.262C206.401 319.188 206.24 319.149 206.076 319.148C205.913 319.146 205.751 319.183 205.606 319.255L195.232 324.35C195.064 324.431 194.875 324.467 194.686 324.454C194.498 324.439 194.317 324.376 194.165 324.27C194.013 324.165 193.894 324.021 193.824 323.855C193.753 323.689 193.733 323.508 193.765 323.332L195.797 312.457C195.826 312.303 195.814 312.146 195.763 311.997C195.713 311.849 195.625 311.714 195.507 311.605L187.182 303.87C187.046 303.744 186.951 303.584 186.906 303.41C186.861 303.236 186.869 303.053 186.929 302.882C186.989 302.712 187.097 302.561 187.243 302.445C187.389 302.331 187.566 302.256 187.755 302.232L199.327 300.693C199.49 300.671 199.643 300.612 199.777 300.522C199.909 300.431 200.017 300.312 200.091 300.174L205.309 290.301C205.393 290.141 205.524 290.006 205.685 289.912C205.847 289.818 206.033 289.768 206.223 289.769C206.413 289.77 206.599 289.821 206.76 289.916C206.921 290.011 207.051 290.148 207.134 290.309L212.252 300.232C212.326 300.371 212.434 300.491 212.567 300.583C212.7 300.675 212.854 300.735 213.016 300.759L224.574 302.397C224.762 302.423 224.937 302.499 225.081 302.615C225.226 302.731 225.333 302.883 225.39 303.054C225.447 303.224 225.453 303.407 225.406 303.58C225.359 303.754 225.261 303.912 225.124 304.035L216.721 311.706C216.602 311.813 216.513 311.946 216.461 312.093C216.408 312.241 216.396 312.397 216.424 312.551L218.349 323.441C218.379 323.617 218.357 323.799 218.284 323.964C218.211 324.13 218.091 324.273 217.937 324.377C217.782 324.482 217.601 324.543 217.411 324.555C217.222 324.566 217.033 324.528 216.866 324.444Z" stroke="#171717" stroke-width="2" stroke-linecap="round" stroke-linejoin="round"/>
<path d="M220.96 410.292H202.185C201.416 410.291 200.679 410.002 200.136 409.487C199.593 408.973 199.288 408.276 199.29 407.55V363.615C199.29 362.89 199.594 362.194 200.138 361.682C200.68 361.169 201.417 360.88 202.185 360.88H246C246.768 360.88 247.505 361.169 248.047 361.682C248.59 362.194 248.895 362.89 248.895 363.615V375.313" stroke="#171717" stroke-width="2" stroke-linecap="round" stroke-linejoin="round"/>
<path d="M248.895 391.009V407.55C248.896 408.276 248.591 408.973 248.048 409.487C247.505 410.002 246.769 410.291 246 410.292H234.465" stroke="#171717" stroke-width="2" stroke-linecap="round" stroke-linejoin="round"/>
<path d="M246 483.179H202.184C201.415 483.178 200.678 482.889 200.135 482.374C199.592 481.86 199.288 481.163 199.289 480.437V436.503C199.289 435.777 199.594 435.082 200.137 434.569C200.68 434.056 201.416 433.768 202.184 433.768H246C246.768 433.768 247.504 434.056 248.047 434.569C248.59 435.082 248.895 435.777 248.895 436.503V480.437C248.895 481.163 248.592 481.86 248.048 482.374C247.505 482.889 246.768 483.178 246 483.179Z" stroke="#171717" stroke-width="2" stroke-linecap="round" stroke-linejoin="round"/>
<path d="M301.541 378.879C301.587 378.979 301.625 379.073 301.671 379.174C303.794 383.8 310.516 385.907 315.153 383.391C317.483 382.128 319.14 379.999 321.295 378.469C323.449 376.939 326.642 376.124 328.735 377.733C330.797 379.32 330.774 382.51 332.814 384.141C334.876 385.787 338.237 385 340.086 383.138C341.934 381.277 342.668 378.686 343.332 376.203C348.801 383.117 359.847 385.412 367.883 381.313" stroke="#171717" stroke-width="2" stroke-linecap="round" stroke-linejoin="round"/>
<path d="M301.541 378.879C304.85 375.624 306.974 371.459 307.606 366.986C302.611 368.436 299.67 374.289 301.541 378.879Z" stroke="#171717" stroke-width="2" stroke-linecap="round" stroke-linejoin="round"/>
<path d="M277.548 383.822C280.689 384.965 284.063 385.427 287.419 385.172C290.774 384.917 294.026 383.952 296.935 382.35C298.633 381.4 300.183 380.232 301.541 378.878" stroke="#171717" stroke-width="2" stroke-linecap="round" stroke-linejoin="round"/>
<path d="M358.061 443.842C358.165 444.631 358.414 445.398 358.794 446.108C359.535 447.428 361.109 448.453 362.659 448.159C364.21 447.865 365.211 445.828 364.133 444.731" stroke="#171717" stroke-width="2" stroke-linecap="round" stroke-linejoin="round"/>
<path d="M358.06 443.842C358.108 443.134 358.049 442.425 357.885 441.733C357.905 442.438 357.963 443.142 358.06 443.842Z" stroke="#171717" stroke-width="2" stroke-linecap="round" stroke-linejoin="round"/>
<path d="M348.626 455.8C350.673 454.176 352.82 452.666 354.608 450.799C356.456 448.865 357.9 446.382 358.061 443.842" stroke="#171717" stroke-width="2" stroke-linecap="round" stroke-linejoin="round"/>
<path d="M348.626 455.8C349.187 463.012 348.608 470.262 346.907 477.312C346.205 480.206 344.18 483.757 341.117 483.124C338.644 482.605 337.8 479.675 337.779 477.279C337.77 473.567 338.558 469.892 340.092 466.475C341.627 463.058 343.878 459.97 346.709 457.397C347.328 456.839 347.969 456.312 348.626 455.8Z" stroke="#171717" stroke-width="2" stroke-linecap="round" stroke-linejoin="round"/>
<path d="M303.695 456.859C303.772 456.873 303.856 456.888 303.932 456.895C307.156 457.294 310.418 455.957 312.824 453.9C318.041 455.784 323.434 451.901 327.513 448.293C326.871 451.439 330.018 454.499 333.402 454.745C336.786 454.99 340.002 453.012 342.018 450.429C344.035 447.846 345.066 444.713 346.059 441.646C347.41 446.271 348.27 451.012 348.626 455.798" stroke="#171717" stroke-width="2" stroke-linecap="round" stroke-linejoin="round"/>
<path d="M303.695 456.859C305.481 455.864 306.827 454.293 307.484 452.435C308.449 449.405 306.446 445.565 303.123 445.19C299.899 444.822 296.996 448.004 297.355 451.059C297.699 454.032 300.571 456.391 303.695 456.859Z" stroke="#171717" stroke-width="2" stroke-linecap="round" stroke-linejoin="round"/>
<path d="M271.842 457.69C277.945 457.791 284.044 458.068 290.136 458.52C293.475 458.766 296.891 459.062 300.136 458.293C301.394 457.998 302.596 457.516 303.694 456.864" stroke="#171717" stroke-width="2" stroke-linecap="round" stroke-linejoin="round"/>
<path d="M284.4 311.721C285.019 311.317 285.638 310.913 286.248 310.502C289.098 308.568 291.863 306.228 293.032 303.105" stroke="#171717" stroke-width="2" stroke-linecap="round" stroke-linejoin="round"/>
<path d="M284.4 311.721C285.1 314.832 285.61 317.979 285.928 321.146C286.211 323.91 286.126 327.165 283.789 328.846C280.994 330.853 276.509 328.919 275.363 325.786C274.217 322.654 275.676 319.12 277.999 316.636C279.824 314.68 282.116 313.2 284.4 311.721Z" stroke="#171717" stroke-width="2" stroke-linecap="round" stroke-linejoin="round"/>
<path d="M251.805 303.639C251.828 303.798 251.858 303.949 251.889 304.101C252.767 308.287 255.334 312.862 259.81 313.461C262.415 313.815 265.05 312.645 266.975 310.942C268.9 309.239 270.229 307.038 271.543 304.88C272.04 307.031 275.248 307.68 277.273 306.576C279.298 305.472 280.359 303.336 281.314 301.323C282.574 304.724 283.605 308.197 284.4 311.722" stroke="#171717" stroke-width="2" stroke-linecap="round" stroke-linejoin="round"/>
<path d="M251.805 303.639C253.663 298.71 254.108 293.404 253.096 288.26C251.26 293.194 250.815 298.493 251.805 303.639Z" stroke="#171717" stroke-width="2" stroke-linecap="round" stroke-linejoin="round"/>
<path d="M245.924 313.164C248.508 310.372 250.505 307.139 251.806 303.639" stroke="#171717" stroke-width="2" stroke-linecap="round" stroke-linejoin="round"/>
<path d="M268.262 179.451C270.089 189.524 273.642 199.246 278.781 208.238C282.655 215.01 287.711 221.575 294.989 225.036C302.268 228.496 312.17 227.949 317.431 222.073C321.866 217.12 321.999 209.952 321.215 203.507C319.905 192.779 316.699 182.334 311.73 172.608" stroke="#171717" stroke-width="2" stroke-linecap="round" stroke-linejoin="round"/>
<path d="M380.089 290.061C378.534 308.347 379.419 326.745 382.723 344.823" stroke="#171717" stroke-width="2" stroke-linecap="round" stroke-linejoin="round"/>
<path d="M139.721 307.146C122.226 318.607 113.232 340.548 117.993 360.151" stroke="#171717" stroke-width="2" stroke-linecap="round" stroke-linejoin="round"/>
<path d="M68.4383 331.038C56.0644 363.071 58.5475 399.951 75.1167 430.243C78.3953 436.237 83.1835 442.602 90.2865 443.303C95.1719 443.786 100.02 441.258 103.033 437.594C106.046 433.931 107.436 429.285 107.998 424.676C108.49 420.631 107.775 415.592 103.787 414.044C100.148 412.631 96.0814 415.157 93.7461 418.146C88.7938 424.49 88.0477 432.974 89.0833 440.796C90.1189 448.617 92.7298 456.191 93.816 464.007C94.9023 471.822 94.272 480.297 89.4446 486.726C84.6172 493.155 74.6457 496.526 67.5216 492.424" stroke="#171717" stroke-width="2" stroke-linecap="round" stroke-linejoin="round"/>
<path d="M526.636 305.78C525.53 299.726 518.261 295.848 511.832 296.777C505.404 297.706 500.146 302.43 497.225 307.919C494.305 313.408 493.365 319.623 492.636 325.728C490.625 342.651 490.391 361.169 500.868 375.024C503.316 378.262 506.79 381.355 511.001 381.365C514.823 381.374 518.198 378.739 520.053 375.581C523.611 369.521 522.224 361.245 516.856 356.52C511.489 351.795 502.652 351.073 496.505 354.855C488.653 359.686 486.563 369.695 486.876 378.542C487.19 387.388 489.16 396.44 486.608 404.958C483.013 416.958 469.734 425.659 456.577 424.636" stroke="#171717" stroke-width="2" stroke-linecap="round" stroke-linejoin="round"/>
<path d="M454.467 151.894C455.719 156.581 456.971 161.267 458.223 165.954C464.655 158.498 471.843 151.654 479.685 145.52" stroke="#171717" stroke-width="2" stroke-linecap="round" stroke-linejoin="round"/>
<path d="M119.015 164.343C121.647 165.062 124.098 166.276 126.222 167.91C128.345 169.546 130.098 171.569 131.374 173.859C134.974 161.511 139.819 149.517 145.843 138.043" stroke="#171717" stroke-width="2" stroke-linecap="round" stroke-linejoin="round"/>
<path d="M127.223 140.649L121.293 133.516" stroke="#171717" stroke-width="2" stroke-linecap="round" stroke-linejoin="round"/>
<path d="M119.618 140.175L128.883 131.095" stroke="#171717" stroke-width="2" stroke-linecap="round" stroke-linejoin="round"/>
<path d="M363.825 83.5634L377.124 74.1619" stroke="#171717" stroke-width="2" stroke-linecap="round" stroke-linejoin="round"/>
<path d="M373.54 86.2028L367.157 73.9363" stroke="#171717" stroke-width="2" stroke-linecap="round" stroke-linejoin="round"/>
<path d="M307.491 31.0914L317.201 26.0015" stroke="#171717" stroke-width="2" stroke-linecap="round" stroke-linejoin="round"/>
<path d="M313.298 33.2799C311.552 29.8612 309.806 26.4424 308.059 23.0237" stroke="#171717" stroke-width="2" stroke-linecap="round" stroke-linejoin="round"/>
<path d="M386.362 46.6091L394.334 54.5007C399.149 47.2481 404.476 40.3104 410.279 33.7346" stroke="#171717" stroke-width="2" stroke-linecap="round" stroke-linejoin="round"/>
<path d="M60.7524 440.841C57.9767 438.741 55.679 436.133 53.9976 433.172L54.9185 434.105" stroke="#171717" stroke-width="2" stroke-linecap="round" stroke-linejoin="round"/>
<path d="M52.5474 442.097L59.6492 433.506" stroke="#171717" stroke-width="2" stroke-linecap="round" stroke-linejoin="round"/>
<path d="M515.858 399.874L524.506 393.788" stroke="#171717" stroke-width="2" stroke-linecap="round" stroke-linejoin="round"/>
<path d="M522.407 401.502L516.476 394.371" stroke="#171717" stroke-width="2" stroke-linecap="round" stroke-linejoin="round"/>
<path d="M513.583 326.428L520.158 320.415" stroke="#171717" stroke-width="2" stroke-linecap="round" stroke-linejoin="round"/>
<path d="M519.142 326.128C517.777 324.074 515.927 322.348 513.736 321.084" stroke="#171717" stroke-width="2" stroke-linecap="round" stroke-linejoin="round"/>
<path d="M366.037 209.287C365.318 207.929 355.253 196.722 355.253 196.722L352.018 216.08L366.037 209.287Z" stroke="#171717" stroke-width="2" stroke-linecap="round" stroke-linejoin="round"/>
<path d="M424.991 232.719C423.912 233.738 412.41 237.813 412.41 237.813L414.207 219.475L424.991 232.719Z" stroke="#171717" stroke-width="2" stroke-linecap="round" stroke-linejoin="round"/>
<path d="M439.729 309.81L430.023 318.979L424.631 305.055L439.729 309.81Z" stroke="#171717" stroke-width="2" stroke-linecap="round" stroke-linejoin="round"/>
<path d="M446.2 264.302C445.838 265.321 438.292 271.434 438.292 271.434L433.978 259.888L446.2 264.302Z" stroke="#171717" stroke-width="2" stroke-linecap="round" stroke-linejoin="round"/>
<path d="M280.844 236.795C280.482 235.777 272.935 230.003 272.935 230.003L271.498 243.587L280.844 236.795Z" stroke="#171717" stroke-width="2" stroke-linecap="round" stroke-linejoin="round"/>
<path d="M256.76 210.985L245.616 222.532L247.054 203.174L256.76 210.985Z" stroke="#171717" stroke-width="2" stroke-linecap="round" stroke-linejoin="round"/>
<path d="M194.93 243.586C193.492 241.888 183.787 233.398 183.787 233.398L182.349 249.699L194.93 243.586Z" stroke="#171717" stroke-width="2" stroke-linecap="round" stroke-linejoin="round"/>
<path d="M131.304 276.529C130.226 276.187 119.801 276.187 119.801 276.187L124.474 285.356L131.304 276.529Z" stroke="#171717" stroke-width="2" stroke-linecap="round" stroke-linejoin="round"/>
<path d="M349.143 235.776L343.751 244.606L335.483 234.417L349.143 235.776Z" stroke="#171717" stroke-width="2" stroke-linecap="round" stroke-linejoin="round"/>
<path d="M357.104 32.4213L364.03 36.3961C364.119 36.4472 364.19 36.5228 364.231 36.6127C364.273 36.7026 364.286 36.8026 364.266 36.8991C364.246 36.9956 364.196 37.0842 364.121 37.1528C364.047 37.2215 363.952 37.267 363.849 37.2833L355.85 38.518C355.75 38.5334 355.658 38.5762 355.584 38.6411C355.511 38.706 355.459 38.7901 355.436 38.8827L353.575 46.3344C353.551 46.4303 353.496 46.5169 353.418 46.5827C353.341 46.6484 353.244 46.6901 353.14 46.7021C353.037 46.7141 352.932 46.6958 352.84 46.6497C352.748 46.6036 352.673 46.532 352.625 46.4444L348.911 39.6394C348.865 39.5548 348.793 39.485 348.705 39.4388C348.617 39.3927 348.516 39.3723 348.416 39.3801L340.339 40.0103C340.235 40.0185 340.131 39.9963 340.041 39.9469C339.951 39.8975 339.879 39.8231 339.835 39.7339C339.791 39.6447 339.777 39.5449 339.794 39.4479C339.813 39.3509 339.861 39.2614 339.935 39.1915L345.638 33.7517C345.709 33.6841 345.757 33.5982 345.776 33.5048C345.796 33.4114 345.785 33.3147 345.746 33.2269L342.616 26.1649C342.575 26.0741 342.566 25.9739 342.588 25.8777C342.61 25.7815 342.662 25.694 342.739 25.6268C342.815 25.5597 342.911 25.5162 343.014 25.5022C343.117 25.4881 343.222 25.5043 343.316 25.5484L350.553 28.9917C350.643 29.0344 350.744 29.0511 350.844 29.0395C350.944 29.028 351.038 28.9887 351.115 28.9267L357.259 23.9314C357.338 23.867 357.435 23.8271 357.539 23.817C357.643 23.8069 357.747 23.8271 357.839 23.8748C357.93 23.9226 358.003 23.9956 358.049 24.0841C358.095 24.1726 358.111 24.2722 358.095 24.3695L356.869 31.9381C356.853 32.0316 356.867 32.1274 356.909 32.2134C356.95 32.2994 357.019 32.3717 357.104 32.4213Z" fill="#171717"/>
<g opacity="0.1">
<path d="M276.704 102.739C279.873 108.12 280.909 114.92 276.634 119.932C274.421 122.528 271.809 124.575 270.528 127.782C268.998 131.621 269.771 135.571 270.303 139.519L271.867 151.153C272.419 155.262 273.555 159.194 274.407 163.249C275.999 170.821 276.987 178.886 281.213 185.623C281.239 185.663 281.277 185.695 281.322 185.715C281.366 185.735 281.416 185.742 281.465 185.736C281.514 185.73 281.561 185.711 281.598 185.681C281.636 185.651 281.664 185.611 281.678 185.566C284.047 177.849 282.757 169.587 282.31 161.68C282.069 157.392 282.038 153.206 281.466 148.938C280.918 144.877 280.371 140.814 279.825 136.75C279.318 133.02 278.359 129.571 280.368 126.123C282.045 123.253 283.384 120.738 284.116 117.499C285.462 111.55 283.935 105.141 278.965 101.088C277.755 100.102 275.873 101.334 276.701 102.741L276.704 102.739Z" fill="#171717"/>
</g>
<g opacity="0.1">
<path d="M165.909 222.683C160.143 223.904 155.285 227.61 150.733 231.042C146.101 234.537 141.617 238.211 137.359 242.108C128.737 249.98 121.247 258.887 115.08 268.6C102.881 287.942 97.1843 311.295 102.925 333.447C105.908 344.957 111.884 356.383 121.399 364.318C127.165 369.126 134.434 361.964 129.716 356.461C117.171 341.829 111.51 323.47 114.264 304.731C117.235 284.511 128.575 266.424 142.949 251.569C147.178 247.202 151.639 243.041 156.315 239.101C160.854 235.27 166.085 231.71 169.165 226.685C170.47 224.556 168.32 222.172 165.908 222.683L165.909 222.683Z" fill="#171717"/>
</g>
<g opacity="0.1">
<path d="M369.908 306.931C370.729 304.228 371.781 302.206 374.786 301.093C377.663 300.028 381.316 299.852 384.372 299.748C392.383 299.473 399.833 299.454 407.259 296.239C413.414 293.596 418.64 289.345 422.324 283.989C424.121 281.352 425.404 278.433 426.109 275.368C426.721 272.354 427.297 268.601 425.098 266.122C424.598 265.652 423.947 265.351 423.247 265.265C422.547 265.18 421.837 265.315 421.226 265.65C418.834 267.105 417.745 270.453 416.341 272.764C414.884 275.153 413.166 277.391 411.215 279.442C407.164 283.741 402.212 286.792 396.186 287.923C388.746 289.32 379.944 287.455 373.388 291.988C369.057 294.981 364.234 301.604 366.423 306.934C367.041 308.439 369.387 308.669 369.913 306.934L369.908 306.931Z" fill="#171717"/>
</g>
</g>
</g>
</g>
<defs>
<linearGradient id="paint0_linear_219_442" x1="284.911" y1="170.767" x2="284.911" y2="368.393" gradientUnits="userSpaceOnUse">
<stop stop-color="#FFB800"/>
<stop offset="1" stop-color="#FF7F0A"/>
</linearGradient>
<linearGradient id="paint1_linear_219_442" x1="206.157" y1="289.769" x2="206.157" y2="324.557" gradientUnits="userSpaceOnUse">
<stop stop-color="#FFB800"/>
<stop offset="1" stop-color="#FF7F0A"/>
</linearGradient>
<clipPath id="clip0_219_442">
<rect width="579" height="547" fill="white"/>
</clipPath>
</defs>
</svg>
