<svg width="960" height="948" viewBox="0 0 960 948" fill="none" xmlns="http://www.w3.org/2000/svg">
<mask id="mask0_219_117" style="mask-type:luminance" maskUnits="userSpaceOnUse" x="0" y="0" width="960" height="948">
<path d="M-6.10352e-05 0H960V948H-6.10352e-05V0Z" fill="white"/>
</mask>
<g mask="url(#mask0_219_117)">
<path fill-rule="evenodd" clip-rule="evenodd" d="M267.596 138.516L309.35 124.574L337.457 115.188C337.457 115.188 341.911 223.875 347.112 264.314C348.659 276.345 353.166 291.146 359.504 306.65C364.661 319.161 370.49 331.303 376.96 343.007C390.424 367.451 406.262 389.711 419.946 401.647C448.93 426.916 489.801 429.899 489.801 429.899L491.243 422.404L494.443 405.86L539.041 403.546L585.364 401.134L607.969 399.964L615.401 432.812C685.256 418.488 747.246 461.553 747.246 461.553L651.071 859.135L494.443 786.988V786.976L462.304 566.784C462.304 566.784 463.051 524.663 420.686 501.912C419.829 501.452 418.937 500.974 418.007 500.478C401.812 491.818 374.905 477.433 346.915 450.387C338.714 442.476 330.96 433.99 323.7 424.975C281.84 373.066 243.56 288.286 241.591 147.205L267.596 138.516ZM251.606 214.773C251.489 213.762 252.119 212.836 253.012 212.705C253.904 212.574 254.72 213.288 254.836 214.3C263.375 289.155 290.467 359.73 332.967 417.83C333.541 418.615 333.445 419.78 332.753 420.431C332.06 421.081 331.033 420.973 330.459 420.187C287.565 361.55 260.223 290.322 251.606 214.773Z" fill="url(#paint0_linear_219_117)"/>
<path fill-rule="evenodd" clip-rule="evenodd" d="M266.238 57.315L243.086 52.7314L227.967 49.7471L203.688 30.6491L237.378 21.6616L240.009 22.2107L257.059 25.7319C253.68 29.4438 252.08 33.0955 252.732 35.9838C254.964 45.8208 291.739 32.9059 291.739 32.9059L334.073 41.6546L415.738 58.5327C415.738 58.5327 430.098 63.7959 426.635 76.1495C423.172 88.503 412.759 86.2586 412.759 86.2586L332.808 70.4676L266.238 57.315ZM233.961 25.2492C234.398 24.3579 235.39 24.039 236.176 24.5352C236.962 25.0313 237.245 26.1566 236.806 27.0468C233.655 33.4562 232.055 40.6955 232.163 48.032C232.178 49.0514 231.462 49.8923 230.561 49.9096C229.662 49.9268 228.921 49.1142 228.905 48.0948C228.787 40.107 230.531 32.2275 233.961 25.2492Z" fill="#171717"/>
<path fill-rule="evenodd" clip-rule="evenodd" d="M422.982 257.068C427.022 251.036 431.964 245.854 437.585 241.759C433.499 237.855 430.312 232.883 428.299 227.27C422.736 212.136 424.873 192.824 432.969 178.632C444.034 159.236 463.237 147.837 482.472 140.234C501.486 132.727 522.152 128.095 541.745 133.37C561.338 138.646 579.436 155.791 582.658 178.322C598.746 158.974 624.644 151.634 647.343 158.27C670.042 164.906 689.088 184.576 698.668 208.841C699.633 211.287 700.496 213.771 701.275 216.288C704.271 226.047 705.981 236.252 706.349 246.575C706.84 260.188 705.225 273.794 701.58 286.775C701.467 287.178 701.354 287.584 701.239 287.993C698.073 299.282 694.317 312.675 701.328 321.222C706.602 327.655 714.858 327.446 722.959 327.24C725.319 327.18 727.666 327.121 729.921 327.225C748.915 328.133 766.423 344.951 770.361 366.04L747.251 461.563C747.251 461.563 685.262 418.498 615.407 432.822L607.974 399.974L585.37 401.143C573.168 319.75 594.224 262.637 594.224 262.637L594.161 261.229C584.78 261.646 569.167 259.51 551.364 245.58C527.566 226.973 525.65 206.968 525.735 200.404C522.447 202.831 518.622 204.153 514.7 204.221C511.217 204.271 507.754 203.628 504.467 202.323C502.045 212.057 479.179 311.154 539.042 360.782V403.549L494.444 405.864L491.247 422.403L489.12 421.879C469.212 409.93 450.066 395.596 435.121 376.475C420.176 357.353 409.642 333.004 408.99 307.461C408.483 289.352 413.417 271.584 422.982 257.068ZM494.172 144.055C495.052 143.838 495.919 144.468 496.111 145.465C496.303 146.461 495.745 147.445 494.867 147.663C482.062 150.832 469.559 156.001 459.186 164.743C448.814 173.486 440.727 186.076 438.41 200.276C436.093 214.484 440.2 230.188 449.948 239.143C450.328 239.492 450.549 240.017 450.552 240.571C450.554 241.126 450.336 241.652 449.958 242.004C440.077 251.217 432.333 263.027 427.398 276.408C422.462 289.788 420.485 304.333 421.639 318.777C422.793 333.22 427.041 347.126 434.017 359.284C440.992 371.442 450.482 381.483 461.66 388.534C462.446 389.03 462.73 390.154 462.292 391.045C461.854 391.937 460.863 392.257 460.077 391.761C448.434 384.417 438.551 373.959 431.285 361.298C424.021 348.635 419.596 334.153 418.395 319.109C417.193 304.066 419.252 288.918 424.392 274.983C429.284 261.721 436.825 249.94 446.412 240.561C436.677 230.458 432.827 214.193 435.207 199.605C437.706 184.289 446.367 170.946 457.242 161.78C468.117 152.614 481.107 147.288 494.172 144.055Z" fill="#171717"/>
<path d="M38.7031 220.082L61.7388 223.031L53.9371 252.095L75.4883 232.723L98.1558 248.729L85.8908 220.501L111.905 199.446L78.0891 201.965L65.834 175.002L62.4859 204.495L38.7031 220.082Z" fill="url(#paint1_linear_219_117)"/>
<path d="M114.874 638.817L143.122 637.551L147.954 658.618L155.008 634.185L177.675 639.247L162.441 623.228L176.191 608.487L150.554 614.384L135.688 597.112L138.657 623.228L114.874 638.817Z" fill="#171717"/>
<path d="M132.343 290.434L158.357 303.492L139.775 334.668L170.612 318.662L197.743 345.195L186.594 308.552L215.946 282.007L185.478 276.494L179.908 243.181L163.927 276.494L132.343 290.434Z" fill="#171717"/>
<path d="M135.688 499.8L157.24 500.229L164.294 528.875L174.148 500.647L201.458 504.013L184.74 485.906L194.394 460.208L168.758 472.001L143.49 456.412L151.292 483.376L135.688 499.8Z" fill="url(#paint2_linear_219_117)"/>
<path d="M849.13 819.964L814.23 666.947L782.592 797.896L849.13 819.964Z" fill="#171717"/>
<path d="M894.834 207.026L718.698 945.078L757.715 900.843L782.593 797.898L814.231 666.949V666.937L914.9 250.341L894.834 207.026Z" fill="#171717"/>
<path d="M359.728 306.535L383.164 229.776L427.14 227.819" stroke="#171717" stroke-width="2" stroke-linecap="round" stroke-linejoin="round"/>
<path d="M703.093 215.549L894.833 207.026L718.696 945.078L241.591 693.59L323.522 425.166" stroke="#171717" stroke-width="2" stroke-linecap="round" stroke-linejoin="round"/>
<path d="M814.231 666.937L914.9 250.341L894.834 207.026" stroke="#171717" stroke-width="2" stroke-linecap="round" stroke-linejoin="round"/>
<path d="M718.697 945.076L757.715 900.841L782.592 797.896L814.231 666.947" stroke="#171717" stroke-width="2" stroke-linecap="round" stroke-linejoin="round"/>
<path d="M782.592 797.896L849.13 819.965L814.23 666.948V666.936" stroke="#171717" stroke-width="2" stroke-linecap="round" stroke-linejoin="round"/>
<path d="M378.3 342.067L402.851 257.573L422.738 256.857" stroke="#171717" stroke-width="2" stroke-linecap="round" stroke-linejoin="round"/>
<path d="M494.447 786.975L277.998 687.263L346.778 450.564" stroke="#171717" stroke-width="2" stroke-linecap="round" stroke-linejoin="round"/>
<path d="M707.063 246.547L800.08 243.181L770.359 366.035L747.249 461.558L651.074 859.139L494.447 786.988" stroke="#171717" stroke-width="2" stroke-linecap="round" stroke-linejoin="round"/>
<path d="M747.249 461.556C747.249 461.556 685.259 418.493 615.404 432.816L607.972 399.968L585.367 401.137L539.044 403.55L494.446 405.864L491.246 422.406L489.804 429.903C489.804 429.903 448.933 426.919 419.949 401.65C406.265 389.714 390.427 367.456 376.962 343.011C370.493 331.307 364.664 319.166 359.507 306.654C353.169 291.15 348.662 276.348 347.114 264.317C341.914 223.878 337.46 115.19 337.46 115.19L309.35 124.573L267.595 138.515L241.591 147.203C243.559 288.285 281.84 373.064 323.7 424.973C330.96 433.989 338.713 442.476 346.915 450.386C376.51 478.984 404.894 493.425 420.686 501.91C463.051 524.661 462.304 566.783 462.304 566.783L494.443 786.974V786.986" stroke="#171717" stroke-width="2" stroke-linecap="round" stroke-linejoin="round"/>
<path d="M539.044 354.888V360.784V403.551" stroke="#171717" stroke-width="2" stroke-linecap="round" stroke-linejoin="round"/>
<path d="M504.669 201.543C504.669 201.543 504.596 201.805 504.469 202.319C502.048 212.045 479.181 311.154 539.044 360.777" stroke="#171717" stroke-width="2" stroke-linecap="round" stroke-linejoin="round"/>
<path d="M594.222 262.636C594.222 262.636 573.167 319.748 585.368 401.142" stroke="#171717" stroke-width="2" stroke-linecap="round" stroke-linejoin="round"/>
<path d="M603.507 259.685C600.46 260.639 597.319 261.156 594.158 261.225C584.778 261.643 569.165 259.502 551.361 245.577C527.567 226.969 525.652 206.965 525.732 200.401C525.729 199.66 525.768 198.92 525.847 198.185" stroke="#171717" stroke-width="2" stroke-linecap="round" stroke-linejoin="round"/>
<path d="M531.423 194.946C529.773 197.07 527.857 198.908 525.738 200.402C522.449 202.827 518.624 204.15 514.703 204.218C511.22 204.267 507.757 203.625 504.47 202.321C502.805 201.694 501.241 200.767 499.838 199.575" stroke="#171717" stroke-width="2" stroke-linecap="round" stroke-linejoin="round"/>
<path d="M770.433 366.405C770.411 366.282 770.39 366.159 770.359 366.036C766.421 344.946 748.913 328.128 729.919 327.22C719.918 326.755 708.137 329.524 701.326 321.217C694.06 312.36 698.357 298.3 701.578 286.77C705.224 273.789 706.838 260.183 706.347 246.57C705.979 236.247 704.27 226.042 701.272 216.284C700.494 213.766 699.63 211.283 698.666 208.836C689.086 184.571 670.04 164.901 647.341 158.265C624.642 151.629 598.744 158.969 582.656 178.317C579.434 155.786 561.336 138.641 541.743 133.366C522.15 128.09 501.484 132.722 482.47 140.229C463.235 147.832 444.032 159.231 432.967 178.627C424.871 192.819 422.733 212.131 428.297 227.266C430.31 232.878 433.498 237.851 437.583 241.755C431.963 245.851 427.021 251.034 422.981 257.068C413.417 271.584 408.483 289.352 408.989 307.461C409.641 333.004 420.175 357.353 435.12 376.475C450.065 395.596 469.211 409.93 489.119 421.879" stroke="#171717" stroke-width="2" stroke-linecap="round" stroke-linejoin="round"/>
<path d="M533.908 284.4C532.529 283.75 531.028 283.513 529.545 283.71C528.064 283.907 526.651 284.532 525.443 285.526C524.235 286.519 523.273 287.848 522.648 289.384C522.023 290.921 521.757 292.612 521.874 294.299C521.991 295.986 522.489 297.61 523.318 299.016C524.148 300.422 525.283 301.563 526.613 302.329C527.943 303.096 529.425 303.461 530.916 303.392C532.407 303.324 533.856 302.821 535.128 301.935" stroke="#171717" stroke-width="2" stroke-linecap="round" stroke-linejoin="round"/>
<path d="M557.43 330.74C561.8 330.708 566.019 328.926 569.342 325.708C572.665 322.491 574.878 318.047 575.59 313.159" stroke="#171717" stroke-width="2" stroke-linecap="round" stroke-linejoin="round"/>
<path d="M558.427 262.633C558.584 259.254 558.748 255.885 558.921 252.523" stroke="#171717" stroke-width="2" stroke-linecap="round" stroke-linejoin="round"/>
<path d="M520.914 263.757C521.146 258.9 521.367 254.03 521.588 249.171" stroke="#171717" stroke-width="2" stroke-linecap="round" stroke-linejoin="round"/>
<path d="M511.501 238.601C513.525 235.665 516.478 233.739 519.734 233.233C522.991 232.727 526.292 233.681 528.937 235.894" stroke="#171717" stroke-width="2" stroke-linecap="round" stroke-linejoin="round"/>
<path d="M257.057 25.7319L240.007 22.2107L237.376 21.6616L203.686 30.6491L227.967 49.7471L243.086 52.7314L266.238 57.315L332.808 70.4676L412.759 86.2586C412.759 86.2586 423.172 88.503 426.635 76.1495C430.098 63.7959 415.738 58.5327 415.738 58.5327L334.073 41.6546L291.739 32.9059L291.423 32.8345" stroke="#171717" stroke-width="2" stroke-linecap="round" stroke-linejoin="round"/>
<path d="M749.281 565.219L775.896 574.04C777.873 574.693 779.999 574.431 781.805 573.309C783.611 572.188 784.951 570.299 785.529 568.059L793.805 535.953C794.381 533.712 794.149 531.305 793.16 529.259C792.17 527.214 790.505 525.697 788.53 525.044L761.915 516.222C759.94 515.569 757.817 515.832 756.012 516.954C754.208 518.074 752.87 519.963 752.292 522.202L744.017 554.299C743.73 555.407 743.639 556.569 743.748 557.718C743.857 558.868 744.165 559.98 744.653 560.995C745.142 562.008 745.802 562.903 746.596 563.628C747.391 564.354 748.302 564.894 749.281 565.219Z" stroke="#171717" stroke-width="2" stroke-linecap="round" stroke-linejoin="round"/>
<path d="M767.158 494.965L794.226 503.929C796.14 504.561 798.196 504.308 799.946 503.223C801.694 502.139 802.992 500.311 803.554 498.142L834.918 371.37C835.477 369.197 835.252 366.861 834.292 364.875C833.333 362.89 831.717 361.417 829.8 360.782L802.49 357.942C801.542 357.626 800.549 357.525 799.566 357.646C798.583 357.767 797.631 358.104 796.763 358.642C795.896 359.179 795.131 359.905 794.511 360.778C793.891 361.651 793.429 362.653 793.151 363.728L762.04 484.375C761.763 485.452 761.675 486.58 761.783 487.694C761.889 488.809 762.189 489.888 762.665 490.872C763.139 491.856 763.781 492.724 764.552 493.426C765.323 494.127 766.209 494.651 767.158 494.965Z" stroke="#171717" stroke-width="2" stroke-linecap="round" stroke-linejoin="round"/>
<path d="M708.495 723.428L735.101 732.248C737.079 732.903 739.204 732.641 741.01 731.521C742.817 730.399 744.156 728.51 744.735 726.268L775.71 606.146C776.288 603.905 776.056 601.496 775.067 599.448C774.078 597.401 772.412 595.882 770.435 595.225L743.829 586.405C741.853 585.75 739.727 586.012 737.92 587.134C736.114 588.254 734.774 590.143 734.195 592.385L703.222 712.508C702.646 714.748 702.877 717.157 703.865 719.204C704.855 721.251 706.519 722.771 708.495 723.428Z" stroke="#171717" stroke-width="2" stroke-linecap="round" stroke-linejoin="round"/>
<path d="M309.35 124.572C309.35 124.572 332.607 91.4619 332.807 70.4668" stroke="#171717" stroke-width="2" stroke-linecap="round" stroke-linejoin="round"/>
<path d="M334.071 41.6551C334.071 41.6551 336.713 7.06545 305.497 7.34C303.066 7.36463 300.675 7.49513 298.349 7.73398C279.555 9.58073 264.258 17.8074 257.057 25.7337C253.678 29.4456 252.077 33.0973 252.73 35.9856C254.963 45.8214 291.737 32.9077 291.737 32.9077" stroke="#171717" stroke-width="2" stroke-linecap="round" stroke-linejoin="round"/>
<path d="M298.317 7.33888C298.317 7.33888 245.802 -10.3489 240.097 21.6623" stroke="#171717" stroke-width="2" stroke-linecap="round" stroke-linejoin="round"/>
<path d="M295.349 80.0886C295.349 80.0886 283.838 60.7888 266.238 57.312" stroke="#171717" stroke-width="2" stroke-linecap="round" stroke-linejoin="round"/>
<path d="M243.087 52.7432C243.087 52.7432 247.729 72.6401 258.594 83.9188C260.377 85.8074 262.379 87.4141 264.543 88.6933C265.527 89.2793 266.547 89.7816 267.596 90.1978" stroke="#171717" stroke-width="2" stroke-linecap="round" stroke-linejoin="round"/>
<path d="M267.596 138.515L264.543 88.6943" stroke="#171717" stroke-width="2" stroke-linecap="round" stroke-linejoin="round"/>
<path d="M203.69 30.6505L176.928 50.7383L144.238 18.7144L154.271 74.7412L109.305 99.6034H163.556L167.273 157.313L188.076 95.8077" stroke="#171717" stroke-width="2" stroke-linecap="round" stroke-linejoin="round"/>
<path d="M78.0891 201.965L65.834 175.002L62.4859 204.495L38.7031 220.082L61.7388 223.031L53.9371 252.095L75.4883 232.723L98.1558 248.729L85.8908 220.501L111.905 199.446L78.0891 201.965Z" stroke="#171717" stroke-width="2" stroke-linecap="round" stroke-linejoin="round"/>
<path d="M139.775 334.668L158.357 303.492L132.343 290.434L163.927 276.494L179.908 243.181L185.478 276.494L215.946 282.007L186.594 308.552L197.743 345.195L170.612 318.662L139.775 334.668Z" stroke="#171717" stroke-width="2" stroke-linecap="round" stroke-linejoin="round"/>
<path d="M87.7542 378.053L109.305 368.361L100.387 386.896L114.874 397.854L92.2067 402.067L84.4062 423.969L78.8362 400.802L55.8006 401.22L75.309 386.061L71.4038 360.363L87.7542 378.053Z" stroke="#171717" stroke-width="2" stroke-linecap="round" stroke-linejoin="round"/>
<path d="M135.688 499.8L151.292 483.376L143.49 456.412L168.758 472.001L194.394 460.208L184.74 485.906L201.458 504.013L174.148 500.647L164.294 528.875L157.24 500.229L135.688 499.8Z" stroke="#171717" stroke-width="2" stroke-linecap="round" stroke-linejoin="round"/>
<path d="M138.657 623.228L135.688 597.112L150.554 614.384L176.191 608.487L162.441 623.228L177.675 639.247L155.008 634.185L147.954 658.618L143.122 637.551L114.874 638.817L138.657 623.228Z" stroke="#171717" stroke-width="2" stroke-linecap="round" stroke-linejoin="round"/>
<path d="M607.499 434.647C570.902 431.654 534.235 430.575 497.499 431.408" stroke="#171717" stroke-width="2" stroke-linecap="round" stroke-linejoin="round"/>
<path d="M506.824 424.385L507.816 414.274" stroke="#171717" stroke-width="2" stroke-linecap="round" stroke-linejoin="round"/>
<path d="M523.743 424.395L523.247 414.846" stroke="#171717" stroke-width="2" stroke-linecap="round" stroke-linejoin="round"/>
<path d="M539.102 424.957V413.724" stroke="#171717" stroke-width="2" stroke-linecap="round" stroke-linejoin="round"/>
<path d="M558.637 423.83L558.746 415.406" stroke="#171717" stroke-width="2" stroke-linecap="round" stroke-linejoin="round"/>
<path d="M578.736 425.518C577.676 421.71 577.339 417.69 577.746 413.724" stroke="#171717" stroke-width="2" stroke-linecap="round" stroke-linejoin="round"/>
<path d="M598.066 425.517L596.087 413.721" stroke="#171717" stroke-width="2" stroke-linecap="round" stroke-linejoin="round"/>
<path d="M340.426 171.625L245.419 200.766" stroke="#171717" stroke-width="2" stroke-linecap="round" stroke-linejoin="round"/>
<path d="M255.554 189.342L253.399 153.951" stroke="#171717" stroke-width="2" stroke-linecap="round" stroke-linejoin="round"/>
<path d="M280.009 183.467L275.565 148.078" stroke="#171717" stroke-width="2" stroke-linecap="round" stroke-linejoin="round"/>
<path d="M304.833 175.836L299.591 141.299" stroke="#171717" stroke-width="2" stroke-linecap="round" stroke-linejoin="round"/>
<path d="M326.938 166.601L322.555 132.045" stroke="#171717" stroke-width="2" stroke-linecap="round" stroke-linejoin="round"/>
<path d="M269.829 258.422L275.773 237.358" stroke="#171717" stroke-width="2" stroke-linecap="round" stroke-linejoin="round"/>
<path d="M324.136 286.953L315.202 281.087" stroke="#171717" stroke-width="2" stroke-linecap="round" stroke-linejoin="round"/>
<path d="M317.773 293.805C317.766 287.612 319.201 281.527 321.937 276.166" stroke="#171717" stroke-width="2" stroke-linecap="round" stroke-linejoin="round"/>
<path d="M309.984 359.407L324.148 363.421" stroke="#171717" stroke-width="2" stroke-linecap="round" stroke-linejoin="round"/>
<path d="M371.228 401.635L371.525 387.32" stroke="#171717" stroke-width="2" stroke-linecap="round" stroke-linejoin="round"/>
<path d="M379.777 395.158L362.211 391.569L364.114 392.604" stroke="#171717" stroke-width="2" stroke-linecap="round" stroke-linejoin="round"/>
<path d="M393.911 465.585L408.016 460.479" stroke="#171717" stroke-width="2" stroke-linecap="round" stroke-linejoin="round"/>
<path d="M466.535 492.696L463.021 474.105" stroke="#171717" stroke-width="2" stroke-linecap="round" stroke-linejoin="round"/>
<path d="M459.301 487.422L471.927 484.021" stroke="#171717" stroke-width="2" stroke-linecap="round" stroke-linejoin="round"/>
<path d="M530.679 485.9C526.883 481.087 522.352 477.091 517.302 474.105" stroke="#171717" stroke-width="2" stroke-linecap="round" stroke-linejoin="round"/>
<path d="M489.061 568.468C494.108 570.231 499.418 570.805 504.668 570.153" stroke="#171717" stroke-width="2" stroke-linecap="round" stroke-linejoin="round"/>
<path d="M554.606 582.712L546.44 563.33" stroke="#171717" stroke-width="2" stroke-linecap="round" stroke-linejoin="round"/>
<path d="M541.831 577.743L558.077 567.423" stroke="#171717" stroke-width="2" stroke-linecap="round" stroke-linejoin="round"/>
<path d="M582.008 515.478L593.885 507.029" stroke="#171717" stroke-width="2" stroke-linecap="round" stroke-linejoin="round"/>
<path d="M675.662 488.371L666.757 474.883" stroke="#171717" stroke-width="2" stroke-linecap="round" stroke-linejoin="round"/>
<path d="M665.179 487.554C670.35 484.787 674.947 480.811 678.667 475.888" stroke="#171717" stroke-width="2" stroke-linecap="round" stroke-linejoin="round"/>
<path d="M514.202 724.462L503.826 710.952" stroke="#171717" stroke-width="2" stroke-linecap="round" stroke-linejoin="round"/>
<path d="M531.303 644.232C532.498 643.065 533.974 642.335 535.541 642.134C537.107 641.934 538.69 642.273 540.084 643.109C541.477 643.945 542.616 645.238 543.351 646.819C544.086 648.398 544.384 650.195 544.206 651.97C543.853 655.475 541.715 659.132 543.197 662.234C544.995 665.997 549.946 664.902 553.44 663.283" stroke="#171717" stroke-width="2" stroke-linecap="round" stroke-linejoin="round"/>
<path d="M651.352 535.004C650.145 532.93 648.55 531.181 646.683 529.881C644.739 528.747 642.082 528.773 640.628 530.627C638.354 533.517 640.382 537.947 640.753 541.798C640.952 543.308 640.768 544.849 640.224 546.244C639.679 547.639 638.796 548.83 637.678 549.678C635.349 551.185 631.813 550.056 631.047 547.142" stroke="#171717" stroke-width="2" stroke-linecap="round" stroke-linejoin="round"/>
<path d="M438.95 448.8C440.326 443.809 436.381 438.773 432.073 436.907C427.765 435.04 422.965 435.095 418.62 433.336C414.275 431.578 410.162 426.821 411.235 421.736" stroke="#171717" stroke-width="2" stroke-linecap="round" stroke-linejoin="round"/>
<path d="M620.897 785.631C616.662 778.333 619.538 767.073 626.561 763.47C628.711 762.369 631.083 761.929 633.262 760.902C635.442 759.875 637.543 758.023 638.033 755.407C638.523 752.791 636.568 749.653 634.248 750.144" stroke="#171717" stroke-width="2" stroke-linecap="round" stroke-linejoin="round"/>
<path d="M670.394 665.359L660.728 653.563" stroke="#171717" stroke-width="2" stroke-linecap="round" stroke-linejoin="round"/>
<path d="M660.871 667.197C666.345 661.033 670.696 653.706 673.673 645.636" stroke="#171717" stroke-width="2" stroke-linecap="round" stroke-linejoin="round"/>
<path d="M616.143 654.406L614.66 635.028" stroke="#171717" stroke-width="2" stroke-linecap="round" stroke-linejoin="round"/>
<path d="M683.807 587.592C686.188 587.977 688.616 587.708 690.885 586.807C693.155 585.904 695.2 584.396 696.847 582.41" stroke="#171717" stroke-width="2" stroke-linecap="round" stroke-linejoin="round"/>
<path d="M564.865 760.563L570.81 745.397" stroke="#171717" stroke-width="2" stroke-linecap="round" stroke-linejoin="round"/>
<path d="M576.028 758.844L560.894 750.184" stroke="#171717" stroke-width="2" stroke-linecap="round" stroke-linejoin="round"/>
<path d="M609.455 823.753C604.444 819.544 600.372 814.063 597.564 807.748" stroke="#171717" stroke-width="2" stroke-linecap="round" stroke-linejoin="round"/>
<path d="M543.401 101.697L541.032 78.9668" stroke="#171717" stroke-width="2" stroke-linecap="round" stroke-linejoin="round"/>
<path d="M574.74 110.255L595.625 63.5283" stroke="#171717" stroke-width="2" stroke-linecap="round" stroke-linejoin="round"/>
<path d="M597.571 136.271L612.437 128.693" stroke="#171717" stroke-width="2" stroke-linecap="round" stroke-linejoin="round"/>
<path d="M479.4 50.3128L468.995 29.25" stroke="#171717" stroke-width="2" stroke-linecap="round" stroke-linejoin="round"/>
<path d="M465.368 44.5473L481.484 30.7163" stroke="#171717" stroke-width="2" stroke-linecap="round" stroke-linejoin="round"/>
<path d="M949.493 612.08C929.164 606.201 905.957 617.362 895.555 638.018C885.153 658.675 888.475 687.004 903.276 703.862C909.522 710.975 918.312 716.248 927.024 714.471C935.737 712.695 942.931 701.594 939.437 692.373C936.077 683.509 924.52 681.481 917.697 687.254C910.874 693.027 908.745 704.027 910.673 713.429C912.6 722.83 917.877 730.888 923.608 738.027C927.667 743.085 932.057 747.894 935.222 753.716C938.388 759.538 940.236 766.684 938.635 773.277C937.033 779.87 931.223 785.355 925.262 784.303C919.301 783.252 915.271 774.208 919.045 768.863" stroke="#171717" stroke-width="2" stroke-linecap="round" stroke-linejoin="round"/>
<path d="M908.775 560.722L922.316 542.346" stroke="#171717" stroke-width="2" stroke-linecap="round" stroke-linejoin="round"/>
<path d="M923.729 561.827L907.406 543.261" stroke="#171717" stroke-width="2" stroke-linecap="round" stroke-linejoin="round"/>
<path d="M47.8271 79.0266L53.0234 58.8047" stroke="#171717" stroke-width="2" stroke-linecap="round" stroke-linejoin="round"/>
<path d="M59.6787 73.5076L41.0793 63.4453" stroke="#171717" stroke-width="2" stroke-linecap="round" stroke-linejoin="round"/>
<path d="M270.045 427.629C270.532 419.76 262.552 413.513 255.762 415.244C248.973 416.976 244.266 424.631 243.365 432.454C242.463 440.277 244.694 448.147 247.701 455.26C250.708 462.372 254.519 469.049 257.11 476.373C263.747 495.13 261.787 516.528 256.404 535.794C253.946 544.589 250.63 553.431 244.648 559.679C238.667 565.927 229.445 568.969 222.158 564.872C218.746 562.954 215.883 559.318 215.505 555.023C215.127 550.727 217.864 546.078 221.658 545.705C225.453 545.332 228.987 550.461 227.164 554.251" stroke="#171717" stroke-width="2" stroke-linecap="round" stroke-linejoin="round"/>
<path d="M41.4065 317.671C36.6749 315.086 30.8204 316.628 26.5558 320.1C22.2912 323.572 19.3211 328.688 16.6409 333.806C10.1174 346.264 4.64198 359.716 2.89356 374.065C1.14514 388.414 3.46481 403.831 11.2436 415.326C21.076 429.854 37.5372 435.887 51.3823 445.316C65.0894 454.655 76.844 468.121 83.5347 484.591C87.2096 493.636 89.3283 503.929 87.2269 513.598C85.1256 523.268 78.0179 531.951 69.2639 532.774C60.5099 533.596 51.5039 524.426 52.9667 514.606C53.6671 509.906 57.1314 505.44 61.3352 505.552C65.539 505.664 68.8631 512.032 66.1047 515.631" stroke="#171717" stroke-width="2" stroke-linecap="round" stroke-linejoin="round"/>
<path d="M37.2175 367.947L27.5523 361.206" stroke="#171717" stroke-width="2" stroke-linecap="round" stroke-linejoin="round"/>
<path d="M30.3512 371.639L37.2417 356.163" stroke="#171717" stroke-width="2" stroke-linecap="round" stroke-linejoin="round"/>
<path d="M197.057 218.873L205.962 206.224" stroke="#171717" stroke-width="2" stroke-linecap="round" stroke-linejoin="round"/>
<path d="M208.146 217.976L196.996 205.338" stroke="#171717" stroke-width="2" stroke-linecap="round" stroke-linejoin="round"/>
<path d="M947.474 672.795C951.173 668.844 954.176 664.133 956.324 658.91" stroke="#171717" stroke-width="2" stroke-linecap="round" stroke-linejoin="round"/>
<path d="M957.999 673.783C953.588 670.44 949.8 666.145 946.851 661.146" stroke="#171717" stroke-width="2" stroke-linecap="round" stroke-linejoin="round"/>
<g opacity="0.1">
<path d="M501.937 202.242C504.7 200.943 507.405 202.297 510.148 202.987C511.476 203.446 512.88 203.546 514.247 203.277C515.616 203.008 516.908 202.379 518.021 201.439C522.192 198.386 528.229 201.363 529.415 206.694C530.946 213.98 533.799 220.825 537.793 226.791C541.786 232.759 546.833 237.716 552.61 241.349C558.134 244.689 564.272 246.511 570.529 246.667C580.184 246.978 589.391 250.107 592.001 262.142C594.064 271.639 590.969 282.349 590.32 291.908C589.576 302.865 588.828 313.774 588.826 324.78C588.862 335.763 589.395 346.738 590.422 357.66C591.432 368.809 594.321 380.151 594.631 391.292C594.94 402.433 579.311 408.39 575.083 397.292C571.026 386.627 569.871 374.319 568.521 362.855C567.198 351.401 566.517 339.862 566.481 328.309C566.358 317.322 566.841 306.337 567.928 295.419C568.539 289.653 569.431 283.924 570.295 278.201C570.368 277.719 571.335 267.833 571.656 267.675C574.441 270.051 575.138 270.876 573.747 270.151C572.941 270.092 572.134 270.051 571.325 270.028C569.545 269.939 567.789 269.807 566.018 269.568C562.123 269.112 558.286 268.169 554.574 266.756C547.3 263.846 540.54 259.493 534.608 253.899C528.626 248.455 523.715 241.65 520.195 233.922C516.674 226.193 514.623 217.714 514.171 209.032L523.991 217.512C518.003 220.272 509.963 220.26 504.286 216.495C500.177 213.771 495.4 205.309 501.929 202.242H501.937Z" fill="#171717"/>
</g>
<g opacity="0.1">
<path d="M610.349 407.261C611.499 412.679 611.483 416.115 615.389 419.949C618.745 423.241 623.697 424.114 627.951 424.833C640.679 426.981 653.505 427.931 666.201 430.532C678.844 433.097 691.344 436.5 703.636 440.723C710.097 442.955 716.495 445.402 722.833 448.065C729.558 450.889 737.132 453.289 742.565 458.675C749.419 465.469 744.187 480.824 734.827 479.851C727.238 479.067 720.098 474.434 712.954 471.455C705.977 468.543 698.923 465.89 691.793 463.493C677.233 458.549 662.406 454.676 647.407 451.897C634.158 449.472 619.204 450.026 607.418 441.818C597.084 434.62 587.951 415.28 598.097 403.589C601.879 399.232 609.055 401.152 610.349 407.256V407.261Z" fill="#171717"/>
</g>
<g opacity="0.1">
<path d="M491.913 445.103C482.748 452.34 468.276 447.255 458.32 443.743C447.497 439.927 437.052 434.852 427.152 428.599C407.98 416.275 390.813 400.317 376.398 381.417C343.577 338.723 325.9 284.53 319.1 228.923C314.942 194.943 314.265 160.692 315.704 126.451C316.406 109.739 339.419 109.643 338.713 126.451C336.369 182.223 339.164 239.122 356.099 292.043C370.18 336.045 395.715 376.339 430.761 401.777C440.02 408.632 449.922 414.301 460.284 418.679C465.799 420.941 471.44 422.704 477.095 424.449C483.02 426.276 489.149 428.109 493.253 433.32C493.948 434.142 494.472 435.131 494.785 436.213C495.099 437.295 495.195 438.444 495.067 439.574C494.939 440.703 494.588 441.786 494.043 442.743C493.496 443.7 492.769 444.507 491.913 445.103Z" fill="#171717"/>
</g>
<g opacity="0.1">
<path d="M328.122 82.4039C316.445 88.22 302.224 83.6117 290.418 80.434C277.735 76.9067 265.264 72.4659 253.079 67.1374C247.859 64.9053 244.283 59.2284 245.861 52.7254C247.24 47.0337 253.318 42.3171 258.573 44.5418C270.488 49.5896 282.619 53.8802 294.845 57.8495C306.042 61.4851 320.397 63.3479 329.227 72.7134C331.568 75.1967 331.326 80.8169 328.125 82.4113L328.122 82.4039Z" fill="#171717"/>
</g>
</g>
<defs>
<linearGradient id="paint0_linear_219_117" x1="494.418" y1="115.188" x2="494.418" y2="859.135" gradientUnits="userSpaceOnUse">
<stop stop-color="#FFB800"/>
<stop offset="1" stop-color="#FF7F0A"/>
</linearGradient>
<linearGradient id="paint1_linear_219_117" x1="75.3036" y1="175.002" x2="75.3036" y2="252.095" gradientUnits="userSpaceOnUse">
<stop stop-color="#FFB800"/>
<stop offset="1" stop-color="#FF7F0A"/>
</linearGradient>
<linearGradient id="paint2_linear_219_117" x1="168.573" y1="456.412" x2="168.573" y2="528.875" gradientUnits="userSpaceOnUse">
<stop stop-color="#FFB800"/>
<stop offset="1" stop-color="#FF7F0A"/>
</linearGradient>
</defs>
</svg>
