<svg width="422" height="425" viewBox="0 0 422 425" fill="none" xmlns="http://www.w3.org/2000/svg">
<mask id="mask0_219_646" style="mask-type:luminance" maskUnits="userSpaceOnUse" x="33" y="17" width="356" height="391">
<path d="M33.4084 17.2656H388.152V407.734H33.4084V17.2656Z" fill="white"/>
</mask>
<g mask="url(#mask0_219_646)">
<path fill-rule="evenodd" clip-rule="evenodd" d="M206.795 64.5617C206.795 64.5617 210.485 56.4212 214.131 52.13C217.773 47.8339 220.176 47.2854 224.981 46.7413C229.787 46.1973 250.411 53.7711 254.519 59.8588C258.627 65.9465 248.91 78.9094 248.91 78.9094L248.862 79.0152C240.639 75.4364 232.237 72.2909 223.69 69.5922C217.092 67.4774 211.491 65.8048 206.795 64.5617ZM222.844 49.6309C223.182 49.495 223.566 49.6606 223.701 50.001C223.836 50.3414 223.672 50.7279 223.334 50.8643C221.941 51.4252 219.702 52.6887 217.6 54.6326C215.501 56.5743 213.575 59.1633 212.737 62.3698C212.644 62.7244 212.283 62.9361 211.931 62.8431C211.579 62.7497 211.369 62.3862 211.461 62.0316C212.382 58.509 214.485 55.7115 216.708 53.6542C218.93 51.5992 221.306 50.2507 222.844 49.6309Z" fill="url(#paint0_linear_219_646)"/>
<path fill-rule="evenodd" clip-rule="evenodd" d="M266.759 176.608L225.035 167.339L220.695 169.215L219.263 181.071L219.118 181.054C219.118 181.054 216.562 181.753 212.841 179.647C211.379 178.82 210.755 177.692 210.159 176.617C209.238 174.954 208.388 173.419 204.62 173.325C201.516 173.247 199.403 175.065 197.406 176.783C195.413 178.498 193.535 180.113 190.901 179.647C185.63 178.713 184.255 175.094 184.255 175.094L184.229 175.09C184.545 173.462 184.725 172.542 184.725 172.542C184.725 172.542 101 166.923 110.3 66.1523C114.466 65.0322 118.735 64.346 123.039 64.1039C129.965 63.6975 136.906 64.57 143.519 66.6778C145.981 67.4348 148.359 68.4459 150.614 69.6948C147.355 140.097 205.569 138.667 207.221 138.61C207.173 136.203 207.168 131.076 207.928 129.421C208.649 127.851 213.85 127.452 220.022 127.408C222.447 127.39 225.026 127.426 227.543 127.47C231.562 127.541 236.179 127.741 240.199 128.046C245.101 128.413 249.121 128.935 250.101 129.581C251.388 130.422 250.817 134.756 250.399 137.102L250.667 137.151C285.53 139.944 299.005 162.065 303.369 184.746C307.775 207.648 302.877 231.128 301.318 235.835C298.779 243.51 293.603 241.408 291.811 240.395C291.595 240.277 291.387 240.146 291.188 240.001L269.24 232.71C269.24 232.71 261.794 231.148 264.311 222.304C265.651 217.593 266.666 213.208 267.404 209.125C268.039 205.671 268.496 202.186 268.775 198.684C269.487 189.495 268.63 182.226 267.044 176.528L266.759 176.608ZM114.727 70.4656C112.035 94.3506 120.629 147.209 176.498 167.605L176.048 168.854C119.384 148.167 110.687 94.5387 113.417 70.3159L114.727 70.4656Z" fill="#171717"/>
<path d="M37.799 378.339C37.799 378.339 35.9849 384.329 40.637 393.386C45.2891 402.442 71.796 406.326 71.796 406.326V406.33C79.1849 404.914 85.5418 400.579 88.3881 391.979C89.7631 387.824 92.2278 382.874 95.4214 377.467L95.0038 377.22C95.0038 377.22 83.8823 378.361 80.5512 363.677C76.6943 371.915 74.2256 377.582 73.5051 378.552C70.7155 382.299 48.3864 376.681 48.3864 376.681C48.3864 376.681 41.9417 375.058 37.799 378.339Z" fill="url(#paint1_linear_219_646)"/>
<path d="M179.482 200.706L179.869 200.728C179.869 200.728 181.287 204.347 186.743 205.28C192.2 206.214 194.524 198.803 200.937 198.958C207.35 199.113 205.589 203.174 209.442 205.28C213.294 207.386 215.939 206.687 215.939 206.687L216.159 206.714L217.705 193.924L217.393 193.884C217.393 193.884 214.792 194.583 211.015 192.477C207.237 190.371 208.967 186.309 202.668 186.15C196.368 185.991 194.084 193.414 188.729 192.477C183.374 191.539 181.981 187.924 181.981 187.924L181.806 187.893C181.083 191.781 180.288 196.153 179.482 200.706Z" fill="#171717"/>
<path d="M247.979 91.5886C249.406 92.0397 265.638 97.0698 267.413 92.4908C268.586 89.4738 260.982 84.3946 248.863 79.0148C240.64 75.4364 232.238 72.2918 223.69 69.5935C217.092 67.4787 211.491 65.8061 206.795 64.563C193.467 61.0324 187.427 60.9133 186.583 63.7179C185.445 67.5097 196.612 71.6946 196.612 71.6946L196.647 71.9337C198.952 71.6698 201.276 71.6269 203.588 71.8053C203.588 71.8053 248.238 78.7027 246.74 83.4897C246.2 85.2238 246.643 88.3077 247.355 91.5912L247.979 91.5886Z" fill="url(#paint2_linear_219_646)"/>
<path d="M239.733 83.5391L239.966 105.669L240.177 105.664C240.177 105.664 243.95 111.283 246.274 109.098C248.493 107.014 245.497 102.47 245.211 102.05C245.475 102.399 247.97 105.602 249.582 104.518C250.672 103.788 248.607 97.3822 247.355 91.5911C246.643 88.3084 246.2 85.2245 246.739 83.4895C248.238 78.7025 203.588 71.8051 203.588 71.8051C201.275 71.6267 198.951 71.6697 196.647 71.9335C194.932 72.1814 193.48 72.6768 193.12 73.6017C192.113 76.1764 201.651 77.424 201.651 77.424C201.651 77.424 192.733 85.781 199.709 88.4355C205.911 90.7938 206.237 81.1308 206.228 78.9505V78.946C206.228 78.676 206.224 78.521 206.224 78.521C206.224 78.521 223.587 75.0037 239.452 83.5427L239.733 83.5391Z" fill="#171717"/>
<path d="M219.118 181.054C219.118 181.054 216.56 181.758 212.84 179.647C209.119 177.537 210.823 173.48 204.62 173.325C198.416 173.171 196.172 180.586 190.901 179.647C185.629 178.709 184.254 175.095 184.254 175.095L184.228 175.09C183.714 177.758 182.835 182.328 181.807 187.894L181.983 187.925C181.983 187.925 183.376 191.539 188.731 192.477C194.086 193.415 196.37 185.996 202.67 186.151C208.969 186.305 207.234 190.367 211.016 192.477C214.799 194.588 217.395 193.884 217.395 193.884L217.707 193.924L219.262 181.072L219.118 181.054Z" fill="url(#paint3_linear_219_646)"/>
<path d="M262.08 263.073C244.587 260.056 192.579 249.965 177.959 245.917C178.91 270.024 193.919 281.168 212.84 287.362C233.82 294.233 251.963 295.794 265.142 289.861C267.852 288.641 271.327 287.211 275.316 285.836C268.226 274.192 262.08 263.078 262.08 263.078L262.08 263.073Z" fill="url(#paint4_linear_219_646)"/>
<path d="M265.142 289.862C251.963 295.794 233.82 294.233 212.84 287.362C193.919 281.169 178.909 270.024 177.96 245.917C177.503 245.789 177.08 245.669 176.699 245.554C176.699 245.554 141.103 269.356 138.208 273.103C137.606 273.886 138.278 276.351 139.763 279.775C142.452 285.982 147.794 295.335 153.021 303.52C158.741 312.483 164.324 320.053 166.116 320.57C170.461 321.822 212.009 294.963 212.009 294.963C212.009 294.963 229.581 332.44 233.512 339.519C235.696 343.452 256.459 336.647 272.952 328.397C278.821 325.454 284.15 322.336 287.906 319.442C292.584 315.854 294.825 312.629 292.632 310.576C288.477 306.683 281.536 296.055 275.315 285.836C271.327 287.212 267.852 288.641 265.142 289.862Z" fill="url(#paint5_linear_219_646)"/>
<path d="M359.403 382.614C371.19 388.232 380.955 383.551 382.352 373.088C383.749 362.626 359.28 332.966 359.28 332.966C356.605 333.505 352.216 334.364 347.828 335.143C345.743 335.492 343.633 335.672 341.519 335.678V335.682C346.176 343.607 340.663 351.753 339.319 353.529C344.564 353.883 347.828 353.883 347.828 353.883C355.684 359.502 355.891 373.867 359.403 382.614Z" fill="url(#paint6_linear_219_646)"/>
<path d="M250.667 137.152C285.53 139.945 299.005 162.066 303.369 184.743C307.775 207.647 302.877 231.126 301.318 235.831C298.779 243.507 293.603 241.406 291.811 240.391C291.595 240.273 291.387 240.142 291.188 239.998L269.24 232.707C269.24 232.707 261.794 231.145 264.311 222.301C265.651 217.589 266.666 213.205 267.404 209.121C268.039 205.667 268.496 202.182 268.775 198.681C269.487 189.491 268.63 182.222 267.044 176.524C263.046 162.154 254.388 157.757 254.388 157.757" stroke="#171717" stroke-width="2" stroke-linecap="round" stroke-linejoin="round"/>
<path d="M207.256 138.609H207.221C205.569 138.666 147.354 140.095 150.614 69.6935C148.359 68.4442 145.981 67.4335 143.519 66.6765C136.905 64.5692 129.964 63.6975 123.039 64.1044C118.734 64.3461 114.466 65.0327 110.3 66.1528" stroke="#171717" stroke-width="2" stroke-linecap="round" stroke-linejoin="round"/>
<path d="M267.825 255.407C267.825 255.407 270.101 263.733 267.825 263.941C267.501 263.972 265.418 263.653 262.08 263.074C244.587 260.057 192.579 249.965 177.959 245.917C177.503 245.789 177.08 245.669 176.699 245.555C175.319 245.143 174.445 244.811 174.181 244.581C172.429 243.05 176.022 220.248 179.484 200.708C180.288 196.155 181.083 191.785 181.808 187.896C182.836 182.33 183.714 177.76 184.228 175.092C184.545 173.464 184.724 172.544 184.724 172.544C184.724 172.544 101 166.924 110.299 66.155" stroke="#171717" stroke-width="2" stroke-linecap="round" stroke-linejoin="round"/>
<path d="M262.08 263.078C262.08 263.078 268.225 274.19 275.315 285.836C281.536 296.056 288.477 306.683 292.632 310.576C294.825 312.629 292.584 315.854 287.906 319.442C284.15 322.336 278.821 325.454 272.952 328.397C256.461 336.647 235.696 343.452 233.512 339.519C229.581 332.44 212.011 294.963 212.011 294.963C212.011 294.963 170.463 321.822 166.119 320.57C164.326 320.053 158.743 312.483 153.023 303.52C147.796 295.335 142.454 285.982 139.766 279.775C138.281 276.351 137.608 273.887 138.21 273.103C141.105 269.356 176.701 245.554 176.701 245.554" stroke="#171717" stroke-width="2" stroke-linecap="round" stroke-linejoin="round"/>
<path d="M250.101 138.617C250.101 138.617 250.237 138.007 250.399 137.1C250.817 134.754 251.388 130.42 250.101 129.579C249.121 128.933 245.101 128.411 240.199 128.044C236.179 127.739 231.562 127.54 227.543 127.468C225.026 127.424 222.447 127.389 220.022 127.406C213.85 127.451 208.649 127.849 207.928 129.419C207.168 131.074 207.173 136.202 207.221 138.608C207.234 139.387 207.256 139.882 207.256 139.882" stroke="#171717" stroke-width="2" stroke-linecap="round" stroke-linejoin="round"/>
<path d="M240.199 128.04L239.966 105.667L239.733 83.5375L239.711 81.4846" stroke="#171717" stroke-width="2" stroke-linecap="round" stroke-linejoin="round"/>
<path d="M206.229 78.9456C206.226 78.9339 206.224 78.9216 206.224 78.9094" stroke="#171717" stroke-width="2" stroke-linecap="round" stroke-linejoin="round"/>
<path d="M220.022 127.402C220.022 127.402 221.88 119.35 219.557 117.475C217.233 115.599 211.803 115.758 209.791 109.98C207.823 104.339 206.299 80.0861 206.228 78.9492" stroke="#171717" stroke-width="2" stroke-linecap="round" stroke-linejoin="round"/>
<path d="M245.189 102.016C245.197 102.026 245.205 102.036 245.211 102.047C245.475 102.397 247.97 105.6 249.582 104.516C250.672 103.785 248.607 97.3795 247.355 91.5884C246.643 88.3057 246.2 85.2218 246.739 83.4869C248.238 78.6999 203.588 71.8025 203.588 71.8025C201.275 71.624 198.951 71.667 196.647 71.9308C194.932 72.1788 193.48 72.6741 193.12 73.599C192.113 76.1738 201.651 77.4213 201.651 77.4213C201.651 77.4213 192.733 85.7783 199.709 88.4328C205.911 90.7911 206.237 81.1281 206.228 78.9478V78.9433C206.228 78.6733 206.224 78.5183 206.224 78.5183C206.224 78.5183 223.587 75.001 239.452 83.54" stroke="#171717" stroke-width="2" stroke-linecap="round" stroke-linejoin="round"/>
<path d="M240.176 105.663C240.176 105.663 243.95 111.281 246.274 109.096C248.492 107.012 245.496 102.468 245.211 102.048" stroke="#171717" stroke-width="2" stroke-linecap="round" stroke-linejoin="round"/>
<path d="M247.878 91.5576C247.878 91.5576 247.913 91.5709 247.979 91.5886C249.406 92.0397 265.638 97.0698 267.413 92.4908C268.586 89.4738 260.982 84.3946 248.863 79.0148C240.64 75.4364 232.238 72.2918 223.69 69.5935C217.092 67.4787 211.491 65.8061 206.795 64.563C193.467 61.0324 187.427 60.9133 186.583 63.7179C185.445 67.5097 196.612 71.6946 196.612 71.6946" stroke="#171717" stroke-width="2" stroke-linecap="round" stroke-linejoin="round"/>
<path d="M248.91 78.9094C248.91 78.9094 258.627 65.9465 254.519 59.8588C250.411 53.7711 229.787 46.1973 224.981 46.7413C220.176 47.2854 217.772 47.8339 214.13 52.13C210.489 56.426 206.794 64.5617 206.794 64.5617" stroke="#171717" stroke-width="2" stroke-linecap="round" stroke-linejoin="round"/>
<path d="M130.459 53.6647C130.46 53.659 130.461 53.6528 130.464 53.647C130.587 52.8555 134.413 27.9741 129.84 26.912C125.188 25.8327 123.017 63.7164 123.017 63.7164" stroke="#171717" stroke-width="2" stroke-linecap="round" stroke-linejoin="round"/>
<path d="M136.557 54.9129C136.557 54.9053 136.558 54.8978 136.561 54.8907C136.737 54.0412 141.876 29.0808 138.935 28.0581C135.983 27.0315 130.627 52.8556 130.465 53.6467" stroke="#171717" stroke-width="2" stroke-linecap="round" stroke-linejoin="round"/>
<path d="M142.552 58.5581L142.557 58.5537C142.689 58.1026 149.858 33.7694 146.374 32.2208C142.921 30.6859 136.775 54.0677 136.561 54.8907" stroke="#171717" stroke-width="2" stroke-linecap="round" stroke-linejoin="round"/>
<path d="M143.466 66.7255C143.466 66.7255 143.484 66.7078 143.519 66.6768C144.385 65.9069 155.899 55.5546 153.61 53.2494C151.264 50.8871 142.785 58.3503 142.557 58.554" stroke="#171717" stroke-width="2" stroke-linecap="round" stroke-linejoin="round"/>
<path d="M291.811 240.395C291.147 242.424 290.259 244.371 289.162 246.2C288.424 247.458 287.568 248.642 286.606 249.735C283.412 253.327 278.619 256.039 271.885 253.557" stroke="#171717" stroke-width="2" stroke-linecap="round" stroke-linejoin="round"/>
<path d="M277.077 249.734C275.614 251.334 273.831 252.603 271.846 253.46C270.55 254.023 269.169 254.364 267.76 254.468C265.41 254.636 262.705 254.123 259.77 252.331" stroke="#171717" stroke-width="2" stroke-linecap="round" stroke-linejoin="round"/>
<path d="M268.836 247.938C268.836 247.938 264.579 251.137 259.769 252.331H259.765C256.624 253.115 253.245 253.04 250.665 250.668C246.69 247.009 249.374 241.439 249.374 241.439" stroke="#171717" stroke-width="2" stroke-linecap="round" stroke-linejoin="round"/>
<path d="M269.24 232.711C269.24 232.711 263.222 235.998 258.368 239.422C257.091 240.306 255.865 241.262 254.696 242.284C252.917 243.878 251.91 245.288 252.53 246.142C255.939 250.828 268.204 240.395 268.204 240.395" stroke="#171717" stroke-width="2" stroke-linecap="round" stroke-linejoin="round"/>
<path d="M303.369 184.744L323.849 189.296L326.071 254.283L322.504 256.915L286.61 249.735" stroke="#171717" stroke-width="2" stroke-linecap="round" stroke-linejoin="round"/>
<path d="M254.287 242.16L249.415 241.222L212.84 234.17L214.36 221.605L215.339 213.514L216.161 206.714L217.707 193.924L219.262 181.071L220.694 169.215L225.035 167.339L266.759 176.608" stroke="#171717" stroke-width="2" stroke-linecap="round" stroke-linejoin="round"/>
<path d="M258.368 239.422L217.233 231.153L225.035 167.339" stroke="#171717" stroke-width="2" stroke-linecap="round" stroke-linejoin="round"/>
<path d="M289.162 246.2L326.071 254.283" stroke="#171717" stroke-width="2" stroke-linecap="round" stroke-linejoin="round"/>
<path d="M246.252 137.732H211.442" stroke="#171717" stroke-width="2" stroke-linecap="round" stroke-linejoin="round"/>
<path d="M287.91 319.446C287.91 319.446 291.144 328.064 310.39 331.81C324.694 334.597 334.529 335.774 341.523 335.677C343.636 335.67 345.746 335.491 347.831 335.142C352.219 334.363 356.608 333.504 359.283 332.965C360.895 332.642 361.888 332.438 361.888 332.438C361.888 332.438 390.417 363.456 386.901 376.99C383.384 390.523 362.92 391.355 359.405 382.612C355.891 373.869 355.685 359.5 347.83 353.88C347.83 353.88 344.566 353.88 339.321 353.526C331.37 352.991 318.858 351.646 306.277 348.258C285.56 342.683 273.141 328.61 272.952 328.393L272.948 328.389" stroke="#171717" stroke-width="2" stroke-linecap="round" stroke-linejoin="round"/>
<path d="M339.044 353.888C339.044 353.888 339.15 353.764 339.321 353.53C340.665 351.751 346.179 343.606 341.522 335.683" stroke="#171717" stroke-width="2" stroke-linecap="round" stroke-linejoin="round"/>
<path d="M80.5506 363.674C91.625 340.027 114.161 295.224 139.762 279.774" stroke="#171717" stroke-width="2" stroke-linecap="round" stroke-linejoin="round"/>
<path d="M153.019 303.521C153.019 303.521 113.087 347.506 95.4191 377.471C92.2256 382.877 89.7608 387.828 88.3858 391.982C85.5395 400.583 79.1827 404.918 71.7937 406.334C55.8369 409.396 35.0692 398.861 34.4322 388.336C34.1157 383.072 35.6446 380.045 37.7968 378.342C41.9394 375.06 48.3841 376.683 48.3841 376.683C48.3841 376.683 70.715 382.302 73.5028 378.555C74.2233 377.586 76.692 371.919 80.5489 363.68" stroke="#171717" stroke-width="2" stroke-linecap="round" stroke-linejoin="round"/>
<path d="M95.0037 377.222C95.0037 377.222 83.8822 378.363 80.551 363.679V363.675" stroke="#171717" stroke-width="2" stroke-linecap="round" stroke-linejoin="round"/>
<path d="M226.225 101.548C226.225 101.548 222.425 102.738 222.271 101.167C222.118 99.5963 223.898 82.8911 223.898 82.8911C223.898 82.8911 215.991 80.2349 211.883 81.953" stroke="#171717" stroke-width="2" stroke-linecap="round" stroke-linejoin="round"/>
<path d="M219.051 88.3555C218.475 87.9973 217.811 87.8079 217.134 87.8079C216.456 87.8079 215.792 87.9973 215.216 88.3555" stroke="#171717" stroke-width="2" stroke-linecap="round" stroke-linejoin="round"/>
<path d="M233.82 87.8021C233.82 87.8021 231.105 85.6214 228.861 87.4174" stroke="#171717" stroke-width="2" stroke-linecap="round" stroke-linejoin="round"/>
<path d="M236.223 108.732C236.223 108.732 233.586 112.325 229.946 111.467" stroke="#171717" stroke-width="2" stroke-linecap="round" stroke-linejoin="round"/>
<path d="M305.434 85.9085C305.434 88.5691 306.216 91.1701 307.684 93.3827C309.152 95.5949 311.237 97.3197 313.678 98.3379C316.119 99.3562 318.805 99.6231 321.396 99.1038C323.987 98.585 326.367 97.3038 328.235 95.4223C330.103 93.5408 331.376 91.1435 331.891 88.5342C332.406 85.9244 332.141 83.2195 331.13 80.7615C330.119 78.3036 328.407 76.2025 326.21 74.7248C324.013 73.247 321.43 72.4585 318.788 72.459C317.034 72.459 315.298 72.807 313.677 73.4825C312.057 74.1585 310.585 75.1493 309.345 76.3982C308.105 77.6471 307.122 79.1297 306.45 80.7615C305.779 82.3934 305.434 84.1421 305.434 85.9085Z" stroke="#171717" stroke-width="2" stroke-linecap="round" stroke-linejoin="round"/>
<path d="M315.116 67.2333L312.01 54.7578" stroke="#171717" stroke-width="2" stroke-linecap="round" stroke-linejoin="round"/>
<path d="M325.04 102.853L329.068 117.683" stroke="#171717" stroke-width="2" stroke-linecap="round" stroke-linejoin="round"/>
<path d="M335.582 92.7786L341.785 96.1011" stroke="#171717" stroke-width="2" stroke-linecap="round" stroke-linejoin="round"/>
<path d="M335.582 80.3649L362.247 74.4321" stroke="#171717" stroke-width="2" stroke-linecap="round" stroke-linejoin="round"/>
<path d="M329.068 71.149L333.72 66.1721" stroke="#171717" stroke-width="2" stroke-linecap="round" stroke-linejoin="round"/>
<path d="M303.334 74.4321L297.874 72.459" stroke="#171717" stroke-width="2" stroke-linecap="round" stroke-linejoin="round"/>
<path d="M300.602 92.2261L289.07 95.0705" stroke="#171717" stroke-width="2" stroke-linecap="round" stroke-linejoin="round"/>
<path d="M310.732 102.853L307.674 107.578" stroke="#171717" stroke-width="2" stroke-linecap="round" stroke-linejoin="round"/>
<path d="M210.411 215.926C210.411 215.926 180.639 207.573 178.162 237.555C177.923 240.335 177.855 243.128 177.96 245.917C178.91 270.024 193.919 281.169 212.84 287.362C233.82 294.233 251.963 295.795 265.142 289.862C267.852 288.641 271.327 287.212 275.316 285.836C290.722 280.531 313.794 276.081 330.073 287.991" stroke="#171717" stroke-width="2" stroke-linecap="round" stroke-linejoin="round"/>
<path d="M331.172 287.26C330.678 287.632 330.247 288.08 329.894 288.588C327.473 292.057 329.125 297.62 333.548 302.219C334.616 303.327 335.785 304.332 337.041 305.219C343.978 310.133 352.016 310.652 354.999 306.383C357.982 302.114 354.784 294.663 347.852 289.752C347.448 289.464 347.039 289.194 346.631 288.943C340.841 285.318 334.546 284.685 331.172 287.26Z" stroke="#171717" stroke-width="2" stroke-linecap="round" stroke-linejoin="round"/>
<path d="M219.117 181.054C219.117 181.054 216.56 181.758 212.84 179.647C209.119 177.537 210.823 173.48 204.62 173.325C198.416 173.171 196.172 180.586 190.901 179.647C185.629 178.709 184.254 175.095 184.254 175.095" stroke="#171717" stroke-width="2" stroke-linecap="round" stroke-linejoin="round"/>
<path d="M217.395 193.884C217.395 193.884 214.795 194.583 211.017 192.477C207.239 190.371 208.97 186.309 202.67 186.15C196.37 185.991 194.086 193.414 188.731 192.477C183.376 191.539 181.984 187.924 181.984 187.924" stroke="#171717" stroke-width="2" stroke-linecap="round" stroke-linejoin="round"/>
<path d="M215.941 206.688C215.941 206.688 213.292 207.391 209.444 205.281C205.596 203.17 207.357 199.113 200.939 198.958C194.521 198.804 192.197 206.219 186.746 205.281C181.294 204.343 179.871 200.728 179.871 200.728" stroke="#171717" stroke-width="2" stroke-linecap="round" stroke-linejoin="round"/>
<path d="M216.354 221.938L217.232 213.819L215.339 213.514L212.84 213.116L211.57 220.924L214.36 221.606L215.73 221.938" stroke="#171717" stroke-width="2" stroke-linecap="round" stroke-linejoin="round"/>
<path d="M268.775 198.685C268.775 198.685 264.285 198.906 263.591 202.812C262.906 206.63 267.215 209.019 267.404 209.125H267.409" stroke="#171717" stroke-width="2" stroke-linecap="round" stroke-linejoin="round"/>
<path d="M359.282 332.966C359.282 332.966 383.751 362.627 382.354 373.088C380.957 383.55 371.191 388.232 359.405 382.614" stroke="#171717" stroke-width="2" stroke-linecap="round" stroke-linejoin="round"/>
<path d="M71.7959 406.327C71.7959 406.327 45.2846 402.443 40.6369 393.387C35.9892 384.331 37.7989 378.34 37.7989 378.34" stroke="#171717" stroke-width="2" stroke-linecap="round" stroke-linejoin="round"/>
<path d="M346.631 288.938V288.942C346.622 289.123 346.372 294.242 343.064 298.069C341.129 300.312 338.148 302.113 333.548 302.219" stroke="#171717" stroke-width="2" stroke-linecap="round" stroke-linejoin="round"/>
<path d="M331.172 287.261C331.172 287.261 340.054 290.765 343.064 298.069" stroke="#171717" stroke-width="2" stroke-linecap="round" stroke-linejoin="round"/>
<path d="M310.714 359.287C304.402 358.661 298.41 356.188 293.476 352.175" stroke="#171717" stroke-width="2" stroke-linecap="round" stroke-linejoin="round"/>
<path d="M239.919 323.694L240.953 318.697" stroke="#171717" stroke-width="2" stroke-linecap="round" stroke-linejoin="round"/>
<path d="M271.961 302.25L268.24 300.793" stroke="#171717" stroke-width="2" stroke-linecap="round" stroke-linejoin="round"/>
<path d="M243.444 284.764L244.128 280.611" stroke="#171717" stroke-width="2" stroke-linecap="round" stroke-linejoin="round"/>
<path d="M222.555 266.639L216.968 266.063" stroke="#171717" stroke-width="2" stroke-linecap="round" stroke-linejoin="round"/>
<path d="M253.357 271.437L253.976 268.314" stroke="#171717" stroke-width="2" stroke-linecap="round" stroke-linejoin="round"/>
<path d="M192.433 294.817L187.223 292.627" stroke="#171717" stroke-width="2" stroke-linecap="round" stroke-linejoin="round"/>
<path d="M165.441 301.809C166.233 299.954 166.287 297.863 165.592 295.969" stroke="#171717" stroke-width="2" stroke-linecap="round" stroke-linejoin="round"/>
<path d="M158.058 275.169C156.187 274.914 154.283 275.065 152.475 275.611" stroke="#171717" stroke-width="2" stroke-linecap="round" stroke-linejoin="round"/>
<path d="M175.914 272.511C176.494 271.023 176.467 269.364 175.839 267.896" stroke="#171717" stroke-width="2" stroke-linecap="round" stroke-linejoin="round"/>
<path d="M194.01 257.679L189.981 261.538" stroke="#171717" stroke-width="2" stroke-linecap="round" stroke-linejoin="round"/>
<path d="M363.121 296.427C364.355 297.765 365.116 299.476 365.285 301.294C365.453 303.112 365.021 304.935 364.054 306.48" stroke="#171717" stroke-width="2" stroke-linecap="round" stroke-linejoin="round"/>
<path d="M318.065 276.43C316.307 274.813 314.185 273.651 311.881 273.044C309.578 272.438 307.163 272.405 304.844 272.949" stroke="#171717" stroke-width="2" stroke-linecap="round" stroke-linejoin="round"/>
<path d="M220.493 187.535L221.33 180.874" stroke="#171717" stroke-width="2" stroke-linecap="round" stroke-linejoin="round"/>
<path d="M218.833 200.026L219.246 195.862" stroke="#171717" stroke-width="2" stroke-linecap="round" stroke-linejoin="round"/>
<path d="M109.78 49.908C109.031 41.6168 111.57 33.364 116.841 26.9509" stroke="#171717" stroke-width="2" stroke-linecap="round" stroke-linejoin="round"/>
<path d="M104.697 39.2988C104.736 37.8218 105.176 36.3838 105.969 35.1409" stroke="#171717" stroke-width="2" stroke-linecap="round" stroke-linejoin="round"/>
<path d="M307.755 174.411C306.031 167.55 303.059 161.071 298.99 155.303" stroke="#171717" stroke-width="2" stroke-linecap="round" stroke-linejoin="round"/>
<path d="M168.938 214.793L171.256 199.726C171.452 198.762 171.507 197.774 171.416 196.794" stroke="#171717" stroke-width="2" stroke-linecap="round" stroke-linejoin="round"/>
<path d="M100.204 391.056C103.982 379.668 109.612 368.992 116.862 359.461" stroke="#171717" stroke-width="2" stroke-linecap="round" stroke-linejoin="round"/>
<path d="M58.6356 378.856C61.3698 383.575 62.4798 389.071 61.7923 394.49" stroke="#171717" stroke-width="2" stroke-linecap="round" stroke-linejoin="round"/>
<path d="M51.1703 377.309C53.5173 382.149 54.2777 387.614 53.3432 392.918" stroke="#171717" stroke-width="2" stroke-linecap="round" stroke-linejoin="round"/>
<path d="M352.876 359.607C354.65 358.972 356.25 357.925 357.546 356.55C358.842 355.176 359.799 353.513 360.338 351.697" stroke="#171717" stroke-width="2" stroke-linecap="round" stroke-linejoin="round"/>
<path d="M356.312 369.364C358.588 368.749 360.672 367.564 362.372 365.92C364.071 364.275 365.329 362.225 366.031 359.96" stroke="#171717" stroke-width="2" stroke-linecap="round" stroke-linejoin="round"/>
<path d="M260.767 69.6784C261.711 67.7933 262.176 65.7011 262.121 63.5903C262.065 61.479 261.491 59.4146 260.448 57.5823" stroke="#171717" stroke-width="2" stroke-linecap="round" stroke-linejoin="round"/>
<path d="M201.268 47.5191L198.475 42.5234" stroke="#171717" stroke-width="2" stroke-linecap="round" stroke-linejoin="round"/>
<path d="M197.232 46.5882L202.444 42.4526" stroke="#171717" stroke-width="2" stroke-linecap="round" stroke-linejoin="round"/>
<path d="M222.657 29.7215V24.7251" stroke="#171717" stroke-width="2" stroke-linecap="round" stroke-linejoin="round"/>
<path d="M226.385 27.4982L219.874 26.2444" stroke="#171717" stroke-width="2" stroke-linecap="round" stroke-linejoin="round"/>
<path d="M143.247 167.5C131.482 161.589 122.019 151.883 116.366 139.929" stroke="#171717" stroke-width="2" stroke-linecap="round" stroke-linejoin="round"/>
<path d="M336.426 173.97L340.774 168.981" stroke="#171717" stroke-width="2" stroke-linecap="round" stroke-linejoin="round"/>
<path d="M341.408 173.709C339.74 172.542 338.454 170.903 337.71 169" stroke="#171717" stroke-width="2" stroke-linecap="round" stroke-linejoin="round"/>
<path d="M367.959 179.518C373.708 183.867 377.507 191.073 376.872 198.285C376.238 205.497 370.674 212.256 363.564 213.329C361.072 213.705 358.373 213.366 356.342 211.866C354.31 210.365 353.152 207.542 354.041 205.168C355.35 201.671 360.602 200.997 363.354 203.507C366.106 206.017 366.409 210.466 364.907 213.885C363.405 217.304 360.461 219.857 357.39 221.962C354.32 224.067 351.017 225.862 348.267 228.374C345.995 230.449 344.039 233.401 344.619 236.435C345.256 239.764 348.888 241.866 352.252 241.73C355.616 241.595 358.674 239.733 361.283 237.59" stroke="#171717" stroke-width="2" stroke-linecap="round" stroke-linejoin="round"/>
<path d="M369.933 225.815C371.152 225.08 372.146 224.021 372.808 222.755" stroke="#171717" stroke-width="2" stroke-linecap="round" stroke-linejoin="round"/>
<path d="M373.38 226.766L370.19 222.144" stroke="#171717" stroke-width="2" stroke-linecap="round" stroke-linejoin="round"/>
<path d="M346.693 198.673L343.282 194.301" stroke="#171717" stroke-width="2" stroke-linecap="round" stroke-linejoin="round"/>
<path d="M343.82 198.596L347.241 194.858" stroke="#171717" stroke-width="2" stroke-linecap="round" stroke-linejoin="round"/>
<path d="M94.0815 161.742C89.2773 173.76 89.2615 187.181 94.0375 199.21C95.8697 203.763 98.8963 208.446 103.651 209.542C108.077 210.563 112.691 208.029 115.558 204.484C118.097 201.347 119.503 196.507 116.959 193.375C114.88 190.815 111.029 190.531 107.859 191.397C100.773 193.332 95.5405 199.877 93.6758 207.029C91.8111 214.181 92.8889 221.821 95.1224 228.865C96.6641 233.725 99.6572 239.115 104.703 239.565C108.038 239.863 111.139 237.821 114.467 237.455C119.363 236.916 124.301 240.507 125.583 245.296C126.865 250.086 124.548 255.539 120.357 258.144C116.166 260.75 110.467 260.475 106.383 257.705" stroke="#171717" stroke-width="2" stroke-linecap="round" stroke-linejoin="round"/>
<path d="M130.871 238.334L126.53 233.962" stroke="#171717" stroke-width="2" stroke-linecap="round" stroke-linejoin="round"/>
<path d="M127.15 237.397C127.984 235.746 129.233 234.344 130.773 233.33L129.941 232.711" stroke="#171717" stroke-width="2" stroke-linecap="round" stroke-linejoin="round"/>
<path d="M82.5073 188.354L78.4742 185.233" stroke="#171717" stroke-width="2" stroke-linecap="round" stroke-linejoin="round"/>
<path d="M79.3449 188.959C80.4395 187.256 81.2914 185.407 81.8765 183.466" stroke="#171717" stroke-width="2" stroke-linecap="round" stroke-linejoin="round"/>
<path d="M198.676 28.8163L201.501 31.9564C201.586 32.0512 201.698 32.1175 201.822 32.1462C201.946 32.1749 202.075 32.1647 202.193 32.117C202.311 32.0693 202.411 31.9864 202.481 31.8794C202.551 31.7724 202.586 31.6464 202.582 31.5186L202.463 27.2827C202.46 27.1592 202.493 27.0373 202.558 26.9326C202.623 26.8279 202.718 26.745 202.83 26.6944L206.668 24.9585C206.784 24.9062 206.881 24.8194 206.946 24.7097C207.012 24.6 207.042 24.4729 207.033 24.3453C207.025 24.2177 206.978 24.0958 206.898 23.9961C206.818 23.8964 206.711 23.8236 206.589 23.7875L202.552 22.5922C202.434 22.5575 202.329 22.4885 202.251 22.394C202.172 22.2995 202.123 22.1836 202.11 22.061L201.657 17.8482C201.643 17.7209 201.591 17.601 201.508 17.5044C201.424 17.4078 201.314 17.3393 201.19 17.3082C201.067 17.277 200.937 17.2846 200.819 17.3301C200.7 17.3755 200.598 17.4565 200.526 17.5622L198.153 21.0596C198.083 21.1616 197.985 21.2407 197.871 21.2868C197.757 21.3329 197.632 21.3439 197.512 21.3186L193.394 20.4504C193.27 20.4242 193.14 20.4369 193.023 20.4869C192.907 20.5369 192.808 20.6218 192.74 20.7302C192.673 20.8386 192.64 20.9651 192.646 21.0929C192.652 21.2207 192.697 21.3435 192.775 21.4447L195.343 24.8013C195.418 24.8992 195.462 25.0173 195.471 25.1406C195.479 25.2639 195.451 25.387 195.39 25.4942L193.298 29.1709C193.234 29.2818 193.207 29.4095 193.218 29.5369C193.229 29.6643 193.278 29.7852 193.36 29.8833C193.441 29.9814 193.551 30.052 193.673 30.0856C193.795 30.1192 193.925 30.1143 194.045 30.0713L198.008 28.648C198.124 28.6068 198.248 28.6008 198.367 28.6307C198.486 28.6607 198.593 28.7252 198.676 28.8163Z" fill="#171717"/>
<path d="M77.1227 235.587L78.9734 238.376C79.0292 238.46 79.1096 238.526 79.2033 238.562C79.2969 238.599 79.3993 238.607 79.4974 238.583C79.595 238.559 79.6833 238.506 79.7506 238.43C79.8174 238.355 79.8596 238.26 79.8715 238.16L80.2671 234.828C80.279 234.73 80.3185 234.639 80.3818 234.564C80.4451 234.49 80.5286 234.436 80.6223 234.409L83.8312 233.499C83.9279 233.472 84.0141 233.415 84.0778 233.337C84.1416 233.259 84.1803 233.163 84.1882 233.062C84.1961 232.961 84.1732 232.86 84.1222 232.772C84.0717 232.684 83.9956 232.615 83.9042 232.572L80.8794 231.164C80.7915 231.123 80.7172 231.056 80.6667 230.972C80.6157 230.889 80.5906 230.792 80.5946 230.694L80.7264 227.341C80.7304 227.24 80.7036 227.139 80.6495 227.054C80.5955 226.969 80.5163 226.903 80.4236 226.864C80.3308 226.825 80.2284 226.815 80.1299 226.837C80.0319 226.859 79.9427 226.91 79.8741 226.985L77.6089 229.446C77.543 229.518 77.4573 229.568 77.3628 229.591C77.2678 229.614 77.1689 229.608 77.0775 229.574L73.9516 228.412C73.8575 228.377 73.7547 228.372 73.6575 228.397C73.5599 228.422 73.4729 228.477 73.4074 228.554C73.3419 228.631 73.3019 228.727 73.2918 228.828C73.2817 228.928 73.3028 229.029 73.3516 229.118L74.978 232.048C75.0255 232.134 75.0466 232.232 75.0387 232.329C75.0308 232.427 74.9947 232.52 74.9341 232.597L72.868 235.232C72.8056 235.311 72.7691 235.408 72.7629 235.51C72.7572 235.611 72.7823 235.712 72.835 235.798C72.8878 235.885 72.9656 235.953 73.0579 235.994C73.1502 236.034 73.2527 236.045 73.3516 236.025L76.6207 235.374C76.7161 235.356 76.8146 235.366 76.9038 235.404C76.9931 235.442 77.0691 235.506 77.1227 235.587Z" fill="#171717"/>
<g opacity="0.1">
<path d="M370.349 387.782C367.833 389.872 363.681 386.264 361.915 384.472C359.222 381.774 357.181 378.489 355.95 374.87C354.716 371.255 354.593 367.404 354.048 363.652C353.564 360.334 352.586 356.964 349.273 355.524C345.912 354.063 341.923 354.426 338.354 354.32C333.989 354.174 329.636 353.76 325.321 353.077C316.854 351.75 308.586 349.362 300.707 345.968C291.815 342.132 283.488 337.085 275.959 330.967C274.532 329.816 274.789 327.388 275.959 326.186C277.345 324.759 279.3 325.054 280.708 326.186C293.953 336.817 310.035 343.789 326.725 346.553C330.818 347.22 334.95 347.611 339.095 347.726C343.036 347.844 347.179 347.667 350.944 349.043C359.277 352.087 360.388 360.136 361.041 367.967C361.339 372.009 362.642 375.91 364.829 379.311C365.96 381.103 367.589 382.734 369.039 384.27C369.648 384.914 371.615 386.732 370.35 387.783L370.349 387.782Z" fill="#171717"/>
</g>
<g opacity="0.1">
<path d="M236.659 340.792C233.022 339.405 231.351 334.486 229.574 331.296C227.579 327.716 225.695 324.073 223.78 320.447C219.812 312.934 215.894 305.394 212.028 297.828C210.009 293.897 215.896 290.41 217.935 294.351C221.839 301.902 225.708 309.471 229.54 317.058C231.383 320.727 233.26 324.38 235.021 328.09C236.56 331.328 239.802 335.827 238.84 339.546C238.614 340.416 237.55 341.132 236.66 340.792H236.659Z" fill="#171717"/>
</g>
<g opacity="0.1">
<path d="M152.19 303.79C150.549 307.79 146.871 310.956 143.903 314.006C140.762 317.236 137.651 320.494 134.569 323.781C128.511 330.258 122.529 336.793 116.952 343.703C111.436 350.482 106.411 357.652 101.915 365.156C97.5678 372.475 94.219 380.135 90.8997 387.955C87.704 395.486 83.2475 403.315 74.8286 405.554C70.4653 406.715 68.6032 399.908 72.9661 398.751C79.4235 397.039 82.4852 390.055 84.8722 384.392C88.169 376.566 91.5538 368.923 95.8991 361.613C104.767 346.702 116.023 333.341 127.874 320.767C131.22 317.216 134.683 313.772 138.148 310.34C141.472 307.047 145.025 302.77 149.427 301.008C150.932 300.405 152.817 302.259 152.19 303.79Z" fill="#171717"/>
</g>
<g opacity="0.1">
<path d="M289.895 241.523C291.469 247.149 286.168 252.679 281.549 255.114C280.738 255.567 279.785 255.687 278.888 255.45C277.991 255.214 277.219 254.638 276.733 253.842C276.579 253.577 276.459 253.292 276.379 252.996C275.973 251.601 276.623 249.65 277.996 248.993C280.003 248.09 281.806 246.784 283.294 245.154C283.939 244.411 284.597 243.664 285.208 242.893C285.841 242.13 286.558 241.443 287.346 240.845C288.217 240.142 289.558 240.32 289.896 241.523L289.895 241.523Z" fill="#171717"/>
</g>
<g opacity="0.1">
<path d="M208.238 78.5088C214.503 77.5428 220.882 78.0019 227.129 78.8904C232.196 79.6111 238.35 80.7316 239.996 86.4633C240.806 89.2798 240.498 92.5771 240.58 95.4769C240.678 98.9809 240.683 102.487 240.711 105.992C240.738 109.205 240.741 112.418 240.721 115.63C240.704 118.877 241.332 122.972 240.302 126.06C239.074 129.747 233.162 127.944 234.6 124.477L234.652 124.27C234.657 123.878 234.763 123.493 234.961 123.155C235.158 122.816 235.44 122.535 235.778 122.34C236.116 122.145 236.499 122.042 236.888 122.041C237.278 122.04 237.662 122.141 238.001 122.335L237.451 122.291L234.6 126.06C233.644 123.475 234.034 120.128 233.929 117.383C233.817 114.461 233.69 111.542 233.617 108.62C233.475 102.924 233.345 97.2322 233.316 91.5319C233.306 89.6097 233.635 87.9818 231.855 86.891C230.006 85.7585 227.539 85.4301 225.461 84.9794C219.958 83.7894 214.404 83.4547 208.823 82.8694C206.581 82.6344 205.57 78.9187 208.237 78.507L208.238 78.5088Z" fill="#171717"/>
</g>
<g opacity="0.1">
<path d="M249.4 87.4792C251.729 87.4256 254.047 88.3261 256.363 88.5771C258.734 88.8339 261.315 88.984 263.668 88.5329V93.1454C257.654 91.6296 251.957 88.196 246.23 85.7611C240.251 83.2199 234.167 80.8638 228.034 78.7335C215.851 74.5118 203.337 71.3279 190.625 69.2153C188.603 68.8779 187.475 66.3576 187.977 64.5181C188.566 62.3604 190.614 61.5077 192.641 61.8513C205.61 64.0289 218.371 67.3227 230.782 71.6958C236.971 73.8757 243.045 76.373 248.981 79.1775C254.777 81.9223 261.295 84.6986 265.975 89.146C267.484 90.5804 266.315 93.2349 264.296 93.2291C261.52 93.2207 258.835 93.2867 256.072 92.8931C253.594 92.5389 250.598 92.148 248.564 90.5693C247.333 89.6131 247.624 87.5146 249.396 87.4757L249.4 87.4792Z" fill="#171717"/>
</g>
<g opacity="0.1">
<path d="M244.736 74.3795C245.712 71.5905 247.319 69.1968 247.422 66.1478C247.498 64.775 247.398 63.3982 247.125 62.0506C246.729 60.3023 245.947 58.8126 247.158 57.1445C247.926 56.0864 249.051 55.4905 250.369 55.8283L250.738 55.923C251.305 56.0811 251.821 56.3843 252.236 56.8027C252.652 57.2211 252.953 57.7408 253.11 58.311C254.751 64.3363 253.777 73.2688 248.156 77.0278C246.513 78.1266 244.068 76.2894 244.736 74.3795Z" fill="#171717"/>
</g>
</g>
<defs>
<linearGradient id="paint0_linear_219_646" x1="231.163" y1="46.7139" x2="231.163" y2="79.0152" gradientUnits="userSpaceOnUse">
<stop stop-color="#FFB800"/>
<stop offset="1" stop-color="#FF7F0A"/>
</linearGradient>
<linearGradient id="paint1_linear_219_646" x1="66.4361" y1="363.677" x2="66.4361" y2="406.33" gradientUnits="userSpaceOnUse">
<stop stop-color="#FFB800"/>
<stop offset="1" stop-color="#FF7F0A"/>
</linearGradient>
<linearGradient id="paint2_linear_219_646" x1="227.017" y1="61.7509" x2="227.017" y2="94.402" gradientUnits="userSpaceOnUse">
<stop stop-color="#FFB800"/>
<stop offset="1" stop-color="#FF7F0A"/>
</linearGradient>
<linearGradient id="paint3_linear_219_646" x1="200.535" y1="173.323" x2="200.535" y2="193.997" gradientUnits="userSpaceOnUse">
<stop stop-color="#FFB800"/>
<stop offset="1" stop-color="#FF7F0A"/>
</linearGradient>
<linearGradient id="paint4_linear_219_646" x1="226.637" y1="245.917" x2="226.637" y2="293.533" gradientUnits="userSpaceOnUse">
<stop stop-color="#FFB800"/>
<stop offset="1" stop-color="#FF7F0A"/>
</linearGradient>
<linearGradient id="paint5_linear_219_646" x1="215.733" y1="245.554" x2="215.733" y2="340.665" gradientUnits="userSpaceOnUse">
<stop stop-color="#FFB800"/>
<stop offset="1" stop-color="#FF7F0A"/>
</linearGradient>
<linearGradient id="paint6_linear_219_646" x1="360.864" y1="332.966" x2="360.864" y2="385.014" gradientUnits="userSpaceOnUse">
<stop stop-color="#FFB800"/>
<stop offset="1" stop-color="#FF7F0A"/>
</linearGradient>
</defs>
</svg>
