<svg width="606" height="645" viewBox="0 0 606 645" fill="none" xmlns="http://www.w3.org/2000/svg">
<path fill-rule="evenodd" clip-rule="evenodd" d="M450.674 571.986C500.67 586.907 552.815 549.177 567.147 487.705C579.734 433.707 558.96 379.352 519.827 356.814L519.84 356.754C519.266 356.569 518.683 356.391 518.102 356.213L518.069 356.203C468.979 341.553 417.571 379.502 403.24 440.974C391.079 493.106 409.496 545.411 445.315 569.033C446.135 569.344 446.957 569.886 447.784 570.432C448.739 571.061 449.7 571.695 450.674 571.986ZM517.702 364.747C517.158 364.47 516.517 364.744 516.272 365.361C516.027 365.976 516.269 366.7 516.813 366.977C540.069 378.835 565.005 406.849 561.522 458.891C561.476 459.566 561.922 460.153 562.517 460.203C563.113 460.255 563.632 459.75 563.677 459.076C567.241 405.832 541.636 376.951 517.702 364.747Z" fill="#171717"/>
<path d="M517.843 79.3411L552.031 116.83L504.803 179.831L473.092 153.514L517.843 79.3411Z" fill="#171717"/>
<path d="M280.33 527.168L320.149 588.181L278.806 628.057L244.032 575.248L280.33 527.168Z" fill="url(#paint0_linear_152_3)"/>
<path d="M213.793 152.956C213.593 153.07 213.047 153.386 212.261 153.875C213.047 153.424 213.586 153.092 213.793 152.956ZM301.637 102.407C279.052 93.45 246.628 96.9001 234.55 110.006C224.832 120.56 226.043 165.264 228.246 196.614L228.093 196.63C228.093 196.63 213.249 209.254 204.17 200.75C198.804 195.734 203.923 188.118 209.015 182.717C211.603 180.931 213.975 178.771 216.071 176.292C213.587 178.242 211.229 180.389 209.015 182.717C204.376 185.843 198.345 187.691 193.832 181.256C186.637 171.004 206.173 157.679 212.184 153.92C207.89 156.353 196.661 161.844 192.893 155.02C189.435 148.754 200.422 138.833 206.446 134.035C207.741 133.239 208.971 132.314 210.121 131.27C210.121 131.27 208.604 132.325 206.446 134.035C201.607 137.052 193.306 139.857 190.072 126.668C185.372 107.521 215.758 110.006 215.758 110.006C215.758 110.006 207.611 64.6313 217.632 60.9179C227.653 57.2045 232.668 83.0632 231.73 73.8505C230.792 64.6379 246.767 47.6232 252.219 48.3278C257.671 49.0323 244.883 95.1119 254.282 70.6541C263.68 46.1963 300.331 40.1703 307.846 44.426C312.458 47.0353 301.289 61.9013 294.846 69.6446C294.13 70.2904 293.451 70.9851 292.809 71.7231C288.203 77.0714 290.54 74.8339 294.846 69.6446C308.059 57.6676 337.527 55.8639 341.684 63.9195C346.064 72.4317 306.911 88.732 315.371 86.6078C323.831 84.4836 330.402 89.0859 336.984 92.8972C343.567 96.7085 365.487 133.399 347.948 143.146C330.409 152.893 336.359 132.691 317.251 112.481C313.173 108.176 307.767 104.832 301.637 102.407Z" fill="#171717"/>
<path d="M237.662 328.236C240.164 335.852 243.266 350.035 246.165 364.723C250.901 388.842 255.073 414.316 255.073 414.316C255.073 414.316 59.1454 484.503 41.2834 359.548C23.4215 234.592 211.374 248.422 211.374 248.422C211.374 248.422 203.386 239.383 211.374 232.476C213.498 230.638 221.106 229.553 231.137 228.95C243.603 228.197 259.806 228.19 273.851 228.4C290.972 228.679 304.877 229.282 304.877 229.282V240.697C304.877 240.697 304.411 253.744 322.736 248.426C341.061 243.108 408.251 234.069 438.318 248.426C468.385 262.783 463.771 306.29 463.771 306.29L463.612 307.864C455.642 306.763 447.577 306.862 439.63 308.158L439.457 306.923C439.457 306.923 435.41 305.025 428.88 302.531L430.803 302.087C430.803 302.087 434.091 281.395 430.803 271.295C429.605 267.619 409.596 267.656 384.282 269.652V269.645L372.893 256.531C372.893 256.531 350.102 258.656 345.535 259.318C341.036 259.981 338.107 274.263 338.027 274.662V274.67C322.265 276.801 307.335 279.265 295.945 281.69L295.073 281.6C295.992 280.169 296.398 278.143 295.439 275.321C292.773 267.427 279.038 265.973 266.191 273.061C253.345 280.148 254.289 312.403 250.216 320.915C246.142 329.426 237.662 328.236 237.662 328.236Z" fill="url(#paint1_linear_152_3)"/>
<path d="M50.3706 444.266L144.345 468.37L129.619 611.931L38.4644 588.535L50.3706 444.266ZM118.579 595.364L130.56 482.912L69.2378 458.981L55.1496 576.009L118.579 595.364Z" fill="#171717"/>
<path d="M91.4075 153.515L57.2602 193.392L6.90381 138.367L43.8674 92.9014L91.4075 153.515Z" fill="url(#paint2_linear_152_3)"/>
<path d="M111.763 322.511C111.763 322.511 161.573 351.564 234.4 322.511C235.259 322.165 236.384 324.349 237.662 328.236C240.164 335.852 243.266 350.035 246.165 364.723C250.901 388.842 255.073 414.316 255.073 414.316C255.073 414.316 59.1454 484.503 41.2834 359.548C23.4215 234.592 211.374 248.422 211.374 248.422C211.374 248.422 203.386 239.383 211.374 232.476C213.498 230.638 221.106 229.553 231.137 228.95C243.603 228.197 259.806 228.19 273.851 228.4C290.972 228.679 304.877 229.282 304.877 229.282V240.697C304.877 240.697 304.411 253.744 322.736 248.426C341.061 243.108 408.251 234.069 438.318 248.426C468.385 262.783 463.771 306.29 463.771 306.29" stroke="#171717" stroke-width="2" stroke-linecap="round" stroke-linejoin="round"/>
<path d="M539.03 337.26C539.584 337.553 540.128 337.87 540.675 338.194" stroke="#171717" stroke-width="2" stroke-linecap="round" stroke-linejoin="round"/>
<path d="M398.527 550.519C379.835 518.491 373.059 475.617 383.057 432.75C400.437 358.194 461.975 311.914 520.499 329.389C526.41 331.154 532.164 333.536 537.685 336.507" stroke="#171717" stroke-width="2" stroke-linecap="round" stroke-linejoin="round"/>
<path d="M540.855 338.3C586.444 365.168 610.247 430.61 594.998 496.022C577.609 570.578 516.079 616.857 457.55 599.382C432.689 591.955 412.373 574.224 398.561 550.564C398.548 550.556 398.539 550.542 398.534 550.527" stroke="#171717" stroke-width="2" stroke-linecap="round" stroke-linejoin="round"/>
<path d="M519.84 356.756C567.826 372.356 595.157 433.324 580.999 494.049C566.668 555.514 515.254 593.47 466.17 578.812C458.859 576.635 451.844 573.346 445.315 569.035C409.496 545.413 391.079 493.108 403.24 440.976C417.571 379.504 468.979 341.555 518.069 356.205C518.665 356.386 519.255 356.567 519.84 356.756Z" stroke="#171717" stroke-width="2" stroke-linecap="round" stroke-linejoin="round"/>
<path d="M519.827 356.815C558.96 379.351 579.735 433.709 567.147 487.706C552.816 549.178 500.67 586.908 450.674 571.986C448.856 571.444 447.079 569.703 445.315 569.034C445.308 569.025 445.299 569.02 445.289 569.018" stroke="#171717" stroke-width="2" stroke-linecap="round" stroke-linejoin="round"/>
<path d="M398.561 550.565C398.554 550.551 398.544 550.538 398.534 550.527C398.528 550.527 398.528 550.527 398.528 550.52C398.115 549.933 393.708 543.752 387.704 534.829C382.3 526.785 375.599 516.511 369.359 506.127C368.467 504.643 367.582 503.152 366.71 501.668C361.551 492.84 356.91 484.136 353.876 476.879C353.118 475.064 352.458 473.332 351.926 471.72C351.283 469.881 350.79 467.98 350.455 466.04C346.934 443.835 338.028 386.671 385.692 340.949C402.513 324.815 418.195 311.838 439.629 308.16C447.576 306.864 455.641 306.764 463.612 307.866C467.359 308.341 471.284 309.058 475.387 310.02C489.784 313.418 506.485 319.926 526.375 330.351C530.036 332.264 533.805 334.318 537.684 336.512C538.137 336.757 538.583 337.001 539.029 337.265C539.574 337.574 540.12 337.891 540.673 338.2C540.733 338.23 540.793 338.268 540.853 338.305" stroke="#171717" stroke-width="2" stroke-linecap="round" stroke-linejoin="round"/>
<path d="M345.535 420.163L331.816 378.463L327.493 365.319C324.695 356.823 324.393 347.533 326.634 338.827C330.994 321.962 341.025 296.253 362.199 292.028C384.598 287.554 413.56 296.676 428.876 302.528C435.406 305.022 439.453 306.92 439.453 306.92" stroke="#171717" stroke-width="2" stroke-linecap="round" stroke-linejoin="round"/>
<path d="M338.027 274.666C353.489 272.579 369.757 270.787 384.282 269.649C409.597 267.653 429.607 267.615 430.804 271.291C434.092 281.392 430.804 302.083 430.804 302.083" stroke="#171717" stroke-width="2" stroke-linecap="round" stroke-linejoin="round"/>
<path d="M295.945 281.694C307.335 279.269 322.265 276.801 338.028 274.674" stroke="#171717" stroke-width="2" stroke-linecap="round" stroke-linejoin="round"/>
<path d="M331.816 378.463C331.816 378.463 284.675 396.24 278.805 390.922C276.887 389.189 274.697 377.549 273.34 363.873" stroke="#171717" stroke-width="2" stroke-linecap="round" stroke-linejoin="round"/>
<path d="M50.3702 444.266L144.345 468.37L129.621 611.931L38.4683 588.535L50.3702 444.266Z" stroke="#171717" stroke-width="2" stroke-linecap="round" stroke-linejoin="round"/>
<path d="M221.48 570.639L278.805 643.59L339.179 586.585L280.329 508.428L221.48 570.639Z" stroke="#171717" stroke-width="2" stroke-linecap="round" stroke-linejoin="round"/>
<path d="M57.2602 193.392L91.4075 153.515L43.8674 92.9014L6.90381 138.367L57.2602 193.392Z" stroke="#171717" stroke-width="2" stroke-linecap="round" stroke-linejoin="round"/>
<path d="M459.7 150.328L499.166 197.383L575.994 125.599L508.052 60.918L459.7 150.328Z" stroke="#171717" stroke-width="2" stroke-linecap="round" stroke-linejoin="round"/>
<path d="M118.579 595.359L130.561 482.908L69.2422 458.977L55.1504 576.009L118.579 595.359Z" stroke="#171717" stroke-width="2" stroke-linecap="round" stroke-linejoin="round"/>
<path d="M278.806 628.057L320.149 588.181L280.33 527.168L244.032 575.248L278.806 628.057Z" stroke="#171717" stroke-width="2" stroke-linecap="round" stroke-linejoin="round"/>
<path d="M504.803 179.831L552.031 116.83L517.843 79.3411L473.092 153.514L504.803 179.831Z" stroke="#171717" stroke-width="2" stroke-linecap="round" stroke-linejoin="round"/>
<path d="M219.677 251.437L298.302 248.958" stroke="#171717" stroke-width="2" stroke-linecap="round" stroke-linejoin="round"/>
<path d="M273.853 228.409V228.401C273.746 227.912 268.727 204.614 273.853 201.104C279.041 197.556 296.738 199.687 299.786 191.176C302.834 182.665 301.588 102.565 301.588 102.565" stroke="#171717" stroke-width="2" stroke-linecap="round" stroke-linejoin="round"/>
<path d="M209.019 182.717C203.928 188.118 198.809 195.734 204.174 200.75C213.253 209.254 228.098 196.63 228.098 196.63" stroke="#171717" stroke-width="2" stroke-linecap="round" stroke-linejoin="round"/>
<path d="M209.019 182.717C211.608 180.931 213.979 178.771 216.075 176.292C213.591 178.242 211.234 180.389 209.019 182.717Z" stroke="#171717" stroke-width="2" stroke-linecap="round" stroke-linejoin="round"/>
<path d="M212.187 153.921C206.177 157.68 186.64 171.005 193.836 181.257C198.349 187.689 204.38 185.844 209.019 182.718" stroke="#171717" stroke-width="2" stroke-linecap="round" stroke-linejoin="round"/>
<path d="M213.886 152.897C213.881 152.898 213.876 152.9 213.872 152.904C213.859 152.912 213.846 152.92 213.826 152.934C213.806 152.949 213.806 152.95 213.793 152.957C213.593 153.071 213.047 153.387 212.261 153.876" stroke="#171717" stroke-width="2" stroke-linecap="round" stroke-linejoin="round"/>
<path d="M212.261 153.876C213.047 153.424 213.586 153.092 213.793 152.957" stroke="#171717" stroke-width="2" stroke-linecap="round" stroke-linejoin="round"/>
<path d="M212.26 153.876C212.237 153.893 212.214 153.908 212.189 153.921" stroke="#171717" stroke-width="2" stroke-linecap="round" stroke-linejoin="round"/>
<path d="M206.45 134.036C200.426 138.834 189.437 148.754 192.898 155.021C196.666 161.845 207.895 156.354 212.188 153.921" stroke="#171717" stroke-width="2" stroke-linecap="round" stroke-linejoin="round"/>
<path d="M206.449 134.035C207.745 133.239 208.974 132.314 210.124 131.27C210.124 131.27 208.606 132.325 206.449 134.035Z" stroke="#171717" stroke-width="2" stroke-linecap="round" stroke-linejoin="round"/>
<path d="M294.854 69.6475C301.297 61.901 312.467 47.035 307.854 44.4289C300.339 40.1732 263.689 46.1992 254.29 70.657C244.89 95.1148 257.684 49.0385 252.227 48.3307C246.769 47.6229 230.799 64.631 231.738 73.8535C232.677 83.0759 227.664 57.2074 217.64 60.9208C207.616 64.6343 215.766 110.009 215.766 110.009C215.766 110.009 185.38 107.524 190.079 126.671C193.314 139.86 201.615 137.059 206.454 134.038" stroke="#171717" stroke-width="2" stroke-linecap="round" stroke-linejoin="round"/>
<path d="M294.854 69.6484C294.138 70.2943 293.458 70.9882 292.817 71.7269C288.211 77.0753 290.547 74.8378 294.854 69.6484Z" stroke="#171717" stroke-width="2" stroke-linecap="round" stroke-linejoin="round"/>
<path d="M231.112 228.41C231.112 228.41 229.515 214.746 228.249 196.615C226.046 165.265 224.835 120.56 234.553 110.007C246.628 96.9009 279.052 93.4541 301.64 102.407C307.771 104.832 313.176 108.177 317.256 112.485C336.366 132.695 330.409 152.897 347.953 143.15C365.496 133.403 343.561 96.7092 336.988 92.9012C330.415 89.0932 323.829 84.4877 315.375 86.6119C306.921 88.736 346.068 72.4357 341.688 63.9235C337.534 55.8639 308.067 57.6717 294.853 69.6486" stroke="#171717" stroke-width="2" stroke-linecap="round" stroke-linejoin="round"/>
<path d="M258.989 165.484C258.989 165.484 270.019 166.719 271.55 163.179C273.081 159.638 265.273 114.617 265.273 114.617L286.699 112.485" stroke="#171717" stroke-width="2" stroke-linecap="round" stroke-linejoin="round"/>
<path d="M264.001 186.22C264.001 186.22 252.412 194.375 241.136 183.734" stroke="#171717" stroke-width="2" stroke-linecap="round" stroke-linejoin="round"/>
<path d="M254.29 135.79L252.566 125.244" stroke="#171717" stroke-width="2" stroke-linecap="round" stroke-linejoin="round"/>
<path d="M283.424 135.79L281.54 125.244" stroke="#171717" stroke-width="2" stroke-linecap="round" stroke-linejoin="round"/>
<path d="M272.454 345.433C282.912 341.78 319.016 329.72 320.621 336.688C321.939 342.405 296.81 357.334 273.233 363.315C263.209 365.868 253.471 366.795 246.162 364.724" stroke="#171717" stroke-width="2" stroke-linecap="round" stroke-linejoin="round"/>
<path d="M271.583 345.739C271.722 345.686 271.876 345.633 272.029 345.581" stroke="#171717" stroke-width="2" stroke-linecap="round" stroke-linejoin="round"/>
<path d="M270.737 346.043C270.977 345.953 271.256 345.855 271.563 345.75" stroke="#171717" stroke-width="2" stroke-linecap="round" stroke-linejoin="round"/>
<path d="M269.898 346.345C269.965 346.314 270.052 346.284 270.145 346.254" stroke="#171717" stroke-width="2" stroke-linecap="round" stroke-linejoin="round"/>
<path d="M269.639 346.435C269.654 346.428 269.67 346.423 269.686 346.42C269.713 346.404 269.752 346.397 269.805 346.375" stroke="#171717" stroke-width="2" stroke-linecap="round" stroke-linejoin="round"/>
<path d="M269.806 346.375C269.752 346.397 269.712 346.404 269.686 346.42" stroke="#171717" stroke-width="2" stroke-linecap="round" stroke-linejoin="round"/>
<path d="M269.805 346.375C269.832 346.367 269.865 346.352 269.898 346.345" stroke="#171717" stroke-width="2" stroke-linecap="round" stroke-linejoin="round"/>
<path d="M270.145 346.254C270.052 346.292 269.965 346.322 269.898 346.345" stroke="#171717" stroke-width="2" stroke-linecap="round" stroke-linejoin="round"/>
<path d="M270.146 346.255C270.149 346.256 270.153 346.255 270.156 346.254C270.16 346.253 270.163 346.25 270.166 346.247C270.219 346.225 270.279 346.209 270.339 346.187C270.432 346.157 270.532 346.119 270.638 346.081C270.641 346.079 270.644 346.077 270.648 346.075C270.651 346.074 270.654 346.073 270.658 346.074C270.685 346.068 270.713 346.058 270.738 346.044" stroke="#171717" stroke-width="2" stroke-linecap="round" stroke-linejoin="round"/>
<path d="M271.563 345.75C271.249 345.862 270.977 345.96 270.737 346.043" stroke="#171717" stroke-width="2" stroke-linecap="round" stroke-linejoin="round"/>
<path d="M271.563 345.75C271.57 345.75 271.577 345.743 271.584 345.743" stroke="#171717" stroke-width="2" stroke-linecap="round" stroke-linejoin="round"/>
<path d="M272.029 345.583C271.869 345.643 271.722 345.696 271.583 345.742" stroke="#171717" stroke-width="2" stroke-linecap="round" stroke-linejoin="round"/>
<path d="M272.028 345.585C272.135 345.547 272.248 345.509 272.361 345.472C272.388 345.457 272.421 345.449 272.454 345.434" stroke="#171717" stroke-width="2" stroke-linecap="round" stroke-linejoin="round"/>
<path d="M278.013 324.011C292.398 319.973 325.939 311.273 327.903 317.39C330.08 324.169 284.383 341.132 272.455 345.433" stroke="#171717" stroke-width="2" stroke-linecap="round" stroke-linejoin="round"/>
<path d="M271.549 325.88C271.569 325.873 271.589 325.868 271.609 325.865C271.642 325.853 271.675 325.843 271.709 325.835C272.315 325.654 274.605 324.969 277.933 324.034" stroke="#171717" stroke-width="2" stroke-linecap="round" stroke-linejoin="round"/>
<path d="M277.933 324.034C274.604 325.021 272.322 325.669 271.709 325.835C271.669 325.85 271.637 325.858 271.609 325.865" stroke="#171717" stroke-width="2" stroke-linecap="round" stroke-linejoin="round"/>
<path d="M277.934 324.034L278.014 324.012" stroke="#171717" stroke-width="2" stroke-linecap="round" stroke-linejoin="round"/>
<path d="M237.662 328.237C237.662 328.237 246.149 329.42 250.216 320.916C254.283 312.412 253.351 280.15 266.192 273.062C279.032 265.973 292.777 267.428 295.44 275.322C296.398 278.147 295.992 280.173 295.074 281.601C293.443 284.177 290.168 284.847 290.168 284.847C290.168 284.847 280.915 283.431 277.474 290.828C274.032 298.226 273.853 307.798 273.853 307.798C273.853 307.798 327.903 290.828 327.903 302.081C327.903 308.559 292.817 319.632 278.014 324.009" stroke="#171717" stroke-width="2" stroke-linecap="round" stroke-linejoin="round"/>
<path d="M526.404 330.271C526.404 330.271 507.859 279.532 486.246 282.191C464.632 284.85 475.629 308.72 475.629 308.72" stroke="#171717" stroke-width="2" stroke-linecap="round" stroke-linejoin="round"/>
<path d="M387.704 534.829C387.704 534.829 351.161 535.807 347.167 521.722C343.174 507.638 369.361 506.123 369.361 506.123" stroke="#171717" stroke-width="2" stroke-linecap="round" stroke-linejoin="round"/>
<path d="M366.709 501.663C366.709 501.663 333.773 504.172 329.546 491.675C325.319 479.179 353.057 477.324 353.057 477.324" stroke="#171717" stroke-width="2" stroke-linecap="round" stroke-linejoin="round"/>
<path d="M351.926 471.714C351.926 471.714 326.964 470.675 326.964 459.775C326.964 448.875 345.535 440.899 345.535 440.899" stroke="#171717" stroke-width="2" stroke-linecap="round" stroke-linejoin="round"/>
<path d="M338.027 274.674V274.667C338.106 274.267 341.036 259.989 345.535 259.323C350.101 258.66 372.893 256.536 372.893 256.536L384.282 269.643" stroke="#171717" stroke-width="2" stroke-linecap="round" stroke-linejoin="round"/>
<path d="M468.8 256.421C467.651 251.909 465.634 247.742 462.893 244.218C460.151 240.693 456.755 237.899 452.947 236.036" stroke="#171717" stroke-width="2" stroke-linecap="round" stroke-linejoin="round"/>
<path d="M374.406 84.0687L392.231 79.6597" stroke="#171717" stroke-width="2" stroke-linecap="round" stroke-linejoin="round"/>
<path d="M365.867 63.2176L411.745 1.3811" stroke="#171717" stroke-width="2" stroke-linecap="round" stroke-linejoin="round"/>
<path d="M350.448 44.7823L353.737 28.2993" stroke="#171717" stroke-width="2" stroke-linecap="round" stroke-linejoin="round"/>
<path d="M184.267 79.3177L182.347 66.032" stroke="#171717" stroke-width="2" stroke-linecap="round" stroke-linejoin="round"/>
<path d="M177.083 75.125L188.973 72.1152" stroke="#171717" stroke-width="2" stroke-linecap="round" stroke-linejoin="round"/>
<path d="M143.246 110.182C141.45 104.847 138.734 99.9691 135.258 95.8308" stroke="#171717" stroke-width="2" stroke-linecap="round" stroke-linejoin="round"/>
<path d="M132.909 108.587C136.527 104.119 140.632 100.188 145.125 96.8901" stroke="#171717" stroke-width="2" stroke-linecap="round" stroke-linejoin="round"/>
<path d="M167.93 149.4L172.491 139.548C172.554 139.608 172.603 139.685 172.633 139.773C172.662 139.861 172.672 139.955 172.662 140.048C172.651 140.141 172.62 140.229 172.571 140.305C172.522 140.381 172.458 140.441 172.383 140.482" stroke="#171717" stroke-width="2" stroke-linecap="round" stroke-linejoin="round"/>
<path d="M173.359 147.867L165.371 142.021" stroke="#171717" stroke-width="2" stroke-linecap="round" stroke-linejoin="round"/>
<path d="M33.536 387.598C25.09 368.098 23.1177 345.812 27.9781 324.803" stroke="#171717" stroke-width="2" stroke-linecap="round" stroke-linejoin="round"/>
<path d="M354.837 265.602C357.69 264.665 360.641 264.162 363.61 264.107" stroke="#171717" stroke-width="2" stroke-linecap="round" stroke-linejoin="round"/>
<path d="M238.628 274.67L226.177 268.487V285.19L238.628 274.67Z" stroke="#171717" stroke-width="2" stroke-linecap="round" stroke-linejoin="round"/>
<path d="M210.671 304.254L200.569 294.417L194.461 311.963L210.671 304.254Z" stroke="#171717" stroke-width="2" stroke-linecap="round" stroke-linejoin="round"/>
<path d="M165.095 279.795V264.854L178.251 268.486L165.095 279.795Z" stroke="#171717" stroke-width="2" stroke-linecap="round" stroke-linejoin="round"/>
<path d="M140.427 296.014L137.372 311.964L119.987 298.14L140.427 296.014Z" stroke="#171717" stroke-width="2" stroke-linecap="round" stroke-linejoin="round"/>
<path d="M72.0619 305.49L82.8686 320.471L61.96 331.123L72.0619 305.49Z" stroke="#171717" stroke-width="2" stroke-linecap="round" stroke-linejoin="round"/>
<path d="M214.9 349.715L228.056 363.872L209.027 377.894L214.9 349.715Z" stroke="#171717" stroke-width="2" stroke-linecap="round" stroke-linejoin="round"/>
<path d="M179.66 398.632L165.095 377.893L156.402 404.214L179.66 398.632Z" stroke="#171717" stroke-width="2" stroke-linecap="round" stroke-linejoin="round"/>
<path d="M110.356 349.715L125.626 355.499L107.771 379.224L110.356 349.715Z" stroke="#171717" stroke-width="2" stroke-linecap="round" stroke-linejoin="round"/>
<path d="M61.96 359.284L72.4143 355.498L70.4175 367.792L61.96 359.284Z" stroke="#171717" stroke-width="2" stroke-linecap="round" stroke-linejoin="round"/>
<path d="M408.72 256.535L397.13 248.958L392.232 261.01L408.72 256.535Z" stroke="#171717" stroke-width="2" stroke-linecap="round" stroke-linejoin="round"/>
<path d="M447.248 272.351L445.291 294.417L459.7 289.011L447.248 272.351Z" stroke="#171717" stroke-width="2" stroke-linecap="round" stroke-linejoin="round"/>
<path d="M289.187 243.995L289.297 234.956" stroke="#171717" stroke-width="2" stroke-linecap="round" stroke-linejoin="round"/>
<path d="M265.598 245.059L265.751 235.844" stroke="#171717" stroke-width="2" stroke-linecap="round" stroke-linejoin="round"/>
<path d="M242.074 245.413L242.5 236.194" stroke="#171717" stroke-width="2" stroke-linecap="round" stroke-linejoin="round"/>
<path d="M223.439 244.703L222.968 235.841" stroke="#171717" stroke-width="2" stroke-linecap="round" stroke-linejoin="round"/>
<path d="M363.944 546.806C356.911 546.144 350.365 542.477 345.638 536.549" stroke="#171717" stroke-width="2" stroke-linecap="round" stroke-linejoin="round"/>
<path d="M38.2314 209.346V198.18" stroke="#171717" stroke-width="2" stroke-linecap="round" stroke-linejoin="round"/>
<path d="M43.1594 204.442L33.9863 205.03" stroke="#171717" stroke-width="2" stroke-linecap="round" stroke-linejoin="round"/>
<path d="M462.414 189.398L463.006 180.615" stroke="#171717" stroke-width="2" stroke-linecap="round" stroke-linejoin="round"/>
<path d="M456.903 185.616L468.174 183.977" stroke="#171717" stroke-width="2" stroke-linecap="round" stroke-linejoin="round"/>
<path d="M161.556 510.774L171.409 506.743" stroke="#171717" stroke-width="2" stroke-linecap="round" stroke-linejoin="round"/>
<path d="M167.117 515.637L164.075 503.745" stroke="#171717" stroke-width="2" stroke-linecap="round" stroke-linejoin="round"/>
<path d="M20.6117 514.808L14.9731 504.44" stroke="#171717" stroke-width="2" stroke-linecap="round" stroke-linejoin="round"/>
<path d="M12.2354 514.923L21.5144 506.31" stroke="#171717" stroke-width="2" stroke-linecap="round" stroke-linejoin="round"/>
<path d="M434.854 111.839C419.578 129.444 418.846 158.769 428.625 180.823C438.403 202.877 456.663 218.63 475.867 230.32C488.72 238.143 502.787 244.63 517.373 244.17C531.959 243.709 547.112 234.842 552.486 219.491C555.041 212.193 554.374 202.162 548.177 198.633C543.687 196.076 537.857 198.271 534.707 202.705C531.558 207.138 530.757 213.244 531.422 218.882C532.029 224.034 533.739 228.941 536.404 233.174C539.068 237.408 542.607 240.841 546.711 243.176C550.815 245.509 555.362 246.673 559.954 246.566C564.546 246.459 569.046 245.085 573.062 242.561C579.135 238.745 584.438 232.219 591.382 232.017C599.403 231.785 605.951 241.62 604.606 250.57C603.261 259.52 595.406 266.163 587.388 266.507" stroke="#171717" stroke-width="2" stroke-linecap="round" stroke-linejoin="round"/>
<path d="M239.392 446.71C242.827 451.698 245.277 457.461 246.58 463.61C247.883 469.76 248.007 476.152 246.945 482.361C245.882 488.569 243.657 494.448 240.419 499.602C237.182 504.756 233.006 509.065 228.174 512.241C224.899 514.394 221.185 516.035 217.409 515.684C213.634 515.334 209.853 512.562 208.931 508.404C207.754 503.092 212.053 497.485 216.886 497.181C221.718 496.878 226.223 501.042 227.802 506.22C229.381 511.397 228.402 517.247 226.105 522.068C218.507 538.011 199.574 541.938 188.74 555.272C176.846 569.912 178.226 595.705 191.594 608.613" stroke="#171717" stroke-width="2" stroke-linecap="round" stroke-linejoin="round"/>
<path d="M-7.05944 468.927C-2.28915 466.515 1.70587 462.495 4.3786 457.414C7.05141 452.334 8.27136 446.443 7.87136 440.548C7.47136 434.654 5.47108 429.043 2.14434 424.484C-1.18247 419.925 -5.6731 416.641 -10.7128 415.081C-15.2107 413.689 -20.4883 413.924 -23.9551 417.452C-27.4218 420.981 -27.6632 428.408 -23.6056 431.008C-19.4377 433.678 -14.2639 429.948 -11.3484 425.65C-7.72267 420.128 -5.55644 413.555 -5.10161 406.695C-4.6467 399.835 -5.92185 392.969 -8.77876 386.897C-12.0056 380.287 -16.9834 375.042 -21.2716 369.256C-25.5598 363.469 -29.3335 356.586 -29.3364 349.033C-29.3393 341.481 -24.2102 333.565 -17.5382 333.693" stroke="#171717" stroke-width="2" stroke-linecap="round" stroke-linejoin="round"/>
<path d="M1.6238 173.439C-2.23567 192.772 -3.76116 215.063 7.25231 230.474C18.4525 246.147 38.6376 248.937 56.3634 246.961C66.9683 245.779 77.7036 243.223 86.7902 236.923C95.8768 230.623 103.135 220.062 104.076 208.05C104.445 203.337 103.783 198.369 101.421 194.465C99.0589 190.56 94.7844 187.96 90.6662 188.782C86.5481 189.604 83.2824 193.773 82.4357 198.42C81.589 203.067 82.8997 207.997 85.3397 211.856C91.0863 220.945 102.81 223.821 111.938 219.551C121.066 215.281 127.359 204.919 129.027 193.904C130.696 182.888 128.151 171.417 123.359 161.645" stroke="#171717" stroke-width="2" stroke-linecap="round" stroke-linejoin="round"/>
<path d="M79.1104 89.7127L80.5198 76.9521" stroke="#171717" stroke-width="2" stroke-linecap="round" stroke-linejoin="round"/>
<path d="M83.338 84.1297L72.0615 80.939" stroke="#171717" stroke-width="2" stroke-linecap="round" stroke-linejoin="round"/>
<path d="M380.186 131.038L375.654 133.558C375.517 133.634 375.363 133.661 375.212 133.635C375.061 133.608 374.922 133.53 374.811 133.412C374.701 133.293 374.626 133.139 374.595 132.97C374.564 132.801 374.58 132.626 374.64 132.468L376.635 127.219C376.694 127.066 376.71 126.896 376.683 126.732C376.657 126.568 376.588 126.417 376.485 126.297L372.967 122.198C372.861 122.074 372.791 121.917 372.766 121.747C372.741 121.577 372.763 121.402 372.829 121.246C372.895 121.091 373.001 120.961 373.133 120.876C373.266 120.792 373.419 120.754 373.571 120.77L378.599 121.296C378.745 121.311 378.893 121.277 379.023 121.198C379.152 121.118 379.257 120.997 379.327 120.85L381.684 115.794C381.755 115.641 381.865 115.517 382.001 115.438C382.136 115.358 382.29 115.328 382.441 115.351C382.592 115.374 382.734 115.449 382.847 115.565C382.959 115.681 383.037 115.834 383.071 116.003L384.183 121.576C384.215 121.738 384.289 121.887 384.396 122.002C384.503 122.117 384.637 122.193 384.783 122.222L389.755 123.2C389.905 123.23 390.043 123.311 390.151 123.432C390.26 123.554 390.333 123.709 390.36 123.879C390.388 124.048 390.369 124.223 390.306 124.38C390.243 124.538 390.139 124.669 390.009 124.757L385.668 127.676C385.54 127.761 385.438 127.887 385.374 128.037C385.31 128.188 385.287 128.356 385.307 128.522L386.028 134.178C386.05 134.348 386.024 134.523 385.956 134.677C385.888 134.831 385.779 134.957 385.645 135.04C385.511 135.122 385.358 135.155 385.207 135.136C385.055 135.117 384.913 135.045 384.798 134.932L381.003 131.162C380.893 131.052 380.756 130.982 380.611 130.96C380.465 130.938 380.317 130.965 380.186 131.038Z" fill="#171717"/>
<path d="M418.351 278.467H402.611L403.785 287.506H422.16L418.351 278.467Z" stroke="#171717" stroke-width="2" stroke-linecap="round" stroke-linejoin="round"/>
<g opacity="0.1">
<path d="M295.117 99.4195C290.433 96.9169 284.039 96.4791 278.903 95.8186C273.028 95.0496 267.091 95.1043 261.227 95.9816C251.94 97.4217 242.145 101.282 235.231 108.641C218.25 126.726 223.796 156.588 225.238 179.94L226.679 203.261L227.373 214.521C227.63 218.67 227.4 223.477 228.736 227.387C230.483 232.501 237.739 233.717 239.028 227.387C239.893 223.147 239.239 218.816 238.956 214.521L238.219 203.261L236.639 179.132C236.123 171.24 235.569 163.35 235.095 155.455C234.675 148.448 234.303 141.24 235.373 134.285C237.305 121.739 244.84 112.071 255.246 107.295C261.116 104.599 267.757 103.621 274.037 103.349C277.495 103.199 281.017 103.006 284.468 103.179C287.863 103.35 291.314 104.02 294.67 103.261C296.183 102.918 296.538 100.18 295.114 99.4187L295.117 99.4195Z" fill="#171717"/>
</g>
<g opacity="0.1">
<path d="M213.64 229.536C209.714 237.201 209.983 245.223 211.517 253.673L216.533 246.221C198.838 245.147 180.987 246.112 163.331 247.626C147.233 249.005 131.048 250.927 115.321 255.191C86.6666 262.96 59.1314 280.075 44.7427 310.308C37.9454 324.591 34.8166 340.764 36.8537 356.896C38.7921 372.243 45.5729 386.27 54.7719 397.606C75.9982 423.768 107.688 432.219 137.957 433.461C175.638 435.011 214.726 429.865 250.221 415.101C253.403 413.777 255.562 410.28 254.608 406.356C253.766 402.886 250.081 400.06 246.88 401.39C217.134 413.753 185.608 418.677 154.034 419.334C126.165 419.915 95.5406 417.199 72.7383 397.021C63.357 388.72 55.2857 377.621 51.442 364.73C47.4875 351.473 48.2563 337.686 52.6606 324.7C62.498 295.696 87.1933 278.303 112.513 270.078C146.112 259.163 181.905 259.478 216.533 257.99C220.37 257.827 223.151 253.078 221.025 249.133C218.348 244.169 218.517 237.889 219.505 232.328C220.197 228.429 215.546 225.805 213.64 229.53V229.536Z" fill="#171717"/>
</g>
<g opacity="0.1">
<path d="M282.894 391.25C289.829 393.477 297.8 391.211 304.637 389.375C311.321 387.581 319.755 385.461 325.39 380.846C330.447 376.704 327.539 367.645 321.066 369.249C317.647 370.096 314.406 372.086 311.099 373.401C307.959 374.652 304.776 375.756 301.552 376.713C295.039 378.638 287.998 379.031 281.853 382.24C278.317 384.087 279.536 390.172 282.894 391.249V391.25Z" fill="#171717"/>
</g>
<g opacity="0.1">
<path d="M326.516 349.103C324.617 354.485 326.892 360.418 328.384 365.622C329.927 371.004 331.5 376.371 333.057 381.745C334.614 387.12 336.215 392.482 337.813 397.843C339.462 403.384 340.551 409.763 343.871 414.315C347.177 418.847 353.422 414.903 353.558 409.774C353.708 404.113 350.764 397.943 349.124 392.644C347.469 387.298 345.8 381.958 344.116 376.625C342.424 371.293 340.788 365.934 339.038 360.627C337.335 355.462 335.932 349.731 331.48 346.821C329.422 345.475 327.316 346.845 326.518 349.104L326.516 349.103Z" fill="#171717"/>
</g>
<g opacity="0.1">
<path d="M350.419 446.785C350.059 454.355 349.515 461.252 351.068 468.777C352.601 476.044 354.736 483.132 357.445 489.947C359.999 496.476 363.034 502.75 366.518 508.701C370.005 514.654 374.262 522.824 379.849 526.46C384.96 529.784 389.896 523.301 387.52 517.778C386.116 514.516 383.499 511.925 381.473 509.134C379.792 506.822 378.22 504.417 376.721 501.95C373.262 496.251 370.219 490.241 367.623 483.981C365.165 478.012 363.09 471.851 361.413 465.545C359.655 458.988 356.976 452.615 355.46 446.009C354.709 442.74 350.57 443.583 350.415 446.781L350.419 446.785Z" fill="#171717"/>
</g>
<defs>
<linearGradient id="paint0_linear_152_3" x1="282.09" y1="527.168" x2="282.09" y2="628.057" gradientUnits="userSpaceOnUse">
<stop stop-color="#FFB800"/>
<stop offset="1" stop-color="#FF7F0A"/>
</linearGradient>
<linearGradient id="paint1_linear_152_3" x1="252.056" y1="228.282" x2="252.056" y2="433.962" gradientUnits="userSpaceOnUse">
<stop stop-color="#FFB800"/>
<stop offset="1" stop-color="#FF7F0A"/>
</linearGradient>
<linearGradient id="paint2_linear_152_3" x1="49.1558" y1="92.9014" x2="49.1558" y2="193.392" gradientUnits="userSpaceOnUse">
<stop stop-color="#FFB800"/>
<stop offset="1" stop-color="#FF7F0A"/>
</linearGradient>
</defs>
</svg>
