<svg width="680" height="615" viewBox="0 0 680 615" fill="none" xmlns="http://www.w3.org/2000/svg">
<path d="M469.687 267.015L469.68 266.997C470.969 266.478 472.473 266.631 473.887 266.636C475.165 266.724 476.434 266.372 477.471 265.642C479.364 265.63 481.017 267.039 481.828 268.699C482.531 270.416 482.889 272.247 482.885 274.094C485.795 321.542 486.03 369.109 483.589 416.582L483.753 417.461C480.791 417.975 477.798 418.295 474.792 418.419C471.951 418.535 468.995 418.529 466.065 418.645C463.608 418.711 461.16 418.954 458.74 419.371L458.708 419.206C459.606 374.977 460.507 330.75 461.412 286.526C461.488 282.803 461.569 279.02 462.707 275.467C463.846 271.915 466.197 268.553 469.687 267.015Z" fill="url(#paint0_linear_101_3686)"/>
<path d="M477.895 275.827C480.95 317.838 480.441 360.022 476.372 401.952" stroke="white" stroke-width="3" stroke-linecap="round" stroke-linejoin="round"/>
<path d="M206.506 245.014C209.82 248.438 209.971 253.637 209.933 258.33C209.562 299.793 209.196 341.251 208.833 382.705L208.808 383.45C202.483 383.261 196.182 382.587 189.967 381.436L190.124 380.685C190.237 348.152 190.352 315.617 190.469 283.083C190.513 270.823 190.595 258.333 194.487 246.668L194.644 246.448C196.223 247.431 198.379 247.388 200.316 247.266C202.095 247.15 204.007 246.985 205.346 245.844C205.643 245.587 205.904 245.291 206.119 244.965L206.506 245.014Z" fill="#171717"/>
<path d="M207.249 254.661L204.628 368.379" stroke="white" stroke-width="3" stroke-linecap="round" stroke-linejoin="round"/>
<path d="M234.562 385.073C236.488 385.678 238.305 386.567 239.951 387.71C243.32 390.173 245.836 393.575 247.163 397.462C249.301 403.138 249.741 409.802 249.911 415.935C250.08 422.435 250.123 429.392 247.077 435.061C246.684 435.807 246.234 436.523 245.731 437.204C239.796 445.29 228.132 446.809 217.908 446.468C199.302 445.839 181.056 441.449 163.129 436.575C145.674 431.827 128.031 426.444 113.236 416.283C96.599 404.859 84.4574 387.777 77.9429 369.035C71.4283 350.293 70.3639 329.985 73.4096 310.43C75.837 294.856 80.9299 279.465 90.0788 266.46C99.2276 253.454 112.695 242.97 128.377 238.936C131.747 238.069 135.432 237.374 137.798 234.884C139.187 233.419 139.942 231.491 141.243 229.953C142.241 228.799 143.477 227.863 144.871 227.203C159.52 232.67 174.894 236.095 190.532 237.378L191.293 237.244C191.545 238.958 191.875 240.656 192.285 242.339C192.498 243.652 193.074 244.883 193.951 245.903C194.163 246.108 194.394 246.292 194.643 246.453L194.486 246.673C190.59 258.335 190.512 270.828 190.467 283.088C190.355 315.623 190.24 348.157 190.122 380.69L189.964 381.441C196.181 382.592 202.481 383.266 208.806 383.455C211.384 383.546 213.956 383.571 216.527 383.546C222.559 383.487 228.972 383.273 234.562 385.073Z" fill="url(#paint1_linear_101_3686)"/>
<path d="M153.122 288.602C135.504 302.683 127.725 327.343 134.2 348.583C140.675 369.823 161.027 386.405 183.703 388.914" stroke="white" stroke-width="3" stroke-linecap="round" stroke-linejoin="round"/>
<path d="M459.406 187.461C461.289 188.055 463.119 188.801 464.876 189.688C467.757 191.012 470.753 192.087 473.83 192.898C478.97 194.31 484.303 194.948 489.643 194.79C494.667 194.57 499.452 192.142 504.112 190.555C506.827 189.552 509.701 189.017 512.606 188.974C514.306 188.973 515.989 189.305 517.554 189.951C521.258 191.519 523.849 194.998 525.005 198.757C526.162 202.516 526.056 206.532 525.534 210.42C524.528 217.969 521.792 225.671 515.945 230.748C513.484 232.821 510.671 234.464 507.633 235.606C504.882 236.651 502.047 237.476 499.157 238.071C493.597 239.252 487.946 239.985 482.262 240.262C478.973 240.427 475.678 240.457 472.39 240.372C471.082 240.336 469.755 240.274 468.423 240.166C465.794 239.975 463.195 239.509 460.67 238.774C457.546 237.916 454.715 236.262 452.471 233.984C448.422 229.706 447.371 223.566 446.78 217.787C445.919 209.34 445.718 200.462 449.371 192.747C450.383 190.616 451.817 188.493 454.037 187.566C455.759 186.924 457.658 186.887 459.406 187.461ZM507.13 205.81C507.13 201.141 500.911 197.354 493.234 197.354C485.557 197.354 479.338 201.135 479.338 205.81C479.338 210.485 485.556 214.262 493.234 214.262C500.911 214.262 507.13 210.478 507.13 205.81Z" fill="#171717"/>
<path d="M460.33 114.256C466.826 117.854 472.534 122.649 477.137 128.372C475.481 126.088 474.335 123.495 473.771 120.758C473.207 118.021 473.237 115.199 473.861 112.474C474.286 110.643 475.836 108.47 477.621 109.184C478.29 109.536 478.829 110.083 479.162 110.747C483.355 117.307 487.546 123.866 491.737 130.422C493.265 128.738 493.56 126.352 494.499 124.307C495.439 122.262 497.782 120.359 499.876 121.299C501.196 121.897 501.812 123.391 502.013 124.795C502.215 126.199 502.12 127.657 502.591 128.994C503.736 132.225 507.621 133.608 511.086 134.224C514.552 134.841 518.406 135.268 520.769 137.799C522.442 139.581 523.008 142.062 523.517 144.421C526.02 156.101 528.526 167.782 531.037 179.462C528.578 177.711 526.118 175.964 523.656 174.22C523.781 176.283 525.485 177.876 526.548 179.67C527.61 181.464 527.667 184.339 525.655 185.022C524.504 185.419 523.266 184.858 522.185 184.309C519.575 182.99 516.968 181.671 514.363 180.353L514.186 180.329C515.123 174.463 515.611 168.537 515.645 162.601C515.676 158.793 515.451 154.746 513.224 151.61C510.439 147.704 505.264 146.215 500.435 145.482C489.985 143.895 479.256 144.597 468.839 142.828C467.456 142.59 466.073 142.303 464.689 141.949C455.686 139.66 447.103 134.857 443.156 126.82C442.961 126.537 442.841 126.212 442.806 125.874C442.771 125.536 442.822 125.194 442.955 124.879C443.37 124.227 444.325 124.196 445.118 124.26C450.316 124.696 455.409 125.941 460.202 127.946C457.791 124.909 456.198 121.337 455.568 117.553C455.336 116.119 455.417 114.322 456.738 113.634C457.859 113.06 459.223 113.645 460.33 114.256Z" fill="#171717"/>
<path d="M470.025 254.718C469.473 254.686 468.947 254.478 468.529 254.126C467.787 253.438 467.787 252.307 467.837 251.313C468.02 247.687 468.206 244.062 468.396 240.437L468.422 240.162C469.755 240.272 471.081 240.333 472.388 240.368C475.677 240.454 478.972 240.423 482.26 240.258L482.298 240.863C482.291 244.238 482.287 247.613 482.285 250.987C482.279 252.006 482.235 253.141 481.493 253.867C480.822 254.407 479.968 254.683 479.098 254.643C478.908 254.655 478.726 254.661 478.544 254.661C476.086 254.692 473.621 254.73 471.162 254.758C470.783 254.773 470.403 254.759 470.025 254.718Z" fill="url(#paint2_linear_101_3686)"/>
<path d="M478.546 254.663C478.728 254.663 478.91 254.657 479.099 254.645L479.124 255.078C478.942 257.604 478.761 260.131 478.583 262.658C478.593 263.49 478.393 264.311 477.998 265.05C477.855 265.273 477.677 265.472 477.47 265.642C476.433 266.372 475.164 266.724 473.886 266.636C472.47 266.631 470.969 266.478 469.679 266.997C469.567 267.039 469.46 267.094 469.346 267.149C469.147 262.993 469.376 258.829 470.026 254.718C470.403 254.759 470.784 254.774 471.163 254.761C473.626 254.73 476.087 254.694 478.546 254.663Z" fill="url(#paint3_linear_101_3686)"/>
<path d="M368.359 199.438C371.972 203.961 372.397 210.124 372.157 215.843C370.994 243.549 357.62 270.042 338.034 290.23C324.213 304.486 306.867 316.08 287.223 320.513C267.579 324.945 245.541 321.459 230.142 308.82L229.099 308.911C226.829 284.5 224.064 260.138 220.805 235.824C220.447 233.127 220.078 230.431 219.699 227.738L219.78 227.726C223.874 239.413 229.96 250.703 239.235 259.137C248.509 267.571 261.31 272.88 273.943 271.464C287.776 269.92 299.71 260.59 307.164 249.177C314.618 237.765 318.214 224.412 321.034 211.181C322.078 206.305 323.191 201.099 326.794 197.56C329.233 195.153 332.428 193.879 335.86 193.196C338.756 192.674 341.694 192.401 344.638 192.379C350.523 192.232 356.999 192.506 362.187 194.814C364.604 195.841 366.724 197.429 368.359 199.438Z" fill="url(#paint4_linear_101_3686)"/>
<path d="M238.644 128.713C241.768 132.027 239.825 137.795 235.984 140.303C232.143 142.811 227.231 142.984 222.597 143.067L221.572 143.086C209.04 143.317 196.507 143.551 183.971 143.788C179.959 143.86 175.533 144.098 172.672 146.826C169.459 149.89 169.503 154.84 169.679 159.209C170.113 169.877 170.047 180.547 169.484 191.218L169.352 191.212C165.78 191.176 164.951 196.253 161.474 197.056C159.147 197.593 156.714 195.787 156.097 193.549C155.481 191.312 156.374 188.874 157.858 187.056C159.342 185.238 161.354 183.907 163.335 182.607C160.7 182.119 158.329 184.029 155.959 185.238C153.589 186.446 149.841 186.513 149.042 184.029C148.433 182.119 150.099 180.316 151.438 178.793C154.321 175.476 156.143 171.414 156.68 167.105C157.642 159.282 154.366 150.781 158.05 143.762C160.968 138.208 167.542 135.322 173.901 134.504C180.261 133.686 186.722 134.517 193.136 134.298C199.549 134.079 206.347 132.571 210.76 128.055C213.074 125.693 214.879 122.447 218.127 121.629C219.313 121.323 220.568 121.396 221.708 121.835C222.849 122.274 223.814 123.057 224.462 124.068C225.11 125.079 225.405 126.266 225.306 127.453C225.207 128.64 224.718 129.765 223.911 130.661C223.364 131.088 222.83 131.527 222.295 131.967C222.918 131.641 223.468 131.197 223.911 130.661C225.712 129.128 227.786 127.924 230.03 127.108C232.966 126.168 236.556 126.504 238.644 128.713Z" fill="#171717"/>
<path d="M229.099 308.91C231.456 334.256 233.278 359.644 234.563 385.073C228.973 383.273 222.56 383.486 216.53 383.541C213.958 383.566 211.386 383.541 208.809 383.45L208.834 382.705C209.199 341.249 209.565 299.791 209.934 258.33C209.972 253.638 209.821 248.438 206.507 245.014L206.124 244.965C207.055 243.574 207.206 241.7 207.275 239.991C207.306 239.174 207.338 238.399 207.369 237.648H207.413C211.789 237.683 216.145 237.088 220.341 235.884L220.806 235.824C224.062 260.131 226.827 284.493 229.099 308.91Z" fill="url(#paint5_linear_101_3686)"/>
<path d="M207.368 237.649C207.545 233.303 207.671 229.898 207.746 225.156L207.877 224.326C211.776 224.948 215.643 225.711 219.479 226.615L219.549 226.609C219.6 226.987 219.65 227.359 219.7 227.738C220.078 230.435 220.447 233.13 220.807 235.824L220.341 235.884C216.146 237.088 211.79 237.683 207.414 237.649H207.368Z" fill="url(#paint6_linear_101_3686)"/>
<path d="M207.877 224.326L207.746 225.156C207.67 229.9 207.544 233.303 207.368 237.649C207.337 238.399 207.306 239.174 207.274 239.992C207.203 241.701 207.054 243.574 206.123 244.966C205.909 245.291 205.648 245.587 205.35 245.844C204.011 246.985 202.099 247.15 200.321 247.267C198.384 247.388 196.227 247.431 194.649 246.449C194.401 246.288 194.169 246.103 193.957 245.899C193.08 244.878 192.504 243.647 192.291 242.335C191.883 240.65 191.552 238.951 191.299 237.239C190.581 232.447 190.465 227.588 190.954 222.769L190.967 222.525C194.444 222.714 197.908 223.013 201.36 223.422C203.54 223.679 205.713 223.98 207.877 224.326Z" fill="#171717"/>
<path d="M191.297 237.239L190.536 237.374C174.897 236.091 159.524 232.666 144.875 227.199C147.175 226.169 149.611 225.452 152.113 225.067C156.943 224.158 161.805 223.474 166.701 223.016C174.764 222.256 182.876 222.092 190.965 222.528L190.953 222.772C190.464 227.59 190.579 232.448 191.297 237.239Z" fill="url(#paint7_linear_101_3686)"/>
<path d="M190.033 192.091L189.788 192.573C185.318 194.049 182.488 198.535 183.677 202.972L183.582 203.381C182.894 203.231 182.231 202.986 181.614 202.654C180.246 201.846 179.101 200.728 178.275 199.397C177.45 198.065 176.968 196.559 176.873 195.008C176.728 191.885 177.642 188.802 179.476 186.232C180.564 184.627 182.488 183.04 184.318 183.778C185.996 184.456 186.317 186.561 186.946 188.221C187.558 189.779 188.633 191.125 190.033 192.091Z" fill="#171717"/>
<path d="M194.252 183.901C195.252 185.397 197.849 184.89 198.874 183.42C199.899 181.95 199.829 180.02 199.716 178.244C199.314 171.904 198.913 165.566 198.512 159.228C198.405 157.611 198.317 155.928 198.996 154.449C199.933 152.43 202.165 151.209 204.416 150.861C206.667 150.513 208.962 150.885 211.216 151.258" stroke="#171717" stroke-width="3" stroke-linecap="round" stroke-linejoin="round"/>
<path d="M191.234 152.148C190.754 151.316 190.041 150.632 189.178 150.176C188.315 149.719 187.337 149.508 186.355 149.567C185.374 149.625 184.43 149.952 183.632 150.508C182.833 151.063 182.212 151.827 181.841 152.71" stroke="#171717" stroke-width="3" stroke-linecap="round" stroke-linejoin="round"/>
<path d="M188.7 164.463L188.096 159.868" stroke="#171717" stroke-width="3" stroke-linecap="round" stroke-linejoin="round"/>
<path d="M208.443 166.196V160.167" stroke="#171717" stroke-width="3" stroke-linecap="round" stroke-linejoin="round"/>
<path d="M197.296 193.635C196.041 193.89 194.746 193.884 193.494 193.618C192.242 193.352 191.062 192.832 190.033 192.091C188.633 191.126 187.559 189.779 186.946 188.222C186.317 186.562 185.996 184.457 184.318 183.779C182.488 183.04 180.563 184.627 179.476 186.232C177.642 188.803 176.728 191.886 176.873 195.008C176.968 196.56 177.45 198.066 178.275 199.397C179.101 200.729 180.246 201.846 181.614 202.655C182.231 202.987 182.894 203.231 183.582 203.381C184.787 203.682 186.052 203.68 187.256 203.373C188.46 203.067 189.563 202.466 190.461 201.63" stroke="#171717" stroke-width="3" stroke-linecap="round" stroke-linejoin="round"/>
<path d="M183.676 202.972C182.488 198.535 185.318 194.05 189.788 192.573" stroke="#171717" stroke-width="3" stroke-linecap="round" stroke-linejoin="round"/>
<path d="M201.484 222.455C201.333 218.97 201.182 215.436 201.968 212.037C202.753 208.638 204.596 205.318 207.639 203.463C211.142 201.339 216.015 201.194 218.498 197.988C219.869 196.225 220.165 193.912 220.391 191.708C222.04 175.792 222.439 159.777 221.586 143.801" stroke="#171717" stroke-width="3" stroke-linecap="round" stroke-linejoin="round"/>
<path d="M223.911 130.661C224.718 129.764 225.207 128.639 225.306 127.452C225.405 126.265 225.11 125.079 224.462 124.067C223.814 123.056 222.849 122.273 221.708 121.834C220.568 121.395 219.313 121.323 218.127 121.628C214.876 122.446 213.072 125.693 210.76 128.054C206.347 132.57 199.549 134.078 193.136 134.297C186.722 134.517 180.265 133.688 173.901 134.504C167.538 135.32 160.968 138.208 158.05 143.762C154.367 150.78 157.642 159.281 156.68 167.105C156.143 171.414 154.321 175.476 151.438 178.792C150.099 180.318 148.433 182.119 149.042 184.028C149.841 186.512 153.582 186.451 155.959 185.237C158.337 184.023 160.7 182.119 163.335 182.607C161.351 183.907 159.336 185.231 157.858 187.056C156.381 188.88 155.488 191.303 156.097 193.549C156.707 195.795 159.147 197.595 161.474 197.055C164.951 196.249 165.78 191.172 169.352 191.211" stroke="#171717" stroke-width="3" stroke-linecap="round" stroke-linejoin="round"/>
<path d="M223.911 130.66C223.365 131.087 222.83 131.526 222.296 131.966C222.919 131.641 223.469 131.196 223.911 130.66Z" stroke="#171717" stroke-width="3" stroke-linecap="round" stroke-linejoin="round"/>
<path d="M166.548 221.592C167.976 211.516 168.955 201.391 169.485 191.218C170.045 180.557 170.11 169.887 169.68 159.209C169.504 154.84 169.46 149.891 172.673 146.826C175.534 144.098 179.96 143.861 183.972 143.788C196.509 143.55 209.043 143.315 221.572 143.086L222.597 143.067C227.231 142.982 232.149 142.811 235.985 140.303C239.821 137.795 241.769 132.027 238.645 128.714C236.556 126.505 232.967 126.17 230.03 127.108C227.787 127.924 225.713 129.127 223.912 130.661" stroke="#171717" stroke-width="3" stroke-linecap="round" stroke-linejoin="round"/>
<path d="M163.794 289.199C158.167 292.182 153.211 296.228 149.22 301.098C145.227 305.969 142.28 311.565 140.55 317.558C138.821 323.551 138.345 329.819 139.149 335.993C139.954 342.168 142.024 348.124 145.236 353.51C152.046 364.923 163.709 373.13 176.436 377.756C180.837 379.34 185.364 380.571 189.973 381.436C196.189 382.587 202.489 383.261 208.815 383.45C211.393 383.542 213.964 383.566 216.535 383.542C222.565 383.487 228.979 383.273 234.569 385.073C236.494 385.678 238.312 386.567 239.957 387.71C243.327 390.173 245.843 393.575 247.169 397.462C249.307 403.138 249.747 409.802 249.917 415.935C250.086 422.435 250.13 429.392 247.084 435.061C246.691 435.807 246.241 436.523 245.738 437.204C239.802 445.29 228.138 446.809 217.915 446.468C199.309 445.839 181.062 441.449 163.136 436.575C145.681 431.827 128.038 426.444 113.243 416.283C96.6054 404.859 84.4638 387.777 77.9493 369.035C71.4348 350.293 70.3702 329.985 73.416 310.43C75.8434 294.856 80.9363 279.465 90.0852 266.46C99.234 253.454 112.702 242.97 128.383 238.936C131.754 238.069 135.438 237.374 137.804 234.884C139.193 233.419 139.948 231.491 141.249 229.953C142.247 228.799 143.483 227.863 144.878 227.203C147.178 226.172 149.612 225.454 152.113 225.067C156.943 224.158 161.805 223.474 166.701 223.016C174.764 222.256 182.876 222.092 190.965 222.528C194.442 222.717 197.907 223.016 201.359 223.426C203.54 223.682 205.713 223.983 207.875 224.329C211.774 224.95 215.641 225.714 219.476 226.618" stroke="#171717" stroke-width="3" stroke-linecap="round" stroke-linejoin="round"/>
<path d="M219.529 226.486C219.535 226.529 219.542 226.565 219.548 226.609C219.598 226.987 219.649 227.359 219.699 227.738C220.076 230.435 220.445 233.13 220.805 235.824C224.064 260.131 226.828 284.493 229.099 308.911C231.456 334.256 233.278 359.644 234.563 385.073C234.569 385.159 234.569 385.245 234.575 385.33" stroke="#171717" stroke-width="3" stroke-linecap="round" stroke-linejoin="round"/>
<path d="M219.78 227.725C223.874 239.413 229.96 250.702 239.235 259.136C248.509 267.571 261.311 272.879 273.943 271.464C287.776 269.92 299.71 260.589 307.164 249.177C314.618 237.764 318.214 224.411 321.034 211.18C322.078 206.305 323.191 201.099 326.794 197.559C329.233 195.153 332.428 193.879 335.861 193.195C338.756 192.674 341.694 192.4 344.638 192.378C350.523 192.232 356.999 192.506 362.187 194.813C364.603 195.841 366.721 197.429 368.355 199.439C371.968 203.961 372.393 210.124 372.153 215.843C370.99 243.549 357.616 270.042 338.029 290.231C324.209 304.487 306.863 316.081 287.219 320.513C267.574 324.945 245.537 321.459 230.138 308.82" stroke="#171717" stroke-width="3" stroke-linecap="round" stroke-linejoin="round"/>
<path d="M335.713 192.518C326.942 186.232 312.009 172.263 314.807 168.473C316.421 166.286 324.348 170.381 328.446 172.939C332.543 175.496 335.925 178.997 338.292 183.13C334.416 167.01 325.655 133.965 332.4 133.965C339.253 133.068 343.271 160.934 346.661 175.009C345.089 161.679 341.947 134.889 346.673 134.889C353.508 133.962 352.024 162.163 354.281 178.305C355.759 167.317 357.033 135.997 361.531 134.981C366.03 133.965 368.133 174.741 362.191 194.813" stroke="#171717" stroke-width="3" stroke-linecap="round" stroke-linejoin="round"/>
<path d="M417.505 379.324C403.997 397.859 387.327 414.018 368.215 427.106C368.073 427.21 367.925 427.307 367.781 427.405C362.31 431.121 355.709 434.74 349.293 432.927C344.502 431.573 341.126 427.502 338.353 423.474C337.554 422.306 336.775 421.119 336.033 419.904C332.273 413.752 329.475 406.966 329.827 399.898C330.123 395.232 331.619 390.712 334.178 386.752C337.223 382.074 341.06 377.93 345.527 374.492C347.005 373.314 348.52 372.21 350.054 371.166C360.197 364.27 371.716 358.985 380.122 350.154C389.202 340.615 393.748 327.879 397.231 315.337C400.715 302.796 403.443 289.877 409.782 278.434C416.12 266.991 426.903 256.984 440.164 255.231C445.483 254.529 451.143 255.134 456.002 252.924C460.862 250.715 464.592 242.33 460.668 238.772" stroke="#171717" stroke-width="3" stroke-linecap="round" stroke-linejoin="round"/>
<path d="M507.633 235.604C505.161 238.332 506.866 243.923 509.783 246.211C512.701 248.499 516.561 249.17 520.208 250.019C553.043 257.629 577.961 284.457 592.857 313.86C602.502 332.904 608.915 354.139 606.608 375.242C603.313 405.366 582.136 431.864 555.357 447.42C528.81 462.835 497.358 468.595 466.423 469.432C466.139 469.445 465.863 469.451 465.58 469.457C458.972 469.621 451.634 469.304 446.9 464.825C444.991 462.969 443.624 460.655 442.938 458.118C441.693 453.907 441.794 449.073 442.039 444.612C442.334 439.169 442.818 433.304 445.265 428.562C446.136 426.825 447.32 425.252 448.76 423.918C451.553 421.367 454.998 420.055 458.739 419.371C461.159 418.954 463.607 418.711 466.064 418.645C468.995 418.529 471.95 418.535 474.792 418.419C477.797 418.296 480.79 417.976 483.752 417.461C493.086 415.899 501.999 412.522 509.954 407.532C517.909 402.543 524.744 396.044 530.047 388.426C535.349 380.809 539.011 372.229 540.811 363.203C542.611 354.178 542.513 344.892 540.524 335.903" stroke="#171717" stroke-width="3" stroke-linecap="round" stroke-linejoin="round"/>
<path d="M401.546 446.077C390.272 447.304 379.96 448.945 380.357 451.948C381.083 457.442 407.149 454.2 421.151 451.283C410.556 453.565 399.959 455.848 389.36 458.13C387.933 458.329 386.574 458.852 385.394 459.656C384.293 460.55 383.689 462.194 384.444 463.378C385.153 464.495 386.683 464.758 388.028 464.891C405.885 466.678 425.685 463.92 442.64 458.196" stroke="#171717" stroke-width="3" stroke-linecap="round" stroke-linejoin="round"/>
<path d="M401.546 446.077C407.737 446.066 413.911 445.434 419.969 444.191C414.719 444.802 407.972 445.369 401.546 446.077Z" stroke="#171717" stroke-width="3" stroke-linecap="round" stroke-linejoin="round"/>
<path d="M420.265 433.426C404.948 433.523 380.444 438.205 381.645 443.971C381.645 447.13 394.855 446.097 401.549 446.077" stroke="#171717" stroke-width="3" stroke-linecap="round" stroke-linejoin="round"/>
<path d="M420.265 433.426C421.439 433.507 422.617 433.527 423.792 433.487C422.692 433.432 421.509 433.413 420.265 433.426Z" stroke="#171717" stroke-width="3" stroke-linecap="round" stroke-linejoin="round"/>
<path d="M445.265 428.562C435.437 427.732 426.175 426.139 416.353 425.309C415.53 425.241 414.7 425.172 413.87 425.163C412.72 425.126 411.571 425.289 410.481 425.644C408.626 426.303 407.01 428.018 407.186 429.935C407.186 432.349 415.709 433.119 420.265 433.425" stroke="#171717" stroke-width="3" stroke-linecap="round" stroke-linejoin="round"/>
<path d="M432.374 289.088C425.805 318.895 420.864 349.018 417.57 379.33C415.935 394.356 414.705 409.465 413.88 424.656" stroke="#171717" stroke-width="3" stroke-linecap="round" stroke-linejoin="round"/>
<path d="M491.058 192.14C488.177 191.579 485.296 191.015 482.413 190.45C483.382 178.727 485.487 167.119 488.7 155.78C494.843 156.493 500.986 157.205 507.13 157.915" stroke="#171717" stroke-width="3" stroke-linecap="round" stroke-linejoin="round"/>
<path d="M483.387 155.792C478.936 154.667 474.275 154.573 469.78 155.517" stroke="#171717" stroke-width="3" stroke-linecap="round" stroke-linejoin="round"/>
<path d="M493.234 214.263C500.909 214.263 507.13 210.479 507.13 205.811C507.13 201.143 500.909 197.358 493.234 197.358C485.559 197.358 479.338 201.143 479.338 205.811C479.338 210.479 485.559 214.263 493.234 214.263Z" stroke="#171717" stroke-width="3" stroke-linecap="round" stroke-linejoin="round"/>
<path d="M512.606 188.973C509.701 189.017 506.827 189.551 504.112 190.555C499.452 192.141 494.667 194.57 489.643 194.79C484.303 194.947 478.97 194.309 473.83 192.898C470.753 192.086 467.757 191.012 464.876 189.688C463.119 188.8 461.289 188.055 459.406 187.46C457.658 186.886 455.759 186.922 454.036 187.564C451.816 188.491 450.382 190.615 449.37 192.745C445.717 200.459 445.918 209.338 446.78 217.785C447.371 223.564 448.421 229.704 452.47 233.982C454.714 236.26 457.545 237.914 460.669 238.772C463.194 239.507 465.794 239.973 468.422 240.164C469.755 240.274 471.082 240.335 472.389 240.37C475.678 240.455 478.972 240.425 482.261 240.26C487.945 239.983 493.596 239.25 499.156 238.069C502.046 237.474 504.881 236.649 507.632 235.604C510.671 234.462 513.484 232.819 515.944 230.746C521.792 225.669 524.527 217.967 525.533 210.418C526.055 206.53 526.17 202.512 525.005 198.755C523.839 194.999 521.257 191.517 517.554 189.949C515.989 189.304 514.306 188.972 512.606 188.973Z" stroke="#171717" stroke-width="3" stroke-linecap="round" stroke-linejoin="round"/>
<path d="M512.612 188.539C513.229 185.775 513.757 183.047 514.184 180.331C515.121 174.465 515.609 168.539 515.643 162.603C515.675 158.794 515.449 154.748 513.222 151.611C510.437 147.706 505.262 146.217 500.433 145.484C489.983 143.897 479.254 144.599 468.837 142.829C467.454 142.591 466.071 142.305 464.687 141.951C455.684 139.662 447.101 134.859 443.154 126.822C442.959 126.538 442.839 126.214 442.804 125.876C442.769 125.537 442.82 125.196 442.953 124.881C443.368 124.228 444.323 124.197 445.116 124.262C450.314 124.699 455.407 125.943 460.2 127.948C457.789 124.911 456.196 121.339 455.566 117.555C455.334 116.121 455.415 114.324 456.736 113.636C457.861 113.056 459.225 113.642 460.332 114.255C466.828 117.853 472.536 122.648 477.139 128.371C475.484 126.087 474.337 123.495 473.773 120.757C473.209 118.02 473.24 115.198 473.863 112.473C474.288 110.642 475.838 108.469 477.624 109.183C478.292 109.535 478.831 110.082 479.164 110.746C483.358 117.306 487.549 123.865 491.739 130.421C493.267 128.737 493.562 126.351 494.502 124.306C495.441 122.261 497.784 120.358 499.878 121.298C501.198 121.896 501.815 123.39 502.016 124.794C502.217 126.198 502.123 127.656 502.594 128.993C503.738 132.224 507.623 133.607 511.089 134.223C514.555 134.84 518.408 135.267 520.772 137.798C522.445 139.58 523.01 142.061 523.519 144.42C526.022 156.1 528.529 167.781 531.04 179.461C528.58 177.71 526.12 175.963 523.658 174.219C523.784 176.282 525.488 177.875 526.55 179.669C527.613 181.463 527.669 184.338 525.658 185.021C524.507 185.418 523.268 184.857 522.187 184.308C519.577 182.989 516.97 181.67 514.365 180.352" stroke="#171717" stroke-width="3" stroke-linecap="round" stroke-linejoin="round"/>
<path d="M464.65 142.091C461.901 157.089 460.15 172.243 459.408 187.459C459.408 187.502 459.402 187.538 459.402 187.581" stroke="#171717" stroke-width="3" stroke-linecap="round" stroke-linejoin="round"/>
<path d="M486.625 203.892C488.298 205.229 490.008 206.596 492.045 207.304C494.082 208.011 496.554 207.939 498.201 206.578C499.066 205.766 499.762 204.8 500.251 203.733" stroke="#171717" stroke-width="3" stroke-linecap="round" stroke-linejoin="round"/>
<path d="M247.667 397.26C256.866 391.967 266.209 386.623 276.528 383.895C286.463 381.271 297.579 381.332 306.576 386.105C306.923 386.288 307.269 386.483 307.608 386.678C308.922 387.442 310.255 388.397 310.764 389.803C311.664 392.278 309.507 394.978 306.948 395.815C304.388 396.651 301.597 396.187 298.912 395.888C290.725 394.97 282.431 395.659 274.522 397.914" stroke="#171717" stroke-width="3" stroke-linecap="round" stroke-linejoin="round"/>
<path d="M287.694 395.82C278.541 400.671 271.741 408.846 268.787 418.553C268.246 420.384 267.882 422.484 268.951 424.083C269.976 425.615 272.101 426.188 273.962 425.877C275.809 425.459 277.523 424.609 278.954 423.402C281.922 421.165 284.531 418.513 286.696 415.532C288.451 413.122 290.111 410.333 292.952 409.276C295.141 408.464 297.581 408.864 299.92 409.001C305.401 409.306 310.863 408.134 315.702 405.614C317.261 404.816 318.739 403.875 320.116 402.807" stroke="#171717" stroke-width="3" stroke-linecap="round" stroke-linejoin="round"/>
<path d="M306.708 385.855C315.587 383.588 324.944 383.803 333.701 386.473" stroke="#171717" stroke-width="3" stroke-linecap="round" stroke-linejoin="round"/>
<path d="M315.888 405.948C317.322 405.906 318.806 405.261 320.145 405.753C320.832 405.968 321.44 406.371 321.896 406.913C322.352 407.455 322.637 408.115 322.717 408.81C322.773 410.947 320.371 412.264 318.303 412.985C309.93 415.897 301.075 417.285 292.183 417.08" stroke="#171717" stroke-width="3" stroke-linecap="round" stroke-linejoin="round"/>
<path d="M318.535 413.323C319.761 413.476 321.019 413.024 322.107 413.598C322.663 413.861 323.137 414.265 323.476 414.768C323.814 415.272 324.006 415.854 324.031 416.455C323.945 417.249 323.614 418 323.081 418.609C322.045 419.918 320.757 421.018 319.29 421.85C317.622 422.803 315.858 423.59 314.027 424.199C305.842 427.07 297.181 428.451 288.48 428.269C288.725 428.263 288.976 428.263 289.222 428.258" stroke="#171717" stroke-width="3" stroke-linecap="round" stroke-linejoin="round"/>
<path d="M292.363 435.47C297.356 434.958 311.245 433.194 315.809 431.168C317.676 430.338 319.588 429.3 320.612 427.573C321.122 426.686 321.312 425.66 321.154 424.656C321.096 424.17 320.923 423.704 320.648 423.294C320.373 422.884 320.003 422.542 319.569 422.294" stroke="#171717" stroke-width="3" stroke-linecap="round" stroke-linejoin="round"/>
<path d="M321.164 424.656C326.369 424.218 331.401 422.625 335.87 420" stroke="#171717" stroke-width="3" stroke-linecap="round" stroke-linejoin="round"/>
<path d="M247.478 435.256C249.704 435.751 260.022 435.269 262.298 435.019" stroke="#171717" stroke-width="3" stroke-linecap="round" stroke-linejoin="round"/>
<path d="M263.455 434.488C265.006 432.179 267.217 430.36 269.818 429.255C270.83 428.834 272.1 428.559 272.955 429.237C273.748 429.865 273.786 431.013 273.729 432.007C273.679 432.819 273.604 433.631 273.484 434.436C273.344 435.529 273.086 436.605 272.717 437.646C272.573 438.051 272.407 438.448 272.221 438.836C271.739 439.914 271.032 440.882 270.145 441.681C269.257 442.479 268.209 443.09 267.065 443.474C266.158 443.738 265.199 443.789 264.268 443.623C263.336 443.456 262.459 443.077 261.708 442.517C260.13 441.271 261.192 439.477 261.77 437.823C262.182 436.645 262.748 435.525 263.455 434.488Z" stroke="#171717" stroke-width="3" stroke-linecap="round" stroke-linejoin="round"/>
<path d="M272.717 437.649C272.446 439.266 271.616 442.025 272.534 443.331C272.858 443.718 273.317 443.976 273.823 444.057C276.219 444.594 279.375 443.301 280.878 441.415C281.147 441.076 281.393 440.721 281.614 440.352C282.563 438.618 283.219 436.747 283.556 434.811C283.576 434.726 283.595 434.641 283.607 434.549C283.745 433.763 283.688 432.956 283.44 432.195C283.193 431.434 282.763 430.741 282.186 430.173C279.306 427.671 274.974 431.76 273.648 434.115C273.591 434.219 273.534 434.329 273.484 434.439C273.091 435.38 272.847 436.374 272.761 437.387C272.748 437.472 272.736 437.558 272.717 437.649Z" stroke="#171717" stroke-width="3" stroke-linecap="round" stroke-linejoin="round"/>
<path d="M281.777 439.949C281.72 440.087 281.664 440.218 281.614 440.352C281.205 441.234 280.981 442.186 280.954 443.154C280.94 443.712 281.101 444.261 281.414 444.729C281.726 445.197 282.177 445.563 282.708 445.778C283.714 446.089 284.802 445.625 285.7 445.082C288.571 443.328 290.752 440.689 291.894 437.589C292.159 436.91 292.314 436.196 292.353 435.471C292.402 434.824 292.262 434.177 291.951 433.604C291.526 432.966 290.908 432.471 290.181 432.189C289.455 431.907 288.656 431.851 287.895 432.029C286.374 432.431 285.059 433.36 284.198 434.641" stroke="#171717" stroke-width="3" stroke-linecap="round" stroke-linejoin="round"/>
<path d="M190.951 222.77C190.462 227.589 190.578 232.447 191.297 237.239C191.548 238.954 191.878 240.653 192.288 242.335C192.501 243.648 193.077 244.88 193.954 245.899C194.166 246.105 194.397 246.289 194.646 246.449C196.225 247.432 198.381 247.389 200.318 247.267C202.097 247.151 204.009 246.986 205.347 245.845C205.645 245.588 205.905 245.292 206.121 244.966C207.052 243.575 207.202 241.701 207.271 239.992C207.303 239.175 207.334 238.4 207.365 237.649C207.542 233.303 207.668 229.898 207.743 225.157" stroke="#171717" stroke-width="3" stroke-linecap="round" stroke-linejoin="round"/>
<path d="M194.491 246.668C190.595 258.331 190.517 270.823 190.473 283.083C190.36 315.618 190.245 348.152 190.127 380.686" stroke="#171717" stroke-width="3" stroke-linecap="round" stroke-linejoin="round"/>
<path d="M206.507 245.014C209.82 248.438 209.971 253.637 209.934 258.33C209.563 299.793 209.196 341.251 208.834 382.705" stroke="#171717" stroke-width="3" stroke-linecap="round" stroke-linejoin="round"/>
<path d="M468.396 240.437C468.208 244.062 468.021 247.687 467.837 251.313C467.787 252.307 467.787 253.436 468.529 254.126C468.947 254.478 469.473 254.686 470.025 254.718C470.404 254.759 470.783 254.773 471.164 254.76C473.622 254.73 476.086 254.692 478.545 254.663C478.727 254.663 478.91 254.657 479.099 254.645C479.969 254.685 480.823 254.408 481.494 253.869C482.236 253.143 482.28 252.008 482.287 250.989C482.287 247.615 482.291 244.24 482.299 240.865" stroke="#171717" stroke-width="3" stroke-linecap="round" stroke-linejoin="round"/>
<path d="M470.031 254.656C470.026 254.676 470.025 254.697 470.026 254.717C469.376 258.829 469.147 262.994 469.346 267.149C469.46 267.094 469.567 267.039 469.679 266.996C470.969 266.478 472.472 266.63 473.886 266.636C475.164 266.725 476.433 266.373 477.47 265.642C477.677 265.473 477.855 265.273 477.998 265.05C478.393 264.311 478.593 263.489 478.583 262.657C478.765 260.131 478.945 257.604 479.124 255.078" stroke="#171717" stroke-width="3" stroke-linecap="round" stroke-linejoin="round"/>
<path d="M469.699 267.009C469.692 267.009 469.692 267.015 469.686 267.015C466.197 268.553 463.851 271.915 462.707 275.467C461.562 279.019 461.487 282.803 461.411 286.526C460.514 330.754 459.613 374.981 458.708 419.206" stroke="#171717" stroke-width="3" stroke-linecap="round" stroke-linejoin="round"/>
<path d="M477.458 265.642H477.471C479.363 265.63 481.016 267.039 481.827 268.699C482.529 270.416 482.889 272.247 482.884 274.094C485.794 321.542 486.029 369.109 483.588 416.582" stroke="#171717" stroke-width="3" stroke-linecap="round" stroke-linejoin="round"/>
<path d="M498.205 296.381C501.148 296.827 504.101 297.231 507.065 297.595C509.969 297.962 512.881 298.283 515.792 298.566C521.092 299.085 526.399 299.481 531.713 299.756" stroke="#171717" stroke-width="3" stroke-linecap="round" stroke-linejoin="round"/>
<path d="M497.638 296.43C497.096 304.89 497.506 313.383 498.864 321.756C499.355 324.795 500.065 328 502.259 330.221C504.152 332.137 506.931 333.047 509.666 333.229C512.406 333.307 515.145 333.058 517.821 332.485C521.751 331.808 526.159 330.825 528.203 327.493C529.253 325.784 529.473 323.734 529.668 321.756C530.39 314.536 531.111 307.315 531.831 300.091" stroke="#171717" stroke-width="3" stroke-linecap="round" stroke-linejoin="round"/>
<path d="M515.825 298.237C516.096 295.911 516.341 293.428 515.247 291.341C514.152 289.253 511.179 287.929 509.242 289.326C507.896 290.303 507.589 292.109 507.419 293.732C507.281 295.02 507.162 296.308 507.065 297.595C506.519 304.599 506.516 311.632 507.059 318.636" stroke="#171717" stroke-width="3" stroke-linecap="round" stroke-linejoin="round"/>
<path d="M345.755 374.766C345.635 394.374 353.778 412.689 367.913 426.695" stroke="#171717" stroke-width="3" stroke-linecap="round" stroke-linejoin="round"/>
<path d="M466.077 418.901C463.358 435.65 463.475 452.718 466.423 469.432C466.423 469.462 466.428 469.493 466.435 469.524" stroke="#171717" stroke-width="3" stroke-linecap="round" stroke-linejoin="round"/>
<path d="M144.227 226.962C144.44 227.042 144.661 227.127 144.875 227.2C159.524 232.668 174.897 236.094 190.536 237.375" stroke="#171717" stroke-width="3" stroke-linecap="round" stroke-linejoin="round"/>
<path d="M207.413 237.648C211.788 237.683 216.144 237.088 220.34 235.884" stroke="#171717" stroke-width="3" stroke-linecap="round" stroke-linejoin="round"/>
<path d="M479.558 167.308C479.23 166.716 478.747 166.218 478.159 165.864C477.57 165.509 476.897 165.311 476.205 165.288C475.513 165.265 474.826 165.418 474.214 165.733C473.602 166.048 473.086 166.513 472.717 167.082" stroke="#171717" stroke-width="3" stroke-linecap="round" stroke-linejoin="round"/>
<path d="M491.674 168.815C492.11 168.113 492.73 167.536 493.47 167.143C494.21 166.749 495.044 166.553 495.889 166.575C496.732 166.597 497.555 166.835 498.272 167.266C498.99 167.697 499.578 168.305 499.974 169.028" stroke="#171717" stroke-width="2" stroke-linecap="round" stroke-linejoin="round"/>
<path d="M605.183 247.336C599.378 261.372 598.955 276.964 603.992 291.278C609.03 305.591 619.192 317.673 632.632 325.329C639.124 329.027 646.777 332.107 650.057 338.683C653.07 344.724 651.397 351.967 648.761 358.173C646.881 362.599 644.413 366.988 640.453 369.842C636.493 372.697 630.735 373.64 626.612 371.011C622.49 368.382 621.451 361.716 625.344 358.774C626.071 358.188 626.949 357.809 627.884 357.678C628.817 357.546 629.771 357.667 630.638 358.027C632.319 358.846 633.21 361.104 632.197 362.646" stroke="#171717" stroke-width="3" stroke-linecap="round" stroke-linejoin="round"/>
<path d="M567.66 454.571C573.85 454.231 579.845 452.349 585.068 449.108C590.29 445.866 594.564 441.372 597.477 436.061" stroke="#171717" stroke-width="3" stroke-linecap="round" stroke-linejoin="round"/>
<path d="M261.803 461.521C277.603 469.269 297.884 467.48 311.985 457.092" stroke="#171717" stroke-width="3" stroke-linecap="round" stroke-linejoin="round"/>
<path d="M279.394 475.91L292.777 473.71" stroke="#171717" stroke-width="3" stroke-linecap="round" stroke-linejoin="round"/>
<path d="M271.423 374.452C275.05 372.334 279.192 371.191 283.425 371.141C287.658 371.091 291.828 372.136 295.507 374.167" stroke="#171717" stroke-width="3" stroke-linecap="round" stroke-linejoin="round"/>
<path d="M91.625 426.844C75.6075 424.351 62.3521 410.176 61.3428 394.463" stroke="#171717" stroke-width="3" stroke-linecap="round" stroke-linejoin="round"/>
<path d="M40.378 332.408C36.8338 329.792 33.8868 326.491 31.7229 322.714" stroke="#171717" stroke-width="3" stroke-linecap="round" stroke-linejoin="round"/>
<path d="M28.3333 334.941L37.6563 324.604" stroke="#171717" stroke-width="3" stroke-linecap="round" stroke-linejoin="round"/>
<path d="M43.3644 287.304C45.8605 281.963 55.4436 283.056 57.4552 288.587C59.4669 294.118 54.301 300.486 48.2767 300.946C42.2523 301.407 36.5814 297.015 34.4358 291.531C32.2903 286.048 33.153 279.813 35.3878 274.361C38.5012 266.824 44.0308 260.461 51.1589 256.211C63.1821 249.087 80.0531 247.512 86.6576 235.437C89.0829 231.002 89.5015 225.285 86.6717 221.082C83.8419 216.878 77.3706 215.044 73.1603 217.96C69.9347 220.195 68.7808 224.629 69.9495 228.301C71.1181 231.973 74.2823 234.851 77.921 236.374C85.736 239.645 95.8085 236.476 100.163 229.378C104.676 222.017 102.976 212.767 102.734 204.205C102.492 195.643 105.252 185.367 113.677 182.815" stroke="#171717" stroke-width="3" stroke-linecap="round" stroke-linejoin="round"/>
<path d="M144.888 145.661C144.763 142.668 145.655 139.719 147.425 137.266C149.197 134.813 151.75 132.994 154.691 132.087" stroke="#171717" stroke-width="3" stroke-linecap="round" stroke-linejoin="round"/>
<path d="M224.156 106.9C225.638 102.551 228.379 98.7087 232.052 95.8315" stroke="#171717" stroke-width="3" stroke-linecap="round" stroke-linejoin="round"/>
<path d="M232.91 104.806L219.548 93.875" stroke="#171717" stroke-width="3" stroke-linecap="round" stroke-linejoin="round"/>
<path d="M253.361 122.967L260.667 117.775" stroke="#171717" stroke-width="3" stroke-linecap="round" stroke-linejoin="round"/>
<path d="M260.078 124.338L254.751 115.938" stroke="#171717" stroke-width="3" stroke-linecap="round" stroke-linejoin="round"/>
<path d="M380.48 151.457C381.249 147.72 380.937 143.849 379.581 140.273C378.224 136.697 375.875 133.555 372.793 131.194" stroke="#171717" stroke-width="3" stroke-linecap="round" stroke-linejoin="round"/>
<path d="M389.462 142.311L385.462 135.206" stroke="#171717" stroke-width="3" stroke-linecap="round" stroke-linejoin="round"/>
<path d="M520.39 107.538L518.392 97.8438" stroke="#171717" stroke-width="3" stroke-linecap="round" stroke-linejoin="round"/>
<path d="M513.731 104.304L522.387 101.719" stroke="#171717" stroke-width="3" stroke-linecap="round" stroke-linejoin="round"/>
<path d="M540.329 129.472L558.31 113.324" stroke="#171717" stroke-width="3" stroke-linecap="round" stroke-linejoin="round"/>
<path d="M555.037 128.198L543.046 112.05" stroke="#171717" stroke-width="3" stroke-linecap="round" stroke-linejoin="round"/>
<path d="M593.496 199.39L584.81 188.428" stroke="#171717" stroke-width="3" stroke-linecap="round" stroke-linejoin="round"/>
<path d="M582.971 198.649C587.687 196.326 591.615 192.738 594.29 188.31" stroke="#171717" stroke-width="3" stroke-linecap="round" stroke-linejoin="round"/>
<path d="M450.18 287.973L445.146 281.657" stroke="#171717" stroke-width="3" stroke-linecap="round" stroke-linejoin="round"/>
<path d="M487.503 251.033C492.855 249.673 498.085 247.895 503.142 245.72" stroke="#171717" stroke-width="3" stroke-linecap="round" stroke-linejoin="round"/>
<path d="M464.687 251.492L462.616 250.343" stroke="#171717" stroke-width="3" stroke-linecap="round" stroke-linejoin="round"/>
<path d="M502.232 274.43L509.188 267.967" stroke="#171717" stroke-width="3" stroke-linecap="round" stroke-linejoin="round"/>
<path d="M541.697 278.055L537.73 272.198" stroke="#171717" stroke-width="3" stroke-linecap="round" stroke-linejoin="round"/>
<path d="M564.535 311.912L571.264 304.381" stroke="#171717" stroke-width="3" stroke-linecap="round" stroke-linejoin="round"/>
<path d="M555.814 338.515L551.404 329.886" stroke="#171717" stroke-width="3" stroke-linecap="round" stroke-linejoin="round"/>
<path d="M504.6 364.909L510.171 357.406" stroke="#171717" stroke-width="3" stroke-linecap="round" stroke-linejoin="round"/>
<path d="M517.629 382.171L515.264 375.565" stroke="#171717" stroke-width="3" stroke-linecap="round" stroke-linejoin="round"/>
<path d="M432.516 406.354L438.781 399.215L438.356 399.682" stroke="#171717" stroke-width="3" stroke-linecap="round" stroke-linejoin="round"/>
<path d="M440.122 366.947L434.795 359.193" stroke="#171717" stroke-width="3" stroke-linecap="round" stroke-linejoin="round"/>
<path d="M444.995 335.185L450.605 329.43" stroke="#171717" stroke-width="3" stroke-linecap="round" stroke-linejoin="round"/>
<path d="M406.994 336.494C405.371 335.267 404.2 333.564 403.656 331.639" stroke="#171717" stroke-width="3" stroke-linecap="round" stroke-linejoin="round"/>
<path d="M401.616 368.925L407.237 360.308" stroke="#171717" stroke-width="3" stroke-linecap="round" stroke-linejoin="round"/>
<path d="M379.079 398.858L376.017 391.433" stroke="#171717" stroke-width="3" stroke-linecap="round" stroke-linejoin="round"/>
<path d="M362.935 375.618C365.046 374.476 367.315 373.633 369.671 373.112" stroke="#171717" stroke-width="3" stroke-linecap="round" stroke-linejoin="round"/>
<path d="M570.89 369.417L580.169 363.327" stroke="#171717" stroke-width="3" stroke-linecap="round" stroke-linejoin="round"/>
<path d="M547.84 396.388L548.494 385.15" stroke="#171717" stroke-width="3" stroke-linecap="round" stroke-linejoin="round"/>
<path d="M580.454 398.099L580.871 390.773" stroke="#171717" stroke-width="3" stroke-linecap="round" stroke-linejoin="round"/>
<path d="M541.024 421.84L550.346 422.689" stroke="#171717" stroke-width="3" stroke-linecap="round" stroke-linejoin="round"/>
<path d="M503.715 432.989L505.481 425.233" stroke="#171717" stroke-width="3" stroke-linecap="round" stroke-linejoin="round"/>
<path d="M482.446 450.158L489.549 450.562" stroke="#171717" stroke-width="3" stroke-linecap="round" stroke-linejoin="round"/>
<path d="M630.906 309.145L632.903 300.099" stroke="#171717" stroke-width="3" stroke-linecap="round" stroke-linejoin="round"/>
<path d="M635.566 305.917C632.756 306.148 629.946 305.466 627.577 303.979" stroke="#171717" stroke-width="3" stroke-linecap="round" stroke-linejoin="round"/>
<path d="M309.768 323.513C318.974 320.666 327.049 315.126 332.888 307.653" stroke="#171717" stroke-width="3" stroke-linecap="round" stroke-linejoin="round"/>
<path d="M157.255 264.128L148.914 259.82C148.914 259.82 147.49 264.99 147.49 265.851C147.49 266.713 157.255 264.128 157.255 264.128Z" stroke="#171717" stroke-width="3" stroke-linecap="round" stroke-linejoin="round"/>
<path d="M120.86 316.972L112.279 322.341L125.003 327.561L120.86 316.972Z" stroke="#171717" stroke-width="3" stroke-linecap="round" stroke-linejoin="round"/>
<path d="M106.953 270.235L97.189 274.754L106.953 281.647V270.235Z" stroke="#171717" stroke-width="3" stroke-linecap="round" stroke-linejoin="round"/>
<path d="M176.842 322.715L167.381 325.874L173.53 334.066L176.842 322.715Z" stroke="#171717" stroke-width="3" stroke-linecap="round" stroke-linejoin="round"/>
<path d="M283.667 288.827L273.747 300.98H286.658L283.667 288.827Z" stroke="#171717" stroke-width="3" stroke-linecap="round" stroke-linejoin="round"/>
<path d="M337.454 246.668L348.994 247.327L344.26 257.344L337.454 246.668Z" stroke="#171717" stroke-width="3" stroke-linecap="round" stroke-linejoin="round"/>
<path d="M314.966 259.82L316.15 266.027L306.256 264.128L314.966 259.82Z" stroke="#171717" stroke-width="3" stroke-linecap="round" stroke-linejoin="round"/>
<path d="M230.045 394.461L234.574 403.416H215.25L230.045 394.461Z" stroke="#171717" stroke-width="3" stroke-linecap="round" stroke-linejoin="round"/>
<path d="M160.879 417.101L153.705 400.729L145.419 413.297L160.879 417.101Z" stroke="#171717" stroke-width="3" stroke-linecap="round" stroke-linejoin="round"/>
<path d="M116.422 368.924L108.433 380.688L104.882 368.924H116.422Z" stroke="#171717" stroke-width="3" stroke-linecap="round" stroke-linejoin="round"/>
<path d="M224.912 348.275L217.913 354.593L227.051 359.193L224.912 348.275Z" stroke="#171717" stroke-width="3" stroke-linecap="round" stroke-linejoin="round"/>
<g opacity="0.1">
<path d="M221.577 140.626C210.962 138.586 199.543 139.105 188.757 139.468C179.931 139.765 172.82 143.435 172.153 152.73C171.799 157.671 172.31 162.752 172.406 167.703C172.517 173.427 172.423 179.15 172.122 184.872C171.613 196.007 170.504 207.108 168.798 218.129C168.168 222.014 174.121 223.794 175.009 219.791C179.283 200.532 181.305 180.799 179.711 161.101C179.412 157.409 177.727 151.364 180.373 148.155C182.688 145.345 187.382 145.41 190.723 145.312C201.015 145.011 211.481 145.567 221.577 143.36C222.948 143.06 222.994 140.897 221.577 140.626H221.577Z" fill="#171717"/>
</g>
<g opacity="0.1">
<path d="M163.132 220.565C156.822 222.785 150.878 226.105 144.983 229.212C141.959 230.805 138.921 231.967 136.004 233.773C133.001 235.632 130.001 237.496 127.004 239.364C116.369 245.992 105.63 252.919 97.4958 262.454C82.2432 280.334 74.4395 304.193 73.569 327.197C72.731 349.354 78.4133 372.415 91.7647 390.63C106.083 410.166 127.465 422.858 150.281 431.159C179.049 441.501 209.794 445.632 240.376 443.267C243.827 443.004 246.784 440.596 246.784 437.047C246.784 433.876 243.846 430.575 240.376 430.827C215.156 432.712 189.795 429.99 165.608 422.805C144.397 416.465 123.472 406.677 108.4 390.46C94.4478 375.448 87.4396 355.235 86.642 335.229C85.8189 314.581 90.7723 292.895 102.382 275.429C109.536 264.669 119.686 256.967 130.438 249.802C136.23 245.942 142.468 242.435 147.614 237.8C153.125 232.835 159.806 229.194 165.329 224.231C166.93 222.792 165.271 219.816 163.133 220.568L163.132 220.565Z" fill="#171717"/>
</g>
<g opacity="0.1">
<path d="M463.906 240.166C466.821 247.281 456.845 250.135 451.545 250.324C444.442 250.573 437.52 252.132 431.458 255.88C418.844 263.681 411.934 277.348 407.729 290.802C403.19 305.322 401.5 321.153 393.367 334.385C386.878 344.944 376.234 352.066 366.067 358.989C360.212 362.976 354.335 366.987 348.945 371.56C343.801 375.924 336.88 381.873 335.637 388.671C334.746 393.535 339.916 396.233 343.795 393.277C346.349 391.331 348.074 388.594 350.211 386.222C352.375 383.847 354.701 381.616 357.174 379.545C362.077 375.391 367.454 371.817 372.779 368.201C383.707 360.776 394.71 353.099 402.175 342.145C411.54 328.395 413.841 311.752 418.14 296.167C421.832 282.781 427.974 269.015 441.334 262.338C448.444 258.785 457.711 259.769 464.23 254.999C469.636 251.045 472.459 243.361 467.848 237.94C466.386 236.221 463.048 238.068 463.907 240.166H463.906Z" fill="#171717"/>
</g>
<g opacity="0.1">
<path d="M437.732 286.635C433.113 289.222 432.658 296.322 431.499 300.889C430.064 306.543 428.944 312.28 427.886 318.013C425.807 329.317 424.217 340.727 422.752 352.121C421.292 363.485 420.088 374.878 419.14 386.298C418.658 392.119 418.243 397.944 417.895 403.772C417.735 406.462 417.589 409.153 417.456 411.845C417.305 414.939 416.701 418.325 417.824 421.264C419.204 424.883 425.317 426.809 427.352 422.472C429.756 417.349 428.96 410.697 429.268 405.114C429.578 399.509 429.95 393.908 430.383 388.31C431.268 376.892 432.411 365.497 433.811 354.124C435.181 343.01 436.92 331.959 438.683 320.899C439.604 315.114 440.6 309.337 441.404 303.535C442.042 298.929 444.68 291.697 441.59 287.615C441.2 287.001 440.582 286.557 439.863 286.374C439.144 286.191 438.38 286.283 437.729 286.633L437.732 286.635Z" fill="#171717"/>
</g>
<g opacity="0.1">
<path d="M448.633 431.837C450.819 431.533 452.888 430.478 454.975 429.793C457.676 428.931 460.424 428.213 463.207 427.643C469.234 426.353 475.477 426.466 481.614 426.182C492.942 425.739 504.043 422.957 514.176 418.022C524.086 413.13 532.764 406.18 539.595 397.666C546.426 389.153 551.242 379.284 553.701 368.76C555.126 362.613 555.765 356.318 555.603 350.019C555.414 343.73 555.137 336.113 550.975 331.037C548.666 328.218 542.971 329.711 542.374 333.241C541.5 338.413 543.436 343.686 543.69 348.902C544.505 364.219 539.618 379.31 529.92 391.42C523.585 399.04 515.564 405.178 506.451 409.377C496.56 414 486.313 415.116 475.496 415.643C468.968 415.962 462.067 416.446 456.177 419.452C452.086 421.539 446.747 425.586 446.951 430.594C446.957 430.791 447.007 430.984 447.099 431.16C447.192 431.335 447.323 431.488 447.485 431.607C447.646 431.727 447.833 431.809 448.032 431.849C448.23 431.889 448.436 431.885 448.633 431.837Z" fill="#171717"/>
</g>
<path d="M147.972 546.106C148.085 546.423 148.165 546.786 148.21 547.194C148.278 547.579 148.312 547.976 148.312 548.384C148.312 548.792 148.278 549.2 148.21 549.608C148.165 549.993 148.097 550.333 148.006 550.628C147.643 551.897 146.918 552.963 145.83 553.824C144.742 554.663 143.495 555.275 142.09 555.66C140.707 556.045 139.268 556.181 137.772 556.068C136.299 555.955 134.984 555.581 133.828 554.946C133.103 554.538 132.479 554.039 131.958 553.45C131.437 552.861 130.995 552.203 130.632 551.478C130.496 551.229 130.405 550.945 130.36 550.628C130.337 550.288 130.371 549.971 130.462 549.676C130.553 549.359 130.7 549.087 130.904 548.86C131.108 548.611 131.391 548.441 131.754 548.35C131.981 548.305 132.23 548.282 132.502 548.282C132.797 548.282 133.08 548.327 133.352 548.418C133.624 548.486 133.873 548.611 134.1 548.792C134.327 548.951 134.508 549.177 134.644 549.472C134.893 549.948 135.245 550.39 135.698 550.798C136.174 551.183 136.673 551.501 137.194 551.75C137.942 551.999 138.69 552.101 139.438 552.056C140.209 552.011 140.9 551.841 141.512 551.546C142.147 551.251 142.657 550.855 143.042 550.356C143.427 549.835 143.62 549.245 143.62 548.588C143.62 548.044 143.541 547.602 143.382 547.262C143.223 546.899 142.997 546.605 142.702 546.378C142.43 546.129 142.09 545.925 141.682 545.766C141.297 545.607 140.866 545.471 140.39 545.358C139.846 545.245 139.291 545.165 138.724 545.12C138.18 545.075 137.625 545.018 137.058 544.95C136.491 544.882 135.936 544.791 135.392 544.678C134.848 544.565 134.315 544.395 133.794 544.168C132.751 543.737 131.958 543.08 131.414 542.196C130.87 541.312 130.541 540.36 130.428 539.34C130.337 538.32 130.462 537.311 130.802 536.314C131.142 535.294 131.686 534.421 132.434 533.696C133.159 533.039 134.021 532.574 135.018 532.302C136.038 532.007 137.16 531.837 138.384 531.792C139.064 531.769 139.744 531.792 140.424 531.86C141.127 531.928 141.795 532.041 142.43 532.2C143.087 532.359 143.688 532.563 144.232 532.812C144.799 533.061 145.286 533.356 145.694 533.696C145.989 533.923 146.283 534.229 146.578 534.614C146.873 534.977 147.099 535.373 147.258 535.804C147.417 536.212 147.462 536.609 147.394 536.994C147.349 537.379 147.111 537.708 146.68 537.98C146.317 538.207 145.966 538.309 145.626 538.286C145.309 538.241 145.003 538.139 144.708 537.98C144.413 537.799 144.13 537.595 143.858 537.368C143.586 537.141 143.337 536.937 143.11 536.756C142.498 536.303 141.739 535.997 140.832 535.838C139.925 535.679 139.075 535.645 138.282 535.736C137.783 535.804 137.319 535.917 136.888 536.076C136.457 536.235 136.083 536.45 135.766 536.722C135.471 536.994 135.233 537.334 135.052 537.742C134.893 538.127 134.837 538.569 134.882 539.068C134.905 539.431 135.007 539.737 135.188 539.986C135.392 540.235 135.63 540.439 135.902 540.598C136.197 540.757 136.514 540.881 136.854 540.972C137.194 541.063 137.534 541.131 137.874 541.176C138.894 541.312 139.914 541.414 140.934 541.482C141.954 541.55 142.951 541.777 143.926 542.162C144.923 542.547 145.773 543.069 146.476 543.726C147.179 544.383 147.677 545.177 147.972 546.106ZM168.452 532.982C168.702 533.277 168.826 533.583 168.826 533.9C168.826 534.036 168.815 534.183 168.792 534.342C168.792 534.478 168.781 534.603 168.758 534.716C168.69 534.965 168.543 535.203 168.316 535.43C168.135 535.566 167.886 535.668 167.568 535.736C167.41 535.781 167.251 535.815 167.092 535.838C166.934 535.861 166.764 535.895 166.582 535.94C166.424 535.963 166.265 535.974 166.106 535.974C165.948 535.974 165.778 535.974 165.596 535.974H163.862C163.454 535.997 163.046 536.008 162.638 536.008C162.253 536.008 161.868 536.008 161.482 536.008C161.505 536.711 161.516 537.47 161.516 538.286C161.516 539.079 161.505 540.009 161.482 541.074C161.482 542.139 161.471 543.375 161.448 544.78C161.448 546.185 161.448 547.817 161.448 549.676V552.26C161.448 552.487 161.46 552.657 161.482 552.77C161.482 552.861 161.482 552.951 161.482 553.042C161.482 553.11 161.471 553.201 161.448 553.314C161.403 553.518 161.369 553.756 161.346 554.028C161.346 554.141 161.335 554.255 161.312 554.368C161.29 554.459 161.256 554.561 161.21 554.674C161.12 554.765 161.074 554.833 161.074 554.878L160.972 555.082C160.859 555.309 160.644 555.524 160.326 555.728C159.828 555.977 159.272 556.034 158.66 555.898C158.275 555.853 157.98 555.751 157.776 555.592C157.572 555.388 157.425 555.184 157.334 554.98C157.198 554.731 157.119 554.493 157.096 554.266C157.028 554.062 156.994 553.847 156.994 553.62V536.144C156.858 536.144 156.575 536.144 156.144 536.144C155.714 536.144 155.249 536.144 154.75 536.144C154.274 536.121 153.821 536.099 153.39 536.076C152.96 536.053 152.665 536.031 152.506 536.008C152.37 535.985 152.155 535.951 151.86 535.906C151.588 535.861 151.362 535.815 151.18 535.77C150.704 535.634 150.33 535.419 150.058 535.124C149.809 534.829 149.684 534.501 149.684 534.138C149.684 534.002 149.684 533.866 149.684 533.73C149.684 533.594 149.707 533.469 149.752 533.356C149.82 533.084 150.002 532.857 150.296 532.676C150.387 532.608 150.523 532.529 150.704 532.438C150.908 532.325 151.101 532.245 151.282 532.2C151.554 532.109 151.894 532.041 152.302 531.996C152.484 531.973 152.665 531.962 152.846 531.962C153.028 531.962 153.22 531.962 153.424 531.962C154.218 531.962 154.966 531.962 155.668 531.962C156.394 531.962 157.153 531.951 157.946 531.928C159.261 531.905 160.564 531.905 161.856 531.928C163.171 531.928 164.474 531.951 165.766 531.996C166.061 532.019 166.344 532.053 166.616 532.098C166.888 532.143 167.16 532.223 167.432 532.336C167.636 532.404 167.829 532.495 168.01 532.608C168.192 532.699 168.339 532.823 168.452 532.982ZM190.096 533.798C190.232 534.886 190.311 536.155 190.334 537.606C190.357 539.034 190.334 540.485 190.266 541.958C190.221 543.409 190.119 544.791 189.96 546.106C189.801 547.398 189.609 548.441 189.382 549.234C189.223 549.71 189.031 550.209 188.804 550.73C188.6 551.229 188.373 551.682 188.124 552.09C187.761 552.702 187.319 553.246 186.798 553.722C186.277 554.175 185.699 554.572 185.064 554.912C184.452 555.229 183.795 555.479 183.092 555.66C182.412 555.841 181.732 555.943 181.052 555.966C179.851 556.011 178.706 555.841 177.618 555.456C176.553 555.048 175.567 554.413 174.66 553.552C173.98 552.895 173.436 552.192 173.028 551.444C172.62 550.696 172.303 549.914 172.076 549.098C171.849 548.259 171.702 547.398 171.634 546.514C171.589 545.63 171.566 544.723 171.566 543.794C171.566 543.363 171.555 542.831 171.532 542.196C171.532 541.539 171.532 540.87 171.532 540.19C171.532 539.487 171.532 538.807 171.532 538.15C171.532 537.493 171.543 536.937 171.566 536.484C171.566 536.189 171.566 535.872 171.566 535.532C171.566 535.169 171.577 534.818 171.6 534.478C171.645 534.115 171.713 533.775 171.804 533.458C171.895 533.118 172.031 532.812 172.212 532.54C172.416 532.245 172.699 532.03 173.062 531.894C173.425 531.758 173.799 531.69 174.184 531.69C174.592 531.69 174.977 531.769 175.34 531.928C175.703 532.087 175.997 532.313 176.224 532.608C176.337 532.789 176.417 532.971 176.462 533.152C176.507 533.333 176.541 533.537 176.564 533.764C176.609 534.512 176.632 535.362 176.632 536.314C176.655 537.266 176.655 538.195 176.632 539.102C176.632 539.986 176.621 540.802 176.598 541.55C176.575 542.298 176.564 542.853 176.564 543.216C176.564 544.576 176.632 545.811 176.768 546.922C176.904 548.01 177.221 548.917 177.72 549.642C178.173 550.299 178.706 550.719 179.318 550.9C179.93 551.081 180.542 551.138 181.154 551.07C181.721 551.002 182.287 550.798 182.854 550.458C183.443 550.095 183.908 549.574 184.248 548.894C184.384 548.645 184.497 548.361 184.588 548.044C184.679 547.727 184.747 547.432 184.792 547.16C184.883 546.299 184.962 545.301 185.03 544.168C185.098 543.012 185.155 541.833 185.2 540.632C185.245 539.431 185.268 538.252 185.268 537.096C185.268 535.94 185.257 534.897 185.234 533.968C185.279 533.56 185.404 533.186 185.608 532.846C185.789 532.551 186.05 532.291 186.39 532.064C186.73 531.837 187.195 531.724 187.784 531.724C188.26 531.747 188.645 531.871 188.94 532.098C189.235 532.302 189.473 532.529 189.654 532.778C189.858 533.073 190.005 533.413 190.096 533.798ZM210.965 542.332C211.01 543.08 210.999 543.851 210.931 544.644C210.885 545.437 210.806 546.208 210.693 546.956C210.466 548.248 210.047 549.506 209.435 550.73C208.823 551.954 207.927 552.997 206.749 553.858C205.525 554.765 204.131 555.388 202.567 555.728C201.003 556.045 199.45 556.238 197.909 556.306C197.387 556.351 196.855 556.363 196.311 556.34C195.789 556.34 195.279 556.283 194.781 556.17C194.373 556.102 194.067 555.977 193.863 555.796C193.749 555.728 193.659 555.637 193.591 555.524C193.523 555.411 193.466 555.297 193.421 555.184C193.353 555.071 193.296 554.957 193.251 554.844C193.228 554.708 193.194 554.572 193.149 554.436C193.126 554.323 193.103 554.221 193.081 554.13C193.081 554.017 193.081 553.915 193.081 553.824V534.41C193.081 534.251 193.081 534.104 193.081 533.968C193.081 533.832 193.103 533.696 193.149 533.56C193.194 533.243 193.262 532.982 193.353 532.778C193.443 532.506 193.568 532.313 193.727 532.2C193.863 532.087 193.999 532.007 194.135 531.962C194.271 531.894 194.395 531.837 194.509 531.792C194.645 531.747 194.781 531.747 194.917 531.792C195.075 531.815 195.245 531.781 195.427 531.69L201.105 531.826C202.601 531.871 203.938 532.223 205.117 532.88C206.295 533.515 207.304 534.331 208.143 535.328C208.981 536.325 209.639 537.447 210.115 538.694C210.591 539.918 210.874 541.131 210.965 542.332ZM204.641 548.792C205.071 548.112 205.389 547.33 205.593 546.446C205.797 545.562 205.887 544.667 205.865 543.76C205.842 542.831 205.717 541.935 205.491 541.074C205.264 540.19 204.947 539.408 204.539 538.728C204.221 538.229 203.813 537.821 203.315 537.504C202.816 537.187 202.261 536.949 201.649 536.79C201.037 536.609 200.379 536.484 199.677 536.416C198.997 536.348 198.328 536.314 197.671 536.314C197.693 536.971 197.705 537.606 197.705 538.218C197.705 538.83 197.705 539.476 197.705 540.156C197.682 540.972 197.671 541.765 197.671 542.536C197.671 543.307 197.671 544.055 197.671 544.78V551.716C198.373 551.693 199.042 551.659 199.677 551.614C200.334 551.546 200.957 551.41 201.547 551.206C202.159 551.002 202.714 550.719 203.213 550.356C203.734 549.971 204.21 549.449 204.641 548.792ZM218.424 536.008L218.356 541.346H219.716C220.646 541.323 221.473 541.312 222.198 541.312C222.924 541.312 223.728 541.323 224.612 541.346H224.782C225.054 541.346 225.315 541.357 225.564 541.38C225.836 541.38 226.097 541.38 226.346 541.38C226.618 541.403 226.879 541.448 227.128 541.516C227.378 541.561 227.627 541.618 227.876 541.686C228.262 541.822 228.579 542.026 228.828 542.298C229.055 542.593 229.168 542.921 229.168 543.284C229.168 543.397 229.168 543.533 229.168 543.692C229.168 543.828 229.146 543.953 229.1 544.066C229.055 544.315 228.908 544.542 228.658 544.746C228.545 544.905 228.33 545.018 228.012 545.086C227.718 545.177 227.423 545.233 227.128 545.256C226.811 545.324 226.494 545.358 226.176 545.358H224.578L218.288 545.392L218.22 552.056L224.986 552.124H226.584C226.766 552.124 226.936 552.124 227.094 552.124C227.253 552.124 227.4 552.135 227.536 552.158C227.718 552.203 227.876 552.237 228.012 552.26C228.171 552.26 228.318 552.283 228.454 552.328C228.726 552.419 228.953 552.543 229.134 552.702C229.361 552.929 229.508 553.167 229.576 553.416C229.599 553.529 229.61 553.654 229.61 553.79C229.633 553.903 229.633 554.028 229.61 554.164C229.61 554.527 229.497 554.855 229.27 555.15C228.998 555.467 228.681 555.671 228.318 555.762C227.842 555.966 227.321 556.068 226.754 556.068C226.505 556.091 226.244 556.102 225.972 556.102C225.7 556.102 225.44 556.113 225.19 556.136H224.986C223.218 556.181 221.382 556.181 219.478 556.136C219.025 556.136 218.662 556.125 218.39 556.102C218.118 556.102 217.869 556.102 217.642 556.102C217.438 556.102 217.223 556.102 216.996 556.102C216.77 556.102 216.475 556.102 216.112 556.102C215.591 556.147 215.16 556.057 214.82 555.83C214.571 555.671 214.378 555.456 214.242 555.184C214.174 555.116 214.14 555.048 214.14 554.98C214.118 554.935 214.095 554.901 214.072 554.878C214.05 554.855 214.027 554.821 214.004 554.776C213.959 554.663 213.925 554.549 213.902 554.436C213.88 554.3 213.868 554.175 213.868 554.062C213.846 553.949 213.823 553.835 213.8 553.722C213.8 553.609 213.789 553.495 213.766 553.382V552.838C213.766 552.747 213.766 552.657 213.766 552.566C213.789 552.475 213.8 552.385 213.8 552.294V549.642L213.868 544.746V540.224C213.868 539.408 213.868 538.683 213.868 538.048C213.891 537.413 213.914 536.722 213.936 535.974V535.804C213.959 535.555 213.97 535.328 213.97 535.124C213.993 534.897 214.004 534.671 214.004 534.444C214.027 533.991 214.152 533.549 214.378 533.118C214.469 532.937 214.56 532.778 214.65 532.642C214.764 532.506 214.911 532.393 215.092 532.302C215.432 532.098 215.784 531.996 216.146 531.996C216.328 531.996 216.464 532.007 216.554 532.03V531.996C216.962 531.996 217.291 531.996 217.54 531.996C217.79 531.996 218.028 531.996 218.254 531.996C218.504 531.996 218.764 531.996 219.036 531.996C219.308 531.973 219.682 531.962 220.158 531.962C221.065 531.939 221.926 531.928 222.742 531.928C223.558 531.928 224.397 531.939 225.258 531.962H225.394C225.644 531.985 225.904 531.996 226.176 531.996C226.448 531.996 226.709 532.007 226.958 532.03C227.208 532.03 227.457 532.064 227.706 532.132C227.956 532.177 228.205 532.245 228.454 532.336C228.84 532.449 229.157 532.642 229.406 532.914C229.61 533.231 229.712 533.549 229.712 533.866C229.712 534.002 229.712 534.138 229.712 534.274C229.712 534.387 229.69 534.501 229.644 534.614C229.622 534.841 229.486 535.079 229.236 535.328C229.146 535.373 229.044 535.43 228.93 535.498C228.84 535.566 228.726 535.623 228.59 535.668C228.454 535.713 228.307 535.747 228.148 535.77C228.012 535.77 227.876 535.781 227.74 535.804C227.559 535.849 227.389 535.872 227.23 535.872C227.094 535.872 226.936 535.872 226.754 535.872H225.224L218.424 535.906V536.008ZM250.922 553.416C250.9 553.801 250.843 554.209 250.752 554.64C250.684 555.071 250.469 555.422 250.106 555.694C249.834 555.921 249.528 556.057 249.188 556.102C248.848 556.147 248.508 556.125 248.168 556.034C247.851 555.966 247.545 555.853 247.25 555.694C246.956 555.513 246.718 555.297 246.536 555.048C245.766 554.096 245.052 553.121 244.394 552.124C243.76 551.104 243.114 550.084 242.456 549.064L239.6 544.746C239.215 544.134 238.807 543.454 238.376 542.706C237.946 541.935 237.504 541.221 237.05 540.564L236.948 553.552V553.858C236.948 554.221 236.88 554.583 236.744 554.946C236.631 555.286 236.427 555.581 236.132 555.83C235.906 556.011 235.611 556.136 235.248 556.204C234.682 556.317 234.206 556.283 233.82 556.102C233.458 555.921 233.163 555.671 232.936 555.354C232.732 555.037 232.585 554.674 232.494 554.266C232.426 553.835 232.415 553.416 232.46 553.008V552.43L232.528 549.778L232.562 544.848C232.585 544.123 232.596 543.386 232.596 542.638C232.596 541.867 232.596 541.085 232.596 540.292C232.574 539.317 232.574 538.286 232.596 537.198C232.642 536.11 232.687 535.09 232.732 534.138C232.778 533.617 232.902 533.175 233.106 532.812C233.197 532.495 233.435 532.223 233.82 531.996C234.07 531.837 234.387 531.735 234.772 531.69C235.18 531.645 235.532 531.656 235.826 531.724C235.94 531.769 236.053 531.826 236.166 531.894C236.28 531.939 236.393 531.996 236.506 532.064C236.62 532.155 236.722 532.245 236.812 532.336C236.926 532.427 237.028 532.529 237.118 532.642C237.232 532.755 237.334 532.88 237.424 533.016C237.515 533.129 237.606 533.243 237.696 533.356C237.764 533.492 237.832 533.617 237.9 533.73C237.968 533.843 238.048 533.957 238.138 534.07L238.512 534.614L246.366 546.99V544.746C246.366 544.021 246.355 543.284 246.332 542.536C246.332 541.765 246.321 540.972 246.298 540.156C246.298 539.204 246.298 538.184 246.298 537.096C246.321 536.008 246.355 534.988 246.4 534.036C246.4 533.651 246.514 533.209 246.74 532.71C246.854 532.415 247.046 532.177 247.318 531.996C247.59 531.815 247.896 531.69 248.236 531.622C248.576 531.554 248.916 531.554 249.256 531.622C249.596 531.69 249.891 531.826 250.14 532.03C250.208 532.098 250.276 532.177 250.344 532.268C250.412 532.359 250.469 532.461 250.514 532.574C250.628 532.869 250.696 533.129 250.718 533.356C250.786 533.673 250.82 533.957 250.82 534.206C250.82 537.039 250.82 539.929 250.82 542.876C250.843 545.823 250.866 548.713 250.888 551.546C250.888 551.863 250.9 552.181 250.922 552.498C250.945 552.793 250.945 553.099 250.922 553.416ZM272.444 532.982C272.694 533.277 272.818 533.583 272.818 533.9C272.818 534.036 272.807 534.183 272.784 534.342C272.784 534.478 272.773 534.603 272.75 534.716C272.682 534.965 272.535 535.203 272.308 535.43C272.127 535.566 271.878 535.668 271.56 535.736C271.402 535.781 271.243 535.815 271.084 535.838C270.926 535.861 270.756 535.895 270.574 535.94C270.416 535.963 270.257 535.974 270.098 535.974C269.94 535.974 269.77 535.974 269.588 535.974H267.854C267.446 535.997 267.038 536.008 266.63 536.008C266.245 536.008 265.86 536.008 265.474 536.008C265.497 536.711 265.508 537.47 265.508 538.286C265.508 539.079 265.497 540.009 265.474 541.074C265.474 542.139 265.463 543.375 265.44 544.78C265.44 546.185 265.44 547.817 265.44 549.676V552.26C265.44 552.487 265.452 552.657 265.474 552.77C265.474 552.861 265.474 552.951 265.474 553.042C265.474 553.11 265.463 553.201 265.44 553.314C265.395 553.518 265.361 553.756 265.338 554.028C265.338 554.141 265.327 554.255 265.304 554.368C265.282 554.459 265.248 554.561 265.202 554.674C265.112 554.765 265.066 554.833 265.066 554.878L264.964 555.082C264.851 555.309 264.636 555.524 264.318 555.728C263.82 555.977 263.264 556.034 262.652 555.898C262.267 555.853 261.972 555.751 261.768 555.592C261.564 555.388 261.417 555.184 261.326 554.98C261.19 554.731 261.111 554.493 261.088 554.266C261.02 554.062 260.986 553.847 260.986 553.62V536.144C260.85 536.144 260.567 536.144 260.136 536.144C259.706 536.144 259.241 536.144 258.742 536.144C258.266 536.121 257.813 536.099 257.382 536.076C256.952 536.053 256.657 536.031 256.498 536.008C256.362 535.985 256.147 535.951 255.852 535.906C255.58 535.861 255.354 535.815 255.172 535.77C254.696 535.634 254.322 535.419 254.05 535.124C253.801 534.829 253.676 534.501 253.676 534.138C253.676 534.002 253.676 533.866 253.676 533.73C253.676 533.594 253.699 533.469 253.744 533.356C253.812 533.084 253.994 532.857 254.288 532.676C254.379 532.608 254.515 532.529 254.696 532.438C254.9 532.325 255.093 532.245 255.274 532.2C255.546 532.109 255.886 532.041 256.294 531.996C256.476 531.973 256.657 531.962 256.838 531.962C257.02 531.962 257.212 531.962 257.416 531.962C258.21 531.962 258.958 531.962 259.66 531.962C260.386 531.962 261.145 531.951 261.938 531.928C263.253 531.905 264.556 531.905 265.848 531.928C267.163 531.928 268.466 531.951 269.758 531.996C270.053 532.019 270.336 532.053 270.608 532.098C270.88 532.143 271.152 532.223 271.424 532.336C271.628 532.404 271.821 532.495 272.002 532.608C272.184 532.699 272.331 532.823 272.444 532.982ZM311.242 550.288C311.537 550.945 311.548 551.591 311.276 552.226C311.004 552.838 310.573 553.405 309.984 553.926C309.395 554.447 308.715 554.901 307.944 555.286C307.196 555.671 306.482 555.943 305.802 556.102C305.054 556.261 304.261 556.329 303.422 556.306C302.606 556.306 301.779 556.204 300.94 556C300.124 555.819 299.319 555.547 298.526 555.184C297.755 554.799 297.041 554.334 296.384 553.79C295.591 553.133 294.967 552.351 294.514 551.444C294.083 550.515 293.766 549.529 293.562 548.486C293.358 547.443 293.245 546.401 293.222 545.358C293.222 544.293 293.256 543.295 293.324 542.366C293.392 541.527 293.562 540.655 293.834 539.748C294.106 538.841 294.48 537.957 294.956 537.096C295.455 536.212 296.044 535.396 296.724 534.648C297.427 533.9 298.243 533.265 299.172 532.744C299.875 532.336 300.657 532.064 301.518 531.928C302.402 531.769 303.286 531.735 304.17 531.826C305.077 531.894 305.927 532.087 306.72 532.404C307.536 532.699 308.227 533.107 308.794 533.628C309.157 533.945 309.531 534.387 309.916 534.954C310.324 535.521 310.619 536.099 310.8 536.688C310.981 537.277 310.981 537.833 310.8 538.354C310.641 538.853 310.188 539.193 309.44 539.374C309.123 539.465 308.839 539.487 308.59 539.442C308.341 539.374 308.114 539.272 307.91 539.136C307.706 538.977 307.513 538.796 307.332 538.592C307.151 538.388 306.981 538.184 306.822 537.98C306.278 537.323 305.643 536.881 304.918 536.654C304.193 536.405 303.467 536.348 302.742 536.484C302.039 536.597 301.371 536.892 300.736 537.368C300.124 537.821 299.648 538.411 299.308 539.136C298.945 539.907 298.651 540.757 298.424 541.686C298.22 542.593 298.107 543.522 298.084 544.474C298.061 545.403 298.141 546.31 298.322 547.194C298.526 548.078 298.866 548.86 299.342 549.54C299.705 550.084 300.147 550.526 300.668 550.866C301.212 551.206 301.79 551.444 302.402 551.58C303.014 551.716 303.626 551.739 304.238 551.648C304.873 551.557 305.485 551.353 306.074 551.036C306.255 550.945 306.448 550.821 306.652 550.662C306.879 550.481 307.105 550.299 307.332 550.118C307.559 549.937 307.785 549.767 308.012 549.608C308.261 549.449 308.522 549.336 308.794 549.268C309.202 549.132 309.644 549.143 310.12 549.302C310.619 549.461 310.993 549.789 311.242 550.288ZM319.194 532.744C320.713 532.177 322.084 531.928 323.308 531.996C324.555 532.064 325.666 532.381 326.64 532.948C327.615 533.492 328.442 534.229 329.122 535.158C329.825 536.087 330.392 537.13 330.822 538.286C331.162 539.147 331.423 540.054 331.604 541.006C331.786 541.958 331.888 542.91 331.91 543.862C331.956 544.791 331.922 545.709 331.808 546.616C331.718 547.523 331.559 548.361 331.332 549.132C331.196 549.653 331.038 550.129 330.856 550.56C330.675 550.991 330.46 551.421 330.21 551.852C329.644 552.827 328.907 553.62 328 554.232C327.116 554.844 326.142 555.275 325.076 555.524C324.351 555.705 323.603 555.796 322.832 555.796C322.062 555.773 321.302 555.671 320.554 555.49C319.806 555.286 319.081 555.003 318.378 554.64C317.698 554.255 317.075 553.779 316.508 553.212C315.806 552.532 315.228 551.75 314.774 550.866C314.321 549.959 313.97 549.019 313.72 548.044C313.471 547.047 313.312 546.049 313.244 545.052C313.176 544.055 313.176 543.103 313.244 542.196C313.312 541.357 313.471 540.462 313.72 539.51C313.992 538.558 314.378 537.64 314.876 536.756C315.375 535.872 315.976 535.079 316.678 534.376C317.404 533.651 318.242 533.107 319.194 532.744ZM327.15 547.296C327.422 546.231 327.536 545.029 327.49 543.692C327.445 542.355 327.23 541.097 326.844 539.918C326.595 539.193 326.278 538.558 325.892 538.014C325.53 537.447 325.088 537.017 324.566 536.722C324.068 536.427 323.478 536.28 322.798 536.28C322.118 536.28 321.359 536.484 320.52 536.892C320.022 537.141 319.591 537.481 319.228 537.912C318.888 538.343 318.605 538.83 318.378 539.374C318.174 539.918 318.004 540.485 317.868 541.074C317.755 541.663 317.687 542.23 317.664 542.774C317.619 543.363 317.608 543.987 317.63 544.644C317.653 545.279 317.721 545.925 317.834 546.582C317.97 547.217 318.152 547.829 318.378 548.418C318.605 548.985 318.911 549.495 319.296 549.948C319.886 550.628 320.566 551.104 321.336 551.376C322.13 551.625 322.912 551.659 323.682 551.478C324.929 551.206 325.881 550.379 326.538 548.996C326.81 548.497 327.014 547.931 327.15 547.296ZM340.71 532.744C342.229 532.177 343.6 531.928 344.824 531.996C346.071 532.064 347.181 532.381 348.156 532.948C349.131 533.492 349.958 534.229 350.638 535.158C351.341 536.087 351.907 537.13 352.338 538.286C352.678 539.147 352.939 540.054 353.12 541.006C353.301 541.958 353.403 542.91 353.426 543.862C353.471 544.791 353.437 545.709 353.324 546.616C353.233 547.523 353.075 548.361 352.848 549.132C352.712 549.653 352.553 550.129 352.372 550.56C352.191 550.991 351.975 551.421 351.726 551.852C351.159 552.827 350.423 553.62 349.516 554.232C348.632 554.844 347.657 555.275 346.592 555.524C345.867 555.705 345.119 555.796 344.348 555.796C343.577 555.773 342.818 555.671 342.07 555.49C341.322 555.286 340.597 555.003 339.894 554.64C339.214 554.255 338.591 553.779 338.024 553.212C337.321 552.532 336.743 551.75 336.29 550.866C335.837 549.959 335.485 549.019 335.236 548.044C334.987 547.047 334.828 546.049 334.76 545.052C334.692 544.055 334.692 543.103 334.76 542.196C334.828 541.357 334.987 540.462 335.236 539.51C335.508 538.558 335.893 537.64 336.392 536.756C336.891 535.872 337.491 535.079 338.194 534.376C338.919 533.651 339.758 533.107 340.71 532.744ZM348.666 547.296C348.938 546.231 349.051 545.029 349.006 543.692C348.961 542.355 348.745 541.097 348.36 539.918C348.111 539.193 347.793 538.558 347.408 538.014C347.045 537.447 346.603 537.017 346.082 536.722C345.583 536.427 344.994 536.28 344.314 536.28C343.634 536.28 342.875 536.484 342.036 536.892C341.537 537.141 341.107 537.481 340.744 537.912C340.404 538.343 340.121 538.83 339.894 539.374C339.69 539.918 339.52 540.485 339.384 541.074C339.271 541.663 339.203 542.23 339.18 542.774C339.135 543.363 339.123 543.987 339.146 544.644C339.169 545.279 339.237 545.925 339.35 546.582C339.486 547.217 339.667 547.829 339.894 548.418C340.121 548.985 340.427 549.495 340.812 549.948C341.401 550.628 342.081 551.104 342.852 551.376C343.645 551.625 344.427 551.659 345.198 551.478C346.445 551.206 347.397 550.379 348.054 548.996C348.326 548.497 348.53 547.931 348.666 547.296ZM373.752 554.504C373.774 554.731 373.752 554.946 373.684 555.15C373.638 555.286 373.57 555.399 373.48 555.49C373.412 555.581 373.321 555.671 373.208 555.762C373.004 555.898 372.754 556.023 372.46 556.136C372.278 556.181 372.097 556.215 371.916 556.238C371.757 556.283 371.587 556.283 371.406 556.238C371.043 556.215 370.726 556.079 370.454 555.83C370.068 555.513 369.751 555.161 369.502 554.776C369.388 554.595 369.264 554.391 369.128 554.164C368.992 553.937 368.867 553.699 368.754 553.45L364.98 546.276C364.798 546.276 364.617 546.287 364.436 546.31C364.254 546.31 364.073 546.321 363.892 546.344C363.416 546.389 362.962 546.401 362.532 546.378C362.124 546.355 361.693 546.355 361.24 546.378H360.594V552.532C360.594 552.713 360.582 552.883 360.56 553.042C360.56 553.201 360.56 553.371 360.56 553.552C360.56 553.665 360.548 553.813 360.526 553.994C360.526 554.175 360.514 554.345 360.492 554.504C360.446 554.753 360.344 555.014 360.186 555.286C360.027 555.535 359.812 555.751 359.54 555.932C359.064 556.227 358.486 556.306 357.806 556.17C357.511 556.102 357.228 555.989 356.956 555.83C356.865 555.762 356.786 555.683 356.718 555.592C356.65 555.479 356.593 555.365 356.548 555.252C356.502 555.139 356.457 555.025 356.412 554.912C356.389 554.776 356.355 554.651 356.31 554.538C356.242 554.311 356.208 554.096 356.208 553.892V534.58C356.208 534.444 356.208 534.308 356.208 534.172C356.23 534.013 356.253 533.877 356.276 533.764C356.298 533.515 356.378 533.265 356.514 533.016C356.582 532.744 356.695 532.551 356.854 532.438C356.99 532.302 357.194 532.189 357.466 532.098C357.76 531.985 358.18 531.939 358.724 531.962C359.744 531.985 360.752 531.996 361.75 531.996C362.747 531.996 363.744 532.019 364.742 532.064C365.399 532.109 366.09 532.189 366.816 532.302C367.564 532.393 368.255 532.563 368.89 532.812C369.298 532.971 369.672 533.129 370.012 533.288C370.442 533.537 370.782 533.775 371.032 534.002C371.825 534.727 372.426 535.6 372.834 536.62C373.242 537.64 373.446 538.671 373.446 539.714C373.446 540.938 373.151 542.06 372.562 543.08C371.995 544.1 371.077 544.859 369.808 545.358C369.762 545.403 369.694 545.437 369.604 545.46C369.536 545.46 369.479 545.471 369.434 545.494L372.562 551.784L372.868 552.328C372.913 552.419 372.97 552.521 373.038 552.634C373.106 552.747 373.162 552.861 373.208 552.974C373.276 553.087 373.332 553.212 373.378 553.348C373.446 553.484 373.514 553.609 373.582 553.722C373.65 554.039 373.706 554.3 373.752 554.504ZM365.252 542.4C365.66 542.4 366.045 542.332 366.408 542.196C366.793 542.037 367.133 541.833 367.428 541.584C367.745 541.335 368.006 541.051 368.21 540.734C368.414 540.394 368.527 540.031 368.55 539.646C368.64 538.513 368.346 537.674 367.666 537.13C366.986 536.563 366.09 536.257 364.98 536.212C364.322 536.167 363.597 536.144 362.804 536.144C362.033 536.144 361.296 536.144 360.594 536.144C360.616 537.073 360.616 538.025 360.594 539C360.594 539.952 360.594 541.085 360.594 542.4H365.252ZM394.379 542.332C394.424 543.08 394.413 543.851 394.345 544.644C394.299 545.437 394.22 546.208 394.107 546.956C393.88 548.248 393.461 549.506 392.849 550.73C392.237 551.954 391.341 552.997 390.163 553.858C388.939 554.765 387.545 555.388 385.981 555.728C384.417 556.045 382.864 556.238 381.323 556.306C380.801 556.351 380.269 556.363 379.725 556.34C379.203 556.34 378.693 556.283 378.195 556.17C377.787 556.102 377.481 555.977 377.277 555.796C377.163 555.728 377.073 555.637 377.005 555.524C376.937 555.411 376.88 555.297 376.835 555.184C376.767 555.071 376.71 554.957 376.665 554.844C376.642 554.708 376.608 554.572 376.563 554.436C376.54 554.323 376.517 554.221 376.495 554.13C376.495 554.017 376.495 553.915 376.495 553.824V534.41C376.495 534.251 376.495 534.104 376.495 533.968C376.495 533.832 376.517 533.696 376.563 533.56C376.608 533.243 376.676 532.982 376.767 532.778C376.857 532.506 376.982 532.313 377.141 532.2C377.277 532.087 377.413 532.007 377.549 531.962C377.685 531.894 377.809 531.837 377.923 531.792C378.059 531.747 378.195 531.747 378.331 531.792C378.489 531.815 378.659 531.781 378.841 531.69L384.519 531.826C386.015 531.871 387.352 532.223 388.531 532.88C389.709 533.515 390.718 534.331 391.557 535.328C392.395 536.325 393.053 537.447 393.529 538.694C394.005 539.918 394.288 541.131 394.379 542.332ZM388.055 548.792C388.485 548.112 388.803 547.33 389.007 546.446C389.211 545.562 389.301 544.667 389.279 543.76C389.256 542.831 389.131 541.935 388.905 541.074C388.678 540.19 388.361 539.408 387.953 538.728C387.635 538.229 387.227 537.821 386.729 537.504C386.23 537.187 385.675 536.949 385.063 536.79C384.451 536.609 383.793 536.484 383.091 536.416C382.411 536.348 381.742 536.314 381.085 536.314C381.107 536.971 381.119 537.606 381.119 538.218C381.119 538.83 381.119 539.476 381.119 540.156C381.096 540.972 381.085 541.765 381.085 542.536C381.085 543.307 381.085 544.055 381.085 544.78V551.716C381.787 551.693 382.456 551.659 383.091 551.614C383.748 551.546 384.371 551.41 384.961 551.206C385.573 551.002 386.128 550.719 386.627 550.356C387.148 549.971 387.624 549.449 388.055 548.792ZM398.234 552.396L398.268 549.71L398.302 544.712C398.325 543.987 398.336 543.239 398.336 542.468C398.336 541.697 398.336 540.904 398.336 540.088C398.336 539.272 398.336 538.547 398.336 537.912C398.336 537.277 398.359 536.563 398.404 535.77V535.634C398.427 535.407 398.438 535.181 398.438 534.954C398.461 534.705 398.472 534.455 398.472 534.206C398.495 533.798 398.62 533.356 398.846 532.88C399.005 532.563 399.243 532.291 399.56 532.064C399.923 531.883 400.274 531.792 400.614 531.792C400.796 531.792 400.954 531.803 401.09 531.826C401.249 531.826 401.396 531.837 401.532 531.86C401.827 531.905 402.088 532.041 402.314 532.268C402.45 532.381 402.575 532.563 402.688 532.812C402.734 532.948 402.768 533.084 402.79 533.22C402.836 533.333 402.87 533.458 402.892 533.594C402.915 533.753 402.926 533.9 402.926 534.036C402.949 534.172 402.96 534.308 402.96 534.444C402.96 534.603 402.949 534.75 402.926 534.886C402.926 534.999 402.926 535.124 402.926 535.26V535.838L402.722 553.484V553.824C402.722 553.892 402.711 553.983 402.688 554.096C402.688 554.187 402.677 554.3 402.654 554.436C402.609 554.549 402.564 554.674 402.518 554.81C402.496 554.923 402.462 555.048 402.416 555.184C402.348 555.297 402.269 555.411 402.178 555.524C402.11 555.615 402.02 555.705 401.906 555.796C401.725 555.977 401.43 556.102 401.022 556.17C400.41 556.306 399.832 556.249 399.288 556C399.016 555.819 398.824 555.592 398.71 555.32C398.642 555.252 398.608 555.184 398.608 555.116C398.586 555.071 398.563 555.037 398.54 555.014C398.518 554.991 398.495 554.957 398.472 554.912C398.427 554.799 398.393 554.685 398.37 554.572C398.348 554.436 398.336 554.3 398.336 554.164C398.314 554.051 398.291 553.937 398.268 553.824C398.268 553.711 398.257 553.597 398.234 553.484C398.212 553.303 398.212 553.11 398.234 552.906V552.396ZM425.206 553.416C425.183 553.801 425.126 554.209 425.036 554.64C424.968 555.071 424.752 555.422 424.39 555.694C424.118 555.921 423.812 556.057 423.472 556.102C423.132 556.147 422.792 556.125 422.452 556.034C422.134 555.966 421.828 555.853 421.534 555.694C421.239 555.513 421.001 555.297 420.82 555.048C420.049 554.096 419.335 553.121 418.678 552.124C418.043 551.104 417.397 550.084 416.74 549.064L413.884 544.746C413.498 544.134 413.09 543.454 412.66 542.706C412.229 541.935 411.787 541.221 411.334 540.564L411.232 553.552V553.858C411.232 554.221 411.164 554.583 411.028 554.946C410.914 555.286 410.71 555.581 410.416 555.83C410.189 556.011 409.894 556.136 409.532 556.204C408.965 556.317 408.489 556.283 408.104 556.102C407.741 555.921 407.446 555.671 407.22 555.354C407.016 555.037 406.868 554.674 406.778 554.266C406.71 553.835 406.698 553.416 406.744 553.008V552.43L406.812 549.778L406.846 544.848C406.868 544.123 406.88 543.386 406.88 542.638C406.88 541.867 406.88 541.085 406.88 540.292C406.857 539.317 406.857 538.286 406.88 537.198C406.925 536.11 406.97 535.09 407.016 534.138C407.061 533.617 407.186 533.175 407.39 532.812C407.48 532.495 407.718 532.223 408.104 531.996C408.353 531.837 408.67 531.735 409.056 531.69C409.464 531.645 409.815 531.656 410.11 531.724C410.223 531.769 410.336 531.826 410.45 531.894C410.563 531.939 410.676 531.996 410.79 532.064C410.903 532.155 411.005 532.245 411.096 532.336C411.209 532.427 411.311 532.529 411.402 532.642C411.515 532.755 411.617 532.88 411.708 533.016C411.798 533.129 411.889 533.243 411.98 533.356C412.048 533.492 412.116 533.617 412.184 533.73C412.252 533.843 412.331 533.957 412.422 534.07L412.796 534.614L420.65 546.99V544.746C420.65 544.021 420.638 543.284 420.616 542.536C420.616 541.765 420.604 540.972 420.582 540.156C420.582 539.204 420.582 538.184 420.582 537.096C420.604 536.008 420.638 534.988 420.684 534.036C420.684 533.651 420.797 533.209 421.024 532.71C421.137 532.415 421.33 532.177 421.602 531.996C421.874 531.815 422.18 531.69 422.52 531.622C422.86 531.554 423.2 531.554 423.54 531.622C423.88 531.69 424.174 531.826 424.424 532.03C424.492 532.098 424.56 532.177 424.628 532.268C424.696 532.359 424.752 532.461 424.798 532.574C424.911 532.869 424.979 533.129 425.002 533.356C425.07 533.673 425.104 533.957 425.104 534.206C425.104 537.039 425.104 539.929 425.104 542.876C425.126 545.823 425.149 548.713 425.172 551.546C425.172 551.863 425.183 552.181 425.206 552.498C425.228 552.793 425.228 553.099 425.206 553.416ZM448.938 553.688C448.96 553.824 448.972 553.96 448.972 554.096C448.994 554.209 449.006 554.345 449.006 554.504C449.006 554.776 448.926 555.025 448.768 555.252C448.7 555.365 448.609 555.479 448.496 555.592C448.382 555.683 448.246 555.762 448.088 555.83C447.521 556.147 446.92 556.261 446.286 556.17C445.968 556.079 445.685 555.932 445.436 555.728C445.39 555.683 445.356 555.66 445.334 555.66C445.311 555.637 445.288 555.603 445.266 555.558C445.243 555.535 445.22 555.513 445.198 555.49C445.175 555.445 445.141 555.411 445.096 555.388C444.982 555.275 444.892 555.173 444.824 555.082C444.756 554.969 444.688 554.855 444.62 554.742C444.574 554.629 444.518 554.527 444.45 554.436C444.404 554.323 444.348 554.209 444.28 554.096C444.234 554.005 444.189 553.926 444.144 553.858C444.098 553.767 444.064 553.677 444.042 553.586C443.951 553.382 443.894 553.201 443.872 553.042L443.158 551.376C441.594 551.376 440.03 551.387 438.466 551.41C436.924 551.41 435.372 551.399 433.808 551.376L433.094 553.042C433.048 553.133 433.014 553.223 432.992 553.314C432.992 553.405 432.969 553.495 432.924 553.586C432.878 553.677 432.833 553.767 432.788 553.858C432.765 553.926 432.731 554.005 432.686 554.096C432.618 554.209 432.55 554.323 432.482 554.436C432.436 554.527 432.38 554.629 432.312 554.742C432.266 554.855 432.21 554.969 432.142 555.082C432.074 555.173 431.983 555.275 431.87 555.388C431.824 555.411 431.79 555.445 431.768 555.49C431.745 555.513 431.722 555.535 431.7 555.558C431.677 555.603 431.654 555.637 431.632 555.66C431.609 555.66 431.575 555.683 431.53 555.728C431.28 555.932 430.997 556.079 430.68 556.17C430.045 556.261 429.444 556.147 428.878 555.83C428.719 555.762 428.583 555.683 428.47 555.592C428.356 555.479 428.266 555.365 428.198 555.252C428.039 555.025 427.96 554.776 427.96 554.504C427.96 554.345 427.96 554.209 427.96 554.096C427.982 553.96 428.005 553.824 428.028 553.688C428.073 553.484 428.13 553.28 428.198 553.076C428.266 552.872 428.3 552.77 428.3 552.77L435.372 535.362L435.576 534.818C435.621 534.682 435.678 534.557 435.746 534.444C435.814 534.331 435.87 534.195 435.916 534.036C436.029 533.741 436.154 533.481 436.29 533.254C436.358 533.118 436.437 532.993 436.528 532.88C436.618 532.767 436.709 532.653 436.8 532.54C436.936 532.359 437.128 532.211 437.378 532.098C437.695 531.985 438.058 531.928 438.466 531.928C438.896 531.928 439.27 531.985 439.588 532.098C439.837 532.211 440.03 532.359 440.166 532.54C440.324 532.744 440.494 532.982 440.676 533.254C440.812 533.481 440.936 533.741 441.05 534.036C441.095 534.195 441.152 534.331 441.22 534.444C441.288 534.557 441.344 534.682 441.39 534.818L441.594 535.362L448.666 552.77C448.666 552.77 448.7 552.872 448.768 553.076C448.836 553.28 448.892 553.484 448.938 553.688ZM440.88 545.358C440.585 544.701 440.279 544.021 439.962 543.318C439.667 542.615 439.35 541.901 439.01 541.176C438.919 540.972 438.828 540.768 438.738 540.564C438.647 540.337 438.556 540.122 438.466 539.918C438.398 540.122 438.318 540.337 438.228 540.564C438.137 540.768 438.046 540.972 437.956 541.176C437.616 541.901 437.287 542.615 436.97 543.318C436.675 544.021 436.38 544.701 436.086 545.358L435.474 546.854H441.492L440.88 545.358ZM466.085 532.982C466.334 533.277 466.459 533.583 466.459 533.9C466.459 534.036 466.448 534.183 466.425 534.342C466.425 534.478 466.414 534.603 466.391 534.716C466.323 534.965 466.176 535.203 465.949 535.43C465.768 535.566 465.518 535.668 465.201 535.736C465.042 535.781 464.884 535.815 464.725 535.838C464.566 535.861 464.396 535.895 464.215 535.94C464.056 535.963 463.898 535.974 463.739 535.974C463.58 535.974 463.41 535.974 463.229 535.974H461.495C461.087 535.997 460.679 536.008 460.271 536.008C459.886 536.008 459.5 536.008 459.115 536.008C459.138 536.711 459.149 537.47 459.149 538.286C459.149 539.079 459.138 540.009 459.115 541.074C459.115 542.139 459.104 543.375 459.081 544.78C459.081 546.185 459.081 547.817 459.081 549.676V552.26C459.081 552.487 459.092 552.657 459.115 552.77C459.115 552.861 459.115 552.951 459.115 553.042C459.115 553.11 459.104 553.201 459.081 553.314C459.036 553.518 459.002 553.756 458.979 554.028C458.979 554.141 458.968 554.255 458.945 554.368C458.922 554.459 458.888 554.561 458.843 554.674C458.752 554.765 458.707 554.833 458.707 554.878L458.605 555.082C458.492 555.309 458.276 555.524 457.959 555.728C457.46 555.977 456.905 556.034 456.293 555.898C455.908 555.853 455.613 555.751 455.409 555.592C455.205 555.388 455.058 555.184 454.967 554.98C454.831 554.731 454.752 554.493 454.729 554.266C454.661 554.062 454.627 553.847 454.627 553.62V536.144C454.491 536.144 454.208 536.144 453.777 536.144C453.346 536.144 452.882 536.144 452.383 536.144C451.907 536.121 451.454 536.099 451.023 536.076C450.592 536.053 450.298 536.031 450.139 536.008C450.003 535.985 449.788 535.951 449.493 535.906C449.221 535.861 448.994 535.815 448.813 535.77C448.337 535.634 447.963 535.419 447.691 535.124C447.442 534.829 447.317 534.501 447.317 534.138C447.317 534.002 447.317 533.866 447.317 533.73C447.317 533.594 447.34 533.469 447.385 533.356C447.453 533.084 447.634 532.857 447.929 532.676C448.02 532.608 448.156 532.529 448.337 532.438C448.541 532.325 448.734 532.245 448.915 532.2C449.187 532.109 449.527 532.041 449.935 531.996C450.116 531.973 450.298 531.962 450.479 531.962C450.66 531.962 450.853 531.962 451.057 531.962C451.85 531.962 452.598 531.962 453.301 531.962C454.026 531.962 454.786 531.951 455.579 531.928C456.894 531.905 458.197 531.905 459.489 531.928C460.804 531.928 462.107 531.951 463.399 531.996C463.694 532.019 463.977 532.053 464.249 532.098C464.521 532.143 464.793 532.223 465.065 532.336C465.269 532.404 465.462 532.495 465.643 532.608C465.824 532.699 465.972 532.823 466.085 532.982ZM473.157 532.744C474.676 532.177 476.047 531.928 477.271 531.996C478.518 532.064 479.629 532.381 480.603 532.948C481.578 533.492 482.405 534.229 483.085 535.158C483.788 536.087 484.355 537.13 484.785 538.286C485.125 539.147 485.386 540.054 485.567 541.006C485.749 541.958 485.851 542.91 485.873 543.862C485.919 544.791 485.885 545.709 485.771 546.616C485.681 547.523 485.522 548.361 485.295 549.132C485.159 549.653 485.001 550.129 484.819 550.56C484.638 550.991 484.423 551.421 484.173 551.852C483.607 552.827 482.87 553.62 481.963 554.232C481.079 554.844 480.105 555.275 479.039 555.524C478.314 555.705 477.566 555.796 476.795 555.796C476.025 555.773 475.265 555.671 474.517 555.49C473.769 555.286 473.044 555.003 472.341 554.64C471.661 554.255 471.038 553.779 470.471 553.212C469.769 552.532 469.191 551.75 468.737 550.866C468.284 549.959 467.933 549.019 467.683 548.044C467.434 547.047 467.275 546.049 467.207 545.052C467.139 544.055 467.139 543.103 467.207 542.196C467.275 541.357 467.434 540.462 467.683 539.51C467.955 538.558 468.341 537.64 468.839 536.756C469.338 535.872 469.939 535.079 470.641 534.376C471.367 533.651 472.205 533.107 473.157 532.744ZM481.113 547.296C481.385 546.231 481.499 545.029 481.453 543.692C481.408 542.355 481.193 541.097 480.807 539.918C480.558 539.193 480.241 538.558 479.855 538.014C479.493 537.447 479.051 537.017 478.529 536.722C478.031 536.427 477.441 536.28 476.761 536.28C476.081 536.28 475.322 536.484 474.483 536.892C473.985 537.141 473.554 537.481 473.191 537.912C472.851 538.343 472.568 538.83 472.341 539.374C472.137 539.918 471.967 540.485 471.831 541.074C471.718 541.663 471.65 542.23 471.627 542.774C471.582 543.363 471.571 543.987 471.593 544.644C471.616 545.279 471.684 545.925 471.797 546.582C471.933 547.217 472.115 547.829 472.341 548.418C472.568 548.985 472.874 549.495 473.259 549.948C473.849 550.628 474.529 551.104 475.299 551.376C476.093 551.625 476.875 551.659 477.645 551.478C478.892 551.206 479.844 550.379 480.501 548.996C480.773 548.497 480.977 547.931 481.113 547.296ZM506.199 554.504C506.222 554.731 506.199 554.946 506.131 555.15C506.086 555.286 506.018 555.399 505.927 555.49C505.859 555.581 505.768 555.671 505.655 555.762C505.451 555.898 505.202 556.023 504.907 556.136C504.726 556.181 504.544 556.215 504.363 556.238C504.204 556.283 504.034 556.283 503.853 556.238C503.49 556.215 503.173 556.079 502.901 555.83C502.516 555.513 502.198 555.161 501.949 554.776C501.836 554.595 501.711 554.391 501.575 554.164C501.439 553.937 501.314 553.699 501.201 553.45L497.427 546.276C497.246 546.276 497.064 546.287 496.883 546.31C496.702 546.31 496.52 546.321 496.339 546.344C495.863 546.389 495.41 546.401 494.979 546.378C494.571 546.355 494.14 546.355 493.687 546.378H493.041V552.532C493.041 552.713 493.03 552.883 493.007 553.042C493.007 553.201 493.007 553.371 493.007 553.552C493.007 553.665 492.996 553.813 492.973 553.994C492.973 554.175 492.962 554.345 492.939 554.504C492.894 554.753 492.792 555.014 492.633 555.286C492.474 555.535 492.259 555.751 491.987 555.932C491.511 556.227 490.933 556.306 490.253 556.17C489.958 556.102 489.675 555.989 489.403 555.83C489.312 555.762 489.233 555.683 489.165 555.592C489.097 555.479 489.04 555.365 488.995 555.252C488.95 555.139 488.904 555.025 488.859 554.912C488.836 554.776 488.802 554.651 488.757 554.538C488.689 554.311 488.655 554.096 488.655 553.892V534.58C488.655 534.444 488.655 534.308 488.655 534.172C488.678 534.013 488.7 533.877 488.723 533.764C488.746 533.515 488.825 533.265 488.961 533.016C489.029 532.744 489.142 532.551 489.301 532.438C489.437 532.302 489.641 532.189 489.913 532.098C490.208 531.985 490.627 531.939 491.171 531.962C492.191 531.985 493.2 531.996 494.197 531.996C495.194 531.996 496.192 532.019 497.189 532.064C497.846 532.109 498.538 532.189 499.263 532.302C500.011 532.393 500.702 532.563 501.337 532.812C501.745 532.971 502.119 533.129 502.459 533.288C502.89 533.537 503.23 533.775 503.479 534.002C504.272 534.727 504.873 535.6 505.281 536.62C505.689 537.64 505.893 538.671 505.893 539.714C505.893 540.938 505.598 542.06 505.009 543.08C504.442 544.1 503.524 544.859 502.255 545.358C502.21 545.403 502.142 545.437 502.051 545.46C501.983 545.46 501.926 545.471 501.881 545.494L505.009 551.784L505.315 552.328C505.36 552.419 505.417 552.521 505.485 552.634C505.553 552.747 505.61 552.861 505.655 552.974C505.723 553.087 505.78 553.212 505.825 553.348C505.893 553.484 505.961 553.609 506.029 553.722C506.097 554.039 506.154 554.3 506.199 554.504ZM497.699 542.4C498.107 542.4 498.492 542.332 498.855 542.196C499.24 542.037 499.58 541.833 499.875 541.584C500.192 541.335 500.453 541.051 500.657 540.734C500.861 540.394 500.974 540.031 500.997 539.646C501.088 538.513 500.793 537.674 500.113 537.13C499.433 536.563 498.538 536.257 497.427 536.212C496.77 536.167 496.044 536.144 495.251 536.144C494.48 536.144 493.744 536.144 493.041 536.144C493.064 537.073 493.064 538.025 493.041 539C493.041 539.952 493.041 541.085 493.041 542.4H497.699Z" fill="black"/>
<defs>
<linearGradient id="paint0_linear_101_3686" x1="471.984" y1="265.642" x2="471.984" y2="419.371" gradientUnits="userSpaceOnUse">
<stop stop-color="#FFB800"/>
<stop offset="1" stop-color="#FF7F0A"/>
</linearGradient>
<linearGradient id="paint1_linear_101_3686" x1="160.877" y1="227.203" x2="160.877" y2="446.512" gradientUnits="userSpaceOnUse">
<stop stop-color="#FFB800"/>
<stop offset="1" stop-color="#FF7F0A"/>
</linearGradient>
<linearGradient id="paint2_linear_101_3686" x1="475.058" y1="240.162" x2="475.058" y2="254.764" gradientUnits="userSpaceOnUse">
<stop stop-color="#FFB800"/>
<stop offset="1" stop-color="#FF7F0A"/>
</linearGradient>
<linearGradient id="paint3_linear_101_3686" x1="474.2" y1="254.645" x2="474.2" y2="267.149" gradientUnits="userSpaceOnUse">
<stop stop-color="#FFB800"/>
<stop offset="1" stop-color="#FF7F0A"/>
</linearGradient>
<linearGradient id="paint4_linear_101_3686" x1="295.955" y1="192.346" x2="295.955" y2="322.347" gradientUnits="userSpaceOnUse">
<stop stop-color="#FFB800"/>
<stop offset="1" stop-color="#FF7F0A"/>
</linearGradient>
<linearGradient id="paint5_linear_101_3686" x1="220.344" y1="235.824" x2="220.344" y2="385.073" gradientUnits="userSpaceOnUse">
<stop stop-color="#FFB800"/>
<stop offset="1" stop-color="#FF7F0A"/>
</linearGradient>
<linearGradient id="paint6_linear_101_3686" x1="214.087" y1="224.326" x2="214.087" y2="237.65" gradientUnits="userSpaceOnUse">
<stop stop-color="#FFB800"/>
<stop offset="1" stop-color="#FF7F0A"/>
</linearGradient>
<linearGradient id="paint7_linear_101_3686" x1="168.086" y1="222.29" x2="168.086" y2="237.374" gradientUnits="userSpaceOnUse">
<stop stop-color="#FFB800"/>
<stop offset="1" stop-color="#FF7F0A"/>
</linearGradient>
</defs>
</svg>
