<svg width="960" height="960" viewBox="0 0 960 960" fill="none" xmlns="http://www.w3.org/2000/svg">
<g clip-path="url(#clip0_583_1339)">
<path d="M456.167 263.2C445.498 255.14 455.633 244.349 458.747 245.226C460.328 245.669 463.492 246.918 466.747 248.269C466.747 248.269 458.576 256.046 463.11 266.464V266.474C460.565 265.959 458.183 264.836 456.167 263.2Z" fill="#171717"/>
<path d="M549.826 354.687C553.493 376.993 562.762 437.776 556.979 448.187C555.669 450.544 549.987 452.378 541.514 453.778C507.591 459.4 428.934 458.211 406.914 457.078C404.587 456.957 402.894 456.836 401.947 456.725C389.857 455.305 405.201 405.272 405.201 405.272C426.208 398.733 449.119 390.703 455.043 385.132C456.446 383.803 457.415 382.083 457.824 380.195C457.824 380.195 464.987 379.872 474.176 379.107L474.206 379.429L469.863 393.081L487.052 399.831L497.51 376.719L497.449 376.386C505.892 374.966 512.521 373.092 513.249 370.674C514.861 365.274 502.7 363.774 496.736 363.359C503.214 363.551 517.48 363.359 518.579 357.879C519.757 351.964 505.693 348.015 500.927 346.846C505.753 347.874 520.301 350.282 521.782 342.585C522.276 340.005 519.798 337.809 515.959 335.975L527.334 310.838L527.273 309.931C532.652 309.46 537.807 307.555 542.2 304.415C546.592 301.275 550.063 297.015 552.25 292.078L552.542 292.209C552.542 292.209 616.498 269.409 635.621 128.096C635.844 126.445 636.636 124.923 637.861 123.794C639.086 122.664 640.667 121.998 642.331 121.91C642.552 121.891 642.775 121.887 642.996 121.9L682.924 123.542L685.17 123.632C686.921 123.705 688.584 124.419 689.843 125.637C691.103 126.856 691.871 128.495 692.001 130.242C704.091 293.781 550.587 354.584 550.587 354.584L549.826 354.687Z" fill="url(#paint0_linear_583_1339)"/>
<path d="M446.354 290.247L475.612 290.933L494.392 291.376L496.377 290.59C497.333 293.102 498.62 295.474 500.206 297.643L494.936 314.206L493.566 313.773C478.151 308.796 482.655 327.284 479.693 331.908C476.731 336.532 443.654 344.985 443.654 344.985C448.077 351.071 460.354 369.236 457.82 380.185C457.411 382.073 456.442 383.794 455.039 385.122C449.115 390.693 426.204 398.722 405.197 405.262C385.037 411.528 366.62 416.415 366.62 416.415C366.62 416.415 247.139 441.542 248.56 356.206C249.981 270.87 434.415 303.816 434.415 303.816C434.226 300.558 434.226 297.291 434.415 294.033C434.715 287.816 441.407 290.124 441.407 290.124L446.354 290.247Z" fill="url(#paint1_linear_583_1339)"/>
<path d="M475.663 288.887C474.131 286.448 473.44 283.574 473.697 280.705C473.953 277.836 475.143 275.13 477.083 273.001C481.254 268.276 494.352 253.979 500.79 236.982C504.99 225.89 506.362 213.638 500.558 202.123" stroke="#171717" stroke-width="3" stroke-linecap="round" stroke-linejoin="round"/>
<path d="M440.108 223.689C440.108 223.689 443.432 239.189 445.528 255.889C447.06 268.11 447.936 280.976 446.384 288.889" stroke="#171717" stroke-width="3" stroke-linecap="round" stroke-linejoin="round"/>
<path d="M492.73 218.471C492.73 218.471 488.83 212.071 482.846 217.524" stroke="#171717" stroke-width="3" stroke-linecap="round" stroke-linejoin="round"/>
<path d="M467.6 219.661C467.6 219.661 464.043 212.075 455.036 219.661" stroke="#171717" stroke-width="3" stroke-linecap="round" stroke-linejoin="round"/>
<path d="M479.693 207.1C479.693 207.1 489.173 202.6 494.393 204.964" stroke="#171717" stroke-width="3" stroke-linecap="round" stroke-linejoin="round"/>
<path d="M476.852 232.467C476.852 232.467 485.752 237.202 482.846 239.567C479.94 241.932 473.617 241.467 473.617 241.467" stroke="#171717" stroke-width="3" stroke-linecap="round" stroke-linejoin="round"/>
<path d="M476.852 252.617C476.852 252.617 471.703 250.33 466.746 248.265C463.492 246.914 460.328 245.665 458.746 245.222C455.632 244.345 445.497 255.136 456.166 263.196C458.182 264.832 460.564 265.955 463.108 266.47C464.938 266.768 466.814 266.562 468.535 265.875C470.257 265.188 471.759 264.046 472.881 262.57" stroke="#171717" stroke-width="3" stroke-linecap="round" stroke-linejoin="round"/>
<path d="M466.746 248.264C466.746 248.264 458.575 256.041 463.109 266.459" stroke="#171717" stroke-width="3" stroke-linecap="round" stroke-linejoin="round"/>
<path d="M484.922 155.4C485.214 154.645 496.982 124.329 476.852 121.749C456.46 119.14 449.83 156.126 449.83 156.126C449.83 156.126 445.8 129.336 424.461 142.615C403.122 155.894 416.161 182.915 416.161 182.915C416.161 182.915 387.477 171.772 377.523 197.615C367.569 223.458 386.53 226.057 386.53 226.057C386.53 226.057 355.237 226.857 357.847 248.263C360.457 269.669 381.08 262.569 381.08 262.569C381.08 262.569 373.02 278.941 392.223 283.445C436.976 293.945 445.53 255.889 445.53 255.889" stroke="#171717" stroke-width="3" stroke-linecap="round" stroke-linejoin="round"/>
<path d="M514.321 171.521C514.593 170.907 526.733 143.956 514.543 137.397C502.392 130.848 485.385 154.736 484.922 155.397L484.912 155.407" stroke="#171717" stroke-width="3" stroke-linecap="round" stroke-linejoin="round"/>
<path d="M500.79 236.979C500.79 236.979 550.319 217.232 538.249 181.022C532.174 162.807 514.855 171.26 514.321 171.522L514.311 171.533" stroke="#171717" stroke-width="3" stroke-linecap="round" stroke-linejoin="round"/>
<path d="M479.693 190.5C476.193 204.323 450.787 217.491 439.644 222.67C436.444 224.161 434.415 224.987 434.415 224.987" stroke="#171717" stroke-width="3" stroke-linecap="round" stroke-linejoin="round"/>
<path d="M507.43 203.449C507.43 203.449 504.598 202.875 500.679 201.706C494.009 199.722 484.179 196.024 479.693 190.506" stroke="#171717" stroke-width="3" stroke-linecap="round" stroke-linejoin="round"/>
<path d="M494.392 291.375L475.612 290.932L446.354 290.246L441.407 290.126C441.407 290.126 434.718 287.818 434.415 294.035C434.226 297.293 434.226 300.56 434.415 303.818C434.415 303.818 249.98 270.862 248.56 356.208C247.14 441.554 366.62 416.417 366.62 416.417C366.62 416.417 385.037 411.53 405.197 405.264C426.204 398.725 449.115 390.695 455.039 385.124C456.442 383.795 457.411 382.075 457.82 380.187C460.359 369.235 448.077 351.07 443.654 344.987C442.707 343.678 442.123 342.932 442.123 342.932C442.123 342.932 339 367.472 319.438 347.2" stroke="#171717" stroke-width="3" stroke-linecap="round" stroke-linejoin="round"/>
<path d="M405.2 405.264C405.2 405.264 389.856 455.297 401.946 456.717C402.893 456.828 404.586 456.949 406.913 457.07C428.937 458.208 507.594 459.397 541.513 453.77C549.986 452.37 555.668 450.535 556.978 448.178C562.761 437.77 553.492 376.987 549.825 354.678C548.988 349.57 548.444 346.479 548.444 346.479" stroke="#171717" stroke-width="3" stroke-linecap="round" stroke-linejoin="round"/>
<path d="M552.536 292.199C552.536 292.199 616.492 269.399 635.615 128.086C635.838 126.435 636.63 124.913 637.855 123.784C639.08 122.654 640.661 121.988 642.325 121.9C642.546 121.881 642.768 121.878 642.99 121.89L682.918 123.532L685.164 123.622C686.915 123.695 688.578 124.409 689.837 125.628C691.097 126.846 691.864 128.485 691.995 130.232C704.085 293.771 550.581 354.574 550.581 354.574" stroke="#171717" stroke-width="3" stroke-linecap="round" stroke-linejoin="round"/>
<path d="M653.518 71.0832C653.519 71.0753 653.523 71.0681 653.529 71.0632V71.0532C653.77 69.8942 659.946 40.1422 652.098 39.9712C644.098 39.7902 642.144 91.5252 642.144 91.5252C642.144 91.5252 633.61 63.6172 625.429 67.8792C617.248 72.1412 642.315 121.62 642.315 121.62" stroke="#171717" stroke-width="3" stroke-linecap="round" stroke-linejoin="round"/>
<path d="M682.908 123.575C682.91 123.561 682.913 123.548 682.918 123.535C683.518 121.735 704.085 59.4668 696.368 55.2558C688.55 50.9938 681.437 74.4558 681.437 74.4558C681.437 74.4558 680.187 66.1038 674.858 65.7408C669.529 65.3778 667.744 70.8988 667.744 70.8988C667.744 70.8988 667.563 65.2168 662.415 64.4988C657.438 63.8138 653.79 70.5638 653.529 71.0478" stroke="#171717" stroke-width="3" stroke-linecap="round" stroke-linejoin="round"/>
<path d="M667.341 72.1406C665.441 78.0746 657.741 103.283 664.007 103.441C671.12 103.612 681.437 74.4546 681.437 74.4546" stroke="#171717" stroke-width="3" stroke-linecap="round" stroke-linejoin="round"/>
<path d="M667.543 71.5254L667.483 71.7064" stroke="#171717" stroke-width="3" stroke-linecap="round" stroke-linejoin="round"/>
<path d="M667.744 70.9004L667.734 70.9114V70.9214C667.734 70.9268 667.734 70.9323 667.732 70.9375C667.73 70.9427 667.728 70.9474 667.724 70.9514C667.714 70.9814 667.704 71.0314 667.684 71.0824C667.684 71.0878 667.684 71.0933 667.682 71.0985C667.68 71.1037 667.678 71.1084 667.674 71.1124C667.654 71.1724 667.624 71.2634 667.593 71.3644" stroke="#171717" stroke-width="3" stroke-linecap="round" stroke-linejoin="round"/>
<path d="M667.593 71.3653C667.624 71.2653 667.654 71.1733 667.674 71.1133" stroke="#171717" stroke-width="3" stroke-linecap="round" stroke-linejoin="round"/>
<path d="M667.593 71.3652V71.3752C667.588 71.3806 667.584 71.3877 667.583 71.3952C667.573 71.4352 667.553 71.4762 667.543 71.5262" stroke="#171717" stroke-width="3" stroke-linecap="round" stroke-linejoin="round"/>
<path d="M667.483 71.7064C667.503 71.6364 667.523 71.5754 667.543 71.5254" stroke="#171717" stroke-width="3" stroke-linecap="round" stroke-linejoin="round"/>
<path d="M667.483 71.707C667.442 71.828 667.392 71.969 667.341 72.121V72.141" stroke="#171717" stroke-width="3" stroke-linecap="round" stroke-linejoin="round"/>
<path d="M653.519 71.084C653.519 71.084 645.872 100.594 652.28 99.889C657.872 99.264 665.499 77.589 667.342 72.142" stroke="#171717" stroke-width="3" stroke-linecap="round" stroke-linejoin="round"/>
<path d="M406.92 458.016C406.92 458.016 344.334 598.957 335.8 682.872C327.266 766.787 345.976 842.18 371.476 842.18C377.37 842.014 383.22 841.124 388.896 839.53C409.238 834.24 434.909 821.495 447.442 805.99C452.198 800.116 455.069 793.839 455.042 787.421C454.921 758.621 401.584 664.737 422.923 613.535C444.262 562.333 483.434 523.927 483.434 523.927C483.434 523.927 568.125 596.468 551.534 625.273C534.943 654.078 486.52 675.406 487.799 691.406C488.011 694.106 488.373 698.287 488.978 703.375C491.978 728.482 501.038 775.684 528.533 775.684C532 775.616 535.451 775.214 538.84 774.484C579.614 766.253 668.677 716.592 664.929 653.184C660.819 583.666 541.52 453.777 541.52 453.777" stroke="#171717" stroke-width="3" stroke-linecap="round" stroke-linejoin="round"/>
<path d="M447.442 805.992C447.442 805.992 474.484 847.159 463.814 861.385C453.144 875.611 434.657 923.971 401.581 919.701C368.505 915.431 345.402 913.301 356.781 894.101C368.16 874.901 385.696 853.055 388.9 839.534" stroke="#171717" stroke-width="3" stroke-linecap="round" stroke-linejoin="round"/>
<path d="M488 703.5C488 703.5 471.879 712.749 470.459 722.7C469.039 732.651 473.431 823.219 482.851 827.481C492.271 831.743 535.887 841.707 539.201 827.481C542.515 813.255 538.839 774.486 538.839 774.486" stroke="#171717" stroke-width="3" stroke-linecap="round" stroke-linejoin="round"/>
<path d="M515.883 336.118L515.953 335.967L527.328 310.83" stroke="#171717" stroke-width="3" stroke-linecap="round" stroke-linejoin="round"/>
<path d="M474.202 379.421L469.859 393.073L487.048 399.823L497.506 376.711" stroke="#171717" stroke-width="3" stroke-linecap="round" stroke-linejoin="round"/>
<path d="M500.206 297.643L494.936 314.206L490.11 329.379L489.969 329.822" stroke="#171717" stroke-width="3" stroke-linecap="round" stroke-linejoin="round"/>
<path d="M496.378 290.589C495.058 287.152 494.385 283.501 494.393 279.819C494.391 273.954 496.096 268.216 499.3 263.303C502.504 258.39 507.067 254.515 512.435 252.152C517.803 249.788 523.742 249.037 529.529 249.99C535.316 250.943 540.701 253.56 545.027 257.52C549.352 261.481 552.432 266.615 553.891 272.295C555.35 277.976 555.124 283.959 553.241 289.513C551.359 295.068 547.901 299.955 543.289 303.578C538.677 307.202 533.11 309.405 527.268 309.919C526.392 310 525.515 310.04 524.619 310.04C518.494 310.041 512.514 308.181 507.471 304.707C502.428 301.233 498.559 296.308 496.378 290.585V290.589Z" stroke="#171717" stroke-width="3" stroke-linecap="round" stroke-linejoin="round"/>
<path d="M443.654 344.985C443.654 344.985 476.731 336.532 479.693 331.908C482.655 327.284 478.151 308.796 493.566 313.773" stroke="#171717" stroke-width="3" stroke-linecap="round" stroke-linejoin="round"/>
<path d="M496.73 363.352C502.694 363.765 514.855 365.267 513.243 370.667C512.517 373.085 505.888 374.959 497.443 376.379C490.149 377.609 481.514 378.495 474.17 379.1C464.981 379.865 457.818 380.188 457.818 380.188" stroke="#171717" stroke-width="3" stroke-linecap="round" stroke-linejoin="round"/>
<path d="M496.639 363.35C494.765 363.29 493.566 363.199 493.566 363.199C493.566 363.199 494.8 363.219 496.639 363.35Z" stroke="#171717" stroke-width="3" stroke-linecap="round" stroke-linejoin="round"/>
<path d="M496.639 363.352H496.73" stroke="#171717" stroke-width="3" stroke-linecap="round" stroke-linejoin="round"/>
<path d="M500.921 346.838C505.687 348.007 519.751 351.956 518.573 357.871C517.473 363.351 503.208 363.543 496.73 363.351" stroke="#171717" stroke-width="3" stroke-linecap="round" stroke-linejoin="round"/>
<path d="M499.521 346.525C499.721 346.555 500.105 346.646 500.639 346.777" stroke="#171717" stroke-width="3" stroke-linecap="round" stroke-linejoin="round"/>
<path d="M499.369 346.486C499.377 346.487 499.385 346.49 499.39 346.496C499.407 346.495 499.425 346.498 499.44 346.506" stroke="#171717" stroke-width="3" stroke-linecap="round" stroke-linejoin="round"/>
<path d="M499.441 346.506C499.425 346.499 499.408 346.496 499.391 346.496" stroke="#171717" stroke-width="3" stroke-linecap="round" stroke-linejoin="round"/>
<path d="M499.44 346.506C499.468 346.509 499.495 346.516 499.521 346.526" stroke="#171717" stroke-width="3" stroke-linecap="round" stroke-linejoin="round"/>
<path d="M500.639 346.777C500.105 346.666 499.722 346.577 499.521 346.525" stroke="#171717" stroke-width="3" stroke-linecap="round" stroke-linejoin="round"/>
<path d="M500.639 346.777L500.911 346.837H500.921" stroke="#171717" stroke-width="3" stroke-linecap="round" stroke-linejoin="round"/>
<path d="M487.048 328.955C487.048 328.955 488.206 329.096 490.11 329.378C495.894 330.235 508.487 332.401 515.953 335.967C519.792 337.801 522.27 339.997 521.776 342.577C520.295 350.277 505.747 347.866 500.921 346.838" stroke="#171717" stroke-width="3" stroke-linecap="round" stroke-linejoin="round"/>
<path d="M443.911 302.98C459.084 304.392 474.366 304.13 489.481 302.199" stroke="#171717" stroke-width="3" stroke-linecap="round" stroke-linejoin="round"/>
<path d="M640.2 134.254L683.562 136.148" stroke="#171717" stroke-width="3" stroke-linecap="round" stroke-linejoin="round"/>
<path d="M442.8 383.347L432.025 354.939" stroke="#171717" stroke-width="3" stroke-linecap="round" stroke-linejoin="round"/>
<path d="M403.356 440.956L550.577 433.256" stroke="#171717" stroke-width="3" stroke-linecap="round" stroke-linejoin="round"/>
<path d="M674.638 187.37L669.876 177.311" stroke="#171717" stroke-width="3" stroke-linecap="round" stroke-linejoin="round"/>
<path d="M645.2 161.6C645.945 160.09 647.04 158.779 648.393 157.776C649.746 156.774 651.319 156.108 652.981 155.836" stroke="#171717" stroke-width="3" stroke-linecap="round" stroke-linejoin="round"/>
<path d="M643.771 231.318L653.047 224.963" stroke="#171717" stroke-width="3" stroke-linecap="round" stroke-linejoin="round"/>
<path d="M639.475 206.383L635.919 199.271" stroke="#171717" stroke-width="3" stroke-linecap="round" stroke-linejoin="round"/>
<path d="M622.408 264.699C621.98 260.384 620.517 256.237 618.141 252.609" stroke="#171717" stroke-width="3" stroke-linecap="round" stroke-linejoin="round"/>
<path d="M608.855 298.764L619.505 293.041" stroke="#171717" stroke-width="3" stroke-linecap="round" stroke-linejoin="round"/>
<path d="M576.608 313.741L575.662 300.957" stroke="#171717" stroke-width="3" stroke-linecap="round" stroke-linejoin="round"/>
<path d="M555.555 337.241L564.801 335.107" stroke="#171717" stroke-width="3" stroke-linecap="round" stroke-linejoin="round"/>
<path d="M531.375 344.354L534.982 333.162L534.931 335.108" stroke="#171717" stroke-width="3" stroke-linecap="round" stroke-linejoin="round"/>
<path d="M540.622 389.869C539.451 386.999 537.475 384.529 534.932 382.758" stroke="#171717" stroke-width="3" stroke-linecap="round" stroke-linejoin="round"/>
<path d="M505.062 407.649C506.281 404.808 508.248 402.351 510.752 400.537" stroke="#171717" stroke-width="3" stroke-linecap="round" stroke-linejoin="round"/>
<path d="M527.819 425.428L523.552 420.449" stroke="#171717" stroke-width="3" stroke-linecap="round" stroke-linejoin="round"/>
<path d="M455.99 424.007L463.813 414.762" stroke="#171717" stroke-width="3" stroke-linecap="round" stroke-linejoin="round"/>
<path d="M432.433 419.818L427.033 413.799" stroke="#171717" stroke-width="3" stroke-linecap="round" stroke-linejoin="round"/>
<path d="M449.453 328.594L456.603 320.094" stroke="#171717" stroke-width="3" stroke-linecap="round" stroke-linejoin="round"/>
<path d="M404.184 331.469L399.917 325.779" stroke="#171717" stroke-width="3" stroke-linecap="round" stroke-linejoin="round"/>
<path d="M348.601 330.841L353.579 323.018" stroke="#171717" stroke-width="3" stroke-linecap="round" stroke-linejoin="round"/>
<path d="M298.107 329.419L293.84 324.441" stroke="#171717" stroke-width="3" stroke-linecap="round" stroke-linejoin="round"/>
<path d="M388.327 386.26L392.533 378.404" stroke="#171717" stroke-width="3" stroke-linecap="round" stroke-linejoin="round"/>
<path d="M336.511 392.001L330.821 384.178" stroke="#171717" stroke-width="3" stroke-linecap="round" stroke-linejoin="round"/>
<path d="M280.187 380.5L288.729 370.551" stroke="#171717" stroke-width="3" stroke-linecap="round" stroke-linejoin="round"/>
<path d="M263.288 428.926C255.854 425.03 249.407 419.491 244.435 412.73C239.464 405.969 236.099 398.163 234.596 389.906" stroke="#171717" stroke-width="3" stroke-linecap="round" stroke-linejoin="round"/>
<path d="M686.459 276.832C696.476 265.252 703.311 251.267 706.293 236.248" stroke="#171717" stroke-width="3" stroke-linecap="round" stroke-linejoin="round"/>
<path d="M569.045 251.15L577.578 246.17" stroke="#171717" stroke-width="3" stroke-linecap="round" stroke-linejoin="round"/>
<path d="M558.3 239.031L575.911 212.605" stroke="#171717" stroke-width="3" stroke-linecap="round" stroke-linejoin="round"/>
<path d="M544.888 234.831L545.599 223.453" stroke="#171717" stroke-width="3" stroke-linecap="round" stroke-linejoin="round"/>
<path d="M511.258 630.7C519.677 624.194 522.188 611.186 516.796 602.014" stroke="#171717" stroke-width="3" stroke-linecap="round" stroke-linejoin="round"/>
<path d="M311.631 770.348C303.819 752.215 301.608 732.159 305.283 712.76" stroke="#171717" stroke-width="3" stroke-linecap="round" stroke-linejoin="round"/>
<path d="M670.8 707.805C684.279 695.776 693.157 679.435 695.915 661.58" stroke="#171717" stroke-width="3" stroke-linecap="round" stroke-linejoin="round"/>
<path d="M525.746 788.621C514.396 785.526 504.114 779.371 496.025 770.828" stroke="#171717" stroke-width="3" stroke-linecap="round" stroke-linejoin="round"/>
<path d="M523.479 802.643C511.25 799.464 499.73 794.01 489.521 786.566" stroke="#171717" stroke-width="3" stroke-linecap="round" stroke-linejoin="round"/>
<path d="M221.138 450.84C215.572 469.985 213.163 491.19 221.253 509.413C229.343 527.636 250.681 541 269.564 534.6C276.516 532.245 282.984 526.759 284.026 519.494C285.068 512.229 278.435 504.182 271.265 505.752C265.922 506.923 262.565 512.715 262.554 518.185C262.543 523.655 265.129 528.785 268.054 533.406C273.654 542.247 280.669 550.093 286.745 558.611C292.821 567.129 298.053 576.624 299.32 587.011C300.587 597.398 297.22 608.822 288.834 615.072C280.448 621.322 266.852 620.466 260.898 611.863C258.704 608.692 257.674 604.501 259.06 600.903C260.446 597.305 264.66 594.771 268.314 596.013" stroke="#171717" stroke-width="3" stroke-linecap="round" stroke-linejoin="round"/>
<path d="M239.967 588.213L235.673 578.268" stroke="#171717" stroke-width="3" stroke-linecap="round" stroke-linejoin="round"/>
<path d="M231.029 585.699L241.867 580.355" stroke="#171717" stroke-width="3" stroke-linecap="round" stroke-linejoin="round"/>
<path d="M295.262 491.568L292.418 481.611" stroke="#171717" stroke-width="3" stroke-linecap="round" stroke-linejoin="round"/>
<path d="M287.435 488.001L298.69 483.428" stroke="#171717" stroke-width="3" stroke-linecap="round" stroke-linejoin="round"/>
<path d="M723.069 457.166C715.73 466.618 708.351 476.199 703.39 487.089C698.429 497.979 696.031 510.453 699.1 522.019C702.169 533.585 711.474 543.877 723.267 545.905C730.467 547.143 738.619 544.878 742.825 538.905C747.031 532.932 745.651 523.244 739.142 519.924C731.236 515.891 721.292 523.444 719.877 532.205C718.462 540.966 722.941 549.576 728.077 556.811C733.213 564.046 739.294 570.937 741.836 579.44C743.663 585.612 743.492 592.203 741.347 598.271C739.773 602.687 736.961 606.903 732.736 608.935C728.511 610.967 722.754 610.178 720.078 606.328C717.402 602.478 719.539 595.961 724.184 595.328" stroke="#171717" stroke-width="3" stroke-linecap="round" stroke-linejoin="round"/>
<path d="M680.843 382.663C679.97 381.488 678.859 380.511 677.582 379.795C676.305 379.079 674.892 378.642 673.434 378.51C671.972 378.413 670.514 378.749 669.242 379.475C667.97 380.201 666.939 381.286 666.28 382.594C665.691 383.933 665.625 385.444 666.095 386.829C666.565 388.215 667.536 389.374 668.818 390.078C669.922 390.501 671.116 390.632 672.285 390.456C673.453 390.281 674.557 389.806 675.488 389.078C677.331 387.601 678.885 385.795 680.071 383.752C685.639 375.292 690.671 366.491 695.137 357.4C696.051 361.701 698.208 365.639 701.341 368.724C704.473 371.809 708.444 373.905 712.758 374.752L697.574 398.86C696.388 400.744 695.074 402.739 693.013 403.582C691.955 404.015 690.788 404.1 689.679 403.825C688.57 403.55 687.577 402.929 686.844 402.053C686.111 401.176 685.677 400.089 685.603 398.949C685.529 397.808 685.82 396.674 686.433 395.71C687.047 394.746 687.951 394.002 689.015 393.587C690.079 393.171 691.248 393.104 692.353 393.397C693.457 393.689 694.44 394.326 695.159 395.214C695.878 396.102 696.295 397.196 696.351 398.337L697.792 396.983" stroke="#171717" stroke-width="3" stroke-linecap="round" stroke-linejoin="round"/>
<path d="M542.9 97.2765C539.376 95.0675 534.314 94.9415 531.351 97.8605C528.388 100.779 529.061 106.79 532.977 108.192C535.689 109.163 538.818 107.692 540.544 105.392C542.27 103.092 542.861 100.131 543.144 97.2645C544.108 87.4135 541.988 77.5514 539.881 67.8804C546.881 73.7484 558.411 73.1385 564.756 66.5645L567.216 99.4295C567.398 101.852 567.543 104.444 566.326 106.547C565.682 107.662 564.701 108.543 563.524 109.064C562.348 109.585 561.036 109.719 559.778 109.448C558.52 109.176 557.381 108.512 556.524 107.552C555.667 106.591 555.137 105.384 555.01 104.103C554.883 102.823 555.166 101.535 555.818 100.425C556.469 99.3152 557.456 98.4407 558.636 97.9273C559.816 97.414 561.129 97.2882 562.385 97.5682C563.641 97.8482 564.776 98.5195 565.626 99.4855" stroke="#171717" stroke-width="3" stroke-linecap="round" stroke-linejoin="round"/>
<path d="M480.743 93.9215L487.098 84.6445" stroke="#171717" stroke-width="3" stroke-linecap="round" stroke-linejoin="round"/>
<path d="M488.53 92.7812L478.616 83.4902" stroke="#171717" stroke-width="3" stroke-linecap="round" stroke-linejoin="round"/>
<path d="M395.335 74.0192L401.82 58.4082" stroke="#171717" stroke-width="3" stroke-linecap="round" stroke-linejoin="round"/>
<path d="M405.43 70.6336C400.835 67.0869 395.561 64.5224 389.935 63.0996" stroke="#171717" stroke-width="3" stroke-linecap="round" stroke-linejoin="round"/>
<path d="M376.993 136.669C378.762 131.387 381.992 126.714 386.307 123.191" stroke="#171717" stroke-width="3" stroke-linecap="round" stroke-linejoin="round"/>
<path d="M386.833 135.463L373.557 123.814" stroke="#171717" stroke-width="3" stroke-linecap="round" stroke-linejoin="round"/>
<path d="M357.244 215.584C353.185 205.777 357.252 193.306 366.31 187.777" stroke="#171717" stroke-width="3" stroke-linecap="round" stroke-linejoin="round"/>
<path d="M278.455 245.032C275.383 244.421 272.195 244.837 269.383 246.217C268.045 246.831 266.847 247.713 265.865 248.81C264.883 249.906 264.136 251.193 263.673 252.59C263.244 254 263.257 255.507 263.709 256.91C264.16 258.312 265.03 259.544 266.201 260.438C270.31 263.231 276.294 259.691 277.821 254.963C279.348 250.235 277.845 245.122 276.348 240.385L267.348 211.906C267.942 213.66 269.03 215.205 270.481 216.356C271.931 217.507 273.683 218.215 275.526 218.395C277.369 218.575 279.224 218.22 280.87 217.372C282.516 216.524 283.883 215.219 284.806 213.613" stroke="#171717" stroke-width="3" stroke-linecap="round" stroke-linejoin="round"/>
<path d="M241.924 226.3C239.595 223.725 236.662 221.77 233.389 220.611" stroke="#171717" stroke-width="3" stroke-linecap="round" stroke-linejoin="round"/>
<path d="M232.678 228.432L239.79 217.053" stroke="#171717" stroke-width="3" stroke-linecap="round" stroke-linejoin="round"/>
<path fill-rule="evenodd" clip-rule="evenodd" d="M392.221 283.447C436.974 293.945 445.528 255.891 445.528 255.891C443.432 239.187 440.106 223.697 440.106 223.697L439.642 222.68C450.785 217.501 476.191 204.333 479.691 190.51C484.177 196.028 494.007 199.726 500.677 201.71L500.556 202.124C506.36 213.639 504.988 225.891 500.788 236.983C500.788 236.983 550.317 217.236 538.247 181.026C532.172 162.812 514.853 171.265 514.319 171.526L514.33 171.502C514.815 170.412 526.617 143.9 514.541 137.402C502.39 130.849 485.383 154.737 484.92 155.402C485.212 154.651 496.98 124.331 476.85 121.751C456.458 119.142 449.828 156.128 449.828 156.128C449.828 156.128 445.796 129.338 424.459 142.617C403.122 155.896 416.159 182.917 416.159 182.917C416.159 182.917 387.475 171.784 377.521 197.617C367.567 223.45 386.528 226.059 386.528 226.059C386.528 226.059 355.236 226.846 357.845 248.265C360.454 269.684 381.078 262.571 381.078 262.571C381.078 262.571 373.021 278.947 392.221 283.447ZM504.824 144.108C504.165 143.607 503.224 143.736 502.723 144.395C502.221 145.055 502.35 145.996 503.01 146.497C507.257 149.724 509.075 155.633 508.693 161.316C508.311 167.018 506.072 172.458 503.736 178.038C503.461 178.695 503.687 179.456 504.276 179.857C504.866 180.258 505.656 180.189 506.167 179.691C510.203 175.759 517.523 176.01 522.095 179.8C526.651 183.578 528.602 190.08 527.939 196.228C527.276 202.377 524.327 208.159 520.619 213.413C520.142 214.09 520.303 215.026 520.98 215.503C521.657 215.981 522.593 215.82 523.07 215.143C526.915 209.696 530.18 203.421 530.921 196.55C531.662 189.678 529.533 182.071 524.009 177.491C519.774 173.979 513.426 172.818 508.288 174.838C509.944 170.611 511.374 166.17 511.687 161.517C512.109 155.219 510.143 148.15 504.824 144.108Z" fill="#171717"/>
<path fill-rule="evenodd" clip-rule="evenodd" d="M545.518 257.981C539.892 252.597 532.405 249.593 524.619 249.594C520.649 249.593 516.719 250.375 513.051 251.894C509.384 253.413 506.052 255.639 503.245 258.446C500.438 261.253 498.212 264.585 496.693 268.252C495.174 271.92 494.392 275.85 494.393 279.82C494.385 283.501 495.058 287.153 496.378 290.59C498.559 296.312 502.428 301.237 507.471 304.711C512.514 308.186 518.494 310.046 524.619 310.045C525.515 310.045 526.392 310.005 527.268 309.924C535.025 309.242 542.219 305.593 547.351 299.737C552.484 293.881 555.158 286.27 554.816 278.491C554.475 270.712 551.144 263.365 545.518 257.981ZM499.558 271.673C498.888 271.186 497.95 271.335 497.463 272.006C496.976 272.676 497.125 273.614 497.796 274.101C511.886 284.33 528.336 290.827 545.614 292.988C546.436 293.091 547.185 292.508 547.288 291.686C547.391 290.864 546.808 290.114 545.986 290.011C529.211 287.913 513.239 281.604 499.558 271.673Z" fill="#171717"/>
<path fill-rule="evenodd" clip-rule="evenodd" d="M538.834 774.483C579.608 766.256 668.671 716.595 664.923 653.183C660.813 583.665 541.514 453.776 541.504 453.768C507.585 459.395 428.928 458.206 406.904 457.068L406.914 458.015C406.914 458.015 344.327 598.945 335.794 682.871C327.261 766.797 345.97 842.179 371.47 842.179C377.363 842.012 383.214 841.122 388.89 839.529C409.236 834.239 434.903 821.489 447.436 805.989C452.195 800.115 455.066 793.838 455.036 787.42C454.996 777.744 448.951 760.726 441.749 740.449C427.51 700.361 408.746 647.536 422.917 613.534C444.256 562.333 483.428 523.926 483.428 523.926C483.428 523.926 568.121 596.468 551.528 625.272C543.374 639.426 527.535 651.775 513.684 662.574C499.348 673.751 487.143 683.267 487.793 691.405C488.005 694.105 488.372 698.286 488.972 703.374C491.974 728.483 501.027 775.683 528.527 775.683C531.993 775.614 535.445 775.213 538.834 774.483ZM551.584 479.794C551.027 479.181 550.078 479.136 549.465 479.693C548.853 480.25 548.807 481.199 549.365 481.812C573.59 508.455 595.744 536.911 615.632 566.931C625.963 582.528 635.673 598.569 642.088 615.979C648.501 633.384 651.482 652.298 648.113 670.379C644.744 688.46 634.522 705.57 618.924 715.008C618.215 715.437 617.988 716.359 618.417 717.068C618.846 717.777 619.768 718.004 620.477 717.575C636.941 707.613 647.568 689.683 651.062 670.928C654.557 652.173 651.445 632.697 644.903 614.942C638.364 597.193 628.494 580.916 618.133 565.274C598.161 535.127 575.913 506.55 551.584 479.794Z" fill="#171717"/>
<path d="M392.94 857.68C392.94 857.68 411.54 876.17 432.14 869.059" stroke="#171717" stroke-width="3" stroke-linecap="round" stroke-linejoin="round"/>
<path d="M385.954 872.113C385.954 872.113 405.867 890.604 423.647 884.203" stroke="#171717" stroke-width="3" stroke-linecap="round" stroke-linejoin="round"/>
<g opacity="0.1">
<path d="M440.371 222.283C440.237 227.019 441.371 231.635 442.177 236.276C443.134 241.77 443.827 247.311 444.44 252.853C444.996 257.863 445.366 262.887 445.552 267.927C445.742 273.061 446.573 279.383 445.231 284.383C442.885 293.126 458.066 293.962 456.17 284.383C455.146 279.212 455.957 273.224 455.625 267.927C455.282 262.452 454.706 256.999 453.954 251.566C452.579 241.636 451.003 229.479 445.524 220.887C445.207 220.379 444.735 219.986 444.177 219.767C443.619 219.548 443.006 219.515 442.427 219.672C441.849 219.829 441.337 220.168 440.966 220.639C440.596 221.11 440.387 221.688 440.371 222.287V222.283Z" fill="#171717"/>
</g>
<g opacity="0.1">
<path d="M434.755 293.625C434.95 295.556 435.842 299.389 434.955 301.234C433.734 303.763 430.873 302.541 428.621 302.291C421.56 301.507 414.347 301.509 407.252 301.178C394.302 300.572 381.351 299.972 368.399 299.378C343.292 298.248 317.44 296.078 293.212 304.402C272.385 311.559 254.598 326.262 248.228 347.973C241.687 370.273 250.575 392.707 269.737 405.513C280.876 412.957 294.529 416.771 307.689 418.464C311.053 419.022 314.453 419.329 317.862 419.385C321.178 419.313 324.395 418.415 327.673 418.021C335.073 417.131 342.516 417.592 349.887 416.133C353.281 415.461 352.199 410.658 349.114 410.425C343.12 409.971 337.058 410.081 331.096 409.225C328.114 408.637 325.196 407.758 322.384 406.602C319.085 405.586 315.732 404.751 312.341 404.102C301.369 401.563 290.523 398.481 281.174 391.969C265.795 381.258 258.852 363.55 267.032 345.963C275.788 327.137 296.762 317.072 316.304 313.702C340.404 309.548 365.494 312.134 389.768 312.987L411.137 313.738C418.017 313.98 425.087 314.713 431.952 314.038C444.252 312.838 446.425 301.402 440.524 292.063C439.017 289.678 434.433 290.381 434.759 293.625H434.755Z" fill="#171717"/>
</g>
<g opacity="0.1">
<path d="M408.823 402.957C401.404 404.857 401.36 417.998 400.499 424.157C399.241 433.164 398.199 442.206 397.045 451.227C396.519 455.353 400.955 458.915 404.733 458.915C409.245 458.915 411.991 455.375 412.42 451.227C413.42 441.573 414.648 431.905 415.339 422.227C415.658 417.754 417.994 400.613 408.823 402.962V402.957Z" fill="#171717"/>
</g>
<g opacity="0.1">
<path d="M556.08 301.101C562.053 302.678 567.992 296.27 572.28 292.84C577.368 288.771 582.306 284.485 586.985 279.949C596.712 270.518 605.23 259.487 612.853 248.317C627.878 226.132 638.97 201.524 645.641 175.574C649.514 160.646 652.326 144.874 652.59 129.423C652.779 118.423 636.326 118.614 635.622 129.423C634.577 145.45 632.812 160.996 628.705 176.575C624.541 192.304 618.597 207.508 610.989 221.891C603.574 236.138 594.646 249.546 584.36 261.883C579.16 268.044 573.769 274.105 568.11 279.846C565.188 282.811 562.14 285.627 559.1 288.469C556.332 291.057 553.295 293.369 553.292 297.439C553.303 298.267 553.58 299.07 554.082 299.73C554.584 300.389 555.284 300.87 556.08 301.101V301.101Z" fill="#171717"/>
</g>
<g opacity="0.1">
<path d="M479.956 392.29C480.446 391.549 480.895 390.781 481.301 389.99C481.507 389.544 481.501 389.339 481.201 389.857C481.491 389.467 481.803 389.093 482.135 388.737C483.655 386.796 484.548 384.752 483.854 382.237C483.586 381.266 483.097 380.37 482.426 379.619C481.754 378.868 480.919 378.281 479.984 377.905C475.863 376.166 470.444 379.197 470.724 384.014C470.743 384.926 470.838 385.835 471.01 386.73C470.815 385.891 470.881 386.174 470.81 386.88C470.71 387.835 470.64 388.789 470.576 389.747C470.232 394.912 477.514 396.361 479.966 392.29H479.956Z" fill="#171717"/>
</g>
<g opacity="0.1">
<path d="M502.615 328.245C504.272 324.939 505.093 321.328 506.253 317.828C507.436 314.259 509.053 310.889 510.28 307.349C513.326 298.595 499.194 294.649 496.358 303.511C495.24 307.011 494.638 310.811 493.87 314.411C493.102 318.011 492.102 321.742 492.22 325.426C492.388 330.639 500.014 333.426 502.615 328.242V328.245Z" fill="#171717"/>
</g>
</g>
<defs>
<linearGradient id="paint0_linear_583_1339" x1="544.992" y1="121.893" x2="544.992" y2="458.027" gradientUnits="userSpaceOnUse">
<stop stop-color="#FFB800"/>
<stop offset="1" stop-color="#FF7F0A"/>
</linearGradient>
<linearGradient id="paint1_linear_583_1339" x1="374.377" y1="289.705" x2="374.377" y2="419.867" gradientUnits="userSpaceOnUse">
<stop stop-color="#FFB800"/>
<stop offset="1" stop-color="#FF7F0A"/>
</linearGradient>
<clipPath id="clip0_583_1339">
<rect width="533" height="884" fill="white" transform="translate(214 38)"/>
</clipPath>
</defs>
</svg>
