<svg width="699" height="665" viewBox="0 0 699 665" fill="none" xmlns="http://www.w3.org/2000/svg">
<mask id="mask0_152_825" style="mask-type:luminance" maskUnits="userSpaceOnUse" x="27" y="-1" width="645" height="569">
<path d="M671.331 -0.31665H27.6687V567.113H671.331V-0.31665Z" fill="white"/>
</mask>
<g mask="url(#mask0_152_825)">
<path fill-rule="evenodd" clip-rule="evenodd" d="M210.51 152.802C214.526 152.581 218.652 150.886 222.306 148.875C235.079 141.837 245.924 131.233 253.74 118.138C261.484 126.284 271.395 131.53 282.043 133.12L281.942 133.923C286.594 158.034 281.017 186.486 267.11 205.881C264.7 209.246 262.062 212.406 259.424 215.563C256.225 219.393 253.028 223.222 250.241 227.414C245.157 235.063 241.443 244.459 242.737 253.803L243.486 253.935C250.881 254.731 258.17 255.829 263.974 256.846C265.667 257.143 267.231 257.428 268.64 257.7L268.706 257.713C269.14 257.798 269.611 257.891 270.096 257.996C272.18 258.416 274.74 258.975 277.58 259.617C299.634 252.446 311.581 233.221 319.192 212.455V212.448L319.712 169.582C319.811 160.629 322.976 152.042 328.584 145.514L328.577 145.507C323.912 110.504 303.841 68.6996 248.387 66.636C203.324 64.9576 184.38 107.377 174.489 129.526C171.438 136.357 169.248 141.261 167.419 142.346C163.202 144.843 158.337 145.221 153.495 145.595C152.051 145.707 150.61 145.818 149.188 145.986C121.876 149.187 99.7348 175.314 93.5996 204.577C87.4645 233.84 92.4936 274.886 122.166 306.985L122.307 307.132C144.314 281.965 172.509 266.307 196.68 258.335C199.195 257.502 201.669 256.757 204.083 256.087C207.583 255.129 210.96 254.34 214.19 253.714C214.327 253.683 214.465 253.657 214.599 253.632L214.668 253.619C216.737 219.991 215.345 186.216 210.518 152.927L210.51 152.802ZM273.613 77.2071C273.064 76.9341 272.416 77.1999 272.166 77.8C271.917 78.4 272.161 79.1083 272.71 79.3805C283.087 84.5311 292.354 92.0159 299.905 101.346C307.457 110.677 313.124 121.642 316.535 133.528C316.715 134.158 317.328 134.508 317.904 134.311C318.48 134.113 318.799 133.443 318.619 132.814C315.116 120.608 309.296 109.346 301.541 99.7642C293.787 90.1831 284.27 82.4962 273.613 77.2071Z" fill="#171717"/>
<path d="M642.643 288.621C648.765 296.477 652.359 306.948 651.287 317.206C650.486 324.87 647.187 332.025 642.913 338.163C638.015 345.126 631.884 350.939 624.887 355.259C617.891 359.579 610.17 362.316 602.185 363.307L601.632 363.284L602.859 329.165L601.72 328.473C606.109 328.186 610.444 327.302 614.152 324.833C620.004 320.933 623.348 313.536 624.211 306.108C625.074 298.679 623.746 291.156 622.034 283.904C621.097 279.961 620.042 276.056 618.871 272.188L619.09 272.108C628.052 275.372 636.52 280.766 642.643 288.621Z" fill="url(#paint0_linear_152_825)"/>
<path d="M597.639 155.699C597.934 147.521 595.328 139.533 590.365 133.404C585.401 127.275 578.464 123.477 571.001 122.804L571.008 122.693L578.66 122.73C582.686 122.516 586.708 123.22 590.472 124.797C594.235 126.375 597.657 128.79 600.52 131.89C603.383 134.992 605.625 138.709 607.102 142.808C608.579 146.907 609.259 151.297 609.101 155.699L605.669 253.899L604.685 282.137L604.792 282.956C600.933 283.53 597.113 283.957 593.25 284.281L593.162 283.087L597.639 155.699Z" fill="#171717"/>
<path d="M557.113 436.475C561.017 436.867 564.954 436.387 568.684 435.063C572.413 433.739 575.857 431.599 578.805 428.774C581.753 425.948 584.144 422.496 585.833 418.628C587.521 414.76 588.471 410.557 588.625 406.275L591.392 329.165L591.412 328.48C593.451 328.559 595.437 328.597 597.345 328.597C598.795 328.597 600.258 328.568 601.714 328.472L602.853 329.165L601.626 363.284L600.082 406.275C599.427 424.351 585.223 438.809 568.745 437.143H560.632L560.611 437.372L557.065 437.019L557.113 436.475Z" fill="#171717"/>
<path d="M534.991 448.383C535.389 448.435 535.76 448.63 536.046 448.937C536.332 449.244 536.516 449.647 536.571 450.08C536.624 450.515 536.545 450.957 536.344 451.336C536.144 451.716 535.834 452.012 535.463 452.178L424.589 502.118C421.655 503.438 418.402 503.65 415.346 502.722L256.105 454.403C255.734 454.292 255.406 454.055 255.167 453.726C254.928 453.397 254.791 452.994 254.776 452.574C254.761 452.154 254.868 451.741 255.083 451.393C255.298 451.044 255.608 450.78 255.97 450.638L327.902 422.105C328.836 421.729 329.839 421.603 330.828 421.737L534.991 448.383Z" fill="#171717"/>
<path d="M534.6 193.443V210.746L433.064 216.936L434.292 197.924H434.332C445.631 196.73 456.03 189.788 467.368 189.427C475.135 189.177 482.679 192.043 489.94 195.072C497.201 198.101 504.53 201.372 512.277 201.996C520.023 202.62 528.441 200.116 533.251 193.44L534.6 193.443Z" fill="url(#paint1_linear_152_825)"/>
<path d="M534.6 176.346V193.443H533.252C528.446 200.119 520.024 202.617 512.278 201.999C504.531 201.38 497.195 198.099 489.941 195.075C482.687 192.051 475.135 189.179 467.369 189.43C456.028 189.79 445.632 196.733 434.333 197.926H434.292L435.283 182.614L534.6 176.346Z" fill="#171717"/>
<path d="M557.065 437.02L326.134 413.994C323.322 413.709 320.487 414.089 317.821 415.108L231.18 448.096C230.5 448.35 229.876 448.754 229.345 449.282C224.701 451.05 226.622 471.816 231.308 473.452L313.938 502.243L313.932 502.273C313.932 502.273 313.284 504.41 312.098 507.902C310.763 511.845 308.74 517.512 306.2 523.761C300.044 538.919 290.841 557.519 280.934 563.37C263.331 573.774 99.14 550.886 86.29 432.812C80.1949 376.793 97.2323 335.8 122.306 307.133C144.312 281.968 172.508 266.307 196.678 258.335C193.561 264.354 191.878 271.132 191.784 278.047C191.707 285.036 193.761 291.855 197.622 297.428C203.312 305.372 212.508 309.359 221.57 311.238C229.288 312.844 237.36 313.153 244.911 310.795C249.753 309.283 254.265 306.713 258.173 303.24C262.081 299.768 265.304 295.465 267.647 290.593C269.99 285.72 271.405 280.378 271.805 274.891C272.207 269.404 271.585 263.886 269.979 258.668L270.093 257.998C272.176 258.418 274.738 258.978 277.577 259.619C293.569 263.23 318.488 269.479 318.488 269.479L317.004 391.451C316.933 397.116 318.819 402.602 322.286 406.812C325.753 411.024 330.545 413.651 335.707 414.17L557.111 436.476L557.065 437.02Z" fill="url(#paint2_linear_152_825)"/>
<path d="M269.98 258.667C271.587 263.883 272.208 269.402 271.808 274.89C271.407 280.377 269.992 285.718 267.649 290.591C265.306 295.463 262.083 299.766 258.175 303.239C254.267 306.711 249.756 309.281 244.913 310.794C237.361 313.152 229.291 312.842 221.571 311.236C212.51 309.357 203.314 305.37 197.623 297.426C193.763 291.853 191.709 285.035 191.785 278.046C191.88 271.131 193.563 264.352 196.68 258.334C199.195 257.501 201.669 256.757 204.083 256.086L204.089 256.116C197.637 265.135 198.884 278.76 204.844 288.171C209.311 295.226 215.926 300.316 223.51 302.534C231.092 304.751 239.15 303.95 246.242 300.274C253.336 296.599 259.003 290.288 262.232 282.468C265.461 274.648 266.043 265.828 263.873 257.583L263.974 256.846C265.667 257.142 267.231 257.429 268.64 257.701C269.091 257.79 269.586 257.886 270.096 257.996L269.98 258.667Z" fill="url(#paint3_linear_152_825)"/>
<path d="M319.19 212.449L319.71 169.583C319.828 160.435 323.129 151.68 328.943 145.1C334.757 138.519 342.647 134.607 351.007 134.159L567.199 122.73C568.466 122.662 569.736 122.687 571.001 122.804C578.464 123.477 585.401 127.275 590.365 133.404C595.328 139.533 597.934 147.521 597.639 155.699L593.162 283.088" stroke="#171717" stroke-width="2" stroke-linecap="round" stroke-linejoin="round"/>
<path d="M591.395 329.166L588.629 406.275C588.474 410.558 587.524 414.761 585.835 418.629C584.147 422.497 581.756 425.949 578.808 428.774C575.859 431.6 572.415 433.739 568.687 435.063C564.957 436.387 561.02 436.867 557.116 436.474L335.708 414.168C330.547 413.65 325.754 411.023 322.288 406.811C318.82 402.6 316.935 397.114 317.006 391.449L318.489 269.477L319.19 212.455" stroke="#171717" stroke-width="2" stroke-linecap="round" stroke-linejoin="round"/>
<path d="M570.07 326.83L568.129 390.233C568.04 393.126 567.41 395.967 566.277 398.583C565.145 401.199 563.533 403.533 561.543 405.442C559.553 407.351 557.227 408.794 554.707 409.682C552.187 410.571 549.527 410.885 546.891 410.606L353.886 395.76C348.618 395.202 343.736 392.499 340.207 388.188C336.678 383.877 334.762 378.272 334.839 372.488L341.339 181.21C341.423 174.651 343.818 168.38 348.024 163.701C352.231 159.023 357.926 156.296 363.924 156.089L551.712 149.575C554.765 149.47 557.805 150.05 560.645 151.281C563.484 152.511 566.062 154.365 568.219 156.728C570.377 159.091 572.068 161.912 573.187 165.019C574.307 168.124 574.832 171.448 574.73 174.784L571.372 284.432" stroke="#171717" stroke-width="2" stroke-linecap="round" stroke-linejoin="round"/>
<path d="M333.039 494.204L231.307 458.715C230.457 458.416 229.693 457.88 229.089 457.16C228.486 456.441 228.064 455.561 227.866 454.61C227.668 453.658 227.701 452.666 227.96 451.732C228.219 450.798 228.697 449.953 229.345 449.282C229.876 448.754 230.5 448.35 231.179 448.096L317.822 415.108C320.487 414.089 323.323 413.709 326.135 413.994L557.065 437.022L560.611 437.376L572.531 438.562C573.425 438.651 574.268 439.06 574.926 439.727C575.585 440.393 576.023 441.279 576.172 442.247C576.32 443.215 576.171 444.209 575.748 445.074C575.325 445.939 574.652 446.627 573.832 447.029L449.108 508.499C429.079 518.374 406.415 519.796 385.483 512.494L353.127 501.477" stroke="#171717" stroke-width="2" stroke-linecap="round" stroke-linejoin="round"/>
<path d="M243.485 253.935C250.881 254.731 258.169 255.829 263.974 256.846C265.667 257.141 267.231 257.428 268.64 257.7C269.091 257.789 269.586 257.885 270.096 257.996C272.179 258.416 274.741 258.975 277.58 259.617C293.572 263.227 318.491 269.476 318.491 269.476" stroke="#171717" stroke-width="2" stroke-linecap="round" stroke-linejoin="round"/>
<path d="M313.932 502.272C313.932 502.272 313.284 504.409 312.098 507.902C310.763 511.844 308.74 517.511 306.2 523.76C300.044 538.919 290.841 557.518 280.934 563.369C263.331 573.774 99.14 550.885 86.29 432.812C80.1949 376.792 97.2323 335.8 122.306 307.132C144.312 281.967 172.508 266.306 196.678 258.335C199.193 257.502 201.667 256.757 204.081 256.087C207.58 255.132 210.958 254.336 214.187 253.714C214.349 253.678 214.511 253.648 214.666 253.619" stroke="#171717" stroke-width="2" stroke-linecap="round" stroke-linejoin="round"/>
<path d="M176.716 328.252C176.716 328.252 118.653 368.826 186.23 442.17" stroke="#171717" stroke-width="2" stroke-linecap="round" stroke-linejoin="round"/>
<path d="M602.858 329.166L601.63 363.285L600.087 406.276C599.431 424.353 585.227 438.811 568.749 437.145H560.632" stroke="#171717" stroke-width="2" stroke-linecap="round" stroke-linejoin="round"/>
<path d="M571.008 122.693L578.66 122.73C582.686 122.516 586.708 123.22 590.472 124.797C594.235 126.375 597.657 128.79 600.52 131.89C603.383 134.992 605.625 138.709 607.101 142.808C608.579 146.907 609.259 151.297 609.101 155.699L605.669 253.899L604.685 282.137" stroke="#171717" stroke-width="2" stroke-linecap="round" stroke-linejoin="round"/>
<path d="M316.467 503.127L313.938 502.243L231.307 473.452C226.622 471.815 224.7 451.05 229.345 449.281" stroke="#171717" stroke-width="2" stroke-linecap="round" stroke-linejoin="round"/>
<path d="M574.743 438.707C575.7 438.803 576.368 439.974 576.786 441.75C578.188 447.675 576.759 460.32 573.832 461.764L449.107 523.237C429.078 533.111 406.414 534.534 385.482 527.231L385.233 527.143L340.189 511.432" stroke="#171717" stroke-width="2" stroke-linecap="round" stroke-linejoin="round"/>
<path d="M312.098 507.902C317.087 502.434 320.997 502.722 326.903 498.485C328.914 497.031 331.033 495.766 333.238 494.704C337.481 492.57 342.112 491.516 346.781 491.624C349.492 491.741 352.6 492.677 353.652 495.404C354.407 497.379 353.786 499.729 352.579 501.424C351.282 503.034 349.737 504.384 348.015 505.411C345.312 507.253 342.606 509.093 339.897 510.931C337.066 512.854 334.232 514.78 331.396 516.708" stroke="#171717" stroke-width="2" stroke-linecap="round" stroke-linejoin="round"/>
<path d="M306.556 523.842C321.671 528.691 347.723 539.441 367.106 538.057C383.752 536.871 383.59 535.264 385.222 527.187" stroke="#171717" stroke-width="2" stroke-linecap="round" stroke-linejoin="round"/>
<path d="M412.824 176.346L407.93 378.206" stroke="#171717" stroke-width="2" stroke-linecap="round" stroke-linejoin="round"/>
<path d="M370.922 208.881C377.11 207.908 383.364 207.533 389.612 207.76" stroke="#171717" stroke-width="2" stroke-linecap="round" stroke-linejoin="round"/>
<path d="M364.864 237.826C374.356 236.92 383.873 236.5 393.416 236.566" stroke="#171717" stroke-width="2" stroke-linecap="round" stroke-linejoin="round"/>
<path d="M366.162 278.371C374.378 279.514 382.697 279.433 390.892 278.129" stroke="#171717" stroke-width="2" stroke-linecap="round" stroke-linejoin="round"/>
<path d="M365.805 313.48C373.95 313.384 382.094 313.283 390.239 313.178" stroke="#171717" stroke-width="2" stroke-linecap="round" stroke-linejoin="round"/>
<path d="M364.22 338.399C370.354 338.813 376.51 338.657 382.62 337.935" stroke="#171717" stroke-width="2" stroke-linecap="round" stroke-linejoin="round"/>
<path d="M435.282 266.057C470.766 263.11 506.304 261.204 541.895 260.339" stroke="#171717" stroke-width="2" stroke-linecap="round" stroke-linejoin="round"/>
<path d="M433.064 287.297C462.15 286.826 491.235 286.351 520.32 285.875" stroke="#171717" stroke-width="2" stroke-linecap="round" stroke-linejoin="round"/>
<path d="M439.732 236.699C443.434 236.488 447.138 236.278 450.843 236.073" stroke="#171717" stroke-width="2" stroke-linecap="round" stroke-linejoin="round"/>
<path d="M484.473 236.285L505.717 237.058" stroke="#171717" stroke-width="2" stroke-linecap="round" stroke-linejoin="round"/>
<path d="M534.6 193.443V176.346L435.283 182.61L434.292 197.923L433.064 216.936L534.6 210.746V193.443Z" stroke="#171717" stroke-width="2" stroke-linecap="round" stroke-linejoin="round"/>
<path d="M434.332 197.925C445.631 196.732 456.03 189.79 467.368 189.429C475.135 189.178 482.679 192.045 489.94 195.074C497.201 198.103 504.53 201.374 512.277 201.998C520.023 202.622 528.441 200.118 533.251 193.442" stroke="#171717" stroke-width="2" stroke-linecap="round" stroke-linejoin="round"/>
<path d="M597.942 314.134C586.683 313.987 575.902 313.566 563.47 312.954C561.326 312.852 558.629 311.746 556.809 312.999C554.989 314.252 554.422 317.265 554.908 319.55C555.555 322.574 558.784 323.853 561.562 324.547C564.266 325.217 567.151 325.806 570.138 326.315C577.186 327.482 584.29 328.206 591.416 328.481C593.455 328.561 595.441 328.599 597.349 328.599C598.798 328.599 600.261 328.569 601.717 328.474C606.107 328.187 610.442 327.302 614.149 324.834C620.002 320.934 623.346 313.537 624.208 306.109C625.071 298.68 623.744 291.157 622.031 283.905C621.094 279.962 620.04 276.056 618.869 272.189C617.81 268.673 616.653 265.195 615.397 261.754C614.575 259.484 613.664 257.17 612.053 255.475C610.442 253.78 607.947 252.874 605.924 253.906" stroke="#171717" stroke-width="2" stroke-linecap="round" stroke-linejoin="round"/>
<path d="M597.942 314.133C599.527 314.192 601.064 314.213 602.548 314.185C601.003 314.177 599.465 314.155 597.942 314.133Z" stroke="#171717" stroke-width="2" stroke-linecap="round" stroke-linejoin="round"/>
<path d="M577.844 298.245C570.832 298.253 563.888 298.459 557.699 299.1C555.95 299.254 554.283 299.97 552.905 301.156C551.563 302.364 550.788 304.531 551.577 306.219C552.474 308.142 554.8 308.414 556.755 308.702C570.502 310.758 585.604 313.676 597.942 314.133" stroke="#171717" stroke-width="2" stroke-linecap="round" stroke-linejoin="round"/>
<path d="M577.844 298.245C587.053 298.937 596.288 299.114 605.513 298.776C597.348 298.621 587.532 298.238 577.844 298.245Z" stroke="#171717" stroke-width="2" stroke-linecap="round" stroke-linejoin="round"/>
<path d="M606.782 282.652C606.114 282.756 605.453 282.858 604.792 282.955C600.933 283.529 597.113 283.957 593.25 284.281C586.278 284.863 579.159 285.121 571.392 285.306C570.415 285.32 569.426 285.342 568.419 285.365C566.74 285.401 560.328 285.917 558.899 286.877C558.176 287.337 557.587 288.011 557.201 288.823C556.815 289.635 556.649 290.549 556.722 291.46C557.227 295.395 566.901 297.349 577.844 298.247" stroke="#171717" stroke-width="2" stroke-linecap="round" stroke-linejoin="round"/>
<path d="M619.092 272.107C628.052 275.37 636.52 280.766 642.642 288.621C648.764 296.476 652.358 306.948 651.286 317.206C650.485 324.87 647.187 332.025 642.912 338.163C638.014 345.126 631.883 350.939 624.886 355.259C617.889 359.579 610.169 362.316 602.184 363.307" stroke="#171717" stroke-width="2" stroke-linecap="round" stroke-linejoin="round"/>
<path d="M255.969 450.638L327.901 422.105C328.836 421.729 329.839 421.603 330.827 421.737L534.994 448.383C535.392 448.435 535.763 448.63 536.049 448.937C536.335 449.244 536.519 449.647 536.573 450.08C536.627 450.515 536.547 450.957 536.347 451.336C536.147 451.716 535.837 452.012 535.465 452.178L424.589 502.118C421.656 503.438 418.403 503.65 415.346 502.722L256.105 454.403C255.734 454.292 255.406 454.055 255.167 453.726C254.928 453.398 254.791 452.994 254.776 452.575C254.761 452.155 254.869 451.741 255.083 451.393C255.297 451.044 255.608 450.78 255.969 450.638Z" stroke="#171717" stroke-width="2" stroke-linecap="round" stroke-linejoin="round"/>
<path d="M242.735 253.803C241.44 244.46 245.155 235.064 250.239 227.415C255.323 219.766 261.775 213.329 267.107 205.882C281.015 186.487 286.592 158.035 281.94 133.924" stroke="#171717" stroke-width="2" stroke-linecap="round" stroke-linejoin="round"/>
<path d="M210.515 152.928C215.342 186.216 216.735 219.992 214.665 253.619" stroke="#171717" stroke-width="2" stroke-linecap="round" stroke-linejoin="round"/>
<path d="M319.19 212.448V212.456C311.579 233.221 299.632 252.447 277.578 259.618" stroke="#171717" stroke-width="2" stroke-linecap="round" stroke-linejoin="round"/>
<path d="M122.166 306.985C92.4936 274.886 87.4645 233.84 93.5996 204.577C99.7348 175.314 121.876 149.187 149.188 145.986C155.377 145.256 161.944 145.588 167.419 142.346C175.179 137.74 189.425 64.4403 248.387 66.636C303.841 68.6996 323.912 110.504 328.577 145.507" stroke="#171717" stroke-width="2" stroke-linecap="round" stroke-linejoin="round"/>
<path d="M203.604 151.44C205.765 152.518 208.138 152.987 210.508 152.803C214.526 152.582 218.652 150.887 222.303 148.876C235.076 141.837 245.919 131.234 253.735 118.139C261.479 126.284 271.39 131.53 282.039 133.121C284.636 133.514 287.259 133.677 289.88 133.607" stroke="#171717" stroke-width="2" stroke-linecap="round" stroke-linejoin="round"/>
<path d="M227.053 156.679C228.288 154.867 230.125 153.657 232.168 153.312C234.21 152.966 236.296 153.511 237.975 154.83" stroke="#171717" stroke-width="2" stroke-linecap="round" stroke-linejoin="round"/>
<path d="M255.086 151.204C256.818 149.254 259.113 148.019 261.583 147.707C264.053 147.395 266.545 148.027 268.638 149.494" stroke="#171717" stroke-width="2" stroke-linecap="round" stroke-linejoin="round"/>
<path d="M250.751 138.669C253.832 136.334 257.383 134.85 261.103 134.342C264.822 133.834 268.599 134.317 272.111 135.75" stroke="#171717" stroke-width="2" stroke-linecap="round" stroke-linejoin="round"/>
<path d="M254.082 171.41C255.075 171.062 256.141 171.048 257.142 171.368C258.144 171.689 259.033 172.33 259.698 173.208C260.327 174.118 260.662 175.23 260.651 176.369C260.64 177.51 260.284 178.613 259.637 179.508C258.947 180.36 257.998 180.91 256.966 181.057C255.933 181.203 254.887 180.936 254.021 180.304" stroke="#171717" stroke-width="2" stroke-linecap="round" stroke-linejoin="round"/>
<path d="M245.041 200.223C239.162 201.571 232.656 199.147 230.91 190.923" stroke="#171717" stroke-width="2" stroke-linecap="round" stroke-linejoin="round"/>
<path d="M204.089 256.118C197.637 265.137 198.884 278.762 204.844 288.173C209.311 295.228 215.926 300.319 223.51 302.536C231.093 304.754 239.151 303.953 246.244 300.278C253.337 296.602 259.004 290.29 262.233 282.469C265.462 274.649 266.043 265.828 263.873 257.584" stroke="#171717" stroke-width="2" stroke-linecap="round" stroke-linejoin="round"/>
<path d="M214.338 253.236C214.284 253.391 214.23 253.554 214.192 253.713C213.141 257.166 213.061 260.885 213.965 264.387C214.869 267.89 216.714 271.016 219.262 273.359C224.608 278.098 233.043 278.547 238.63 274.133C244.217 269.718 246.168 260.744 242.695 254.347" stroke="#171717" stroke-width="2" stroke-linecap="round" stroke-linejoin="round"/>
<path d="M196.739 258.21C196.72 258.255 196.699 258.29 196.679 258.336C193.563 264.354 191.88 271.132 191.784 278.048C191.709 285.037 193.763 291.855 197.623 297.428C203.313 305.372 212.509 309.359 221.571 311.238C229.289 312.844 237.361 313.154 244.912 310.795C249.755 309.283 254.266 306.713 258.174 303.24C262.082 299.768 265.305 295.465 267.649 290.592C269.992 285.72 271.406 280.379 271.807 274.891C272.207 269.404 271.586 263.885 269.979 258.668" stroke="#171717" stroke-width="2" stroke-linecap="round" stroke-linejoin="round"/>
<path d="M227.511 282.254C227.414 282.913 227.464 283.588 227.658 284.221C227.852 284.854 228.183 285.426 228.624 285.887C229.236 286.413 229.989 286.707 230.768 286.723C231.547 286.739 232.309 286.476 232.939 285.976C233.552 285.454 234.044 284.78 234.374 284.01C234.704 283.24 234.864 282.397 234.84 281.547C234.786 275.644 228.097 277.413 227.511 282.254Z" stroke="#171717" stroke-width="2" stroke-linecap="round" stroke-linejoin="round"/>
<path d="M161.313 314.098L160.996 305.429" stroke="#171717" stroke-width="2" stroke-linecap="round" stroke-linejoin="round"/>
<path d="M155.6 310.217C159.314 309.971 162.978 309.158 166.485 307.802" stroke="#171717" stroke-width="2" stroke-linecap="round" stroke-linejoin="round"/>
<path d="M147.555 413.808L139.764 408.033" stroke="#171717" stroke-width="2" stroke-linecap="round" stroke-linejoin="round"/>
<path d="M139.881 416.821L145.402 404.581" stroke="#171717" stroke-width="2" stroke-linecap="round" stroke-linejoin="round"/>
<path d="M240.665 419.902L248.639 411.28" stroke="#171717" stroke-width="2" stroke-linecap="round" stroke-linejoin="round"/>
<path d="M246.385 420.183L238.825 406.968" stroke="#171717" stroke-width="2" stroke-linecap="round" stroke-linejoin="round"/>
<path d="M281.6 349.883L288.277 345.051" stroke="#171717" stroke-width="2" stroke-linecap="round" stroke-linejoin="round"/>
<path d="M286.268 352.272L281.546 342.195" stroke="#171717" stroke-width="2" stroke-linecap="round" stroke-linejoin="round"/>
<path d="M216.787 364.084L209.239 355.346" stroke="#171717" stroke-width="2" stroke-linecap="round" stroke-linejoin="round"/>
<path d="M215.161 354.837C213.043 358.275 210.713 361.553 208.187 364.645" stroke="#171717" stroke-width="2" stroke-linecap="round" stroke-linejoin="round"/>
<path d="M271.728 523.4L268.889 511.691" stroke="#171717" stroke-width="2" stroke-linecap="round" stroke-linejoin="round"/>
<path d="M263.9 520.898L276.338 515.486" stroke="#171717" stroke-width="2" stroke-linecap="round" stroke-linejoin="round"/>
<path d="M197.593 529.568L185.914 521.425" stroke="#171717" stroke-width="2" stroke-linecap="round" stroke-linejoin="round"/>
<path d="M186.701 532.629L195.327 518.628" stroke="#171717" stroke-width="2" stroke-linecap="round" stroke-linejoin="round"/>
<path d="M165.43 474.59L156.872 474.292" stroke="#171717" stroke-width="2" stroke-linecap="round" stroke-linejoin="round"/>
<path d="M159.734 482.027L161.162 467.982" stroke="#171717" stroke-width="2" stroke-linecap="round" stroke-linejoin="round"/>
<path d="M111.897 446.133L104.045 440.671" stroke="#171717" stroke-width="2" stroke-linecap="round" stroke-linejoin="round"/>
<path d="M109.857 439.193L104.134 447.766" stroke="#171717" stroke-width="2" stroke-linecap="round" stroke-linejoin="round"/>
<path d="M298 291.397L306.03 283.016" stroke="#171717" stroke-width="2" stroke-linecap="round" stroke-linejoin="round"/>
<path d="M305.106 291.122L298.156 283.124" stroke="#171717" stroke-width="2" stroke-linecap="round" stroke-linejoin="round"/>
<path d="M622.934 342.876L625.157 335.594" stroke="#171717" stroke-width="2" stroke-linecap="round" stroke-linejoin="round"/>
<path d="M627.4 340.777L620.738 337.308" stroke="#171717" stroke-width="2" stroke-linecap="round" stroke-linejoin="round"/>
<path d="M304.076 62.6641L321.999 50.312" stroke="#171717" stroke-width="2" stroke-linecap="round" stroke-linejoin="round"/>
<path d="M292.318 55.8127C298.635 37.5006 305.394 19.3818 312.595 1.45728" stroke="#171717" stroke-width="2" stroke-linecap="round" stroke-linejoin="round"/>
<path d="M281.243 47.0785L279.101 25.2297" stroke="#171717" stroke-width="2" stroke-linecap="round" stroke-linejoin="round"/>
<path d="M341.208 73.2541L348.356 71.5176" stroke="#171717" stroke-width="2" stroke-linecap="round" stroke-linejoin="round"/>
<path d="M345.105 76.7478L342.691 67.2097" stroke="#171717" stroke-width="2" stroke-linecap="round" stroke-linejoin="round"/>
<path d="M359.475 16.2359L350.49 14.4946" stroke="#171717" stroke-width="2" stroke-linecap="round" stroke-linejoin="round"/>
<path d="M353.897 21.1701L355.485 10.7534" stroke="#171717" stroke-width="2" stroke-linecap="round" stroke-linejoin="round"/>
<path d="M67.2324 408.502C66.7169 459.491 90.9181 510.01 129.554 538.594" stroke="#171717" stroke-width="2" stroke-linecap="round" stroke-linejoin="round"/>
<path d="M234.621 52.7041L228.53 47.2925" stroke="#171717" stroke-width="2" stroke-linecap="round" stroke-linejoin="round"/>
<path d="M228.151 54.3692L233.83 45.615" stroke="#171717" stroke-width="2" stroke-linecap="round" stroke-linejoin="round"/>
<path d="M159.437 127.12L147.557 117.382" stroke="#171717" stroke-width="2" stroke-linecap="round" stroke-linejoin="round"/>
<path d="M148.924 130.93L158.07 113.57" stroke="#171717" stroke-width="2" stroke-linecap="round" stroke-linejoin="round"/>
<path d="M190.105 53.0838L182.883 48.074" stroke="#171717" stroke-width="2" stroke-linecap="round" stroke-linejoin="round"/>
<path d="M182.58 56.9252L189.776 41.9277" stroke="#171717" stroke-width="2" stroke-linecap="round" stroke-linejoin="round"/>
<path d="M32.9988 193.284C36.2406 190.532 40.1857 188.952 44.2867 188.761C48.3877 188.57 52.4413 189.779 55.8852 192.22C59.2351 194.813 61.7634 198.482 63.1195 202.716C64.4755 206.951 64.5919 211.542 63.4526 215.852C62.1143 220.555 58.7496 224.996 54.2731 225.562C49.7966 226.127 45.0667 221.052 46.7006 216.464C47.7156 213.619 50.7388 212.029 53.5224 212.297C56.3061 212.564 58.805 214.379 60.6763 216.647C62.7296 219.197 64.1362 222.291 64.7561 225.621C65.376 228.95 65.1877 232.399 64.2099 235.624C61.5158 244.155 53.7336 249.573 50.0005 257.622C48.5043 260.847 47.7057 264.405 47.6663 268.021C47.6269 271.636 48.3477 275.214 49.7731 278.477C51.1986 281.741 53.2906 284.603 55.8879 286.842C58.4852 289.083 61.5184 290.641 64.7538 291.397" stroke="#171717" stroke-width="2" stroke-linecap="round" stroke-linejoin="round"/>
<path d="M638.971 149.385C630.176 160.563 629.298 178.296 636.938 190.445C639.115 193.91 642.018 197.009 645.659 198.362C649.3 199.715 653.746 198.983 656.29 195.834C658.834 192.685 658.641 187.07 655.437 184.746C651.03 181.549 644.738 186.793 644.504 192.569C644.271 198.345 647.969 203.41 651.97 207.192C658.975 213.818 668.272 219.696 669.518 229.729C669.869 233.145 669.201 236.594 667.611 239.56C666.023 242.527 663.598 244.853 660.701 246.19" stroke="#171717" stroke-width="2" stroke-linecap="round" stroke-linejoin="round"/>
<path d="M38.445 245.129L28.8833 245.938" stroke="#171717" stroke-width="2" stroke-linecap="round" stroke-linejoin="round"/>
<path d="M33.721 250.735L33.6133 240.333" stroke="#171717" stroke-width="2" stroke-linecap="round" stroke-linejoin="round"/>
<path d="M219.499 17.4567L223.84 21.4748C223.971 21.5958 224.065 21.7582 224.108 21.9396C224.153 22.1211 224.145 22.3129 224.086 22.4887C224.027 22.6654 223.92 22.8182 223.78 22.9256C223.639 23.0339 223.473 23.092 223.301 23.0928L217.613 23.1246C217.447 23.1254 217.285 23.1803 217.147 23.2822C217.01 23.3833 216.903 23.5273 216.84 23.6952L214.686 29.4483C214.62 29.6218 214.508 29.7698 214.364 29.8709C214.22 29.9728 214.051 30.0237 213.879 30.0173C213.708 30.0109 213.542 29.9473 213.405 29.8351C213.267 29.7221 213.165 29.5669 213.111 29.3886L211.326 23.4859C211.274 23.314 211.176 23.1628 211.045 23.0506C210.914 22.9392 210.756 22.8723 210.591 22.8588L204.919 22.3972C204.747 22.3837 204.584 22.3129 204.45 22.1943C204.317 22.0765 204.22 21.9165 204.172 21.7359C204.125 21.5552 204.129 21.3634 204.185 21.186C204.239 21.0085 204.343 20.8533 204.482 20.7419L209.069 17.062C209.202 16.9553 209.303 16.8073 209.36 16.637C209.417 16.4675 209.426 16.2828 209.388 16.1069L208.037 10.0682C207.996 9.88591 208.007 9.69412 208.069 9.51903C208.131 9.34395 208.24 9.19434 208.382 9.08929C208.525 8.98424 208.693 8.92933 208.865 8.93172C209.036 8.9349 209.203 8.99458 209.343 9.10441L213.961 12.7326C214.096 12.8385 214.256 12.8982 214.422 12.9045C214.588 12.9109 214.752 12.8639 214.893 12.7684L219.731 9.49755C219.876 9.39887 220.047 9.35111 220.218 9.36146C220.39 9.37181 220.554 9.43946 220.69 9.55486C220.824 9.67025 220.924 9.82862 220.975 10.0077C221.025 10.1867 221.025 10.3793 220.972 10.5576L219.239 16.4746C219.188 16.6481 219.185 16.8343 219.232 17.0094C219.279 17.1837 219.372 17.3397 219.499 17.4567Z" fill="#171717"/>
<g opacity="0.1">
<path d="M253.982 119.047C250.759 120.678 248.787 125.308 246.555 128.239C244.08 131.591 241.226 134.587 238.06 137.152C231.7 142.167 224.294 145.364 216.515 146.452C214.08 146.819 211.628 150.383 211.915 153.058C213.577 168.36 214.24 183.771 213.898 199.176C213.718 206.737 213.12 214.297 212.307 221.798C211.902 225.545 211.416 229.28 210.851 233.001C210.269 236.865 209.049 241.007 209.459 244.925C209.948 249.588 215.478 252.058 217.982 247.448C219.854 244.003 220.277 239.929 220.947 236.043C221.632 232.08 222.238 228.101 222.768 224.106C223.797 216.327 224.542 208.525 225.069 200.687C226.171 184.822 225.964 168.881 224.451 153.055L218.185 159.904C225.5 158.979 232.552 156.368 238.876 152.244C245.2 148.119 250.651 142.576 254.869 135.978C257.36 132.17 260.635 126.218 259.318 121.415C258.597 118.785 256.123 117.965 253.988 119.046L253.982 119.047Z" fill="#171717"/>
</g>
<g opacity="0.1">
<path d="M210.446 255.255C195.984 255.74 181.681 262.937 169.001 270.084C156.004 277.39 143.908 286.472 133.007 297.112C111.084 318.586 94.2886 347.494 88.0085 379.112C81.5362 411.685 84.7429 446.691 99.6745 476.053C114.771 505.738 140.959 527.11 168.814 540.98C203.77 558.383 242.288 565.37 280.556 564.335C289.5 564.096 289.537 548.89 280.556 549.115C248.664 549.911 216.711 545.066 186.812 532.615C160.578 521.69 134.631 504.256 118.199 478.823C102.197 454.056 96.6128 423.035 100.206 393.18C103.781 363.485 116.273 336.361 135.219 314.87C145.628 303.116 157.5 293.025 170.486 284.894C177.079 280.708 183.928 277.023 190.984 273.865C198.22 270.661 205.669 267.782 212.568 263.809C216.246 261.69 214.554 255.12 210.449 255.258L210.446 255.255Z" fill="#171717"/>
</g>
</g>
<defs>
<linearGradient id="paint0_linear_152_825" x1="626.554" y1="272.108" x2="626.554" y2="363.307" gradientUnits="userSpaceOnUse">
<stop stop-color="#FFB800"/>
<stop offset="1" stop-color="#FF7F0A"/>
</linearGradient>
<linearGradient id="paint1_linear_152_825" x1="483.832" y1="189.412" x2="483.832" y2="216.936" gradientUnits="userSpaceOnUse">
<stop stop-color="#FFB800"/>
<stop offset="1" stop-color="#FF7F0A"/>
</linearGradient>
<linearGradient id="paint2_linear_152_825" x1="321.08" y1="257.998" x2="321.08" y2="565.612" gradientUnits="userSpaceOnUse">
<stop stop-color="#FFB800"/>
<stop offset="1" stop-color="#FF7F0A"/>
</linearGradient>
<linearGradient id="paint3_linear_152_825" x1="231.855" y1="256.086" x2="231.855" y2="312.501" gradientUnits="userSpaceOnUse">
<stop stop-color="#FFB800"/>
<stop offset="1" stop-color="#FF7F0A"/>
</linearGradient>
</defs>
</svg>
