<svg width="528" height="528" viewBox="0 0 528 528" fill="none" xmlns="http://www.w3.org/2000/svg">
<g clip-path="url(#clip0_219_773)">
<mask id="mask0_219_773" style="mask-type:luminance" maskUnits="userSpaceOnUse" x="0" y="0" width="528" height="528">
<path d="M0 0H528V528H0V0Z" fill="white"/>
</mask>
<g mask="url(#mask0_219_773)">
<mask id="mask1_219_773" style="mask-type:luminance" maskUnits="userSpaceOnUse" x="67" y="20" width="394" height="488">
<path d="M67.1001 20.8999H460.35V507.65H67.1001V20.8999Z" fill="white"/>
</mask>
<g mask="url(#mask1_219_773)">
<path fill-rule="evenodd" clip-rule="evenodd" d="M232.592 432.575L210.692 290.356L211.056 290.307C211.374 292.346 212.837 296.371 219.391 297.059C227.143 297.874 228.838 291.201 229.143 289.506L229.553 289.585L251.108 433.685L251.466 434.89L249.248 435.55L240.417 438.185L231.936 433.866L232.592 432.575ZM218.852 302.708C218.807 302.162 219.214 301.682 219.761 301.638C220.307 301.593 220.787 301.999 220.831 302.546C224.175 343.335 229.766 383.908 237.577 424.081C237.681 424.619 237.33 425.14 236.791 425.245C236.253 425.35 235.732 424.998 235.627 424.46C227.802 384.215 222.202 343.57 218.852 302.708Z" fill="url(#paint0_linear_219_773)"/>
<path d="M139.493 249.112L132.475 245.187L138.235 277.559C143.611 277.274 147.742 299.498 147.894 309.905L147.888 309.938C153.004 311.099 157.949 312.92 162.597 315.353C164.49 316.353 166.377 317.485 167.721 319.153C169.065 320.821 169.767 323.145 169.032 325.158C168.297 327.171 165.279 328.839 163.312 327.978L163.279 328.038C163.432 328.117 163.577 328.21 163.729 328.296C166.53 329.977 169.495 332.546 169.151 335.79C168.827 338.809 164.722 340.788 162.041 339.371L162.021 339.405C162.862 339.888 163.69 340.384 164.517 340.89C165.682 341.598 166.882 342.375 167.582 343.544C168.283 344.713 168.324 346.411 167.298 347.318C166.331 348.172 164.868 348.039 163.604 347.813C159.263 347.11 154.996 346.006 150.86 344.516L150.695 344.959L156.328 378.007L159.579 397.06L231.935 433.868L232.591 432.577L210.693 290.356L211.057 290.301C210.994 289.907 210.968 289.508 210.977 289.11L139.493 249.112Z" fill="url(#paint1_linear_219_773)"/>
<path d="M178.399 216.792C177.753 216.884 177.099 216.919 176.447 216.898L176.42 217.613C176.857 220.528 177.969 224.856 180.77 226.16C182.537 226.981 184.62 226.703 186.562 226.405C189.217 226.002 191.873 225.596 194.533 225.187C196.307 224.922 198.273 224.538 199.299 223.148C200.365 221.698 199.551 219.824 199.16 218.088C198.801 216.6 198.365 215.132 197.856 213.688C196.262 214.264 194.603 214.64 192.918 214.807L178.399 216.792Z" fill="url(#paint2_linear_219_773)"/>
<path d="M200.047 206.101C199.057 206.836 197.538 207.081 195.446 207.253C188.66 207.816 181.815 208.023 175.01 208.408C174.124 208.485 173.232 208.47 172.348 208.361L170.521 208.408C169.839 212.258 170.707 215.875 173.507 216.53C174.471 216.759 175.456 216.883 176.446 216.901C177.099 216.922 177.753 216.887 178.399 216.795L192.919 214.809C194.605 214.642 196.264 214.266 197.857 213.691C198.62 213.389 199.326 212.961 199.947 212.425C201.801 210.803 202.218 207.52 200.106 206.183L200.047 206.101Z" fill="url(#paint3_linear_219_773)"/>
<path d="M344.87 489.768C348.08 487.293 350.545 483.98 351.994 480.194C353.443 476.408 353.82 472.296 353.083 468.31C352.346 464.324 350.524 460.618 347.817 457.6C345.11 454.583 341.623 452.371 337.74 451.206C336.469 451.151 335.198 451.126 333.953 451.113C319.965 450.934 305.979 450.758 291.995 450.584C287.454 450.524 282.402 451.107 278.086 449.405L278.039 449.515C273.094 447.768 266.938 449.052 262.058 451.852L262.204 452.111C268.625 454.719 275.624 454.978 282.621 454.679C285.316 454.569 288.011 454.368 290.671 454.196C292.624 454.064 294.603 453.958 296.582 453.912C302.082 453.759 307.612 454.051 312.729 455.593C314.834 456.215 316.859 457.077 318.767 458.161C323.831 461.068 328.121 466.682 326.81 472.369C325.718 477.108 321.183 480.214 316.728 482.166C314.83 482.995 312.885 483.706 310.902 484.298C305.859 485.778 300.65 486.619 295.397 486.801C291.532 486.957 287.661 486.843 283.812 486.463C281.495 486.238 279.185 485.933 276.888 485.562C268.162 484.159 259.576 481.822 251.038 479.499L250.614 479.565C251.434 484.409 253.015 489.092 255.301 493.441L255.081 494.904C260.7 495.758 266.337 496.493 271.989 497.108C291.267 499.233 310.975 500.127 329.882 495.797C335.139 494.592 340.454 492.882 345.148 490.276L344.87 489.768Z" fill="url(#paint4_linear_219_773)"/>
<path d="M298.185 157.304C296.127 155.4 293.679 153.967 291.013 153.104C288.346 152.24 285.522 151.968 282.739 152.305C281.601 152.451 280.35 152.782 279.741 153.762C279.5 154.21 279.382 154.715 279.398 155.224C279.415 155.733 279.565 156.228 279.833 156.661C280.382 157.518 281.104 158.251 281.952 158.813C284.253 160.53 286.762 161.949 289.419 163.037C286.284 162.255 282.554 162.553 279.423 163.348C277.967 163.712 276.338 164.493 276.073 165.969C275.795 167.552 277.258 168.884 278.662 169.663C283.647 172.444 289.442 172.768 295.212 172.138C297.801 171.84 300.373 171.412 302.918 170.854C311.021 169.139 319.473 166.968 327.432 169.252C330.524 170.139 333.616 171.887 334.933 174.819C335.82 176.806 335.787 179.069 335.734 181.247C335.608 186.457 335.48 191.665 335.349 196.871H335.468C336.74 198.023 337.355 199.705 338.044 201.28C338.732 202.855 339.646 204.478 341.208 205.199C341.595 205.408 342.031 205.509 342.471 205.49C342.91 205.472 343.336 205.335 343.704 205.094C344.492 204.471 344.578 203.319 344.518 202.313C344.419 200.751 344.128 199.209 343.651 197.719C344.045 198.285 344.534 198.78 345.094 199.182C346.683 200.294 349.284 200.148 350.139 198.412C350.854 196.948 350.039 195.24 349.284 193.797C346.173 187.819 343.902 181.312 343.454 174.592C343.302 172.295 343.362 169.978 342.978 167.713C342.594 165.449 341.713 163.166 340.008 161.623C338.083 159.889 335.38 159.319 332.792 159.108C328.469 158.757 324.126 159.218 319.79 159.048C315.453 158.878 310.971 157.989 307.555 155.314C304.556 152.971 302.524 149.369 299.068 147.774C297.658 147.118 295.626 147.046 294.891 148.416C294.578 149.168 294.547 150.008 294.805 150.781C295.392 153.189 296.589 155.405 298.281 157.216L298.185 157.304Z" fill="#171717"/>
<path d="M307.284 349.46C308.476 346.508 311.939 346.528 315.07 347.117L315.083 347.077C314.375 346.839 313.667 346.587 312.958 346.329C311.489 345.793 309.988 345.211 308.827 344.158C307.666 343.105 306.914 341.457 307.331 339.948C307.774 338.379 309.363 337.359 310.972 337.101C312.581 336.843 314.217 337.206 315.805 337.564C320.968 338.723 326.139 340.146 331.302 341.371L331.31 341.331C331.131 340.341 330.985 339.365 330.859 338.398H330.839L322.664 266.212L316.427 267.741L229.197 289.111C229.197 289.111 229.184 289.25 229.138 289.502L229.548 289.581L251.103 433.681L251.461 434.886L339.021 408.743L338.133 400.752L335.28 374.94L335.307 374.623C328.412 374.086 321.616 372.646 315.096 370.34C312.904 369.552 310.706 368.605 309.046 366.985C307.385 365.364 306.358 362.9 307 360.669C307.642 358.438 310.795 356.544 312.905 357.518L312.932 357.445C311.399 356.911 309.991 356.069 308.794 354.97C307.36 353.552 306.539 351.334 307.284 349.46Z" fill="url(#paint5_linear_219_773)"/>
<path d="M427.034 385.554C419.023 390.605 409.033 391.135 399.553 391.135C393.926 391.135 388.153 390.949 382.334 390.605L382.327 390.672C342.216 399.827 341.593 399.907 338.787 400.682L338.138 400.754L339.025 408.745L251.465 434.888L249.247 435.548L249.302 435.726C256.426 438.531 272.797 446.703 276.756 448.802C277.187 449.03 277.631 449.232 278.087 449.407C282.403 451.108 287.455 450.525 291.996 450.585C305.984 450.763 319.97 450.94 333.954 451.114C335.199 451.128 336.47 451.154 337.741 451.207C343.712 451.459 349.77 452.372 354.159 456.258C357.37 459.099 358.992 463.104 359.274 467.34L359.738 467.314C383.875 467.427 406.456 464.05 429.726 457.622C439.709 454.861 450.361 450.876 455.651 441.972C459.815 434.948 459.762 426.17 458.14 418.166C455.949 407.322 450.573 396.69 441.378 390.527C431.077 383.628 427.573 385.263 427.573 385.263L427.546 385.217C427.378 385.335 427.206 385.44 427.034 385.554Z" fill="#171717"/>
<path d="M309.815 236.659C312.754 233.548 311.19 226.264 308.299 223.108C305.408 219.951 300.527 219.024 298.249 215.396C295.946 211.734 296.634 205.902 296.442 201.586C296.012 191.808 295.606 182.032 295.224 172.259" stroke="#171717" stroke-width="2" stroke-linecap="round" stroke-linejoin="round"/>
<path d="M302.534 185.711C304.097 185.254 305.657 184.798 307.214 184.341" stroke="#171717" stroke-width="2" stroke-linecap="round" stroke-linejoin="round"/>
<path d="M301.164 176.926C305.075 176.025 309.129 175.939 313.074 176.674C313.56 185.355 312.316 194.046 309.413 202.241C310.011 202.846 310.775 203.26 311.607 203.432C312.44 203.604 313.305 203.526 314.093 203.208" stroke="#171717" stroke-width="2" stroke-linecap="round" stroke-linejoin="round"/>
<path d="M319.395 183.5C321.528 182.858 323.803 182.858 325.936 183.5" stroke="#171717" stroke-width="2" stroke-linecap="round" stroke-linejoin="round"/>
<path d="M317.993 216.645C320.893 216.719 323.723 215.749 325.968 213.911" stroke="#171717" stroke-width="2" stroke-linecap="round" stroke-linejoin="round"/>
<path d="M374.502 294.745C384.087 300.845 391.562 309.749 395.912 320.246C398.54 326.615 399.447 335.069 394.091 339.405C390.894 341.993 386.438 342.225 382.321 342.231C371.051 342.258 359.793 341.517 348.624 340.014C348.569 341.192 348.519 342.364 348.459 343.542C347.976 354.042 347.49 364.544 347.002 375.048C346.823 378.974 346.642 382.899 346.459 386.825" stroke="#171717" stroke-width="2" stroke-linecap="round" stroke-linejoin="round"/>
<path d="M346.459 386.825C358.009 388.526 370.265 389.896 382.333 390.605C388.152 390.949 393.925 391.134 399.553 391.134C409.033 391.134 419.023 390.605 427.033 385.554C427.205 385.444 427.377 385.334 427.549 385.216C435.48 379.966 440.181 370.971 443.318 361.959C448.727 346.455 450.501 329.388 446.304 313.513C440.55 291.739 423.802 273.851 403.75 263.604C385.518 254.282 364.79 250.794 344.261 250.906C342.208 250.913 340.16 250.957 338.117 251.038" stroke="#171717" stroke-width="2" stroke-linecap="round" stroke-linejoin="round"/>
<path d="M344.261 250.576C344.95 248.464 345.651 246.306 345.605 244.082C345.559 241.858 344.619 239.533 342.706 238.401C341.269 237.553 339.528 237.488 337.866 237.442C336.7 237.409 335.529 237.381 334.363 237.348L309.816 236.694C308.757 236.667 307.691 236.634 306.632 236.607C303.044 236.515 299.27 236.461 296.106 238.163C292.942 239.865 291.551 243.677 293.239 246.842" stroke="#171717" stroke-width="2" stroke-linecap="round" stroke-linejoin="round"/>
<path d="M300.118 247.404C297.841 247.252 295.546 247.117 293.233 247.001C255.545 245.107 213.347 247.974 177.956 259.36" stroke="#171717" stroke-width="2" stroke-linecap="round" stroke-linejoin="round"/>
<path d="M331.081 340.517L330.842 338.398L322.667 266.212L316.43 267.741L229.2 289.111C229.2 289.111 229.187 289.25 229.141 289.502C228.836 291.196 227.141 297.869 219.389 297.055C212.835 296.367 211.372 292.342 211.054 290.302C210.991 289.909 210.965 289.51 210.975 289.111L139.49 249.112L132.473 245.187L138.232 277.559" stroke="#171717" stroke-width="2" stroke-linecap="round" stroke-linejoin="round"/>
<path d="M150.694 344.959L156.328 378.007L159.578 397.06L231.937 433.868L240.417 438.185L249.248 435.549L251.466 434.887L339.024 408.745L338.137 400.754L335.284 374.942" stroke="#171717" stroke-width="2" stroke-linecap="round" stroke-linejoin="round"/>
<path d="M229.554 289.582L251.109 433.683" stroke="#171717" stroke-width="2" stroke-linecap="round" stroke-linejoin="round"/>
<path d="M210.626 289.932L210.692 290.356L232.592 432.577" stroke="#171717" stroke-width="2" stroke-linecap="round" stroke-linejoin="round"/>
<path d="M316.827 267.966L316.43 267.742L309.578 263.875L223.596 284.908L177.79 259.658L150.694 244.716L139.493 249.112L139.168 249.238" stroke="#171717" stroke-width="2" stroke-linecap="round" stroke-linejoin="round"/>
<path d="M147.895 309.905C147.742 299.499 143.611 277.274 138.235 277.559C133.873 278.054 135.693 286.225 136.375 290.899C137.695 299.948 135.971 309.151 136.123 318.293C136.276 327.436 138.911 337.399 146.451 342.569" stroke="#171717" stroke-width="2" stroke-linecap="round" stroke-linejoin="round"/>
<path d="M146.45 342.569C147.88 343.305 149.352 343.955 150.859 344.516C154.996 346.006 159.263 347.109 163.603 347.812C164.868 348.037 166.331 348.17 167.297 347.317C168.324 346.41 168.287 344.722 167.582 343.544C166.877 342.365 165.682 341.598 164.517 340.889C163.692 340.386 162.861 339.89 162.021 339.404C156.158 336.008 150.029 333.09 143.696 330.679" stroke="#171717" stroke-width="2" stroke-linecap="round" stroke-linejoin="round"/>
<path d="M161.988 339.345C162.008 339.352 162.021 339.365 162.043 339.371C164.725 340.788 168.829 338.809 169.153 335.79C169.498 332.545 166.532 329.977 163.731 328.296C163.579 328.21 163.434 328.117 163.281 328.038C157.107 324.409 150.297 321.992 143.216 320.915" stroke="#171717" stroke-width="2" stroke-linecap="round" stroke-linejoin="round"/>
<path d="M163.312 327.978C165.279 328.839 168.304 327.171 169.032 325.158C169.761 323.146 169.059 320.822 167.721 319.153C166.384 317.485 164.49 316.353 162.597 315.353C157.949 312.92 153.004 311.099 147.888 309.938C145.728 309.443 143.544 309.07 141.343 308.819" stroke="#171717" stroke-width="2" stroke-linecap="round" stroke-linejoin="round"/>
<path d="M331.313 341.33C331.134 340.34 330.988 339.364 330.862 338.397C330.492 335.491 330.339 332.651 330.213 329.546C330.167 328.361 329.836 327.044 330.577 326.117C331.557 324.899 333.616 325.203 334.757 326.276C335.899 327.348 336.392 328.916 336.975 330.373C339.231 335.918 343.273 340.553 348.461 343.541C348.527 343.581 348.593 343.614 348.66 343.654" stroke="#171717" stroke-width="2" stroke-linecap="round" stroke-linejoin="round"/>
<path d="M333.41 341.861C332.708 341.702 332.006 341.537 331.305 341.371C326.141 340.147 320.971 338.723 315.807 337.565C314.218 337.207 312.583 336.843 310.974 337.101C309.366 337.36 307.777 338.379 307.333 339.948C306.916 341.457 307.671 343.099 308.829 344.158C309.988 345.218 311.491 345.794 312.961 346.33C313.669 346.588 314.377 346.84 315.086 347.078C321.94 349.451 328.961 351.31 336.091 352.639" stroke="#171717" stroke-width="2" stroke-linecap="round" stroke-linejoin="round"/>
<path d="M315.073 347.117C311.942 346.528 308.479 346.508 307.287 349.46C306.539 351.334 307.361 353.552 308.797 354.969C309.993 356.067 311.401 356.909 312.935 357.444C313.306 357.596 313.683 357.735 314.054 357.874C320.883 360.382 327.957 362.165 335.159 363.197" stroke="#171717" stroke-width="2" stroke-linecap="round" stroke-linejoin="round"/>
<path d="M312.908 357.517C310.796 356.544 307.638 358.437 307.003 360.668C306.368 362.899 307.388 365.355 309.048 366.984C310.709 368.612 312.908 369.552 315.098 370.339C321.619 372.645 328.414 374.084 335.31 374.622C339.136 374.959 343.002 375.079 346.908 375.039" stroke="#171717" stroke-width="2" stroke-linecap="round" stroke-linejoin="round"/>
<path d="M155.957 378.074C146.815 373.982 139.996 371.361 129.986 371.619C119.976 371.878 109.457 377.24 106.068 386.66C102.665 396.114 107.127 406.52 112.456 415.034C124.233 433.828 140.625 449.346 159.301 461.428C162.624 463.58 166.013 465.618 169.469 467.545C171.038 468.425 172.62 469.273 174.209 470.1C176.916 471.524 179.653 472.874 182.418 474.152C185.039 475.37 187.681 476.531 190.343 477.634C195.01 479.568 199.736 481.342 204.523 482.957C207.236 483.877 209.968 484.751 212.718 485.579C217.808 487.108 222.942 488.485 228.118 489.71C237.015 491.828 246.025 493.536 255.081 494.907C260.702 495.76 266.338 496.495 271.989 497.111C291.267 499.236 310.976 500.13 329.883 495.8C335.139 494.595 340.455 492.885 345.149 490.279C348.823 488.305 352.061 485.609 354.669 482.354C357.956 478.064 359.591 472.735 359.276 467.339C358.992 463.104 357.37 459.097 354.161 456.257C349.772 452.371 343.714 451.458 337.743 451.206C336.472 451.151 335.201 451.127 333.956 451.113C319.968 450.934 305.982 450.757 291.998 450.584C287.457 450.524 282.405 451.107 278.089 449.406C277.634 449.231 277.189 449.029 276.758 448.801C272.798 446.702 256.428 438.533 249.304 435.726" stroke="#171717" stroke-width="2" stroke-linecap="round" stroke-linejoin="round"/>
<path d="M427.576 385.263C427.576 385.263 431.078 383.628 441.381 390.526C450.574 396.689 455.95 407.321 458.141 418.165C459.763 426.169 459.816 434.947 455.652 441.971C450.363 450.875 439.711 454.86 429.728 457.621C406.458 464.049 383.877 467.426 359.739 467.313" stroke="#171717" stroke-width="2" stroke-linecap="round" stroke-linejoin="round"/>
<path d="M338.786 400.681C341.591 399.907 342.216 399.827 382.327 390.671" stroke="#171717" stroke-width="2" stroke-linecap="round" stroke-linejoin="round"/>
<path d="M228.037 490.053C216.829 496.983 205.071 501.241 192.143 503.79C189.673 504.28 187.164 504.677 184.648 504.942C177.823 505.663 170.911 505.412 164.424 503.28C155.546 500.365 147.602 493.389 145.51 484.28C143.643 476.151 148.641 466.57 156.175 462.937C157.076 462.498 158.018 462.15 158.989 461.897" stroke="#171717" stroke-width="2" stroke-linecap="round" stroke-linejoin="round"/>
<path d="M334.363 237.395V237.349C334.693 223.855 335.022 210.363 335.35 196.873C335.483 191.663 335.611 186.455 335.735 181.249C335.79 179.071 335.821 176.807 334.934 174.821C333.614 171.889 330.525 170.141 327.433 169.254C319.476 166.969 311.022 169.144 302.919 170.856C300.374 171.413 297.802 171.842 295.213 172.14C289.438 172.769 283.647 172.445 278.663 169.665C277.259 168.884 275.796 167.554 276.074 165.971C276.339 164.495 277.967 163.716 279.424 163.349C282.555 162.555 286.282 162.257 289.42 163.039" stroke="#171717" stroke-width="2" stroke-linecap="round" stroke-linejoin="round"/>
<path d="M289.419 163.037C286.762 161.95 284.253 160.53 281.952 158.813C281.103 158.251 280.382 157.519 279.833 156.661C279.565 156.229 279.415 155.733 279.398 155.224C279.382 154.715 279.501 154.211 279.741 153.762C280.35 152.782 281.601 152.451 282.739 152.305C285.522 151.968 288.346 152.24 291.013 153.104C293.68 153.967 296.127 155.4 298.185 157.304C297.973 157.118 297.761 156.94 297.542 156.761" stroke="#171717" stroke-width="2" stroke-linecap="round" stroke-linejoin="round"/>
<path d="M343.652 197.713C342.97 196.675 342.411 195.562 341.984 194.396" stroke="#171717" stroke-width="2" stroke-linecap="round" stroke-linejoin="round"/>
<path d="M298.529 157.49C298.443 157.397 298.357 157.311 298.278 157.218C296.585 155.407 295.389 153.191 294.802 150.783C294.543 150.01 294.574 149.17 294.888 148.418C295.623 147.047 297.655 147.12 299.065 147.775C302.521 149.37 304.553 152.972 307.552 155.316C310.969 157.991 315.457 158.878 319.787 159.05C324.116 159.222 328.466 158.758 332.789 159.109C335.377 159.321 338.078 159.89 340.005 161.625C341.712 163.165 342.593 165.445 342.975 167.716C343.356 169.987 343.299 172.297 343.452 174.594C343.901 181.313 346.172 187.821 349.282 193.799C350.036 195.242 350.851 196.95 350.136 198.413C349.282 200.148 346.68 200.293 345.091 199.183C344.53 198.781 344.042 198.287 343.648 197.72" stroke="#171717" stroke-width="2" stroke-linecap="round" stroke-linejoin="round"/>
<path d="M342.21 194.37C342.796 195.436 343.279 196.556 343.653 197.713V197.72C344.13 199.21 344.421 200.753 344.52 202.314C344.58 203.321 344.493 204.472 343.706 205.095C343.338 205.336 342.912 205.473 342.472 205.491C342.033 205.51 341.597 205.409 341.21 205.2C339.648 204.479 338.735 202.85 338.046 201.281C337.356 199.712 336.741 198.024 335.47 196.872" stroke="#171717" stroke-width="2" stroke-linecap="round" stroke-linejoin="round"/>
<path d="M197.856 213.688C198.365 215.131 198.801 216.6 199.16 218.088C199.551 219.822 200.365 221.695 199.299 223.147C198.274 224.537 196.307 224.921 194.533 225.186C191.878 225.597 189.221 226.003 186.562 226.405C184.623 226.702 182.537 226.98 180.77 226.159C177.969 224.855 176.857 220.526 176.42 217.613" stroke="#171717" stroke-width="2" stroke-linecap="round" stroke-linejoin="round"/>
<path d="M200.107 206.181C202.218 207.518 201.801 210.801 199.948 212.423C199.327 212.959 198.621 213.386 197.858 213.688C196.265 214.264 194.606 214.64 192.919 214.807L178.399 216.793C177.753 216.884 177.099 216.92 176.446 216.899C175.456 216.881 174.471 216.757 173.507 216.528C170.707 215.873 169.839 212.258 170.521 208.405" stroke="#171717" stroke-width="2" stroke-linecap="round" stroke-linejoin="round"/>
<path d="M200.047 206.101C199.057 206.836 197.539 207.081 195.446 207.252C188.66 207.816 181.815 208.022 175.01 208.407C174.123 208.485 173.231 208.469 172.349 208.361C171.919 208.297 171.5 208.174 171.104 207.997C169.634 207.245 168.483 205.991 167.859 204.462C164.119 196.233 164.339 195.088 153.884 186.276C119.134 156.975 132.938 129.82 156.518 126.245C174.194 123.563 215.564 132.05 203.37 167.303C194.75 192.221 201.496 197.524 201.489 202.138C201.49 204.188 201.021 205.386 200.047 206.101Z" stroke="#171717" stroke-width="2" stroke-linecap="round" stroke-linejoin="round"/>
<path d="M177.287 204.28C172.826 194.429 168.363 184.576 163.9 174.721C163.397 173.615 162.814 172.424 161.689 171.868C160.61 171.339 159.313 171.524 158.101 171.444C156.939 171.361 155.808 171.031 154.783 170.477C153.759 169.924 152.863 169.159 152.156 168.233C151.551 167.484 151.132 166.602 150.933 165.66C150.734 164.717 150.761 163.741 151.011 162.811C151.319 161.872 151.917 161.055 152.719 160.477C153.52 159.899 154.485 159.589 155.473 159.594C157.485 159.68 159.319 161.567 158.948 163.441C158.864 163.925 158.628 164.369 158.275 164.711C157.922 165.053 157.469 165.273 156.982 165.34C155.976 165.42 154.957 164.446 155.261 163.54" stroke="#171717" stroke-width="2" stroke-linecap="round" stroke-linejoin="round"/>
<path d="M194.182 204.121C190.269 190.786 187.435 177.157 185.708 163.366C187.727 163.241 188.959 160.586 187.694 159.084C186.43 157.581 183.411 158.11 182.828 159.95" stroke="#171717" stroke-width="2" stroke-linecap="round" stroke-linejoin="round"/>
<path d="M179.372 160.879C179.789 162.759 178.075 164.586 176.115 165.07C174.155 165.553 172.07 165.037 170.15 164.401C168.231 163.765 166.297 162.997 164.271 162.991" stroke="#171717" stroke-width="2" stroke-linecap="round" stroke-linejoin="round"/>
<path d="M281.35 119.927C277.106 120.972 272.545 119.9 268.745 117.742C264.846 115.524 261.555 112.101 259.927 107.924C256.226 98.3916 264.327 85.0783 275.259 86.3493C285.441 87.5406 294.405 98.9273 291.71 109.009C290.36 114.061 286.547 118.643 281.35 119.927Z" stroke="#171717" stroke-width="2" stroke-linecap="round" stroke-linejoin="round"/>
<path d="M280.417 81.9861C284.567 83.5239 288.17 86.2557 290.77 89.8373C292.006 87.7303 293.782 85.9906 295.914 84.7993L302.111 92.7039L295.835 98.0263" stroke="#171717" stroke-width="2" stroke-linecap="round" stroke-linejoin="round"/>
<path d="M297.503 101.27C297.456 103.859 297.41 106.448 297.364 109.036C297.309 109.669 297.384 110.306 297.584 110.91C298.371 112.843 301.258 112.995 302.383 114.756C301.066 116.801 299.748 118.849 298.431 120.899C298.232 121.204 298 121.542 297.643 121.608C297.282 121.617 296.931 121.487 296.663 121.244C295.061 120.098 293.461 118.951 291.864 117.801" stroke="#171717" stroke-width="2" stroke-linecap="round" stroke-linejoin="round"/>
<path d="M289.698 120.879C287.953 122.423 285.859 123.52 283.597 124.077C281.334 124.634 278.971 124.634 276.709 124.077C276.451 126.566 276.186 129.062 275.928 131.551C272.141 130.867 268.4 129.948 264.727 128.801C265.753 126.821 266.78 124.841 267.807 122.861C267.737 122.886 267.663 122.896 267.588 122.891C267.515 122.886 267.442 122.867 267.376 122.834C267.31 122.8 267.251 122.754 267.203 122.697C267.155 122.64 267.12 122.574 267.098 122.504" stroke="#171717" stroke-width="2" stroke-linecap="round" stroke-linejoin="round"/>
<path d="M264.335 119.781C262.305 118.884 260.487 117.57 258.998 115.924C257.509 114.278 256.384 112.337 255.694 110.228C255.403 109.327 255.138 108.314 254.357 107.785C252.861 106.779 250.736 108.228 249.081 107.52C249.228 103.667 249.373 99.8117 249.517 95.9546C251.385 96.5046 253.245 97.0546 255.111 97.6095" stroke="#171717" stroke-width="2" stroke-linecap="round" stroke-linejoin="round"/>
<path d="M257.186 94.2732C257.502 92.1953 258.352 90.2351 259.654 88.5845C260.956 86.9345 262.664 85.6508 264.611 84.8593C264.446 82.6148 264.273 80.3708 264.108 78.1263L271.049 77.2749C271.579 77.1621 272.13 77.194 272.644 77.3673C272.967 77.5422 273.237 77.8012 273.425 78.1169C273.612 78.4332 273.711 78.7939 273.709 79.1613C273.696 79.8972 273.548 80.6238 273.272 81.3064" stroke="#171717" stroke-width="2" stroke-linecap="round" stroke-linejoin="round"/>
<path d="M278.039 449.517C273.094 447.77 266.937 449.054 262.058 451.854C260.552 452.707 259.152 453.736 257.888 454.92C252.863 459.66 250.327 466.671 250.188 473.576C250.153 475.581 250.295 477.586 250.612 479.567C251.432 484.411 253.013 489.094 255.298 493.443" stroke="#171717" stroke-width="2" stroke-linecap="round" stroke-linejoin="round"/>
<path d="M262.204 452.113C268.625 454.721 275.624 454.98 282.621 454.682C285.316 454.572 288.011 454.37 290.67 454.198C292.624 454.066 294.603 453.96 296.582 453.914C302.082 453.762 307.612 454.053 312.729 455.595C314.834 456.217 316.859 457.079 318.767 458.164C323.831 461.07 328.121 466.684 326.81 472.371C325.718 477.111 321.183 480.216 316.728 482.169C314.831 482.997 312.885 483.709 310.902 484.3C305.859 485.78 300.65 486.621 295.398 486.803C291.533 486.959 287.661 486.846 283.812 486.465C281.495 486.24 279.185 485.936 276.887 485.565C268.162 484.161 259.576 481.825 251.037 479.501" stroke="#171717" stroke-width="2" stroke-miterlimit="10" stroke-linecap="round"/>
<path d="M212.606 485.949C210.235 486.998 207.812 487.924 205.346 488.723C201.065 490.107 196.676 491.132 192.225 491.788C190.239 492.085 188.239 492.31 186.24 492.469C183.373 492.737 180.486 492.732 177.62 492.456C175.549 492.248 173.512 491.772 171.563 491.039C166.936 489.266 162.844 485.472 161.851 480.613C160.859 475.754 163.791 470.093 168.637 469.054" stroke="#171717" stroke-width="2" stroke-miterlimit="10" stroke-linecap="round"/>
<path d="M276.894 485.532C275.144 480.409 274.753 474.921 275.76 469.603C276.767 464.284 279.138 459.319 282.641 455.191" stroke="#171717" stroke-width="2" stroke-miterlimit="10" stroke-linecap="round"/>
<path d="M295.364 486.094C289.996 476.654 290.505 464.169 296.622 455.191" stroke="#171717" stroke-width="2" stroke-miterlimit="10" stroke-linecap="round"/>
<path d="M310.889 484.26C308.772 479.769 307.823 474.815 308.128 469.859C308.434 464.903 309.984 460.104 312.637 455.906" stroke="#171717" stroke-width="2" stroke-miterlimit="10" stroke-linecap="round"/>
<path d="M174.075 469.645C174.121 469.797 174.161 469.95 174.207 470.101C176.233 477.156 177.405 484.429 177.696 491.763" stroke="#171717" stroke-width="2" stroke-miterlimit="10" stroke-linecap="round"/>
<path d="M192.215 491.755C191.573 487.088 190.933 482.419 190.295 477.747" stroke="#171717" stroke-width="2" stroke-miterlimit="10" stroke-linecap="round"/>
<path d="M205.218 488.339C205.312 486.726 204.99 485.116 204.283 483.664" stroke="#171717" stroke-width="2" stroke-miterlimit="10" stroke-linecap="round"/>
<path d="M337.645 451.18C337.678 451.186 337.705 451.199 337.738 451.206C341.621 452.37 345.107 454.583 347.814 457.6C350.521 460.618 352.343 464.324 353.08 468.309C353.817 472.296 353.441 476.408 351.992 480.194C350.543 483.98 348.078 487.293 344.868 489.768C344.696 489.901 344.524 490.033 344.345 490.159" stroke="#171717" stroke-width="2" stroke-miterlimit="10" stroke-linecap="round"/>
<path d="M184.675 505.207C176.989 506.134 169.144 506.857 161.557 505.313C153.971 503.769 146.575 499.62 142.815 492.855C141.273 490.076 140.398 486.976 140.261 483.801C140.123 480.626 140.725 477.462 142.022 474.559C143.318 471.657 145.271 469.097 147.727 467.08C150.184 465.063 153.076 463.645 156.175 462.939C156.241 462.919 156.307 462.906 156.374 462.893" stroke="#171717" stroke-width="2" stroke-miterlimit="10" stroke-linecap="round"/>
<path d="M303.971 302.041L252.883 314.188" stroke="#171717" stroke-width="2" stroke-linecap="round" stroke-linejoin="round"/>
<path d="M295.252 314.818L262.853 323.225" stroke="#171717" stroke-width="2" stroke-linecap="round" stroke-linejoin="round"/>
<path d="M226.091 306.092L240.106 409.837" stroke="#171717" stroke-width="2" stroke-linecap="round" stroke-linejoin="round"/>
<path d="M376.196 199.266L369.918 197.251C369.824 197.221 369.722 197.221 369.628 197.249C369.533 197.278 369.45 197.336 369.389 197.414C369.328 197.492 369.292 197.586 369.287 197.685C369.281 197.784 369.307 197.882 369.359 197.966L372.819 203.576C372.869 203.658 372.894 203.752 372.891 203.848C372.888 203.943 372.856 204.035 372.8 204.113L368.945 209.461C368.887 209.541 368.856 209.637 368.854 209.736C368.853 209.834 368.882 209.931 368.937 210.013C368.992 210.095 369.071 210.158 369.162 210.193C369.254 210.229 369.355 210.236 369.451 210.213L375.858 208.656C375.951 208.634 376.048 208.639 376.138 208.672C376.227 208.705 376.305 208.763 376.361 208.84L380.257 214.16C380.315 214.239 380.396 214.299 380.489 214.331C380.583 214.363 380.684 214.366 380.778 214.339C380.874 214.311 380.958 214.256 381.02 214.179C381.083 214.103 381.12 214.009 381.128 213.911L381.626 207.337C381.633 207.242 381.668 207.151 381.727 207.076C381.786 207 381.865 206.944 381.956 206.914L388.219 204.854C388.312 204.823 388.394 204.764 388.454 204.685C388.513 204.606 388.547 204.511 388.551 204.412C388.554 204.313 388.527 204.216 388.474 204.133C388.42 204.05 388.343 203.986 388.251 203.948L382.153 201.442C382.065 201.406 381.99 201.345 381.936 201.265C381.883 201.186 381.854 201.093 381.854 200.997L381.83 194.405C381.829 194.306 381.798 194.209 381.742 194.129C381.685 194.048 381.605 193.987 381.512 193.953C381.419 193.919 381.319 193.914 381.223 193.939C381.128 193.964 381.042 194.018 380.978 194.093L376.711 199.119C376.649 199.191 376.567 199.243 376.475 199.269C376.384 199.295 376.287 199.294 376.196 199.266Z" stroke="#171717" stroke-width="2" stroke-miterlimit="10"/>
<path d="M146.674 91.0199L137.189 93.0786C137.048 93.1099 136.919 93.1836 136.82 93.2903C136.723 93.3965 136.659 93.5307 136.638 93.6742C136.619 93.8178 136.642 93.9635 136.708 94.0933C136.773 94.2226 136.876 94.3293 137.003 94.3986L145.548 99.0004C145.672 99.067 145.773 99.1687 145.839 99.293C145.905 99.4168 145.933 99.5581 145.919 99.6978L144.946 109.355C144.932 109.499 144.962 109.645 145.032 109.772C145.103 109.899 145.211 110.001 145.342 110.065C145.472 110.129 145.62 110.151 145.763 110.129C145.907 110.106 146.04 110.04 146.145 109.94L153.162 103.235C153.264 103.139 153.392 103.074 153.531 103.05C153.669 103.025 153.812 103.042 153.94 103.098L162.824 107.008C162.957 107.066 163.105 107.082 163.247 107.054C163.39 107.026 163.521 106.955 163.621 106.851C163.723 106.746 163.789 106.613 163.812 106.469C163.835 106.326 163.814 106.179 163.751 106.048L159.543 97.3031C159.482 97.1761 159.461 97.0347 159.48 96.8956C159.5 96.7564 159.56 96.6261 159.653 96.521L166.116 89.2803C166.214 89.1719 166.275 89.0361 166.292 88.892C166.31 88.7473 166.282 88.601 166.214 88.4729C166.146 88.3442 166.04 88.2397 165.91 88.1731C165.781 88.1071 165.634 88.0818 165.49 88.1016L155.872 89.4013C155.733 89.42 155.591 89.3974 155.465 89.3353C155.338 89.2737 155.233 89.1763 155.162 89.0548L150.273 80.6706C150.2 80.5452 150.09 80.4451 149.959 80.3835C149.827 80.3224 149.679 80.3032 149.536 80.3285C149.393 80.3538 149.261 80.422 149.158 80.5243C149.055 80.6271 148.986 80.7586 148.959 80.9016L147.223 90.4507C147.198 90.5893 147.132 90.7169 147.034 90.8186C146.937 90.9198 146.811 90.9897 146.674 91.0199Z" stroke="#171717" stroke-width="2" stroke-miterlimit="10"/>
<path d="M121.724 242.85L68.4511 195.651" stroke="#171717" stroke-width="2" stroke-linecap="round" stroke-linejoin="round"/>
<path d="M128.734 233.503L122.659 220.886" stroke="#171717" stroke-width="2" stroke-linecap="round" stroke-linejoin="round"/>
<path d="M139.015 231.167L134.809 184.904" stroke="#171717" stroke-width="2" stroke-linecap="round" stroke-linejoin="round"/>
<path d="M122.659 259.205L110.042 259.673" stroke="#171717" stroke-width="2" stroke-linecap="round" stroke-linejoin="round"/>
<path d="M122.191 273.691L82.9379 304.067" stroke="#171717" stroke-width="2" stroke-linecap="round" stroke-linejoin="round"/>
<path d="M103.95 421.376C99.966 416.564 97.1698 410.882 95.7882 404.79C94.4066 398.698 94.4776 392.366 95.9961 386.306" stroke="url(#paint6_linear_219_773)" stroke-width="2" stroke-linecap="round" stroke-linejoin="round"/>
<path fill-rule="evenodd" clip-rule="evenodd" d="M249.302 435.729C256.425 438.536 272.795 446.705 276.755 448.804C277.187 449.032 277.632 449.234 278.087 449.408L278.04 449.518C273.095 447.771 266.938 449.055 262.059 451.855C260.553 452.708 259.153 453.737 257.889 454.92C252.863 459.661 250.328 466.671 250.189 473.576C250.154 475.582 250.296 477.586 250.613 479.568C251.433 484.411 253.015 489.095 255.299 493.444L255.079 494.907C246.023 493.536 237.013 491.828 228.116 489.71C222.94 488.485 217.806 487.108 212.716 485.579C209.966 484.751 207.234 483.877 204.521 482.957C199.734 481.342 195.008 479.568 190.34 477.634C187.679 476.531 185.037 475.37 182.416 474.152C179.651 472.874 176.915 471.524 174.207 470.1C172.618 469.273 171.036 468.425 169.467 467.545C166.011 465.618 162.622 463.58 159.298 461.428C140.623 449.346 124.231 433.828 112.454 415.034C107.125 406.52 102.663 396.114 106.066 386.66C109.455 377.24 119.974 371.878 129.984 371.619C139.994 371.361 146.813 373.982 155.955 378.074L156.326 378.007L159.576 397.06L231.935 433.869L240.415 438.185L249.247 435.55L249.302 435.729ZM110.962 386.813C111.095 386.282 111.634 385.959 112.166 386.092C112.698 386.225 113.021 386.764 112.888 387.296C112.145 390.261 111.754 392.934 112.002 396.059C112.25 399.196 113.146 402.844 115.05 407.74C117.919 415.117 121.744 419.215 125.222 422.941C126.318 424.114 127.379 425.251 128.365 426.441C128.715 426.864 128.656 427.49 128.233 427.84C127.81 428.189 127.184 428.13 126.835 427.708C125.946 426.634 124.95 425.569 123.896 424.441C120.382 420.681 116.22 416.229 113.199 408.46C111.253 403.456 110.291 399.611 110.022 396.216C109.752 392.808 110.186 389.908 110.962 386.813Z" fill="#171717"/>
<path d="M252.865 265.925C239.339 252.505 237.644 228.897 249.114 213.684C255.05 205.812 264.007 199.954 267.445 190.714C271.778 179.065 265.867 166.188 258.865 155.917C251.863 145.646 243.345 135.552 241.778 123.223" stroke="url(#paint7_linear_219_773)" stroke-width="2" stroke-linecap="round" stroke-linejoin="round"/>
<path d="M209.99 266.368C212.268 258.804 207.204 250.685 200.557 246.416C193.91 242.147 185.927 240.641 178.392 238.276C172.698 236.489 167.085 234.119 162.474 230.332C157.864 226.544 154.32 221.182 153.701 215.247" stroke="url(#paint8_linear_219_773)" stroke-width="2" stroke-linecap="round" stroke-linejoin="round"/>
<path d="M327.511 133.672L338.726 122.456" stroke="url(#paint9_linear_219_773)" stroke-width="2" stroke-linecap="round" stroke-linejoin="round"/>
<path d="M338.195 134.838L329.699 120.868" stroke="url(#paint10_linear_219_773)" stroke-width="2" stroke-linecap="round" stroke-linejoin="round"/>
<path d="M115.743 177.733L103.058 170.372" stroke="url(#paint11_linear_219_773)" stroke-width="2" stroke-linecap="round" stroke-linejoin="round"/>
<path d="M107.33 181.658C108.594 177.066 110.428 172.652 112.79 168.517" stroke="url(#paint12_linear_219_773)" stroke-width="2" stroke-linecap="round" stroke-linejoin="round"/>
<path d="M359.116 174.155C360.986 171.819 362.856 169.482 364.726 167.146" stroke="url(#paint13_linear_219_773)" stroke-width="2" stroke-linecap="round" stroke-linejoin="round"/>
<path d="M366.621 175.065C363.815 171.952 361.008 168.839 358.202 165.726" stroke="url(#paint14_linear_219_773)" stroke-width="2" stroke-linecap="round" stroke-linejoin="round"/>
<path d="M210.045 90.5078C212.481 87.3173 214.231 83.6581 215.186 79.7603" stroke="#171717" stroke-width="2" stroke-linecap="round" stroke-linejoin="round"/>
<path d="M218.367 89.1868C215.56 86.0738 212.753 82.9608 209.947 79.8484" stroke="#171717" stroke-width="2" stroke-linecap="round" stroke-linejoin="round"/>
<path d="M259.234 234.685C262.184 233.207 264.576 230.815 266.054 227.865" stroke="#171717" stroke-width="2" stroke-linecap="round" stroke-linejoin="round"/>
<path d="M266.59 236.308C263.746 233.53 261.516 230.187 260.045 226.494" stroke="#171717" stroke-width="2" stroke-linecap="round" stroke-linejoin="round"/>
<path d="M374.07 358.274L395.098 360.377L378.042 376.966L374.07 358.274Z" stroke="url(#paint15_linear_219_773)" stroke-width="2" stroke-linecap="round" stroke-linejoin="round"/>
<path d="M421.735 367.387L413.791 333.975L436.688 351.499L421.735 367.387Z" stroke="url(#paint16_linear_219_773)" stroke-width="2" stroke-linecap="round" stroke-linejoin="round"/>
<path d="M402.342 303.366L387.855 292.851L400.239 287.244L402.342 303.366Z" stroke="url(#paint17_linear_219_773)" stroke-width="2" stroke-linecap="round" stroke-linejoin="round"/>
<path d="M364.022 310.843L362.853 330.703L348.367 320.422L364.022 310.843Z" stroke="url(#paint18_linear_219_773)" stroke-width="2" stroke-linecap="round" stroke-linejoin="round"/>
<path d="M347.199 280.934L363.789 268.785L343.461 260.841L347.199 280.934Z" stroke="url(#paint19_linear_219_773)" stroke-width="2" stroke-linecap="round" stroke-linejoin="round"/>
<path d="M326.405 256.869L310.283 255.234L320.563 246.589L326.405 256.869Z" stroke="url(#paint20_linear_219_773)" stroke-width="2" stroke-linecap="round" stroke-linejoin="round"/>
<path d="M284.581 253.831L274.3 265.981L265.187 253.364L284.581 253.831Z" stroke="url(#paint21_linear_219_773)" stroke-width="2" stroke-linecap="round" stroke-linejoin="round"/>
<path d="M225.934 256.168L235.514 275.328L213.083 272.524L225.934 256.168Z" stroke="url(#paint22_linear_219_773)" stroke-width="2" stroke-linecap="round" stroke-linejoin="round"/>
<path d="M233.392 268.646C222.22 261.416 215.828 247.437 217.668 234.258C219.391 221.92 227.403 211.532 232.639 200.23C240.681 182.88 241.953 161.742 232.887 144.905C222.739 126.057 201.896 115.445 189.229 98.1903C183.971 90.9429 180.246 82.699 178.282 73.9628C176.318 65.2271 176.156 56.1824 177.806 47.3814C179.097 40.7039 181.554 34.0516 186.188 29.0747C190.823 24.0977 197.936 21.0766 204.562 22.6127C211.187 24.1489 216.543 30.9947 215.221 37.6662" stroke="#171717" stroke-width="2" stroke-linecap="round" stroke-linejoin="round"/>
<path d="M417.365 316.037L427.01 312.882" stroke="#171717" stroke-width="2" stroke-linecap="round" stroke-linejoin="round"/>
<path d="M423.293 318.241C422.713 315.288 421.661 312.448 420.178 309.83" stroke="#171717" stroke-width="2" stroke-linecap="round" stroke-linejoin="round"/>
<path d="M383.298 275.74L389.895 269.879" stroke="#171717" stroke-width="2" stroke-linecap="round" stroke-linejoin="round"/>
<path d="M391.544 276.77C388.471 274.252 385.637 271.455 383.08 268.415" stroke="#171717" stroke-width="2" stroke-linecap="round" stroke-linejoin="round"/>
<path d="M338.432 307.516L346.885 299.77" stroke="#171717" stroke-width="2" stroke-linecap="round" stroke-linejoin="round"/>
<path d="M347.329 308.859L341.119 300.122" stroke="#171717" stroke-width="2" stroke-linecap="round" stroke-linejoin="round"/>
<path d="M242.66 272.47C243.59 270.391 244.52 268.312 245.449 266.233" stroke="#171717" stroke-width="2" stroke-linecap="round" stroke-linejoin="round"/>
<path d="M247.94 271.397C245.023 270.316 242.315 268.738 239.936 266.733" stroke="#171717" stroke-width="2" stroke-linecap="round" stroke-linejoin="round"/>
<path d="M399.927 377.123L405.537 370.269" stroke="#171717" stroke-width="2" stroke-linecap="round" stroke-linejoin="round"/>
<path d="M406.78 378.056C404.391 375.668 402.003 373.279 399.615 370.891" stroke="#171717" stroke-width="2" stroke-linecap="round" stroke-linejoin="round"/>
<path d="M126.121 158.791C124.562 151.188 124.827 143.325 126.894 135.844" stroke="#171717" stroke-width="2" stroke-linecap="round" stroke-linejoin="round"/>
<path d="M309.991 100.375C310.536 96.0563 310.008 91.6695 308.453 87.6034C306.898 83.5372 304.365 79.9171 301.077 77.0637" stroke="#171717" stroke-width="2" stroke-linecap="round" stroke-linejoin="round"/>
<path d="M244.482 114.417C242.788 111.182 241.843 107.609 241.715 103.96C241.588 100.311 242.281 96.6801 243.745 93.335" stroke="#171717" stroke-width="2" stroke-linecap="round" stroke-linejoin="round"/>
<path d="M118.898 152.028C119.373 148.5 119.848 144.972 120.323 141.444" stroke="#171717" stroke-width="2" stroke-linecap="round" stroke-linejoin="round"/>
<path fill-rule="evenodd" clip-rule="evenodd" d="M145.51 484.278C143.643 476.149 148.64 466.569 156.175 462.935C157.077 462.496 158.021 462.147 158.992 461.896L159.303 461.425C162.634 463.577 166.023 465.616 169.472 467.542L168.637 469.052C163.792 470.091 160.859 475.752 161.852 480.611C162.845 485.47 166.936 489.264 171.564 491.037C173.513 491.77 175.549 492.246 177.621 492.454C180.487 492.73 183.374 492.735 186.241 492.467C188.24 492.308 190.239 492.083 192.225 491.786C196.676 491.13 201.065 490.104 205.347 488.721C207.813 487.922 210.236 486.996 212.607 485.946L212.717 485.576C217.814 487.098 222.947 488.475 228.117 489.707L228.037 490.051C216.829 496.982 205.072 501.239 192.143 503.788C189.673 504.28 187.164 504.675 184.649 504.94C177.823 505.661 170.914 505.41 164.424 503.278C155.546 500.365 147.6 493.387 145.51 484.278ZM156.13 470.062C156.563 469.726 157.187 469.805 157.524 470.238C157.86 470.671 157.781 471.295 157.348 471.631C155.588 472.998 154.218 474.803 153.376 476.867C152.535 478.931 152.251 481.179 152.553 483.387C152.628 483.931 152.247 484.431 151.704 484.506C151.16 484.58 150.66 484.2 150.585 483.657C150.236 481.104 150.564 478.503 151.537 476.117C152.51 473.731 154.094 471.643 156.13 470.062Z" fill="url(#paint23_linear_219_773)"/>
</g>
</g>
</g>
<defs>
<linearGradient id="paint0_linear_219_773" x1="231.079" y1="289.506" x2="231.079" y2="438.185" gradientUnits="userSpaceOnUse">
<stop stop-color="#FFB800"/>
<stop offset="1" stop-color="#FF7F0A"/>
</linearGradient>
<linearGradient id="paint1_linear_219_773" x1="182.533" y1="245.187" x2="182.533" y2="433.868" gradientUnits="userSpaceOnUse">
<stop stop-color="#FFB800"/>
<stop offset="1" stop-color="#FF7F0A"/>
</linearGradient>
<linearGradient id="paint2_linear_219_773" x1="188.123" y1="213.688" x2="188.123" y2="226.702" gradientUnits="userSpaceOnUse">
<stop stop-color="#FFB800"/>
<stop offset="1" stop-color="#FF7F0A"/>
</linearGradient>
<linearGradient id="paint3_linear_219_773" x1="185.911" y1="206.101" x2="185.911" y2="216.907" gradientUnits="userSpaceOnUse">
<stop stop-color="#FFB800"/>
<stop offset="1" stop-color="#FF7F0A"/>
</linearGradient>
<linearGradient id="paint4_linear_219_773" x1="302.032" y1="448.72" x2="302.032" y2="498.876" gradientUnits="userSpaceOnUse">
<stop stop-color="#FFB800"/>
<stop offset="1" stop-color="#FF7F0A"/>
</linearGradient>
<linearGradient id="paint5_linear_219_773" x1="284.079" y1="266.212" x2="284.079" y2="434.886" gradientUnits="userSpaceOnUse">
<stop stop-color="#FFB800"/>
<stop offset="1" stop-color="#FF7F0A"/>
</linearGradient>
<linearGradient id="paint6_linear_219_773" x1="99.3764" y1="386.306" x2="99.3764" y2="421.376" gradientUnits="userSpaceOnUse">
<stop stop-color="#FFB800"/>
<stop offset="1" stop-color="#FF7F0A"/>
</linearGradient>
<linearGradient id="paint7_linear_219_773" x1="255.213" y1="123.223" x2="255.213" y2="265.925" gradientUnits="userSpaceOnUse">
<stop stop-color="#FFB800"/>
<stop offset="1" stop-color="#FF7F0A"/>
</linearGradient>
<linearGradient id="paint8_linear_219_773" x1="182.122" y1="215.247" x2="182.122" y2="266.368" gradientUnits="userSpaceOnUse">
<stop stop-color="#FFB800"/>
<stop offset="1" stop-color="#FF7F0A"/>
</linearGradient>
<linearGradient id="paint9_linear_219_773" x1="333.118" y1="122.456" x2="333.118" y2="133.672" gradientUnits="userSpaceOnUse">
<stop stop-color="#FFB800"/>
<stop offset="1" stop-color="#FF7F0A"/>
</linearGradient>
<linearGradient id="paint10_linear_219_773" x1="333.947" y1="120.868" x2="333.947" y2="134.838" gradientUnits="userSpaceOnUse">
<stop stop-color="#FFB800"/>
<stop offset="1" stop-color="#FF7F0A"/>
</linearGradient>
<linearGradient id="paint11_linear_219_773" x1="109.401" y1="170.372" x2="109.401" y2="177.733" gradientUnits="userSpaceOnUse">
<stop stop-color="#FFB800"/>
<stop offset="1" stop-color="#FF7F0A"/>
</linearGradient>
<linearGradient id="paint12_linear_219_773" x1="110.06" y1="168.517" x2="110.06" y2="181.658" gradientUnits="userSpaceOnUse">
<stop stop-color="#FFB800"/>
<stop offset="1" stop-color="#FF7F0A"/>
</linearGradient>
<linearGradient id="paint13_linear_219_773" x1="361.921" y1="167.146" x2="361.921" y2="174.155" gradientUnits="userSpaceOnUse">
<stop stop-color="#FFB800"/>
<stop offset="1" stop-color="#FF7F0A"/>
</linearGradient>
<linearGradient id="paint14_linear_219_773" x1="362.411" y1="165.726" x2="362.411" y2="175.065" gradientUnits="userSpaceOnUse">
<stop stop-color="#FFB800"/>
<stop offset="1" stop-color="#FF7F0A"/>
</linearGradient>
<linearGradient id="paint15_linear_219_773" x1="384.584" y1="358.274" x2="384.584" y2="376.966" gradientUnits="userSpaceOnUse">
<stop stop-color="#FFB800"/>
<stop offset="1" stop-color="#FF7F0A"/>
</linearGradient>
<linearGradient id="paint16_linear_219_773" x1="425.24" y1="333.975" x2="425.24" y2="367.387" gradientUnits="userSpaceOnUse">
<stop stop-color="#FFB800"/>
<stop offset="1" stop-color="#FF7F0A"/>
</linearGradient>
<linearGradient id="paint17_linear_219_773" x1="395.098" y1="287.244" x2="395.098" y2="303.366" gradientUnits="userSpaceOnUse">
<stop stop-color="#FFB800"/>
<stop offset="1" stop-color="#FF7F0A"/>
</linearGradient>
<linearGradient id="paint18_linear_219_773" x1="356.195" y1="310.843" x2="356.195" y2="330.703" gradientUnits="userSpaceOnUse">
<stop stop-color="#FFB800"/>
<stop offset="1" stop-color="#FF7F0A"/>
</linearGradient>
<linearGradient id="paint19_linear_219_773" x1="353.625" y1="260.841" x2="353.625" y2="280.934" gradientUnits="userSpaceOnUse">
<stop stop-color="#FFB800"/>
<stop offset="1" stop-color="#FF7F0A"/>
</linearGradient>
<linearGradient id="paint20_linear_219_773" x1="318.343" y1="246.589" x2="318.343" y2="256.869" gradientUnits="userSpaceOnUse">
<stop stop-color="#FFB800"/>
<stop offset="1" stop-color="#FF7F0A"/>
</linearGradient>
<linearGradient id="paint21_linear_219_773" x1="274.884" y1="253.364" x2="274.884" y2="265.981" gradientUnits="userSpaceOnUse">
<stop stop-color="#FFB800"/>
<stop offset="1" stop-color="#FF7F0A"/>
</linearGradient>
<linearGradient id="paint22_linear_219_773" x1="224.299" y1="256.168" x2="224.299" y2="275.328" gradientUnits="userSpaceOnUse">
<stop stop-color="#FFB800"/>
<stop offset="1" stop-color="#FF7F0A"/>
</linearGradient>
<linearGradient id="paint23_linear_219_773" x1="186.617" y1="461.425" x2="186.617" y2="505.304" gradientUnits="userSpaceOnUse">
<stop stop-color="#FFB800"/>
<stop offset="1" stop-color="#FF7F0A"/>
</linearGradient>
<clipPath id="clip0_219_773">
<rect width="528" height="528" fill="white" transform="matrix(-1 0 0 1 528 0)"/>
</clipPath>
</defs>
</svg>
