<svg width="1322" height="1082" viewBox="0 0 1322 1082" fill="none" xmlns="http://www.w3.org/2000/svg">
<g clip-path="url(#clip0_219_984)">
<mask id="mask0_219_984" style="mask-type:luminance" maskUnits="userSpaceOnUse" x="100" y="-73" width="1390" height="1149">
<path d="M319.021 -72.8704L1489.44 230.316L1270.5 1075.54L100.073 772.357L319.021 -72.8704Z" fill="white"/>
</mask>
<g mask="url(#mask0_219_984)">
<path fill-rule="evenodd" clip-rule="evenodd" d="M804.592 377.766C807.964 382.677 811.759 388.206 815.618 395.145C823.745 409.77 819.21 429.367 815.717 439.929L815.703 439.925C814.377 440.105 749.872 448.002 736.89 380.894C723.783 313.099 742.958 223.982 772.023 207.522C801.088 191.062 856.926 164.484 931.694 213.53C1006.46 262.576 1011.62 320.801 1011.62 320.801C1011.62 320.801 1044.45 528.564 1293.06 423.115C1190.02 532.077 1085.27 541.155 1006.38 522.411C980.539 516.177 955.563 506.789 932.055 494.476C904.79 480.262 885.882 465.649 878.439 458.772C877.541 457.931 876.735 457.003 876.036 456.002C857.962 430.349 893.12 344.96 906.853 314.008C863.852 303.777 822.463 280.846 805.051 270.419C799.154 282.363 791.929 332.213 792.345 348.865C792.648 360.363 797.744 367.787 804.592 377.766ZM838.319 196.025C839.449 196.085 840.329 197.024 840.284 198.12C840.24 199.217 839.288 200.057 838.158 199.995C810.308 198.489 783.662 214.759 767.984 237.325C752.307 259.891 746.294 287.833 744.842 315.531C744.785 316.626 743.822 317.455 742.693 317.382C741.564 317.309 740.695 316.36 740.752 315.264C742.223 287.216 748.322 258.462 764.579 235.064C780.831 211.668 808.696 194.423 838.319 196.025Z" fill="#171717"/>
<path d="M501.884 441.255C501.884 441.255 408.158 440.335 384.791 514.155C363.401 581.737 376.266 584.869 398.733 619.105C398.74 619.084 398.75 619.065 398.762 619.046C399.866 616.233 436.472 523.652 468.867 538.764L490 476.372L501.884 441.255Z" fill="url(#paint0_linear_219_984)"/>
<path d="M661.671 104.378L398.001 194.345L456.98 339.474L693.298 266.33L661.671 104.378ZM523.137 212.869L506.939 204.823L523.152 197.322L525.785 179.986L538.395 192.778L556.215 190.113L547.772 205.516L556.166 221.201L538.357 217.929L525.71 230.284L523.137 212.869Z" fill="url(#paint1_linear_219_984)"/>
<path d="M506.937 204.828L523.135 212.874L525.713 230.287L538.36 217.932L556.169 221.203L547.775 205.518L556.218 190.115L538.396 192.784L525.786 179.992L523.153 197.328L506.937 204.828Z" fill="#171717"/>
<path d="M1176.26 612.461C1175.73 614.507 1174.59 616.343 1172.97 617.74C1171.35 619.134 1169.34 620.027 1167.18 620.302C1165.03 620.578 1162.82 620.225 1160.85 619.287C1158.88 618.35 1157.23 616.87 1156.11 615.035C1154.99 613.201 1154.45 611.094 1154.56 608.981C1154.67 606.868 1155.42 604.843 1156.72 603.164C1158.02 601.484 1159.81 600.226 1161.87 599.545C1163.92 598.866 1166.15 598.796 1168.26 599.345C1169.66 599.711 1170.98 600.338 1172.15 601.194C1173.31 602.05 1174.29 603.119 1175.03 604.336C1175.78 605.555 1176.27 606.898 1176.48 608.293C1176.69 609.687 1176.62 611.104 1176.26 612.461ZM1131.7 611.96C1129.58 611.415 1127.67 610.273 1126.2 608.681C1124.74 607.089 1123.78 605.117 1123.46 603.017C1123.14 600.915 1123.47 598.779 1124.4 596.877C1125.33 594.976 1126.83 593.395 1128.7 592.335C1130.57 591.274 1132.73 590.782 1134.91 590.918C1137.09 591.056 1139.19 591.817 1140.94 593.108C1142.69 594.397 1144.02 596.157 1144.76 598.163C1145.49 600.17 1145.6 602.334 1145.07 604.38C1144.72 605.739 1144.1 607.013 1143.23 608.129C1142.37 609.245 1141.29 610.182 1140.05 610.885C1138.81 611.589 1137.43 612.046 1136 612.23C1134.57 612.415 1133.11 612.322 1131.7 611.959L1131.7 611.96ZM1101.8 604.215C1099.68 603.671 1097.77 602.529 1096.3 600.938C1094.84 599.346 1093.88 597.375 1093.56 595.274C1093.24 593.173 1093.56 591.036 1094.49 589.135C1095.43 587.232 1096.92 585.65 1098.79 584.589C1100.66 583.528 1102.83 583.035 1105.01 583.172C1107.18 583.31 1109.28 584.071 1111.04 585.36C1112.79 586.651 1114.12 588.41 1114.85 590.417C1115.59 592.424 1115.7 594.588 1115.17 596.634C1114.46 599.377 1112.65 601.716 1110.15 603.137C1107.64 604.559 1104.64 604.947 1101.81 604.214L1101.8 604.215ZM1038.83 587.904L610.951 489.074L617.102 465.332L1044.2 567.206L1038.83 587.904ZM508.957 420.361L501.879 441.257L489.994 476.377L492.065 477.061L1194.51 647.201L1211.38 585.266L1049.37 547.229L567.121 434.019L508.957 420.361Z" fill="url(#paint2_linear_219_984)"/>
<path d="M576.021 747.427L552.874 687.44L456.258 733.443L453.814 732.81L443.489 772.668C442.579 776.183 443.149 779.926 445.075 783.078C447.001 786.229 450.123 788.528 453.757 789.469L651.396 840.665C655.029 841.607 658.875 841.113 662.089 839.293C665.302 837.473 667.619 834.478 668.53 830.962L680.31 785.484L643.089 692.592L576.021 747.427Z" fill="#171717"/>
<path d="M499.964 670.58C498.976 676.537 485.81 674.884 469.922 670.62L453.813 732.809L456.257 733.442L552.873 687.438L576.022 747.426L643.089 692.591L680.31 785.485L722.192 623.802C723.103 620.287 722.532 616.542 720.607 613.392C718.681 610.241 715.557 607.942 711.925 607L514.285 555.803C510.65 554.863 506.805 555.356 503.591 557.176C500.378 558.995 498.061 561.992 497.151 565.507L490.042 592.952L489.765 593.537C500.888 598.794 509.281 604.375 508.105 608.915C506.907 613.542 496.947 613.967 484.919 612.689L484.906 612.795L483.205 619.358L482.955 619.949C495.434 625.811 505.194 632.271 503.27 637.649C501.466 642.737 490.53 642.762 477.555 640.796L477.414 641.715L475.482 649.174L475.278 649.537C489.347 657.001 500.893 664.931 499.964 670.58ZM598.298 638.561C599.479 633.992 602.034 629.887 605.641 626.767C609.247 623.645 613.743 621.649 618.56 621.028C623.376 620.409 628.298 621.193 632.7 623.283C637.103 625.374 640.789 628.675 643.294 632.771C645.798 636.866 647.008 641.57 646.77 646.29C646.531 651.01 644.856 655.532 641.956 659.285C639.055 663.038 635.059 665.854 630.474 667.375C625.89 668.896 620.921 669.055 616.198 667.831C613.062 667.02 610.112 665.621 607.516 663.71C604.919 661.801 602.727 659.418 601.065 656.7C599.402 653.981 598.303 650.981 597.828 647.868C597.353 644.756 597.513 641.593 598.298 638.561Z" fill="url(#paint3_linear_219_984)"/>
<path d="M786.239 447.347L783.787 456.065L783.243 455.91C783.243 455.91 684.273 427.898 567.128 434.007L567.125 434.019L1049.38 547.229C1049.38 547.229 1012.49 524.055 1006.37 522.469L1006.38 522.403C980.539 516.168 955.563 506.781 932.056 494.468C904.796 480.255 885.883 465.641 878.433 458.762C877.536 457.921 876.73 456.992 876.03 455.992L812.621 449.884L786.239 447.347Z" fill="url(#paint4_linear_219_984)"/>
<path d="M745.674 695.56L784.465 705.609C789.972 707.035 793.317 712.509 791.937 717.835L790.497 723.393C789.118 728.718 783.536 731.88 778.03 730.453L739.239 720.405C733.734 718.979 730.388 713.504 731.767 708.179L733.207 702.621C734.586 697.295 740.169 694.134 745.674 695.56Z" fill="url(#paint5_linear_219_984)"/>
<path d="M995.923 709.991L1011.43 734.642L999.513 760.711L1028.2 754.377L1050.22 773.847L1052.46 745.273L1077.99 731.249L1050.67 719.919L1044.42 691.787L1025.31 713.35L995.923 709.991Z" fill="#171717"/>
<path d="M1313.87 303.055L1213.67 168.192L1186.66 187.493L1188.97 190.519L1285.27 319.435L1313.87 303.055Z" fill="url(#paint6_linear_219_984)"/>
<path d="M1123.69 598.842C1123.16 600.887 1123.27 603.049 1124 605.053C1124.74 607.058 1126.07 608.815 1127.82 610.103C1129.57 611.392 1131.66 612.152 1133.84 612.291C1136.02 612.429 1138.18 611.937 1140.05 610.879C1141.92 609.819 1143.41 608.241 1144.34 606.341C1145.28 604.443 1145.6 602.31 1145.29 600.21C1144.97 598.111 1144.02 596.14 1142.55 594.549C1141.09 592.957 1139.18 591.814 1137.07 591.265C1135.66 590.9 1134.2 590.807 1132.77 590.99C1131.33 591.173 1129.96 591.629 1128.71 592.334C1127.47 593.037 1126.39 593.974 1125.52 595.091C1124.66 596.208 1124.04 597.483 1123.69 598.842Z" fill="url(#paint7_linear_219_984)"/>
<path d="M1228.49 303.196L1217.37 309.857L1229.72 314.464L1232.97 326.887L1241.12 316.975L1254.24 317.999L1246.92 307.261L1251.77 295.462L1239.11 298.745L1228.99 290.433L1228.49 303.196Z" fill="#171717"/>
<path d="M1154.88 606.923C1154.36 608.969 1154.47 611.13 1155.2 613.134C1155.94 615.139 1157.26 616.896 1159.01 618.184C1160.76 619.473 1162.86 620.233 1165.04 620.372C1167.22 620.51 1169.37 620.019 1171.25 618.96C1173.11 617.902 1174.61 616.322 1175.54 614.424C1176.48 612.525 1176.8 610.391 1176.48 608.293C1176.16 606.193 1175.21 604.223 1173.75 602.631C1172.29 601.038 1170.38 599.896 1168.26 599.347C1166.86 598.982 1165.4 598.889 1163.97 599.071C1162.53 599.255 1161.16 599.711 1159.91 600.416C1158.67 601.119 1157.59 602.056 1156.72 603.173C1155.86 604.29 1155.24 605.564 1154.88 606.923Z" fill="#171717"/>
<path d="M1155 792.284C1081.75 840.916 894.677 783.561 879.521 789.109C877.191 789.967 875.012 792.113 873.093 795.233C865.53 807.523 861.891 834.944 868.438 858.403C870.767 867.574 875.251 876.128 881.538 883.388C898.065 901.57 1018.29 945.848 1113.94 942.623C1168.19 940.791 1214.53 923.692 1229.58 877.894C1271.19 751.33 1185.37 680.802 1185.37 680.802L1155 792.284Z" fill="url(#paint8_linear_219_984)"/>
<path d="M455.423 578.473L468.871 538.765L489.999 476.375L501.884 441.255L508.961 420.36L567.124 434.017L1049.38 547.227L1211.39 585.265L1194.51 647.2L1185.37 680.801L1155 792.282L1154.48 794.199" stroke="#171717" stroke-width="3" stroke-linecap="round" stroke-linejoin="round"/>
<path d="M1113.95 943.043L1091.38 1025.83L375.695 813.912L428.411 658.23" stroke="#171717" stroke-width="3" stroke-linecap="round" stroke-linejoin="round"/>
<path d="M1285.27 319.435L1193.15 372.184L1111.54 241.171L1186.66 187.493L1213.67 168.192L1313.87 303.055L1285.27 319.435Z" stroke="#171717" stroke-width="3" stroke-linecap="round" stroke-linejoin="round"/>
<path d="M661.671 104.378L693.293 266.329L456.98 339.474L398.001 194.345L385.216 162.898L654.153 65.8695L661.671 104.378Z" stroke="#171717" stroke-width="3" stroke-linecap="round" stroke-linejoin="round"/>
<path d="M815.71 439.928C819.209 429.362 823.744 409.768 815.616 395.144C803.92 374.109 792.795 366.021 792.344 348.865C791.927 332.213 799.152 282.362 805.05 270.418C805.227 270.054 805.413 269.707 805.591 269.418" stroke="#171717" stroke-width="3" stroke-linecap="round" stroke-linejoin="round"/>
<path d="M812.832 447.447C812.832 447.447 814.166 444.545 815.697 439.924" stroke="#171717" stroke-width="3" stroke-linecap="round" stroke-linejoin="round"/>
<path d="M796.436 265.061C796.436 265.061 799.538 267.113 805.05 270.418C822.462 280.846 863.851 303.776 906.851 314.008C909.711 314.695 912.587 315.319 915.454 315.874" stroke="#171717" stroke-width="3" stroke-linecap="round" stroke-linejoin="round"/>
<path d="M1293.05 423.114C1190.02 532.071 1085.27 541.149 1006.38 522.409C980.532 516.175 955.556 506.787 932.048 494.475C904.789 480.262 885.875 465.648 878.426 458.768C877.529 457.928 876.722 457 876.022 455.999C857.943 430.344 893.107 344.956 906.839 314.005C909.98 306.915 912.007 302.678 912.007 302.678" stroke="#171717" stroke-width="3" stroke-linecap="round" stroke-linejoin="round"/>
<path d="M815.71 439.927L815.697 439.924C814.378 440.105 749.865 448.001 736.884 380.892C723.777 313.096 742.933 223.99 772.016 207.52C801.099 191.05 856.916 164.48 931.687 213.528C1006.46 262.576 1011.61 320.799 1011.61 320.799C1011.61 320.799 1044.45 528.562 1293.05 423.114" stroke="#171717" stroke-width="3" stroke-linecap="round" stroke-linejoin="round"/>
<path d="M1185.37 680.802C1185.37 680.802 1271.19 751.334 1229.58 877.894C1214.53 923.692 1168.19 940.791 1113.94 942.623C1018.29 945.848 898.065 901.57 881.538 883.388C875.251 876.128 870.767 867.574 868.438 858.403C861.891 834.944 865.527 807.522 873.093 795.233C875.013 792.108 877.192 789.962 879.521 789.109C894.677 783.561 1081.75 840.916 1155 792.284" stroke="#171717" stroke-width="3" stroke-linecap="round" stroke-linejoin="round"/>
<path d="M501.884 441.255C501.884 441.255 408.158 440.335 384.791 514.155C363.401 581.737 376.266 584.869 398.733 619.105C398.74 619.084 398.75 619.065 398.762 619.046C399.866 616.233 436.472 523.652 468.867 538.764" stroke="#171717" stroke-width="3" stroke-linecap="round" stroke-linejoin="round"/>
<path d="M876.036 455.997L812.629 449.889L786.239 447.346L783.787 456.064L781.088 465.627" stroke="#171717" stroke-width="3" stroke-linecap="round" stroke-linejoin="round"/>
<path d="M932.058 494.458L932.055 494.471L929.482 504.404" stroke="#171717" stroke-width="3" stroke-linecap="round" stroke-linejoin="round"/>
<path d="M1049.38 547.227C1049.38 547.227 1012.49 524.054 1006.37 522.468" stroke="#171717" stroke-width="3" stroke-linecap="round" stroke-linejoin="round"/>
<path d="M783.244 455.909C783.244 455.909 684.274 427.897 567.128 434.006" stroke="#171717" stroke-width="3" stroke-linecap="round" stroke-linejoin="round"/>
<path d="M834.441 806.398C828.462 803.775 759.785 773.843 756.557 786.304C753.186 799.316 817.564 820.408 817.564 820.408C817.564 820.408 752.268 800.34 750.121 811.148C747.974 821.957 868.436 858.408 868.436 858.408" stroke="#171717" stroke-width="3" stroke-linecap="round" stroke-linejoin="round"/>
<path d="M834.851 806.584C834.833 806.578 834.817 806.568 834.802 806.557C834.754 806.539 834.709 806.518 834.665 806.495" stroke="#171717" stroke-width="3" stroke-linecap="round" stroke-linejoin="round"/>
<path d="M834.665 806.495C834.708 806.518 834.754 806.539 834.802 806.557" stroke="#171717" stroke-width="3" stroke-linecap="round" stroke-linejoin="round"/>
<path d="M834.665 806.495C834.587 806.473 834.511 806.44 834.442 806.397" stroke="#171717" stroke-width="3" stroke-linecap="round" stroke-linejoin="round"/>
<path d="M873.092 795.237C873.092 795.237 880.534 746.434 867.804 742.506C855.074 738.579 850.152 792.87 850.152 792.87C850.152 792.87 777.222 754.402 773.698 765.484C770.339 776.045 828.961 803.831 834.441 806.403" stroke="#171717" stroke-width="3" stroke-linecap="round" stroke-linejoin="round"/>
<path d="M428.552 628.711C428.592 628.722 428.631 628.736 428.667 628.754C430.59 629.359 456.698 637.655 477.55 640.799C490.525 642.765 501.461 642.74 503.265 637.652C505.185 632.273 495.428 625.814 482.949 619.954C463.902 611.021 438.517 603.524 438.517 603.524C438.517 603.524 464.65 610.548 484.913 612.697C496.941 613.975 506.9 613.55 508.099 608.923C509.275 604.383 500.885 598.803 489.759 593.546C478.401 588.402 466.758 583.898 454.885 580.057C447.726 577.693 442.809 576.232 442.809 576.232" stroke="#171717" stroke-width="3" stroke-linecap="round" stroke-linejoin="round"/>
<path d="M399.878 619.402C399.878 619.402 396.199 644.961 414.167 651.508C417.689 652.796 424.286 655.337 432.331 658.293C443.554 662.421 457.558 667.31 469.92 670.62C485.808 674.883 498.974 676.536 499.962 670.58C500.898 664.932 489.35 657.003 475.272 649.533C455.438 639.027 430.591 629.486 428.662 628.751" stroke="#171717" stroke-width="3" stroke-linecap="round" stroke-linejoin="round"/>
<path d="M1194.51 647.2L492.069 477.06" stroke="#171717" stroke-width="3" stroke-linecap="round" stroke-linejoin="round"/>
<path d="M1044.2 567.207L1038.84 587.904L610.957 489.073L617.107 465.333L1044.2 567.207Z" stroke="#171717" stroke-width="3" stroke-linecap="round" stroke-linejoin="round"/>
<path d="M1154.88 606.923C1154.36 608.969 1154.47 611.13 1155.2 613.134C1155.94 615.139 1157.26 616.896 1159.01 618.184C1160.76 619.473 1162.86 620.233 1165.04 620.372C1167.22 620.51 1169.37 620.019 1171.25 618.96C1173.11 617.902 1174.61 616.322 1175.54 614.424C1176.48 612.525 1176.8 610.391 1176.48 608.293C1176.16 606.193 1175.21 604.223 1173.75 602.631C1172.29 601.038 1170.38 599.896 1168.26 599.347C1166.86 598.982 1165.4 598.889 1163.97 599.071C1162.53 599.255 1161.16 599.711 1159.91 600.416C1158.67 601.119 1157.59 602.056 1156.72 603.173C1155.86 604.29 1155.24 605.564 1154.88 606.923Z" stroke="#171717" stroke-width="3" stroke-linecap="round" stroke-linejoin="round"/>
<path d="M1123.69 598.842C1123.16 600.887 1123.27 603.049 1124 605.053C1124.74 607.058 1126.07 608.815 1127.82 610.103C1129.57 611.392 1131.66 612.152 1133.84 612.291C1136.02 612.429 1138.18 611.937 1140.05 610.879C1141.92 609.819 1143.41 608.241 1144.34 606.341C1145.28 604.443 1145.6 602.31 1145.29 600.21C1144.97 598.111 1144.02 596.14 1142.55 594.549C1141.09 592.957 1139.18 591.814 1137.07 591.265C1135.66 590.9 1134.2 590.807 1132.77 590.99C1131.33 591.173 1129.96 591.629 1128.71 592.334C1127.47 593.037 1126.39 593.974 1125.52 595.091C1124.66 596.208 1124.04 597.483 1123.69 598.842Z" stroke="#171717" stroke-width="3" stroke-linecap="round" stroke-linejoin="round"/>
<path d="M1093.79 591.097C1093.26 593.142 1093.37 595.303 1094.11 597.307C1094.84 599.31 1096.17 601.069 1097.92 602.356C1099.67 603.644 1101.77 604.404 1103.94 604.542C1106.12 604.681 1108.28 604.189 1110.15 603.131C1112.02 602.072 1113.51 600.493 1114.44 598.595C1115.38 596.697 1115.71 594.563 1115.39 592.464C1115.07 590.366 1114.12 588.396 1112.65 586.804C1111.19 585.211 1109.28 584.069 1107.17 583.52C1105.76 583.155 1104.3 583.062 1102.87 583.245C1101.44 583.428 1100.06 583.885 1098.82 584.589C1097.57 585.292 1096.49 586.229 1095.63 587.346C1094.76 588.463 1094.14 589.738 1093.79 591.097Z" stroke="#171717" stroke-width="3" stroke-linecap="round" stroke-linejoin="round"/>
<path d="M1014.84 646.585L636.349 548.539" stroke="#171717" stroke-width="3" stroke-linecap="round" stroke-linejoin="round"/>
<path d="M933.245 697.807L748.525 649.863" stroke="#171717" stroke-width="3" stroke-linecap="round" stroke-linejoin="round"/>
<path d="M853.952 699.861L745.149 671.033" stroke="#171717" stroke-width="3" stroke-linecap="round" stroke-linejoin="round"/>
<path d="M1044.42 691.787L1025.31 713.35L995.923 709.991L1011.43 734.642L999.513 760.711L1028.2 754.377L1050.22 773.847L1052.46 745.273L1077.99 731.249L1050.67 719.919L1044.42 691.787Z" stroke="#171717" stroke-width="3" stroke-linecap="round" stroke-linejoin="round"/>
<path d="M745.674 695.56L784.465 705.609C789.972 707.035 793.317 712.509 791.937 717.835L790.497 723.393C789.118 728.718 783.536 731.88 778.03 730.453L739.239 720.405C733.734 718.979 730.388 713.504 731.767 708.179L733.207 702.621C734.586 697.295 740.169 694.134 745.674 695.56Z" stroke="#171717" stroke-width="3" stroke-linecap="round" stroke-linejoin="round"/>
<path d="M469.675 671.576L443.488 772.666C442.578 776.182 443.148 779.926 445.074 783.076C447 786.228 450.122 788.526 453.756 789.467L651.396 840.664C655.029 841.605 658.876 841.112 662.089 839.292C665.302 837.473 667.619 834.476 668.53 830.961L722.192 623.802C723.103 620.287 722.532 616.542 720.607 613.392C718.681 610.241 715.557 607.942 711.925 607L514.285 555.803C510.65 554.863 506.805 555.356 503.591 557.176C500.378 558.995 498.061 561.992 497.151 565.507L490.042 592.952" stroke="#171717" stroke-width="3" stroke-linecap="round" stroke-linejoin="round"/>
<path d="M484.901 612.795L483.201 619.359" stroke="#171717" stroke-width="3" stroke-linecap="round" stroke-linejoin="round"/>
<path d="M661.67 104.378L398 194.345" stroke="#171717" stroke-width="3" stroke-linecap="round" stroke-linejoin="round"/>
<path d="M606.618 226.087L505.538 260.992" stroke="#171717" stroke-width="3" stroke-linecap="round" stroke-linejoin="round"/>
<path d="M580.024 255.653L546.595 266.568" stroke="#171717" stroke-width="3" stroke-linecap="round" stroke-linejoin="round"/>
<path d="M1285.27 319.437L1188.97 190.521" stroke="#171717" stroke-width="3" stroke-linecap="round" stroke-linejoin="round"/>
<path d="M1209.38 271.737L1178.58 230.607" stroke="#171717" stroke-width="3" stroke-linecap="round" stroke-linejoin="round"/>
<path d="M1202.14 299.686L1159.84 239.957" stroke="#171717" stroke-width="3" stroke-linecap="round" stroke-linejoin="round"/>
<path d="M1165.14 282.522L1150.71 261.972" stroke="#171717" stroke-width="3" stroke-linecap="round" stroke-linejoin="round"/>
<path d="M824.363 297.169L822.41 307.706" stroke="#171717" stroke-width="3" stroke-linecap="round" stroke-linejoin="round"/>
<path d="M873.738 309.892L871.671 320.546" stroke="#171717" stroke-width="3" stroke-linecap="round" stroke-linejoin="round"/>
<path d="M828.763 329.879C828.763 329.879 821.253 352.554 823.317 355.937C825.381 359.319 837.398 357.062 837.398 357.062" stroke="#171717" stroke-width="3" stroke-linecap="round" stroke-linejoin="round"/>
<path d="M866.132 388.465C866.132 388.465 860.239 399.913 851.213 401.989C842.187 404.065 835.554 395.719 835.554 395.719" stroke="#171717" stroke-width="3" stroke-linecap="round" stroke-linejoin="round"/>
<path d="M525.786 179.992L523.153 197.328L506.937 204.828L523.135 212.874L525.713 230.287L538.36 217.932L556.169 221.203L547.775 205.518L556.218 190.115L538.396 192.784L525.786 179.992Z" stroke="#171717" stroke-width="3" stroke-linecap="round" stroke-linejoin="round"/>
<path d="M1228.99 290.433L1228.49 303.196L1217.37 309.857L1229.72 314.464L1232.97 326.887L1241.12 316.975L1254.24 317.999L1246.92 307.261L1251.77 295.462L1239.11 298.745L1228.99 290.433Z" stroke="#171717" stroke-width="3" stroke-linecap="round" stroke-linejoin="round"/>
<path d="M630.205 101.017C626.996 100.186 625.046 96.9944 625.85 93.8914C626.654 90.7871 629.908 88.9446 633.117 89.7759C636.326 90.6073 638.276 93.7977 637.472 96.902C636.668 100.005 633.414 101.849 630.205 101.017Z" stroke="#171717" stroke-width="3" stroke-linecap="round" stroke-linejoin="round"/>
<path d="M477.41 641.715L475.479 649.171" stroke="#171717" stroke-width="3" stroke-linecap="round" stroke-linejoin="round"/>
<path d="M680.31 785.484L643.09 692.589L576.02 747.427L552.872 687.44L456.257 733.443" stroke="#171717" stroke-width="3" stroke-linecap="round" stroke-linejoin="round"/>
<path d="M598.298 638.562C597.114 643.13 597.357 647.958 598.997 652.436C600.638 656.915 603.6 660.842 607.511 663.72C611.421 666.598 616.105 668.301 620.967 668.609C625.83 668.918 630.656 667.82 634.832 665.455C639.008 663.089 642.348 659.562 644.43 655.321C646.513 651.079 647.243 646.313 646.529 641.624C645.815 636.935 643.688 632.535 640.419 628.98C637.149 625.424 632.883 622.874 628.161 621.65C625.024 620.836 621.764 620.629 618.565 621.038C615.367 621.448 612.293 622.466 609.52 624.037C606.747 625.608 604.327 627.699 602.402 630.192C600.476 632.684 599.082 635.528 598.298 638.562Z" stroke="#171717" stroke-width="3" stroke-linecap="round" stroke-linejoin="round"/>
<path d="M1331.07 502.301C1324.26 516.405 1314.56 528.944 1306.01 542.106C1297.46 555.268 1289.87 569.517 1288.01 585.06C1286.14 600.603 1290.94 617.74 1303.51 627.767C1316.07 637.794 1336.92 637.998 1347 625.914C1357.08 613.83 1349.66 591.316 1333.6 589.411C1324.89 588.383 1316.3 593.166 1311.18 599.992C1306.06 606.819 1303.94 615.39 1303.1 623.848C1301.73 637.582 1303.8 652.467 1312.93 663.213C1320.01 671.539 1330.41 676.378 1339.24 682.924C1347.68 689.174 1354.97 697.413 1357.99 707.257C1361 717.101 1359.08 728.649 1351.5 735.634C1343.93 742.619 1330.49 743.426 1323 736.121C1315.51 728.816 1317.61 714.209 1327.46 710.756" stroke="#171717" stroke-width="3" stroke-linecap="round" stroke-linejoin="round"/>
<path d="M332.423 332.349C340.774 352.717 344.031 374.649 341.925 396.321C339.936 416.543 332.009 437.757 314.275 448.3C302.429 455.344 286.576 456.475 274.313 449.743C262.05 443.012 254.625 428.048 258.423 415.031C262.222 402.014 277.946 393.232 291.188 397.827C305.247 402.698 311.757 419.827 308.467 433.839C305.178 447.852 294.542 459.022 283.158 468.107C271.773 477.192 259.143 485.002 249.479 495.805C241.136 505.137 235.168 516.907 234.854 529.356C234.54 541.804 240.551 554.816 251.574 561.348C262.598 567.879 278.466 566.417 286.432 556.778C294.398 547.14 291.353 530.234 279.681 524.886" stroke="#171717" stroke-width="3" stroke-linecap="round" stroke-linejoin="round"/>
<path d="M351.906 558.6C347.537 533.628 352.779 508.119 366.628 486.954" stroke="#171717" stroke-width="3" stroke-linecap="round" stroke-linejoin="round"/>
<path d="M272.255 343.576L248.203 327.071" stroke="#171717" stroke-width="3" stroke-linecap="round" stroke-linejoin="round"/>
<path d="M390.492 256.087C375.087 233.242 366.162 206.92 364.637 179.83" stroke="#171717" stroke-width="3" stroke-linecap="round" stroke-linejoin="round"/>
<path d="M236.983 349.734L214.945 338.386" stroke="#171717" stroke-width="3" stroke-linecap="round" stroke-linejoin="round"/>
<path d="M726.043 145.579L747.045 126.87" stroke="#171717" stroke-width="3" stroke-linecap="round" stroke-linejoin="round"/>
<path d="M744.625 147.549L726.053 122.849" stroke="#171717" stroke-width="3" stroke-linecap="round" stroke-linejoin="round"/>
<path d="M677.086 300.662C683.431 300.903 689.708 299.562 695.318 296.767C700.928 293.971 705.682 289.815 709.13 284.692" stroke="#171717" stroke-width="3" stroke-linecap="round" stroke-linejoin="round"/>
<path d="M1017.55 216.678L1039.9 226.769" stroke="#171717" stroke-width="3" stroke-linecap="round" stroke-linejoin="round"/>
<path d="M1026.1 233.211L1035.14 209.987" stroke="#171717" stroke-width="3" stroke-linecap="round" stroke-linejoin="round"/>
<path d="M988.98 122.769L978.668 100.209" stroke="#171717" stroke-width="3" stroke-linecap="round" stroke-linejoin="round"/>
<path d="M974.31 117.726L995.061 106.188" stroke="#171717" stroke-width="3" stroke-linecap="round" stroke-linejoin="round"/>
<path d="M1292.92 345.176L1318.06 327.549" stroke="#171717" stroke-width="3" stroke-linecap="round" stroke-linejoin="round"/>
<path d="M1292.19 715.585L1300.46 706.36" stroke="#171717" stroke-width="3" stroke-linecap="round" stroke-linejoin="round"/>
<path d="M1304.46 718.894L1290.63 704.033" stroke="#171717" stroke-width="3" stroke-linecap="round" stroke-linejoin="round"/>
<path d="M1235.05 910.661C1252.42 892.079 1262.47 868.097 1263.49 842.838" stroke="#171717" stroke-width="3" stroke-linecap="round" stroke-linejoin="round"/>
<path d="M797.241 469.464L799.207 460.029" stroke="#171717" stroke-width="3" stroke-linecap="round" stroke-linejoin="round"/>
<path d="M817.943 475.292L820.24 464.521" stroke="#171717" stroke-width="3" stroke-linecap="round" stroke-linejoin="round"/>
<path d="M846.196 481.195L849.07 470.101" stroke="#171717" stroke-width="3" stroke-linecap="round" stroke-linejoin="round"/>
<path d="M872.807 486.193C872.787 482.014 873.528 477.878 874.993 473.973" stroke="#171717" stroke-width="3" stroke-linecap="round" stroke-linejoin="round"/>
<path d="M894.629 492.329L896.017 481.321" stroke="#171717" stroke-width="3" stroke-linecap="round" stroke-linejoin="round"/>
<path d="M916.463 902.236C900.126 867.729 897.355 828.79 908.68 792.86" stroke="#171717" stroke-width="3" stroke-linecap="round" stroke-linejoin="round"/>
<path d="M953.905 876.611L961.86 866.752" stroke="#171717" stroke-width="3" stroke-linecap="round" stroke-linejoin="round"/>
<path d="M960.592 828.245C958.426 825.476 955.567 823.288 952.296 821.894" stroke="#171717" stroke-width="3" stroke-linecap="round" stroke-linejoin="round"/>
<path d="M1011.77 904.814L1003.05 898.137" stroke="#171717" stroke-width="3" stroke-linecap="round" stroke-linejoin="round"/>
<path d="M1009.24 858.8L1002.37 849.579" stroke="#171717" stroke-width="3" stroke-linecap="round" stroke-linejoin="round"/>
<path d="M1038.17 840.21L1047.57 833.71" stroke="#171717" stroke-width="3" stroke-linecap="round" stroke-linejoin="round"/>
<path d="M1043.3 890.771L1051.89 882.914" stroke="#171717" stroke-width="3" stroke-linecap="round" stroke-linejoin="round"/>
<path d="M1081.13 922.067L1073.19 912.426" stroke="#171717" stroke-width="3" stroke-linecap="round" stroke-linejoin="round"/>
<path d="M1090.38 866.273L1082.28 859.709L1083.22 858.284" stroke="#171717" stroke-width="3" stroke-linecap="round" stroke-linejoin="round"/>
<path d="M1092.04 823.993C1093.81 829.175 1096.89 833.86 1101 837.612" stroke="#171717" stroke-width="3" stroke-linecap="round" stroke-linejoin="round"/>
<path d="M1118.92 899.018C1122.64 896.901 1125.64 893.801 1127.6 890.074" stroke="#171717" stroke-width="3" stroke-linecap="round" stroke-linejoin="round"/>
<path d="M1137.72 856.177L1145.71 846.736" stroke="#171717" stroke-width="3" stroke-linecap="round" stroke-linejoin="round"/>
<path d="M1183.5 889.357L1177.06 881.4" stroke="#171717" stroke-width="3" stroke-linecap="round" stroke-linejoin="round"/>
<path d="M1172.46 828.049L1162.6 818.456" stroke="#171717" stroke-width="3" stroke-linecap="round" stroke-linejoin="round"/>
<path d="M1208.99 840.958L1216.28 827.678" stroke="#171717" stroke-width="3" stroke-linecap="round" stroke-linejoin="round"/>
<path d="M1193.16 786.967C1191.8 781.637 1189.28 776.637 1185.76 772.305L1186.91 770.927" stroke="#171717" stroke-width="3" stroke-linecap="round" stroke-linejoin="round"/>
<path d="M1197.34 740.936L1210.27 735.232" stroke="#171717" stroke-width="3" stroke-linecap="round" stroke-linejoin="round"/>
<path d="M405.805 550.222L396.022 540.11" stroke="#171717" stroke-width="3" stroke-linecap="round" stroke-linejoin="round"/>
<path d="M420.176 499.63L427.227 485.709" stroke="#171717" stroke-width="3" stroke-linecap="round" stroke-linejoin="round"/>
<path d="M443.624 512.834L455.553 512.052" stroke="#171717" stroke-width="3" stroke-linecap="round" stroke-linejoin="round"/>
<path d="M386.547 598.876C394.981 581.132 407.213 565.382 422.438 552.66C429.021 547.168 436.841 542.051 445.588 542.331" stroke="#171717" stroke-width="3" stroke-linecap="round" stroke-linejoin="round"/>
<path d="M691.458 454.846L684.806 448.39" stroke="#171717" stroke-width="3" stroke-linecap="round" stroke-linejoin="round"/>
<path d="M729.826 461.451L729.198 462.629C733.065 459.605 737.05 456.731 741.153 454.006" stroke="#171717" stroke-width="3" stroke-linecap="round" stroke-linejoin="round"/>
<path d="M774.168 474.671C772.841 472.114 770.753 469.996 768.18 468.596" stroke="#171717" stroke-width="3" stroke-linecap="round" stroke-linejoin="round"/>
<path d="M947.465 517.365L961.172 513.993" stroke="#171717" stroke-width="3" stroke-linecap="round" stroke-linejoin="round"/>
<path d="M630.022 447.807C632.871 446.474 635.468 444.696 637.712 442.54" stroke="#171717" stroke-width="3" stroke-linecap="round" stroke-linejoin="round"/>
<path d="M459.382 473.808C462.153 474.745 465.105 475.023 467.986 474.617" stroke="#171717" stroke-width="3" stroke-linecap="round" stroke-linejoin="round"/>
<g opacity="0.1">
<path d="M808.544 265.949C816.571 268.9 823.263 273.678 830.66 277.875C837.559 281.788 844.656 285.386 851.825 288.79C866.286 295.513 881.395 300.787 896.915 304.529C905.636 306.718 910.575 317.211 905.8 324.772C894.104 343.329 886.35 364.014 882.989 385.631C881.409 396.164 880.961 406.847 881.654 417.507C882.305 428.767 885.597 439.523 886.649 450.667C887.29 457.466 881.129 463.605 874.546 464.383C866.915 465.284 861.607 461.001 858.681 454.428C853.825 443.524 853.053 429.412 852.393 417.715C851.762 404.885 852.462 392.047 854.485 379.396C858.294 354.905 867.38 331.551 881.152 310.85L890.036 331.094C872.82 325.992 856.128 319.286 840.194 311.068C825.308 303.408 807.484 293.666 797.492 280.254C792.545 273.614 800.532 263.003 808.544 265.949Z" fill="#171717"/>
</g>
<g opacity="0.1">
<path d="M1194.47 685.473C1210.37 695.212 1218.14 717.472 1224.33 733.821C1230.84 751.335 1235.37 769.458 1237.84 787.866C1240.37 806.178 1240.64 824.684 1238.62 842.986C1236.52 862.352 1232.31 881.892 1222.14 898.804C1201.54 933.045 1162.72 943.449 1124.04 945.403C1081.8 947.36 1039.39 943.133 998.241 932.863C974.755 926.984 951.773 919.251 929.527 909.744C918.458 905.055 907.607 899.908 896.972 894.302C886.098 888.563 874.45 882.854 865.644 874.272C856.298 865.164 865.223 846.089 879.031 851.24C888.923 854.93 897.463 860.488 906.68 865.524C915.399 870.287 924.281 874.742 933.33 878.889C950.18 886.572 967.557 893.079 985.326 898.361C1022.19 909.468 1060.43 915.378 1098.86 915.904C1129.28 916.268 1167.19 916.32 1189.04 892.729C1210.36 869.701 1212.26 831.694 1210.74 802.115C1209.33 774.694 1202.86 747.661 1191.65 722.305C1187.43 712.799 1181.93 703.354 1181.2 692.989C1180.74 686.5 1188.82 682.015 1194.47 685.473Z" fill="#171717"/>
</g>
</g>
</g>
<defs>
<linearGradient id="paint0_linear_219_984" x1="455.566" y1="429.257" x2="405.906" y2="620.964" gradientUnits="userSpaceOnUse">
<stop stop-color="#FFB800"/>
<stop offset="1" stop-color="#FF7F0A"/>
</linearGradient>
<linearGradient id="paint1_linear_219_984" x1="583.522" y1="84.1346" x2="513.581" y2="354.136" gradientUnits="userSpaceOnUse">
<stop stop-color="#FFB800"/>
<stop offset="1" stop-color="#FF7F0A"/>
</linearGradient>
<linearGradient id="paint2_linear_219_984" x1="860.154" y1="494.283" x2="841.189" y2="567.498" gradientUnits="userSpaceOnUse">
<stop stop-color="#FFB800"/>
<stop offset="1" stop-color="#FF7F0A"/>
</linearGradient>
<linearGradient id="paint3_linear_219_984" x1="613.046" y1="581.386" x2="566.275" y2="761.941" gradientUnits="userSpaceOnUse">
<stop stop-color="#FFB800"/>
<stop offset="1" stop-color="#FF7F0A"/>
</linearGradient>
<linearGradient id="paint4_linear_219_984" x1="820.919" y1="441.716" x2="806.828" y2="496.112" gradientUnits="userSpaceOnUse">
<stop stop-color="#FFB800"/>
<stop offset="1" stop-color="#FF7F0A"/>
</linearGradient>
<linearGradient id="paint5_linear_219_984" x1="765.07" y1="700.585" x2="758.634" y2="725.429" gradientUnits="userSpaceOnUse">
<stop stop-color="#FFB800"/>
<stop offset="1" stop-color="#FF7F0A"/>
</linearGradient>
<linearGradient id="paint6_linear_219_984" x1="1266.68" y1="181.922" x2="1234.46" y2="306.274" gradientUnits="userSpaceOnUse">
<stop stop-color="#FFB800"/>
<stop offset="1" stop-color="#FF7F0A"/>
</linearGradient>
<linearGradient id="paint7_linear_219_984" x1="1137.06" y1="591.264" x2="1131.7" y2="611.949" gradientUnits="userSpaceOnUse">
<stop stop-color="#FFB800"/>
<stop offset="1" stop-color="#FF7F0A"/>
</linearGradient>
<linearGradient id="paint8_linear_219_984" x1="1096.98" y1="657.906" x2="1024.92" y2="936.078" gradientUnits="userSpaceOnUse">
<stop stop-color="#FFB800"/>
<stop offset="1" stop-color="#FF7F0A"/>
</linearGradient>
<clipPath id="clip0_219_984">
<rect width="1313" height="1270" fill="white" transform="matrix(-0.968048 -0.250764 -0.250764 0.968048 1589.52 51.2524)"/>
</clipPath>
</defs>
</svg>
