<svg width="1019" height="1020" viewBox="0 0 1019 1020" fill="none" xmlns="http://www.w3.org/2000/svg">
<g clip-path="url(#clip0_85_446)">
<mask id="mask0_85_446" style="mask-type:luminance" maskUnits="userSpaceOnUse" x="-47" y="-85" width="1122" height="1210">
<path d="M1074.14 -84.7637H-46.8645V1124.24H1074.14V-84.7637Z" fill="white"/>
</mask>
<g mask="url(#mask0_85_446)">
<mask id="mask1_85_446" style="mask-type:luminance" maskUnits="userSpaceOnUse" x="0" y="0" width="965" height="978">
<path d="M964.152 0.000488281H3.8147e-06V977.276H964.152V0.000488281Z" fill="white"/>
</mask>
<g mask="url(#mask1_85_446)">
<path fill-rule="evenodd" clip-rule="evenodd" d="M325.788 825.329C336.158 799.77 343.486 772.713 348.677 745.105C346.489 776.96 344.43 809.556 342.369 842.163C340.824 866.617 339.279 891.077 337.677 915.236C337.093 924.123 336.497 932.957 335.891 941.738C335.667 945.017 335.486 948.516 336.88 951.377C338.539 954.766 341.762 956.18 345.218 956.782C346.829 957.053 348.452 957.206 350.079 957.237C358.318 957.491 366.554 957.741 374.786 957.986C379.967 958.145 385.488 958.194 389.838 954.964C390.432 954.516 390.997 954.018 391.529 953.476C397.485 947.312 397.794 936.051 397.432 926.459C397.123 918.165 396.857 909.879 396.635 901.602C394.475 825.12 395.422 748.983 399.771 672.484V672.409C367.101 672.662 334.424 672.912 301.74 673.157C302.729 752.204 271.778 830.988 219.651 882.213C217.056 884.756 214.216 887.669 213.918 891.573C213.818 893.389 214.181 895.199 214.961 896.781C215.831 898.543 216.881 900.18 218.088 901.654C222.252 907.007 226.767 911.98 231.594 916.528C236.189 920.851 241.412 924.94 247.336 925.357C247.464 925.37 247.591 925.37 247.719 925.37C254.781 925.664 261.195 920.716 266.726 915.521C266.821 915.419 266.916 915.329 267.011 915.239C267.054 915.198 267.098 915.157 267.141 915.115C292.402 891.067 311.897 859.543 325.788 825.329ZM394.17 680.338C394.198 679.295 393.489 678.424 392.586 678.39C391.683 678.357 390.928 679.176 390.899 680.219L387.423 806.35L383.947 932.481C383.918 933.524 384.627 934.396 385.531 934.43C386.434 934.462 387.188 933.644 387.218 932.601L390.694 806.47L394.17 680.338Z" fill="#171717"/>
<path fill-rule="evenodd" clip-rule="evenodd" d="M352.951 621.128C353.247 619.077 353.152 616.978 352.674 614.974L352.936 614.888C353.909 611.491 355.271 608.261 356.988 605.284C357.176 604.84 357.447 604.45 357.779 604.14C358.112 603.83 358.499 603.609 358.914 603.49C359.398 603.495 359.865 603.697 360.233 604.057C360.602 604.418 360.85 604.917 360.934 605.467C361.083 606.572 360.996 607.703 360.678 608.759C360.285 610.577 359.81 612.193 359.337 613.808C358.865 615.417 358.392 617.026 357.999 618.834V618.86C364.038 617.01 370.111 615.347 376.218 613.872C377.436 613.472 378.714 613.385 379.962 613.621C380.582 613.753 381.15 614.108 381.586 614.634C382.022 615.161 382.302 615.833 382.387 616.555C382.461 618.459 380.781 619.749 379.292 620.559C378.952 620.744 378.611 620.928 378.26 621.099L378.271 621.111C378.788 621.004 379.219 620.853 379.616 620.715C380.496 620.406 381.207 620.157 382.306 620.584C383.902 621.202 385.252 623.101 384.849 624.98C384.705 625.519 384.462 626.015 384.137 626.437C383.812 626.859 383.412 627.195 382.965 627.425L383.061 627.621C388.464 629.761 385.905 632.4 384.643 633.701C384.567 633.778 384.498 633.85 384.433 633.918C383.217 635.04 381.788 635.817 380.264 636.185C370.864 639.26 361.109 640.636 351.344 640.261C351.883 633.879 352.419 627.5 352.951 621.128ZM309.726 609.805V609.841C308.535 609.681 307.344 609.521 306.167 609.337C302.022 608.712 297.813 607.889 294.133 605.641C290.454 603.393 287.305 599.464 286.678 594.711C285.816 588.201 289.73 582.098 294.187 577.984C301.356 571.401 311.158 568.662 320.319 568.797C316.789 582.466 313.257 596.135 309.726 609.805ZM535.678 483.848C533.997 479.725 532.097 475.35 529.37 472.169C527.976 470.486 526.271 469.189 524.38 468.376C518.434 465.907 512.01 469.382 506.288 472.49C483.278 485.025 458.592 492.956 433.282 495.947C418.787 497.649 404.208 497.723 389.634 497.798C387.496 497.808 385.358 497.82 383.22 497.836C378.591 497.853 373.967 497.922 369.351 498.045C357.588 498.242 345.848 499.345 334.21 501.349C324.743 503.015 315.446 505.784 306.461 509.614C286.507 518.31 268.192 534.092 258.737 556.173C249.282 578.254 250.218 606.931 264.055 625.672C273.407 638.333 287.041 645.101 301.11 649.62L301.101 649.645C299.928 653.501 299.017 657.472 298.107 661.445C297.199 665.404 296.291 669.363 295.123 673.212C296.277 673.205 297.433 673.195 298.589 673.187C299.639 673.178 300.691 673.169 301.739 673.163C334.41 672.91 367.087 672.66 399.77 672.415C401.947 672.394 404.124 672.378 406.301 672.363C408.283 672.348 410.265 672.334 412.246 672.316C412.555 652.456 412.864 633.054 413.171 613.662C413.491 593.551 413.81 573.45 414.129 552.857L414.108 552.574C453.343 548.519 491.589 536.115 526.914 515.989C531.646 513.286 536.678 510.007 538.656 504.359C539.483 501.889 539.742 499.215 539.411 496.596C538.965 492.261 537.314 487.878 535.678 483.848ZM515.111 482.663C515.921 482.202 516.255 481.07 515.856 480.134C515.456 479.199 514.475 478.813 513.665 479.274C479.399 498.772 441.46 508.086 403.289 506.371C402.386 506.331 401.625 507.143 401.589 508.184C401.555 509.227 402.258 510.105 403.161 510.147C441.877 511.886 480.357 502.439 515.111 482.663Z" fill="url(#paint0_linear_85_446)"/>
<path fill-rule="evenodd" clip-rule="evenodd" d="M149.209 822.969L149.921 690.517C134.626 595.226 104.293 501.889 62.6088 416.972C50.7074 392.707 37.9338 369.227 24.2881 346.532L23.4363 347.023C-0.972874 470.597 13.5134 605.359 69.534 714.37C70.087 715.451 70.6509 716.532 71.2147 717.601C86.519 746.826 104.603 773.987 125.129 798.579C132.177 807.032 139.497 815.158 147.092 822.956L149.209 822.969ZM47.989 406.41C47.5338 405.509 46.5321 405.204 45.7516 405.73C44.971 406.256 44.7073 407.413 45.1625 408.313C67.6897 452.92 86.5746 499.85 101.572 548.496C101.876 549.478 102.811 549.992 103.662 549.642C104.514 549.292 104.958 548.211 104.655 547.228C89.5892 498.361 70.6181 451.219 47.989 406.41Z" fill="url(#paint1_linear_85_446)"/>
<path fill-rule="evenodd" clip-rule="evenodd" d="M791.453 212.749C796.632 210.404 801.068 204.398 798.749 197.337C798.093 195.46 797.056 193.794 795.728 192.476C794.399 191.158 792.817 190.226 791.112 189.759C784.433 187.768 777.913 191.822 773.19 197.213C778.753 187.376 774.329 172.137 764.756 168.145C755.183 164.152 743.356 172.627 742.187 184.294C742.622 174.1 733.857 164.756 725.094 166.069C716.33 167.383 709.917 179 712.586 188.728C710.022 185.547 706.661 183.37 702.973 182.503C699.285 181.634 695.455 182.117 692.016 183.886C688.578 185.654 685.704 188.617 683.796 192.364C681.887 196.109 681.039 200.449 681.37 204.779C681.381 204.962 681.356 205.149 681.296 205.321C681.237 205.493 681.144 205.648 681.025 205.772C680.907 205.898 680.766 205.99 680.612 206.044C680.458 206.097 680.296 206.11 680.137 206.081C674.978 205.27 659.162 212.553 667.66 220.794C672.13 225.12 680.399 221.664 687.13 218.852C689.8 217.736 692.228 216.722 694.08 216.336C712.32 212.507 732.514 213.305 752.143 214.079C761.299 214.44 770.333 214.797 778.987 214.677C783.199 214.616 787.526 214.53 791.453 212.749ZM757.956 176.091C757.067 175.907 756.217 176.591 756.058 177.619C755.9 178.647 756.492 179.628 757.381 179.81C760.144 180.379 762.567 182.573 764.061 185.53C765.556 188.487 766.017 192.005 765.088 195.064C764.789 196.049 765.238 197.127 766.09 197.472C766.943 197.817 767.877 197.299 768.175 196.314C769.477 192.03 768.774 187.361 766.887 183.626C765.002 179.892 761.828 176.888 757.956 176.091Z" fill="url(#paint2_linear_85_446)"/>
<path fill-rule="evenodd" clip-rule="evenodd" d="M798.55 695.024L798.252 772.174L798.893 772.168C832.8 749.3 854.657 715.845 871.941 675.133C889.225 634.422 898.031 589.472 902.126 544.376C903.914 524.682 904.831 504.904 905.747 485.124C906.613 466.431 907.479 447.738 909.081 429.117C912.379 390.793 918.963 352.218 934.332 318.04C899.371 343.007 879.317 388.778 869.228 434.784C863.462 461.08 860.39 487.99 857.317 514.912C855.014 535.092 852.709 555.28 849.269 575.221C841.239 621.766 830.38 664.169 799.152 695.024H798.55ZM898.47 480.764C898.447 479.721 897.696 478.897 896.793 478.924C895.89 478.952 895.177 479.818 895.199 480.861C895.743 505.176 893.859 529.48 889.585 553.296C889.401 554.319 889.97 555.318 890.854 555.53C891.74 555.742 892.605 555.085 892.789 554.063C897.114 529.964 899.02 505.368 898.47 480.764Z" fill="url(#paint3_linear_85_446)"/>
<path d="M939.254 235.496C939.594 238.001 938.147 240.384 936.499 242.079C929.755 248.993 919.747 248.968 910.738 248.563L872.554 246.83L872.245 246.671C873.362 243.774 874.51 240.877 875.681 238C875.914 237.434 876.138 236.866 876.372 236.305L876.979 236.636C886.445 232.583 893.518 229.807 903.472 227.855C913.427 225.903 923.851 225.94 933.413 229.66C935.988 230.659 938.827 232.403 939.254 235.496Z" fill="#171717"/>
<path d="M925.617 145.821L925.489 145.685C925.499 145.624 925.521 145.575 925.532 145.513C932.196 138.97 940.265 134.62 948.889 132.92C951.001 132.367 953.198 132.392 955.302 132.994C956.348 133.309 957.3 133.951 958.05 134.85C958.801 135.749 959.322 136.872 959.555 138.091C959.629 139.223 959.469 140.36 959.091 141.408C958.711 142.456 958.123 143.385 957.374 144.121C954.109 147.682 949.258 148.276 944.78 148.664C937.291 149.336 929.801 150.003 922.312 150.667L922.28 150.642C922.62 150.138 922.96 149.647 923.302 149.143C924.075 148.031 924.841 146.925 925.617 145.821Z" fill="#171717"/>
<path d="M925.533 145.512C925.522 145.574 925.5 145.623 925.49 145.684L925.618 145.82C924.841 146.924 924.076 148.03 923.31 149.147C917.662 137.714 911.983 126.169 908.368 113.692C907.639 111.58 907.285 109.32 907.326 107.047C907.354 105.914 907.637 104.808 908.149 103.838C908.659 102.87 909.38 102.071 910.241 101.521C911.046 101.141 911.917 100.985 912.784 101.068C913.651 101.151 914.489 101.471 915.228 102C916.705 103.065 917.978 104.464 918.973 106.114C922.577 111.68 925.041 118.117 926.178 124.943C927.314 131.767 927.094 138.801 925.533 145.512Z" fill="#171717"/>
<path d="M898.75 187.884L899.296 188.276C898.051 190.536 896.829 192.808 895.627 195.092L894.903 194.588C888.341 180.182 881.906 165.543 877.997 149.897C877.17 147.145 876.82 144.232 876.965 141.326C877.056 139.874 877.469 138.472 878.166 137.259C878.863 136.045 879.82 135.06 880.943 134.399C881.995 133.951 883.124 133.797 884.238 133.953C885.352 134.109 886.417 134.569 887.346 135.295C889.194 136.764 890.732 138.695 891.845 140.944C899.324 154.589 899.877 171.782 898.75 187.884Z" fill="#171717"/>
<path d="M895.197 195.915C895.337 195.646 895.485 195.364 895.624 195.093C896.826 192.808 898.049 190.536 899.294 188.277C899.346 188.16 899.406 188.049 899.474 187.945L899.697 188.105C911.011 180.988 923.933 178.023 936.743 179.606C938.851 179.712 940.911 180.376 942.762 181.547C943.677 182.15 944.418 183.053 944.891 184.141C945.365 185.229 945.549 186.454 945.422 187.663C944.848 190.937 941.605 192.448 938.785 193.226C924.692 197.095 910.014 196.627 895.539 196.149L895.197 195.915Z" fill="#171717"/>
<path d="M872.246 246.674C872.054 247.166 871.863 247.669 871.682 248.161L870.746 247.681C859.877 225.588 848.73 202.498 847.305 177.125C847.134 174.103 847.262 170.628 849.251 168.651C850.17 167.87 851.262 167.407 852.399 167.316C853.537 167.224 854.673 167.509 855.675 168.136C857.667 169.419 859.36 171.24 860.611 173.442C866.407 182.431 869.831 193.214 871.799 204.193C873.766 215.172 874.341 226.397 874.905 237.586L875.682 238.004C874.517 240.878 873.363 243.775 872.246 246.674Z" fill="#171717"/>
<path d="M853.867 304.568C854.058 303.793 854.25 303.02 854.452 302.259C854.931 300.403 855.42 298.549 855.92 296.695C867.002 289.683 878.16 282.658 890.115 277.966C902.282 273.18 915.439 270.868 928.053 273.729C929.766 274.107 931.776 274.933 932.148 276.898C932.475 278.593 931.384 280.189 930.294 281.393C920.53 292.2 906.352 295.491 892.93 297.359C879.507 299.227 865.99 296.904 854.267 304.702L853.867 304.568Z" fill="#171717"/>
<path d="M855.611 296.891C855.72 296.817 855.813 296.757 855.92 296.695C855.42 298.549 854.931 300.402 854.452 302.259L854.058 302.123C853.76 302.501 853.463 302.885 853.165 303.256C842.188 292.854 832.383 280.906 823.98 267.69C818.14 258.504 812.844 248.2 812.248 236.828C812.056 233.07 812.716 228.661 815.577 226.879C818.97 224.778 823.033 227.665 825.862 230.686C841.848 247.781 849.783 272.54 855.569 296.796L855.611 296.891Z" fill="#171717"/>
<path d="M850.325 928.656C850.845 930.475 850.207 936.308 850.207 936.308L849.846 938.298C849.703 938.298 849.561 938.309 849.421 938.334L824.692 942.301C823.779 942.449 822.85 942.325 821.99 941.945L811.439 937.352C810.93 937.129 810.481 936.756 810.137 936.27C809.792 935.784 809.565 935.201 809.477 934.582C809.39 933.961 809.446 933.325 809.639 932.738C809.832 932.151 810.155 931.632 810.578 931.235L840.092 903.443C840.646 902.926 841.337 902.645 842.05 902.645H844.57V905.248L840.571 913.921C840.571 913.921 849.079 924.248 850.325 928.656Z" fill="#171717"/>
<path d="M666.526 862.687C666.845 862.833 667.113 863.095 667.29 863.435L685.276 897.897L690.158 907.255C690.277 907.486 690.351 907.744 690.373 908.012C690.394 908.28 690.365 908.55 690.285 908.803L684.339 927.826C684.244 928.123 684.086 928.386 683.877 928.592C683.668 928.796 683.416 928.934 683.148 928.993C677.224 930.253 643.317 937.565 641.484 938.621C641.102 938.843 639.57 938.487 637.368 937.762L639.677 936.349L632.479 920.703L646.496 904.529L656.006 870.424L665.078 865.156L666.014 862.453L666.526 862.687Z" fill="url(#paint4_linear_85_446)"/>
<path d="M613.791 852.518C615.312 842.042 617.534 833.826 621.449 821.033C626.99 802.98 636.031 785.935 649.219 774.304C653.229 810.693 644.391 849.121 623.589 876.565C620.473 879.317 617.527 882.055 617.037 882.497C616.988 882.545 616.934 882.588 616.878 882.623L606.199 890.25L591.308 866.387C591.066 866.006 590.739 865.708 590.361 865.527L584.629 862.777L584.693 862.593C573.953 850.787 565.904 836.102 561.261 819.842C577.002 827.723 590.102 841.293 598.592 858.509C590.657 835.776 592.646 814.357 599.603 789.23C609.49 808.319 614.415 830.287 613.791 852.518Z" fill="url(#paint5_linear_85_446)"/>
<path d="M590.731 927.789C590.337 927.851 589.937 927.736 589.613 927.469C589.289 927.202 589.065 926.803 588.986 926.352V926.34C588.921 925.963 588.962 925.572 589.104 925.223L602.185 893.451C602.316 893.136 602.522 892.872 602.781 892.689L606.196 890.246L616.874 882.619C616.932 882.585 616.986 882.542 617.034 882.493C617.523 882.051 620.469 879.313 623.585 876.562C627.053 873.504 630.722 870.421 631.477 870.421H645.496C645.82 870.423 646.136 870.308 646.4 870.09L658.812 860.007C659.027 859.835 659.275 859.726 659.535 859.692C659.794 859.658 660.058 859.699 660.301 859.811L666.012 862.455L665.077 865.158L656.003 870.426L646.495 904.531L632.476 920.705L639.675 936.352L637.367 937.765C628.837 934.977 610.149 926.76 607.31 925.496C607.07 925.39 606.81 925.356 606.554 925.398L590.731 927.789Z" fill="#171717"/>
<path d="M579.168 860.71L582.923 871.002L571.915 901.642L567.916 921.288L559.428 930.499C559.292 930.483 559.156 930.45 559.024 930.401L531.987 921.19C531.643 921.071 531.329 920.855 531.073 920.564C530.818 920.273 530.627 919.914 530.518 919.519C530.409 919.124 530.385 918.703 530.448 918.295C530.511 917.886 530.66 917.501 530.881 917.174L541.634 901.418C541.798 901.176 542 900.972 542.229 900.816L555.737 891.385L563.002 886.312C563.269 886.125 563.498 885.875 563.672 885.575L577.914 861.725C578.209 861.219 578.657 860.857 579.168 860.71Z" fill="#171717"/>
<path d="M336.797 402.511L336.605 402.436C332.744 404.586 330.224 406.649 326.363 408.799C326.618 405.678 327.777 402.747 329.653 400.48C331.529 398.215 334.012 396.744 336.701 396.308C335.393 395.43 333.942 394.88 332.439 394.692C330.936 394.503 329.416 394.682 327.976 395.215C328.866 392.502 330.602 390.273 332.845 388.967C335.087 387.66 337.672 387.369 340.091 388.154C342.26 388.963 344.126 390.622 346.26 391.494C348.677 392.288 351.197 392.584 353.705 392.366C361.032 392.206 368.36 392.051 375.689 391.899L376.242 392.219C378.319 387.233 381.326 382.842 385.05 379.359C386.305 378.181 388.166 377.113 389.432 378.291C390.538 379.31 390.314 381.3 389.931 382.872C388.921 387.019 387.504 391.02 385.708 394.797C388.963 391.863 399.547 386.299 399.717 387.87C397.597 393.457 394.226 398.29 389.952 401.872L390.229 402.301C395.985 399.395 402.3 398.28 408.545 399.071C407.045 403.738 403.003 406.821 398.813 408C394.622 409.179 390.24 408.737 385.943 408.306C385.73 408.282 385.506 408.257 385.294 408.246C376.965 407.386 368.639 406.534 360.317 405.69C356.382 405.298 352.106 404.979 348.788 407.471C343.771 411.229 343.3 419.372 343.374 426.286L343.566 446.218H343.363C343.098 447.95 338.375 455.664 337.088 454.718C335.716 453.723 337.024 445.936 336.641 444.119C335.599 447.028 334.053 449.66 332.1 451.857C331.522 435.621 332.032 417.825 336.797 402.511Z" fill="#171717"/>
<path d="M343.923 481.846C352.613 481.158 361.306 480.471 370.003 479.783C370.258 479.759 370.524 479.747 370.779 479.721C374.672 479.415 379.043 479.279 381.958 482.289C382.906 483.375 383.657 484.671 384.161 486.099C384.666 487.527 384.914 489.058 384.894 490.601C384.957 493.67 383.872 494.678 383.223 497.654V497.838C378.596 497.863 373.973 497.933 369.354 498.047C357.589 498.243 345.849 499.348 334.212 501.35L334.17 501.055C333.193 498.028 332.567 494.865 332.308 491.648C332.211 490.26 332.392 488.865 332.836 487.57C333.281 486.275 333.977 485.115 334.872 484.181C336.712 482.474 339.222 482.216 341.583 482.032L343.923 481.846Z" fill="url(#paint6_linear_85_446)"/>
<path d="M125.129 798.579L124.256 799.561C109.685 802.201 94.8005 801.371 80.516 797.124C66.2326 792.877 52.8522 785.302 41.1969 774.865C29.5416 764.428 19.8577 751.348 12.7408 736.431C5.62372 721.514 1.22363 705.074 -0.188892 688.121L1.64016 687.974C21.2492 705.735 44.9815 716.377 69.8318 718.554L71.2147 717.597C86.5201 746.823 104.603 773.986 125.129 798.579Z" fill="#171717"/>
<path d="M106.314 952.388L106.59 955.054L106.48 955.067C106.364 955.086 106.246 955.094 106.129 955.091L72.2465 953.592C71.6761 953.567 71.1362 953.293 70.7348 952.825C70.3335 952.358 70.1012 951.731 70.087 951.073C70.0739 950.708 70.1306 950.344 70.2517 950.006C70.3727 949.669 70.556 949.367 70.7894 949.119L77.9474 941.333L92.2352 925.797C92.6006 925.402 93.0674 925.156 93.5647 925.097L104.035 923.964C104.539 923.91 105.045 924.053 105.472 924.369L104.344 926.372L101.812 936.454L106.322 943.392L106.314 952.388Z" fill="#171717"/>
<path d="M362.493 447.017C363.887 448.515 366.354 447.373 367.205 445.396C368.056 443.419 367.78 441.098 367.482 438.924C366.896 434.686 366.312 430.462 365.727 426.224C365.259 422.799 364.908 418.868 366.896 416.275C367.691 415.366 368.667 414.692 369.738 414.315C370.809 413.935 371.943 413.862 373.044 414.102C375.24 414.599 377.349 415.512 379.287 416.804" stroke="#171717" stroke-width="2" stroke-linecap="round" stroke-linejoin="round"/>
<path d="M372.215 426.569C372.045 425.034 371.875 423.486 371.704 421.951" stroke="#171717" stroke-width="2" stroke-linecap="round" stroke-linejoin="round"/>
<path d="M362.132 457.649C361.453 458.089 360.704 458.367 359.929 458.469C359.156 458.57 358.372 458.492 357.624 458.24C356.876 457.987 356.18 457.565 355.574 456.997C354.97 456.43 354.469 455.729 354.102 454.936" stroke="#171717" stroke-width="2" stroke-linecap="round" stroke-linejoin="round"/>
<path d="M343.92 482.055V481.845L343.57 446.217L343.378 426.285C343.304 419.371 343.772 411.228 348.792 407.47C352.11 404.978 356.387 405.296 360.322 405.689C368.649 406.538 376.974 407.389 385.298 408.246C385.511 408.257 385.734 408.282 385.947 408.306C390.244 408.737 394.626 409.166 398.817 408C403.008 406.834 407.049 403.738 408.549 399.071C402.305 398.28 395.99 399.393 390.233 402.301" stroke="#171717" stroke-width="2" stroke-linecap="round" stroke-linejoin="round"/>
<path d="M385.7 394.807C385.519 394.979 385.36 395.139 385.222 395.287" stroke="#171717" stroke-width="2" stroke-linecap="round" stroke-linejoin="round"/>
<path d="M389.869 401.944C389.902 401.92 389.923 401.894 389.954 401.871C394.229 398.289 397.599 393.457 399.719 387.87C399.549 386.297 388.965 391.861 385.71 394.797" stroke="#171717" stroke-width="2" stroke-linecap="round" stroke-linejoin="round"/>
<path d="M385.169 395.915C385.351 395.546 385.532 395.178 385.702 394.809L385.712 394.798C387.508 391.021 388.925 387.02 389.935 382.873C390.317 381.3 390.541 379.31 389.435 378.291C388.169 377.113 386.308 378.181 385.053 379.359C381.33 382.842 378.322 387.233 376.246 392.219C375.916 393.017 375.609 393.828 375.321 394.651" stroke="#171717" stroke-width="2" stroke-linecap="round" stroke-linejoin="round"/>
<path d="M375.692 391.899C368.363 392.059 361.035 392.215 353.707 392.366C351.201 392.584 348.68 392.288 346.262 391.493C344.124 390.622 342.263 388.963 340.093 388.153C337.676 387.37 335.091 387.661 332.85 388.968C330.609 390.275 328.872 392.503 327.981 395.215C329.421 394.681 330.942 394.503 332.445 394.691C333.948 394.88 335.4 395.43 336.707 396.308C334.018 396.744 331.536 398.213 329.66 400.48C327.784 402.747 326.625 405.678 326.368 408.798C330.229 406.649 332.75 404.586 336.611 402.436" stroke="#171717" stroke-width="2" stroke-linecap="round" stroke-linejoin="round"/>
<path d="M337.115 401.482C337.006 401.826 336.896 402.17 336.796 402.513C332.031 417.827 331.521 435.624 332.106 451.859C334.06 449.663 335.605 447.03 336.648 444.122C337.031 445.939 335.723 453.726 337.095 454.721C338.382 455.667 343.105 447.953 343.37 446.221" stroke="#171717" stroke-width="2" stroke-linecap="round" stroke-linejoin="round"/>
<path d="M385.328 408.111C385.318 408.16 385.307 408.197 385.296 408.246C383.201 417.261 384.669 426.778 385.063 436.1C385.466 445.458 384.408 455.799 378.563 462.295C376.255 464.849 373.341 466.629 371.224 469.405C369.107 472.181 368.012 476.601 369.98 479.513" stroke="#171717" stroke-width="2" stroke-linecap="round" stroke-linejoin="round"/>
<path d="M383.223 497.652C383.872 494.68 384.957 493.673 384.894 490.6C384.914 489.057 384.666 487.526 384.161 486.097C383.657 484.669 382.906 483.373 381.958 482.288C379.043 479.278 374.672 479.414 370.779 479.72C370.524 479.745 370.258 479.758 370.003 479.782C361.313 480.459 352.62 481.147 343.923 481.845L341.583 482.03C339.222 482.214 336.712 482.472 334.872 484.178C333.977 485.113 333.281 486.273 332.836 487.567C332.392 488.862 332.211 490.257 332.308 491.645C332.567 494.863 333.193 498.025 334.17 501.053" stroke="#171717" stroke-width="2" stroke-linecap="round" stroke-linejoin="round"/>
<path d="M350.653 648.503C346.749 655.122 318.369 654.373 311.598 652.629C308.108 651.733 304.599 650.739 301.11 649.62C287.041 645.101 273.407 638.333 264.055 625.672C250.218 606.931 249.282 578.254 258.737 556.173C268.192 534.092 286.507 518.31 306.461 509.614C315.446 505.784 324.743 503.015 334.21 501.349C345.848 499.345 357.587 498.242 369.351 498.045C373.967 497.922 378.591 497.853 383.222 497.836C399.931 497.71 416.66 497.898 433.283 495.947C458.593 492.956 483.28 485.025 506.289 472.49C512.011 469.382 518.436 465.907 524.381 468.376C526.27 469.19 527.975 470.488 529.369 472.17C532.096 475.351 533.996 479.726 535.676 483.85C537.312 487.88 538.964 492.262 539.41 496.597C539.741 499.217 539.482 501.89 538.655 504.36C536.677 510.008 531.645 513.287 526.913 515.99C491.588 536.116 453.342 548.521 414.107 552.575C409.342 553.079 404.566 553.452 399.78 553.693" stroke="#171717" stroke-width="2" stroke-linecap="round" stroke-linejoin="round"/>
<path d="M414.131 552.858C413.504 593.312 412.877 631.863 412.249 672.318" stroke="#171717" stroke-width="2" stroke-linecap="round" stroke-linejoin="round"/>
<path d="M412.249 672.316C408.09 672.353 403.931 672.377 399.772 672.415C367.088 672.661 334.412 672.911 301.741 673.163C299.539 673.175 297.327 673.2 295.125 673.212" stroke="#171717" stroke-width="2" stroke-linecap="round" stroke-linejoin="round"/>
<path d="M295.125 673.212C297.464 665.499 298.762 657.344 301.103 649.645" stroke="#171717" stroke-width="2" stroke-linecap="round" stroke-linejoin="round"/>
<path d="M309.728 609.805C313.259 596.135 316.79 582.466 320.321 568.797" stroke="#171717" stroke-width="2" stroke-linecap="round" stroke-linejoin="round"/>
<path d="M320.32 568.797C311.159 568.662 301.357 571.402 294.188 577.984C289.732 582.099 285.817 588.202 286.679 594.711C287.306 599.464 290.455 603.393 294.135 605.641C297.815 607.889 302.023 608.712 306.168 609.338C307.349 609.523 308.54 609.682 309.731 609.842C320.914 611.304 332.186 611.621 343.415 610.787C346.437 610.566 349.978 610.505 351.86 613.243C352.217 613.762 352.494 614.348 352.68 614.975C353.157 616.978 353.252 619.078 352.957 621.128C352.424 627.502 351.889 633.879 351.35 640.262C351.117 643.013 350.893 645.751 350.659 648.503" stroke="#171717" stroke-width="2" stroke-linecap="round" stroke-linejoin="round"/>
<path d="M529.372 472.231V472.169C529.021 465.945 529.553 459.699 530.947 453.674C531.425 451.598 532.627 449.092 534.446 449.485C536.02 449.829 536.563 452.053 536.797 453.87C537.338 458.058 537.876 462.238 538.413 466.409C544.949 460.213 552.038 454.838 559.558 450.371C560.799 449.492 562.2 448.958 563.652 448.81C564.38 448.759 565.103 448.976 565.717 449.431C566.331 449.886 566.803 450.554 567.067 451.34C567.567 453.428 566.013 455.307 564.504 456.683C564.408 456.757 564.323 456.842 564.238 456.916C558.909 461.595 553.583 466.27 548.263 470.941" stroke="#171717" stroke-width="2" stroke-linecap="round" stroke-linejoin="round"/>
<path d="M563.438 458.083C563.832 457.69 564.248 457.284 564.662 456.904C565.999 455.472 567.678 454.535 569.481 454.214C571.809 453.968 574.448 456.24 573.969 458.893C573.546 460.327 572.698 461.545 571.576 462.332C571.543 462.356 571.511 462.394 571.48 462.418C565.896 467.318 560.308 472.222 554.717 477.131L555.897 475.694" stroke="#171717" stroke-width="2" stroke-linecap="round" stroke-linejoin="round"/>
<path d="M571.012 462.578C571.19 462.467 571.379 462.384 571.576 462.332C572.482 462.138 573.419 462.324 574.216 462.858C575.015 463.392 575.62 464.237 575.925 465.242C576.194 466.39 576.208 467.597 575.964 468.752C575.72 469.907 575.228 470.973 574.533 471.849C573.122 473.58 571.468 475.02 569.64 476.111C559.61 482.939 549.573 489.764 539.529 496.585C539.987 496.388 540.444 496.179 540.901 495.983" stroke="#171717" stroke-width="2" stroke-linecap="round" stroke-linejoin="round"/>
<path d="M352.941 614.902C353.913 611.505 355.276 608.275 356.993 605.298C357.182 604.854 357.451 604.464 357.784 604.154C358.117 603.844 358.504 603.623 358.919 603.504C359.402 603.509 359.869 603.71 360.238 604.071C360.607 604.433 360.855 604.931 360.939 605.482C361.087 606.586 361 607.716 360.684 608.774C359.898 612.396 358.792 615.22 358.004 618.849" stroke="#171717" stroke-width="2" stroke-linecap="round" stroke-linejoin="round"/>
<path d="M357.664 618.967C357.781 618.929 357.887 618.893 358.004 618.869C364.034 617.013 370.107 615.35 376.224 613.882C377.44 613.481 378.718 613.394 379.967 613.63C380.588 613.762 381.156 614.117 381.591 614.644C382.026 615.17 382.306 615.843 382.393 616.564C382.467 618.468 380.786 619.758 379.297 620.568C378.957 620.753 378.617 620.937 378.266 621.108C373.045 623.85 367.505 625.699 361.823 626.598" stroke="#171717" stroke-width="2" stroke-linecap="round" stroke-linejoin="round"/>
<path d="M378.278 621.115C379.936 620.771 380.713 619.981 382.313 620.587C383.913 621.193 385.258 623.107 384.855 624.985C384.71 625.523 384.467 626.02 384.142 626.442C383.817 626.864 383.418 627.2 382.972 627.428C382.309 627.82 381.615 628.137 380.9 628.374C375.262 630.313 369.564 631.983 363.808 633.384" stroke="#171717" stroke-width="2" stroke-linecap="round" stroke-linejoin="round"/>
<path d="M383.059 627.625C388.782 629.892 385.568 632.722 384.431 633.922C383.215 635.045 381.786 635.821 380.261 636.189C370.862 639.264 361.107 640.639 351.342 640.265H351.183" stroke="#171717" stroke-width="2" stroke-linecap="round" stroke-linejoin="round"/>
<path d="M301.74 672.819V673.163C302.729 752.205 271.778 830.989 219.651 882.219C217.056 884.762 214.216 887.672 213.918 891.577C213.818 893.393 214.181 895.203 214.961 896.785C215.831 898.548 216.881 900.184 218.088 901.66C222.252 907.012 226.767 911.984 231.594 916.533C236.189 920.855 241.411 924.946 247.336 925.363C247.464 925.375 247.591 925.375 247.719 925.375C254.781 925.67 261.195 920.715 266.726 915.526C266.863 915.378 267.002 915.255 267.141 915.12C292.402 891.074 311.897 859.548 325.788 825.333C336.158 799.775 343.486 772.72 348.677 745.111C350.442 735.74 351.949 726.32 353.258 716.863" stroke="#171717" stroke-width="2" stroke-linecap="round" stroke-linejoin="round"/>
<path d="M348.688 745.021C348.689 745.05 348.686 745.08 348.678 745.107C344.849 800.851 341.413 858.868 337.68 915.239C337.097 924.118 336.502 932.952 335.893 941.741C335.675 945.016 335.488 948.52 336.882 951.382C338.541 954.772 341.764 956.184 345.22 956.786C346.83 957.058 348.454 957.209 350.082 957.24C358.314 957.486 366.55 957.735 374.788 957.99C379.968 958.15 385.489 958.199 389.84 954.967C390.433 954.519 390.999 954.023 391.531 953.481C397.488 947.31 397.796 936.054 397.434 926.462C397.124 918.172 396.859 909.885 396.637 901.605C394.477 825.118 395.424 748.986 399.774 672.487" stroke="#171717" stroke-width="2" stroke-linecap="round" stroke-linejoin="round"/>
<path d="M214.684 896.951C210.539 897.737 207.335 901.582 205.697 906.145C205.276 907.301 204.955 908.502 204.739 909.73C203.718 915.711 204.835 921.864 205.939 927.832C207.439 935.938 208.942 944.04 210.449 952.138C211.172 956.031 211.948 960.06 214.075 963.192C217.159 967.736 222.372 969.418 227.221 970.83C233.082 972.55 238.947 974.262 244.813 975.964C247.132 976.639 249.823 977.241 251.727 975.559C253.982 973.556 253.758 969.615 253.312 966.372C251.451 952.715 249.586 939.063 247.717 925.414" stroke="#171717" stroke-width="2" stroke-linecap="round" stroke-linejoin="round"/>
<path d="M345.177 957.118C342.634 966.525 340.476 976.855 345.55 984.776C348.655 989.627 353.839 991.985 358.727 994.096C368.768 998.432 378.905 1002.8 389.519 1004.57C400.134 1006.34 411.397 1005.35 420.8 999.409C426.564 995.773 431.924 988.086 429.149 981.22C427.797 977.867 424.862 975.817 422.096 973.962L391.529 953.477" stroke="#171717" stroke-width="2" stroke-linecap="round" stroke-linejoin="round"/>
<path d="M396.485 901.642C396.539 901.631 396.581 901.618 396.635 901.606C430.021 892.395 431.786 891.388 466.311 869.27" stroke="#171717" stroke-width="2" stroke-linecap="round" stroke-linejoin="round"/>
<path d="M266.97 915.863C301.697 919.768 301.888 918.897 337.36 915.212" stroke="#171717" stroke-width="2" stroke-linecap="round" stroke-linejoin="round"/>
<path d="M683.849 897.884C684.328 897.884 684.807 897.897 685.275 897.897C775.351 898.622 778.626 887.483 778.626 887.483L778.669 869.49L780.105 280.643L780.126 271.101C593.943 212.151 467.811 323.984 467.811 323.984C467.811 323.984 368.704 246.83 169.002 281.503L168.938 289.35L163.811 884.891L163.748 892.678C163.748 892.678 163.184 896.582 205.229 905.901" stroke="#171717" stroke-width="2" stroke-linecap="round" stroke-linejoin="round"/>
<path d="M467.428 542.308L466.311 869.27C513.609 886.524 510.099 885.739 555.653 891.229" stroke="#171717" stroke-width="2" stroke-linecap="round" stroke-linejoin="round"/>
<path d="M467.811 323.982L468.182 488.27" stroke="#171717" stroke-width="2" stroke-linecap="round" stroke-linejoin="round"/>
<path d="M169.002 289.314L168.938 289.35L158.482 294.509L158.397 308.669L154.845 865.807L154.728 884.007L162.992 884.879" stroke="#171717" stroke-width="2" stroke-linecap="round" stroke-linejoin="round"/>
<path d="M157.984 308.669L151.985 309.246L151.326 431.15L149.922 690.517L149.21 822.969L149.135 836.871L149.039 853.807L149.007 859.863L148.975 865.807H154.485" stroke="#171717" stroke-width="2" stroke-linecap="round" stroke-linejoin="round"/>
<path d="M780.125 280.643L786.89 279.771L786.922 290.616L788.368 859.739L788.39 868.41L787.656 868.495L778.817 869.49" stroke="#171717" stroke-width="2" stroke-linecap="round" stroke-linejoin="round"/>
<path d="M787.073 290.616L800.155 289.019L798.55 695.024L798.252 772.174L797.986 839.217L797.901 860.021L788.392 859.739" stroke="#171717" stroke-width="2" stroke-linecap="round" stroke-linejoin="round"/>
<path d="M588.987 926.353L582.404 928.453C582.092 928.679 581.739 928.814 581.372 928.846L559.792 930.504C559.535 930.533 559.274 930.499 559.029 930.405L531.992 921.194C531.647 921.075 531.333 920.861 531.078 920.57C530.822 920.278 530.631 919.919 530.522 919.523C530.413 919.128 530.389 918.707 530.452 918.299C530.516 917.89 530.665 917.506 530.886 917.178L541.639 901.422C541.804 901.182 542.006 900.978 542.235 900.82L555.743 891.389L563.007 886.316C563.275 886.13 563.503 885.879 563.677 885.579L577.919 861.729C578.205 861.249 578.626 860.897 579.109 860.732C579.593 860.566 580.111 860.597 580.578 860.82L584.63 862.773L590.363 865.524C590.74 865.706 591.067 866.003 591.309 866.384L606.197 890.245L606.452 890.651" stroke="#171717" stroke-width="2" stroke-linecap="round" stroke-linejoin="round"/>
<path d="M590.805 925.763L588.986 926.34" stroke="#171717" stroke-width="2" stroke-linecap="round" stroke-linejoin="round"/>
<path d="M588.986 926.34C588.921 925.963 588.962 925.572 589.104 925.223L602.185 893.451C602.316 893.136 602.522 892.872 602.781 892.689L606.196 890.246L616.874 882.619C616.932 882.585 616.986 882.542 617.034 882.493C617.523 882.051 620.469 879.313 623.585 876.562C627.053 873.504 630.722 870.421 631.477 870.421H645.496C645.82 870.423 646.136 870.308 646.4 870.09L658.812 860.007C659.027 859.835 659.275 859.726 659.535 859.692C659.794 859.658 660.058 859.699 660.301 859.811L666.012 862.455L666.523 862.69C666.842 862.838 667.111 863.104 667.286 863.445L685.271 897.906L690.154 907.264C690.274 907.496 690.348 907.754 690.37 908.022C690.392 908.289 690.363 908.56 690.282 908.812L684.336 927.835C684.242 928.132 684.083 928.396 683.874 928.6C683.665 928.806 683.414 928.944 683.145 929.002C677.22 930.261 643.313 937.575 641.481 938.63C641.098 938.852 639.567 938.495 637.365 937.771C628.835 934.983 610.147 926.767 607.308 925.502C607.068 925.396 606.808 925.362 606.552 925.404L590.726 927.797C590.332 927.859 589.932 927.745 589.607 927.478C589.283 927.211 589.059 926.811 588.981 926.36L588.986 926.34Z" stroke="#171717" stroke-width="2" stroke-linecap="round" stroke-linejoin="round"/>
<path d="M665.078 865.156L656.006 870.424L646.496 904.529L632.479 920.703L639.679 936.35L639.732 936.46" stroke="#171717" stroke-width="2" stroke-linecap="round" stroke-linejoin="round"/>
<path d="M578.924 860.021L579.169 860.71L582.924 871.002L571.916 901.643L567.917 921.293L559.428 930.504L559.408 930.529" stroke="#171717" stroke-width="2" stroke-linecap="round" stroke-linejoin="round"/>
<path d="M617.587 883.798C619.682 881.49 621.681 879.071 623.586 876.564C644.39 849.116 653.228 810.688 649.216 774.303C636.028 785.934 626.987 802.979 621.446 821.032C617.531 833.83 615.308 842.046 613.788 852.517C613.171 856.828 612.66 861.531 612.203 867.107" stroke="#171717" stroke-width="2" stroke-linecap="round" stroke-linejoin="round"/>
<path d="M612.567 867.218C613.261 862.356 613.67 857.444 613.79 852.518C614.414 830.289 609.489 808.321 599.602 789.233C592.645 814.36 590.658 835.778 598.591 858.511C599.763 861.842 601.09 865.098 602.568 868.262" stroke="#171717" stroke-width="2" stroke-linecap="round" stroke-linejoin="round"/>
<path d="M602.475 867.526C601.337 864.434 600.04 861.424 598.592 858.511C590.102 841.293 577.001 827.721 561.259 819.837C565.902 836.098 573.951 850.783 584.691 862.589" stroke="#171717" stroke-width="2" stroke-linecap="round" stroke-linejoin="round"/>
<path d="M849.846 938.303C849.703 938.302 849.561 938.314 849.421 938.339L824.692 942.306C823.779 942.454 822.85 942.33 821.99 941.95L811.439 937.357C810.93 937.134 810.481 936.761 810.137 936.275C809.792 935.789 809.565 935.206 809.477 934.586C809.39 933.966 809.446 933.33 809.639 932.743C809.832 932.156 810.155 931.637 810.578 931.24L840.092 903.448C840.646 902.931 841.337 902.65 842.05 902.65H845.464C846.179 902.647 846.874 902.935 847.427 903.461L866.2 921.344L867.773 922.843C867.899 922.964 868.034 923.072 868.178 923.163L875.782 928.326L880.005 931.189C880.496 931.522 880.899 932.007 881.168 932.588C881.436 933.168 881.562 933.824 881.528 934.482C881.495 935.139 881.305 935.774 880.98 936.316C880.655 936.856 880.207 937.284 879.686 937.55L865.976 944.489C865.305 944.829 864.579 944.999 863.847 944.985C863.114 944.973 862.393 944.779 861.732 944.415L851.16 938.655C850.749 938.429 850.301 938.309 849.846 938.303Z" stroke="#171717" stroke-width="2" stroke-linecap="round" stroke-linejoin="round"/>
<path d="M844.57 905.253L840.571 913.921C840.571 913.921 849.078 924.248 850.324 928.656C850.845 930.474 850.207 936.308 850.207 936.308" stroke="#171717" stroke-width="2" stroke-linecap="round" stroke-linejoin="round"/>
<path d="M875.991 927.925C891.758 907.194 902.276 881.848 906.387 854.668C890.529 871.382 882.265 895.367 874.501 918.48C875.963 907.492 874.964 896.254 871.597 885.837C867.124 896.917 865.264 909.166 866.205 921.342C866.227 921.594 866.248 921.871 866.269 922.128" stroke="#171717" stroke-width="2" stroke-linecap="round" stroke-linejoin="round"/>
<path d="M70.087 951.073C70.0739 950.708 70.1306 950.344 70.2517 950.007C70.3727 949.669 70.556 949.367 70.7894 949.12L77.9474 941.333L92.2352 925.798C92.6006 925.403 93.0674 925.157 93.5647 925.097L104.035 923.964C104.539 923.91 105.045 924.052 105.472 924.369L112.789 929.884C113.218 930.204 113.726 930.35 114.235 930.301L120.511 929.601C121.042 929.549 121.573 929.714 122.01 930.068L136.305 941.698C136.737 942.05 137.048 942.567 137.183 943.158C137.317 943.75 137.266 944.376 137.039 944.929L134.997 949.902C134.834 950.296 134.588 950.636 134.281 950.892C133.974 951.148 133.617 951.31 133.242 951.364L106.598 955.048L106.489 955.06C106.372 955.079 106.255 955.088 106.138 955.084L72.2465 953.592C71.6761 953.568 71.1362 953.294 70.7348 952.826C70.3335 952.358 70.1012 951.731 70.087 951.073Z" stroke="#171717" stroke-width="2" stroke-linecap="round" stroke-linejoin="round"/>
<path d="M104.335 926.377L101.804 936.46L106.314 943.399V952.389" stroke="#171717" stroke-width="2" stroke-linecap="round" stroke-linejoin="round"/>
<path d="M76.6506 944.984C77.1076 943.767 77.533 942.552 77.9485 941.332C86.0849 917.285 86.7339 891.729 84.7652 865.814C74.1617 888.056 72.6937 914.387 71.471 939.747C70.3891 920.638 67.0942 901.782 61.6742 883.684C58.813 903.113 60.4609 923.072 66.4507 941.528C62.1748 934.258 57.8955 926.983 53.612 919.704C51.7196 932.424 57.0476 945.925 70.0881 951.072C70.184 951.108 70.2898 951.157 70.3967 951.198" stroke="#171717" stroke-width="2" stroke-linecap="round" stroke-linejoin="round"/>
<path d="M357.633 426.36C357.463 424.812 357.305 423.277 357.132 421.729" stroke="#171717" stroke-width="2" stroke-linecap="round" stroke-linejoin="round"/>
<path d="M150.071 691.425C150.018 691.119 149.975 690.825 149.922 690.517C134.627 595.227 104.294 501.889 62.6101 416.972C50.7306 392.764 37.957 369.287 24.2895 346.539" stroke="#171717" stroke-width="2" stroke-linecap="round" stroke-linejoin="round"/>
<path d="M23.4368 347.022C-0.972424 470.596 13.5117 605.358 69.534 714.366C70.087 715.446 70.6509 716.527 71.2147 717.596C86.5201 746.822 104.603 773.983 125.129 798.574C132.169 807.023 139.491 815.149 147.092 822.952" stroke="#171717" stroke-width="2" stroke-linecap="round" stroke-linejoin="round"/>
<path d="M148.518 792.807C140.861 761.638 132.838 730.59 124.449 699.666C117.737 674.898 110.781 650.214 103.58 625.615C86.8506 568.307 68.8513 511.521 49.5814 455.257" stroke="#171717" stroke-width="2" stroke-linecap="round" stroke-linejoin="round"/>
<path d="M151.027 431.15C128.774 360.524 93.6116 296.258 47.9326 242.72" stroke="#171717" stroke-width="2" stroke-linecap="round" stroke-linejoin="round"/>
<path d="M46.2413 240.729C46.2838 241.43 46.3263 242.13 46.3689 242.841C49.6409 299.249 55.2502 361.073 62.947 416.744" stroke="#171717" stroke-width="2" stroke-linecap="round" stroke-linejoin="round"/>
<path d="M69.8328 718.554C44.9837 716.377 21.253 705.734 1.64526 687.974" stroke="#171717" stroke-width="2" stroke-linecap="round" stroke-linejoin="round"/>
<path d="M-0.184364 688.122C1.22816 705.074 5.62825 721.515 12.7453 736.432C19.8624 751.348 29.5461 764.428 41.2014 774.865C52.8567 785.302 66.2372 792.878 80.5206 797.124C94.8051 801.371 109.689 802.201 124.261 799.561" stroke="#171717" stroke-width="2" stroke-linecap="round" stroke-linejoin="round"/>
<path d="M147.506 836.86C138.833 826.395 128.909 817.416 118.034 810.196C117.637 809.841 117.178 809.589 116.688 809.458C116.198 809.329 115.69 809.323 115.198 809.441C113.72 810.105 113.741 812.511 114.108 814.292C115.561 821.195 118.21 827.687 121.893 833.378C128.222 843.358 137.303 850.557 147.643 853.789" stroke="#171717" stroke-width="2" stroke-linecap="round" stroke-linejoin="round"/>
<path d="M121.225 833.951C113.918 833.447 104.803 833.509 97.4857 833.005C101.672 843.34 108.817 851.691 117.715 856.648C126.969 861.49 137.357 862.618 147.23 859.853" stroke="#171717" stroke-width="2" stroke-linecap="round" stroke-linejoin="round"/>
<path d="M82.1443 331.684C92.0247 359.82 101.352 388.46 110.052 417.407C125.745 469.626 139.36 522.877 150.42 576.156" stroke="#171717" stroke-width="2" stroke-linecap="round" stroke-linejoin="round"/>
<path d="M111.035 370.799C110.717 386.336 110.389 401.872 110.053 417.408C110.044 417.659 110.044 417.923 110.033 418.181" stroke="#171717" stroke-width="2" stroke-linecap="round" stroke-linejoin="round"/>
<path d="M95.4211 436.689C108.351 456.252 120.42 476.553 131.583 497.517" stroke="#171717" stroke-width="2" stroke-linecap="round" stroke-linejoin="round"/>
<path d="M72.4385 474.87C73.9392 495.098 75.4345 515.33 76.9266 535.564" stroke="#171717" stroke-width="2" stroke-linecap="round" stroke-linejoin="round"/>
<path d="M66.0352 577.222C78.8942 596.209 91.6659 610.701 104.527 629.675" stroke="#171717" stroke-width="2" stroke-linecap="round" stroke-linejoin="round"/>
<path d="M123.396 650.824C123.747 667.112 124.098 683.393 124.449 699.667C124.457 699.769 124.46 699.871 124.459 699.974" stroke="#171717" stroke-width="2" stroke-linecap="round" stroke-linejoin="round"/>
<path d="M106.888 594.527C104.144 606.771 102.975 613.022 103.58 625.61C103.58 625.672 103.591 625.721 103.591 625.782" stroke="#171717" stroke-width="2" stroke-linecap="round" stroke-linejoin="round"/>
<path d="M38.8068 492.875C50.3254 506.912 64.4713 521.577 75.9984 535.626" stroke="#171717" stroke-width="2" stroke-linecap="round" stroke-linejoin="round"/>
<path d="M136.691 457.494C135.309 471.003 133.923 484.52 132.532 498.046C132.681 496.952 132.819 495.859 132.969 494.771" stroke="#171717" stroke-width="2" stroke-linecap="round" stroke-linejoin="round"/>
<path d="M78.0118 390.082C87.7438 399.366 99.7096 408.036 109.442 417.321" stroke="#171717" stroke-width="2" stroke-linecap="round" stroke-linejoin="round"/>
<path d="M799.151 695.025C830.379 664.17 841.237 621.767 849.268 575.222C857.298 528.676 859.138 480.791 869.227 434.786C879.316 388.781 899.37 343.008 934.33 318.042C918.962 352.22 912.377 390.795 909.08 429.119C905.783 467.443 905.602 506.073 902.125 544.378C898.03 589.475 889.223 634.423 871.94 675.137C854.656 715.85 832.799 749.302 798.891 772.17" stroke="#171717" stroke-width="2" stroke-linecap="round" stroke-linejoin="round"/>
<path d="M798.399 839.218C842.337 808.294 862.53 756.172 880.648 700.576C898.765 644.979 912.002 586.261 940.549 536.829C919.608 597.363 928.872 667.993 905.717 727.458C886.901 775.773 847.878 813.243 838.614 865.131" stroke="#171717" stroke-width="2" stroke-linecap="round" stroke-linejoin="round"/>
<path d="M838.415 866.998C838.66 866.494 838.904 865.99 839.16 865.487C847.093 849.799 858.371 836.714 871.919 827.476C875.409 825.106 879.726 822.969 883.353 825.044C888.022 827.709 888.277 835.275 887.192 841.164C885.682 850.003 882.448 858.327 877.737 865.507" stroke="#171717" stroke-width="2" stroke-linecap="round" stroke-linejoin="round"/>
<path d="M786.892 868.458L787.655 868.494C804.577 869.305 821.513 869.362 838.463 868.666C851.588 868.149 864.684 867.18 877.752 865.757C880.252 865.473 882.741 865.191 885.23 864.884" stroke="#171717" stroke-width="2" stroke-linecap="round" stroke-linejoin="round"/>
<path d="M799.655 732.015C832.914 716.761 849.315 683.247 861.036 644.205C872.758 605.163 874.809 563.296 877.533 522.092C880.256 480.888 883.935 438.899 898.528 401.159" stroke="#171717" stroke-width="2" stroke-linecap="round" stroke-linejoin="round"/>
<path d="M799.655 667.575C827.358 626.483 830.596 585.622 834.286 533.722C837.977 481.822 835.573 429.446 840.901 377.726C843.455 352.965 847.791 328.494 853.867 304.568C854.058 303.793 854.25 303.02 854.452 302.259C854.931 300.403 855.42 298.549 855.92 296.695C860.376 280.186 865.639 263.982 871.681 248.16C871.862 247.669 872.053 247.165 872.245 246.674C873.362 243.777 874.51 240.881 875.681 238.003C875.914 237.438 876.138 236.87 876.372 236.308C882.059 222.489 888.342 209.007 895.197 195.915C895.336 195.645 895.485 195.363 895.623 195.093C896.825 192.808 898.048 190.536 899.293 188.277C899.345 188.161 899.405 188.05 899.474 187.946C906.518 175.067 914.133 162.618 922.288 150.647C922.628 150.143 922.97 149.652 923.31 149.148C924.074 148.031 924.837 146.925 925.618 145.821" stroke="#171717" stroke-width="2" stroke-linecap="round" stroke-linejoin="round"/>
<path d="M778.989 214.681C783.202 214.619 787.53 214.532 791.455 212.751C796.634 210.406 801.07 204.402 798.751 197.34C798.095 195.465 797.06 193.799 795.731 192.48C794.403 191.162 792.821 190.23 791.117 189.761C784.437 187.772 777.92 191.824 773.195 197.216C778.757 187.379 774.333 172.138 764.761 168.147C755.188 164.156 743.361 172.629 742.191 184.296C742.628 174.102 733.863 164.757 725.098 166.07C716.334 167.384 709.922 179.004 712.591 188.731C710.026 185.55 706.665 183.374 702.977 182.506C699.29 181.637 695.459 182.121 692.021 183.889C688.583 185.657 685.709 188.62 683.8 192.366C681.891 196.112 681.043 200.452 681.374 204.782C681.385 204.966 681.36 205.152 681.3 205.325C681.241 205.496 681.149 205.651 681.03 205.776C680.911 205.902 680.77 205.994 680.616 206.048C680.463 206.101 680.3 206.113 680.141 206.083C674.982 205.272 659.166 212.555 667.665 220.796C673.908 226.841 687.564 217.702 694.084 216.339C720.832 210.726 751.783 215.062 778.989 214.681Z" stroke="#171717" stroke-width="2" stroke-linecap="round" stroke-linejoin="round"/>
<path d="M534.159 127.644C544.156 127.239 554.15 126.842 564.142 126.453C569.131 126.244 574.285 126.011 578.628 122.917C580.2 121.811 581.525 120.297 582.5 118.495C587.212 109.615 579.852 101.706 572.842 101.657C567.418 101.633 562.44 105.145 558.388 109.309C563.461 101.78 562.004 89.5481 555.357 83.886C553.283 82.2211 550.896 81.1531 548.394 80.7678C545.891 80.3837 543.344 80.6947 540.966 81.6758C537.933 82.8029 535.291 85.0182 533.425 88.0004C537.159 75.6207 528.235 61.3872 517.077 58.9088C505.92 56.4303 494.38 63.6365 487.594 74.1472C491.551 63.6718 486.712 50.3451 477.947 45.0166C469.183 39.6881 457.792 41.9211 450.156 49.2041C442.52 56.487 438.509 68.0682 438.275 79.5021C434.52 68.8793 428.786 56.8333 417.971 57.463C415.508 57.6708 413.118 58.5209 410.98 59.9503C408.844 61.3797 407.015 63.3519 405.634 65.7157C399.177 76.3272 400.283 88.989 401.442 101C390.296 93.9748 374.598 104.574 372.087 118.955C372.502 116.562 342.168 119.332 354.144 133.202C359.664 139.599 386.233 133.497 392.966 133.226L501.814 128.915C512.589 128.491 523.372 128.066 534.159 127.644Z" stroke="#171717" stroke-width="2" stroke-linecap="round" stroke-linejoin="round"/>
<path d="M540.817 82.5474C540.859 82.2527 540.913 81.958 540.966 81.6759C546.338 49.5731 571.172 35.0071 593.571 33.2137C616.162 31.409 639.105 46.5632 649.196 69.9876C659.981 95.029 655.849 126.248 642.979 149.939C632.629 168.987 616.165 184.498 596.935 188.098C589.528 189.441 581.962 189.03 574.696 186.894C567.43 184.757 560.617 180.939 554.667 175.669C543.095 165.303 535.735 144.647 534.163 127.649C534.13 127.28 534.098 126.913 534.067 126.556" stroke="#171717" stroke-width="2" stroke-linecap="round" stroke-linejoin="round"/>
<path d="M172.831 103.437C172.938 104.007 173.077 104.57 173.246 105.119C173.165 104.542 173.025 103.978 172.831 103.437Z" stroke="#171717" stroke-width="2" stroke-linecap="round" stroke-linejoin="round"/>
<path d="M172.832 103.438C171.035 98.5997 164.706 96.7937 160.526 99.5203C155.889 102.543 153.74 109.002 153.198 115.13C153.559 111.065 143.849 109.346 141.764 109.665C139.582 110.04 137.529 111.086 135.818 112.695C134.107 114.303 132.804 116.412 132.042 118.803C129.394 126.988 132.617 134.878 139.818 136.819C148.113 139.066 158.622 137.223 167.004 136.843C179.719 136.256 192.386 134.693 204.921 132.165C209.707 131.194 214.674 129.978 218.445 126.441C222.217 122.903 224.316 116.346 221.849 111.52C220.804 109.695 219.289 108.296 217.518 107.517C215.748 106.74 213.81 106.623 211.979 107.184C210.166 107.812 208.505 108.923 207.131 110.426C205.756 111.93 204.707 113.786 204.066 115.843C206.64 107.922 205.937 98.4397 201.524 91.697C197.11 84.9543 188.824 81.6019 181.974 84.5866C175.597 87.3497 171.375 95.8605 172.832 103.438Z" stroke="#171717" stroke-width="2" stroke-linecap="round" stroke-linejoin="round"/>
<path d="M399.782 979.148C404.012 975.307 408.828 972.415 413.982 970.625" stroke="#171717" stroke-width="2" stroke-linecap="round" stroke-linejoin="round"/>
<path d="M389.253 971.315C393.651 967.437 398.65 964.568 403.984 962.864" stroke="#171717" stroke-width="2" stroke-linecap="round" stroke-linejoin="round"/>
<path d="M381.277 965.874C385.617 962.064 390.496 959.155 395.699 957.276" stroke="#171717" stroke-width="2" stroke-linecap="round" stroke-linejoin="round"/>
<path d="M232.829 952.155C238.487 953.583 244.146 955.003 249.804 956.416" stroke="#171717" stroke-width="2" stroke-linecap="round" stroke-linejoin="round"/>
<path d="M233.298 940.476C238.562 941.651 243.831 942.835 249.103 944.025" stroke="#171717" stroke-width="2" stroke-linecap="round" stroke-linejoin="round"/>
<path d="M231.073 928.772C236.209 930.557 241.492 931.718 246.836 932.235" stroke="#171717" stroke-width="2" stroke-linecap="round" stroke-linejoin="round"/>
<path d="M925.49 145.684C925.5 145.623 925.522 145.574 925.533 145.512C927.093 138.801 927.313 131.767 926.176 124.942C925.04 118.117 922.575 111.679 918.97 106.114C917.977 104.464 916.703 103.065 915.226 102C914.487 101.471 913.649 101.151 912.782 101.068C911.915 100.985 911.043 101.141 910.238 101.521C909.378 102.071 908.657 102.87 908.147 103.838C907.635 104.808 907.351 105.914 907.324 107.047C907.283 109.32 907.637 111.58 908.366 113.692C911.982 126.169 917.662 137.714 923.308 149.147C923.318 149.182 923.332 149.216 923.35 149.245" stroke="#171717" stroke-width="2" stroke-linecap="round" stroke-linejoin="round"/>
<path d="M925.032 145.992C925.192 145.823 925.358 145.663 925.533 145.513C932.198 138.97 940.266 134.62 948.89 132.92C951.003 132.367 953.199 132.392 955.303 132.994C956.35 133.309 957.301 133.951 958.051 134.85C958.802 135.749 959.323 136.872 959.556 138.091C959.629 139.223 959.47 140.36 959.092 141.408C958.712 142.456 958.124 143.385 957.375 144.121C954.11 147.682 949.259 148.276 944.781 148.664C937.291 149.336 929.802 150.003 922.313 150.667" stroke="#171717" stroke-width="2" stroke-linecap="round" stroke-linejoin="round"/>
<path d="M898.751 187.884C899.877 171.782 899.324 154.589 891.848 140.944C890.734 138.695 889.196 136.764 887.349 135.295C886.42 134.569 885.354 134.109 884.24 133.953C883.127 133.797 881.997 133.951 880.945 134.399C879.822 135.06 878.865 136.045 878.169 137.259C877.472 138.472 877.058 139.874 876.968 141.326C876.823 144.232 877.173 147.145 878 149.897C881.903 165.543 888.337 180.182 894.905 194.588" stroke="#171717" stroke-width="2" stroke-linecap="round" stroke-linejoin="round"/>
<path d="M899.696 188.105C911.009 180.988 923.932 178.023 936.742 179.606C938.851 179.712 940.91 180.376 942.762 181.547C943.677 182.15 944.418 183.053 944.89 184.141C945.364 185.229 945.548 186.454 945.421 187.663C944.847 190.937 941.604 192.448 938.784 193.226C924.691 197.095 910.014 196.627 895.539 196.149" stroke="#171717" stroke-width="2" stroke-linecap="round" stroke-linejoin="round"/>
<path d="M874.905 237.586C874.341 226.397 873.768 215.161 871.799 204.193C869.83 193.225 866.407 182.431 860.611 173.442C859.36 171.24 857.667 169.419 855.675 168.136C854.673 167.509 853.537 167.224 852.399 167.316C851.262 167.407 850.17 167.87 849.251 168.651C847.262 170.628 847.134 174.104 847.305 177.125C848.73 202.498 859.877 225.587 870.746 247.681" stroke="#171717" stroke-width="2" stroke-linecap="round" stroke-linejoin="round"/>
<path d="M876.98 236.64C886.445 232.587 893.519 229.811 903.473 227.859C913.428 225.907 923.852 225.944 933.414 229.664C935.988 230.659 938.827 232.403 939.254 235.499C939.594 238.004 938.146 240.386 936.498 242.081C929.755 248.995 919.747 248.97 910.738 248.566L872.554 246.831" stroke="#171717" stroke-width="2" stroke-linecap="round" stroke-linejoin="round"/>
<path d="M855.569 296.793C849.788 272.538 841.848 247.779 825.862 230.684C823.033 227.661 818.97 224.776 815.577 226.877C812.716 228.657 812.056 233.066 812.248 236.826C812.844 248.198 818.138 258.502 823.98 267.688C832.383 280.903 842.188 292.849 853.165 303.25C853.463 302.882 853.76 302.502 854.058 302.117" stroke="#171717" stroke-width="2" stroke-linecap="round" stroke-linejoin="round"/>
<path d="M855.335 297.063C855.43 297.003 855.515 296.937 855.611 296.892C855.72 296.817 855.813 296.757 855.92 296.695C867.002 289.683 878.16 282.658 890.115 277.966C902.282 273.18 915.439 270.868 928.054 273.729C929.766 274.107 931.776 274.933 932.148 276.898C932.475 278.593 931.385 280.189 930.294 281.393C920.53 292.2 906.353 295.491 892.93 297.358C879.507 299.224 865.99 296.904 854.268 304.702" stroke="#171717" stroke-width="2" stroke-linecap="round" stroke-linejoin="round"/>
<path d="M520.518 235.443L529.937 241.036C530.078 241.119 530.194 241.251 530.269 241.412C530.343 241.575 530.372 241.759 530.353 241.941C530.334 242.123 530.267 242.294 530.161 242.43C530.055 242.567 529.915 242.663 529.762 242.704L519.456 245.527C519.307 245.567 519.17 245.658 519.065 245.787C518.961 245.917 518.892 246.08 518.868 246.255L517.172 258.327C517.146 258.508 517.074 258.676 516.964 258.808C516.852 258.939 516.711 259.028 516.555 259.064C516.399 259.099 516.237 259.079 516.092 259.005C515.946 258.931 515.824 258.807 515.742 258.651L510.233 248.204C510.154 248.053 510.037 247.932 509.897 247.857C509.758 247.782 509.603 247.757 509.451 247.784L498.981 249.651C498.824 249.68 498.663 249.651 498.521 249.571C498.378 249.491 498.26 249.362 498.182 249.202C498.106 249.042 498.073 248.858 498.09 248.675C498.106 248.493 498.17 248.32 498.274 248.181L505.176 238.904C505.276 238.77 505.339 238.605 505.359 238.429C505.379 238.254 505.352 238.075 505.285 237.916L500.511 226.998C500.439 226.834 500.413 226.649 500.436 226.469C500.459 226.287 500.528 226.117 500.636 225.984C500.744 225.85 500.885 225.757 501.04 225.718C501.195 225.68 501.356 225.697 501.503 225.767L511.278 230.48C511.419 230.548 511.575 230.567 511.725 230.533C511.876 230.499 512.014 230.414 512.123 230.29L519.641 221.673C519.754 221.544 519.898 221.458 520.054 221.426C520.211 221.395 520.371 221.418 520.515 221.497C520.659 221.573 520.779 221.699 520.859 221.858C520.938 222.017 520.974 222.199 520.961 222.382L520.101 234.571C520.087 234.748 520.121 234.925 520.195 235.08C520.27 235.235 520.382 235.361 520.518 235.443Z" stroke="#171717" stroke-width="2" stroke-linecap="round" stroke-linejoin="round"/>
<path d="M270.988 170.637L286.634 172.685C286.765 172.705 286.888 172.769 286.986 172.871C287.084 172.973 287.154 173.106 287.186 173.254C287.218 173.402 287.21 173.559 287.163 173.701C287.116 173.843 287.033 173.967 286.925 174.053L273.884 184.238C273.777 184.322 273.695 184.44 273.646 184.578C273.597 184.715 273.585 184.866 273.61 185.011L276.76 202.825C276.784 202.975 276.769 203.13 276.715 203.27C276.663 203.409 276.574 203.528 276.462 203.607C276.35 203.688 276.219 203.727 276.087 203.721C275.955 203.713 275.829 203.66 275.723 203.568L263.305 192.399C263.203 192.308 263.08 192.254 262.952 192.244C262.824 192.233 262.696 192.267 262.584 192.338L248.884 201.301C248.768 201.376 248.635 201.406 248.504 201.391C248.372 201.376 248.248 201.315 248.146 201.216C248.046 201.117 247.973 200.986 247.938 200.839C247.903 200.692 247.908 200.536 247.951 200.391L253.314 183.295C253.358 183.156 253.364 183.005 253.334 182.86C253.303 182.717 253.236 182.586 253.142 182.485L241.526 170.21C241.43 170.105 241.364 169.971 241.335 169.821C241.307 169.672 241.319 169.516 241.368 169.375C241.418 169.234 241.503 169.113 241.614 169.03C241.725 168.945 241.854 168.901 241.986 168.904L257.724 169.51C257.852 169.515 257.978 169.474 258.087 169.396C258.196 169.318 258.283 169.205 258.337 169.07L264.858 152.521C264.914 152.383 265.005 152.268 265.119 152.191C265.234 152.114 265.366 152.079 265.498 152.09C265.63 152.101 265.755 152.158 265.859 152.254C265.961 152.349 266.038 152.478 266.076 152.624L270.439 170.094C270.474 170.238 270.544 170.365 270.643 170.462C270.741 170.559 270.861 170.619 270.988 170.637Z" fill="#171717"/>
<path d="M764.51 51.729L774.397 50.321C774.48 50.3097 774.565 50.3273 774.639 50.3726C774.714 50.418 774.774 50.4885 774.813 50.5741C774.852 50.661 774.867 50.7593 774.856 50.855C774.844 50.9519 774.808 51.0414 774.751 51.1131L768.033 59.6051C767.977 59.6744 767.941 59.7613 767.929 59.8545C767.916 59.9464 767.928 60.0421 767.963 60.1265L772.179 70.5491C772.214 70.6372 772.225 70.7355 772.21 70.8312C772.196 70.9269 772.155 71.015 772.097 71.0831C772.037 71.1523 771.96 71.1976 771.878 71.2153C771.796 71.2317 771.71 71.2191 771.634 71.1788L762.562 66.4246C762.488 66.3868 762.405 66.3743 762.325 66.3894C762.245 66.4045 762.17 66.446 762.111 66.5103L754.83 74.3612C754.768 74.4279 754.691 74.4708 754.608 74.4846C754.524 74.4972 754.44 74.4821 754.364 74.438C754.289 74.3952 754.227 74.3259 754.187 74.2403C754.146 74.1547 754.13 74.0577 754.14 73.9607L755.252 62.5294C755.261 62.4362 755.246 62.3417 755.209 62.2586C755.17 62.1755 755.114 62.1062 755.043 62.0596L746.326 56.4894C746.252 56.4428 746.192 56.371 746.155 56.2841C746.118 56.196 746.105 56.0977 746.117 56.002C746.13 55.9063 746.168 55.8169 746.226 55.7464C746.285 55.6759 746.36 55.628 746.443 55.6078L756.202 53.2956C756.282 53.2767 756.355 53.2314 756.412 53.1634C756.469 53.0967 756.508 53.011 756.523 52.9178L758.417 41.625C758.433 41.5293 758.474 41.4424 758.534 41.3744C758.595 41.3064 758.671 41.261 758.754 41.2459C758.838 41.2296 758.923 41.2434 759 41.2862C759.076 41.3278 759.138 41.3958 759.181 41.4802L764.1 51.4834C764.138 51.5678 764.198 51.6358 764.272 51.6799C764.345 51.7239 764.428 51.7403 764.51 51.729Z" fill="#171717"/>
<path d="M269.604 468.866L277.957 476.388C278.081 476.5 278.174 476.655 278.221 476.83C278.267 477.005 278.266 477.191 278.218 477.366C278.169 477.541 278.077 477.694 277.95 477.806C277.825 477.917 277.672 477.981 277.514 477.989L266.934 478.544C266.781 478.551 266.633 478.612 266.509 478.718C266.386 478.822 266.292 478.967 266.24 479.133L262.625 490.63C262.571 490.803 262.471 490.951 262.343 491.056C262.213 491.162 262.058 491.218 261.9 491.219C261.742 491.221 261.586 491.167 261.456 491.062C261.325 490.959 261.225 490.811 261.169 490.64L257.442 479.191C257.388 479.026 257.293 478.883 257.168 478.779C257.044 478.676 256.896 478.617 256.743 478.611L246.157 478.194C245.998 478.187 245.845 478.125 245.719 478.015C245.592 477.905 245.497 477.753 245.447 477.579C245.397 477.407 245.395 477.219 245.439 477.044C245.484 476.868 245.575 476.713 245.699 476.598L253.977 468.968C254.097 468.857 254.185 468.708 254.232 468.539C254.279 468.371 254.281 468.189 254.239 468.019L251.307 456.264C251.264 456.088 251.268 455.902 251.319 455.728C251.37 455.555 251.466 455.404 251.594 455.296C251.722 455.188 251.875 455.127 252.034 455.122C252.192 455.117 252.348 455.169 252.481 455.269L261.324 462.001C261.452 462.099 261.601 462.152 261.755 462.152C261.907 462.152 262.058 462.099 262.186 462.001L270.962 455.152C271.093 455.049 271.249 454.996 271.407 454.999C271.565 455.001 271.72 455.059 271.849 455.166C271.978 455.273 272.075 455.423 272.128 455.596C272.18 455.768 272.186 455.956 272.144 456.132L269.332 467.924C269.291 468.094 269.297 468.275 269.345 468.442C269.394 468.61 269.483 468.757 269.604 468.866Z" stroke="#171717" stroke-width="2" stroke-miterlimit="10"/>
<path d="M144.843 233.998L128.212 216.805" stroke="#171717" stroke-width="2" stroke-linecap="round" stroke-linejoin="round"/>
<path d="M129.469 237.488C133.661 229.932 137.854 222.373 142.044 214.811" stroke="#171717" stroke-width="2" stroke-linecap="round" stroke-linejoin="round"/>
<path d="M336.47 57.019C339.478 52.11 342.487 47.201 345.495 42.2944" stroke="#171717" stroke-width="2" stroke-linecap="round" stroke-linejoin="round"/>
<path d="M346.237 56.9316C342.477 50.869 338.718 44.8051 334.959 38.7417" stroke="#171717" stroke-width="2" stroke-linecap="round" stroke-linejoin="round"/>
<path d="M811.865 126.896C804.616 117.452 798.769 106.691 794.558 95.0454" stroke="#171717" stroke-width="2" stroke-linecap="round" stroke-linejoin="round"/>
<path d="M792.17 121.152L809.466 100.373" stroke="#171717" stroke-width="2" stroke-linecap="round" stroke-linejoin="round"/>
<path d="M301.084 392.515L287.56 370.854" stroke="#171717" stroke-width="2" stroke-linecap="round" stroke-linejoin="round"/>
<path d="M285.369 391.606C292.833 385.627 299.424 378.31 304.892 369.933" stroke="#171717" stroke-width="2" stroke-linecap="round" stroke-linejoin="round"/>
<path d="M436.776 386.13L445.174 375.877" stroke="#171717" stroke-width="2" stroke-linecap="round" stroke-linejoin="round"/>
<path d="M445.284 388.132C442.28 383.51 439.278 378.886 436.275 374.261" stroke="#171717" stroke-width="2" stroke-linecap="round" stroke-linejoin="round"/>
<path d="M256.742 645.837C251.04 642.384 246.338 637.077 243.218 630.573C240.097 624.069 238.695 616.652 239.182 609.238" stroke="#171717" stroke-width="2" stroke-linecap="round" stroke-linejoin="round"/>
<path d="M195.303 951.607C193.217 948.095 191.915 944.042 191.511 939.808C191.108 935.575 191.616 931.292 192.99 927.339" stroke="#171717" stroke-width="2" stroke-linecap="round" stroke-linejoin="round"/>
<path d="M586.432 439.285L627.725 388.137" stroke="#171717" stroke-width="2" stroke-linecap="round" stroke-linejoin="round"/>
<path d="M572.168 430.616L573.669 407.209" stroke="#171717" stroke-width="2" stroke-linecap="round" stroke-linejoin="round"/>
<path d="M593.939 453.156L618.715 458.357" stroke="#171717" stroke-width="2" stroke-linecap="round" stroke-linejoin="round"/>
<path fill-rule="evenodd" clip-rule="evenodd" d="M548.394 80.7677C545.891 80.3836 543.344 80.6946 540.966 81.6757C537.933 82.8041 535.29 85.0218 533.425 88.0065C537.159 75.6294 528.224 61.3859 517.077 58.915C505.931 56.4441 494.38 63.6414 487.594 74.1534C491.551 63.6779 486.7 50.3651 477.947 45.0228C469.195 39.6802 457.783 41.9273 450.156 49.2102C442.529 56.4932 438.509 68.0744 438.275 79.5083C434.521 68.8792 428.788 56.8307 417.971 57.4692C415.508 57.6758 413.118 58.5271 410.98 59.9565C408.844 61.3859 407.015 63.3568 405.634 65.7219C399.177 76.3334 400.283 88.9952 401.442 101.006C390.296 93.981 374.595 104.58 372.087 118.961C372.502 116.567 342.168 119.342 354.144 133.208C358.349 138.081 374.762 135.702 385.323 134.171C388.628 133.692 391.361 133.296 392.966 133.232L501.814 128.921C512.591 128.489 523.374 128.063 534.159 127.644C544.149 127.242 554.144 126.846 564.142 126.453C569.131 126.244 574.288 126.011 578.628 122.916C580.2 121.811 581.525 120.297 582.5 118.495C587.212 109.615 579.852 101.706 572.842 101.657C567.418 101.633 562.44 105.145 558.388 109.309C563.461 101.78 562.01 89.5531 555.357 83.8859C553.283 82.221 550.896 81.1518 548.394 80.7677ZM545.163 88.5733C544.259 88.5594 543.517 89.3944 543.506 90.4371C543.494 91.4812 544.218 92.3375 545.121 92.3514C546.602 92.3728 548.051 92.8514 549.319 93.738C550.586 94.6233 551.625 95.8839 552.329 97.3889C553.033 98.8951 553.376 100.59 553.322 102.299C553.268 104.008 552.82 105.671 552.023 107.113C551.537 107.993 551.761 109.16 552.523 109.721C553.284 110.282 554.296 110.024 554.782 109.144C555.892 107.134 556.517 104.819 556.592 102.436C556.666 100.054 556.19 97.6924 555.208 95.5943C554.228 93.4962 552.779 91.7393 551.014 90.5052C549.247 89.271 547.228 88.6035 545.163 88.5733ZM511.984 67.1362C512.054 66.0959 512.841 65.3189 513.742 65.4008C517.824 65.7698 521.653 67.8276 524.525 71.1977C527.397 74.5665 529.119 79.0197 529.374 83.7385C529.43 84.78 528.744 85.6767 527.842 85.7422C526.941 85.8064 526.165 85.0155 526.108 83.974C525.902 80.1644 524.512 76.5677 522.194 73.8474C519.874 71.1272 516.783 69.4648 513.487 69.1676C512.586 69.0857 511.913 68.1764 511.984 67.1362ZM468.991 44.6047C468.116 44.3465 467.225 44.9573 467.001 45.9674C466.778 46.9786 467.306 48.0075 468.181 48.2657C471.618 49.2795 474.643 51.6434 476.734 54.953C478.826 58.2614 479.855 62.3078 479.644 66.3969C479.59 67.4384 480.278 68.3326 481.18 68.3943C482.082 68.456 482.856 67.6626 482.91 66.6211C483.166 61.6554 481.917 56.7426 479.377 52.7252C476.837 48.7078 473.165 45.8364 468.991 44.6047Z" fill="#171717"/>
<path d="M606.038 64.172C598.43 62.764 590.725 71.2787 591.607 80.1144C592.489 88.9502 601.673 95.2156 608.802 91.8442C615.932 88.4729 618.671 76.5706 613.929 69.5533" stroke="#171717" stroke-width="2" stroke-linecap="round" stroke-linejoin="round"/>
<path d="M562.498 146.295C562.078 148.259 562.131 150.318 562.649 152.251C563.167 154.183 564.131 155.916 565.438 157.263C566.745 158.61 568.345 159.52 570.067 159.895C571.789 160.271 573.566 160.097 575.209 159.393" stroke="#171717" stroke-width="2" stroke-linecap="round" stroke-linejoin="round"/>
<path d="M604.731 119.845C601.324 121.136 598.366 123.656 596.293 127.035C594.219 130.413 593.141 134.47 593.214 138.61C593.433 142.743 594.721 146.706 596.911 149.986C599.101 153.265 602.093 155.71 605.5 157.006C608.941 158.171 612.596 158.205 616.053 157.104C619.511 156.003 622.633 153.812 625.072 150.775C627.441 147.667 629.077 143.907 629.824 139.857C630.57 135.807 630.401 131.603 629.333 127.651" stroke="#171717" stroke-width="2" stroke-linecap="round" stroke-linejoin="round"/>
<path d="M367.287 497.582C367.104 491.946 366.919 486.311 366.734 480.676" stroke="#171717" stroke-width="2" stroke-linecap="round" stroke-linejoin="round"/>
<path d="M353.954 503.265L353.708 486.791" stroke="#171717" stroke-width="2" stroke-linecap="round" stroke-linejoin="round"/>
<path d="M340.782 498.668C340.73 493.538 340.679 488.409 340.626 483.281" stroke="#171717" stroke-width="2" stroke-linecap="round" stroke-linejoin="round"/>
<path d="M316.748 583.98C318.465 587.155 321.013 589.615 324.022 591.005C327.031 592.394 330.346 592.64 333.485 591.707C341.234 589.188 345.866 580.083 352.766 575.294C355.739 573.271 359.077 572.067 362.52 571.778C365.962 571.49 369.416 572.125 372.61 573.632C377.48 575.985 381.432 580.248 385.413 584.251C389.394 588.255 393.702 592.185 398.828 593.628C403.954 595.072 410.121 593.336 412.807 588.087" stroke="#171717" stroke-width="2" stroke-linecap="round" stroke-linejoin="round"/>
<path d="M319.066 572.572C321.793 577.057 327.496 577.978 331.931 576.037C336.365 574.096 339.772 569.948 342.815 565.748C345.858 561.548 348.784 557.077 352.76 554.094C355.473 552.096 358.552 550.861 361.752 550.487C364.952 550.112 368.183 550.608 371.187 551.935C379.752 555.818 385.401 566.077 394.2 569.197C397.5 570.308 401.003 570.343 404.319 569.298C407.636 568.254 410.638 566.17 412.992 563.278" stroke="#171717" stroke-width="2" stroke-linecap="round" stroke-linejoin="round"/>
<path d="M297.756 665.786L412.441 663.887" stroke="#171717" stroke-width="2" stroke-linecap="round" stroke-linejoin="round"/>
<path d="M342.309 651.907C344.101 638.549 345.25 625.086 345.748 611.581" stroke="#171717" stroke-width="2" stroke-linecap="round" stroke-linejoin="round"/>
<path d="M531.392 513.887C531.901 505.508 530.65 497.11 527.747 489.408C524.844 481.704 520.374 474.925 514.718 469.643" stroke="#171717" stroke-width="2" stroke-linecap="round" stroke-linejoin="round"/>
<g opacity="0.1">
<path d="M46.9079 247.319C44.8477 253.434 45.573 260.114 45.994 266.502C46.4793 273.882 47.0214 281.266 47.4718 288.648C48.3563 303.109 49.6859 317.379 51.1801 331.804C52.6318 345.794 53.6712 359.858 55.245 373.828C56.075 381.202 57.0992 388.54 58.0808 395.889C59.0111 402.867 59.0984 410.245 62.1915 416.467C64.5528 421.217 70.1535 419.659 71.6292 415.042C73.7789 408.342 72.6839 400.655 72.5017 393.633C72.3196 386.611 72.1745 379.59 71.7022 372.59C70.7065 357.729 68.9756 342.886 67.3919 328.099C65.8421 313.598 63.7751 299.519 61.2448 285.247C60.0276 278.38 58.7035 271.557 57.3424 264.726C56.0249 258.118 54.8218 251.414 51.0067 246.067C49.7121 244.253 47.5024 245.543 46.9047 247.318L46.9079 247.319Z" fill="#171717"/>
</g>
<g opacity="0.1">
<path d="M25.832 350.847C24.425 355.469 22.4847 359.285 21.5075 364.071C20.7331 367.865 19.8071 371.627 19.1255 375.443C17.616 383.906 15.1794 391.747 13.9993 400.36C11.7297 417.636 10.5742 435.083 10.5419 452.557C10.3481 486.719 13.1487 520.816 18.9008 554.327C29.6043 616.933 49.9384 676.817 78.9389 731.137C86.6925 745.653 95.0121 759.736 103.9 773.388C113.223 787.674 122.815 802.701 134.215 814.883C136.01 816.904 138.375 818.111 140.877 818.283C143.38 818.455 145.853 817.581 147.842 815.82C151.468 812.485 153.711 805.156 150.515 800.361C142.462 788.281 133.458 777.098 125.408 764.998C117.54 753.174 110.132 740.958 103.186 728.35C89.3231 703.194 77.2963 676.751 67.2305 649.293C45.7902 590.732 34.4156 527.763 31.8536 464.345C31.0901 445.497 31.4173 426.672 31.5874 407.818C31.63 403.125 31.8056 398.422 31.7925 393.733C31.7739 388.932 30.8109 384.507 31.1195 379.686C31.4195 375.026 31.4936 370.351 31.823 365.689C32.159 360.929 31.4544 356.511 31.5525 351.75C31.6343 347.793 26.8801 347.401 25.8287 350.855L25.832 350.847Z" fill="#171717"/>
</g>
<g opacity="0.1">
<path d="M350.312 405.898C346.647 417.357 344.357 429.342 343.507 441.518C343.012 447.796 342.922 454.054 342.761 460.348C342.607 466.393 341.452 472.576 343.106 478.453C345.091 485.506 352.89 483.515 353.65 476.805C354.35 470.634 352.289 464.211 352.117 457.992C351.964 452.506 352.079 446.996 352.341 441.518C352.899 429.894 354.077 418.22 355.233 406.667C355.579 403.205 351.231 403.079 350.312 405.898Z" fill="#171717"/>
</g>
<g opacity="0.1">
<path d="M336.134 484.106C334.336 487.79 333.88 491.212 333.046 495.268C332.61 497.386 332.46 498.243 331.301 499.083C329.703 500.053 327.981 500.721 326.2 501.063C317.817 503.113 309.636 506.138 301.781 510.092C286.185 518.099 272.139 529.812 262.601 546.381C253.046 562.907 249.436 583.077 252.534 602.622C255.716 621.41 267.493 637.049 282.179 645.393C301.811 656.546 323.645 656.098 344.925 654.017C357.231 652.815 357.509 630.719 344.925 631.585C319.354 633.349 277.085 634.238 271.561 595.598C266.638 561.135 294.103 536.665 317.648 523.379C324.047 519.768 333.095 516.966 337.767 510.398C339.766 507.3 341.098 503.697 341.654 499.888C342.354 495.014 340.654 490.398 340.802 485.566C340.788 484.939 340.599 484.334 340.263 483.841C339.929 483.348 339.464 482.993 338.939 482.829C338.415 482.666 337.858 482.701 337.353 482.931C336.848 483.161 336.421 483.574 336.134 484.106Z" fill="#171717"/>
</g>
<g opacity="0.1">
<path d="M319.147 570.928C314.051 578.547 307.695 594.805 311.066 604.329C313.684 611.742 321.426 613.341 325.548 606.514C328.374 601.833 328.103 595.558 328.653 590.033C329.291 584.809 329.695 579.551 329.863 574.279C329.922 567.059 322.381 566.093 319.147 570.928Z" fill="#171717"/>
</g>
<g opacity="0.1">
<path d="M304.499 672.704C303.562 673.252 305.945 671.904 306.158 671.709C306.869 671.001 307.477 670.168 307.958 669.238C308.624 668.087 309.212 666.888 309.801 665.683L304.601 669.128L305.774 668.947C308.018 668.602 310.163 668.115 311.789 666.071C313.325 664.183 314.21 661.714 314.28 659.126L314.313 658.364C314.671 649.96 305.122 646.016 300.237 651.631L299.759 652.18C297.269 655.04 296.294 660.565 298.428 664.083L299.4 665.683L298.793 660.325C298.414 661.629 298.029 662.929 297.748 664.269C297.537 665.074 297.409 665.905 297.366 666.745C297.333 667.59 297.496 668.431 297.837 669.18C298.178 670.028 298.22 670.179 297.965 669.634C298.157 670.384 298.492 671.076 298.947 671.656C299.401 672.237 299.964 672.692 300.591 672.986C301.22 673.282 301.897 673.409 302.573 673.36C303.25 673.311 303.908 673.087 304.499 672.704Z" fill="#171717"/>
</g>
<g opacity="0.1">
<path d="M398.966 554.845C412.509 557.774 426.321 554.467 439.726 551.583C453.455 548.629 467.035 544.819 480.408 540.168C493.001 535.918 505.353 530.766 517.391 524.742C527.12 519.761 541.612 511.548 544.222 498.478C545.93 489.922 538.65 484.523 532.231 487.835C527.668 490.189 524.63 494.897 520.507 498.068C516.123 501.377 511.486 504.215 506.656 506.55C495.507 511.898 484.098 516.487 472.484 520.291C460.728 524.301 448.824 527.66 436.772 530.366C424.23 533.184 410.899 533.867 398.965 539.216C393.209 541.796 391.44 553.214 398.965 554.842L398.966 554.845Z" fill="#171717"/>
</g>
<g opacity="0.1">
<path d="M804.812 850.347C812.873 849.087 821.109 840.061 826.88 833.866C833.268 826.945 839.259 819.551 844.816 811.732C856.47 795.614 866.69 778.183 875.323 759.702C893.823 719.684 907.43 676.112 918.046 632.514C921.107 619.936 925.008 607.496 927.38 594.72C928.523 588.562 927.83 582.039 928.631 575.842C929.665 567.831 932.939 559.596 935.786 552.253C935.863 552.086 935.909 551.905 935.921 551.717C935.934 551.53 935.912 551.341 935.857 551.163C935.803 550.987 935.717 550.824 935.605 550.687C935.493 550.551 935.358 550.443 935.208 550.37C935.058 550.297 934.897 550.26 934.734 550.263C934.57 550.267 934.41 550.308 934.263 550.387C934.115 550.467 933.983 550.58 933.875 550.721C933.767 550.862 933.686 551.027 933.637 551.206C931.544 556.959 929.195 562.533 926.978 568.216C924.89 573.576 921.784 577.215 918.943 581.884C916.201 586.369 913.814 591.127 911.809 596.104C909.578 601.519 907.68 606.935 905.881 612.572C898.847 634.642 891.329 656.524 884.351 678.637C872.085 717.508 857.275 756.288 836.194 789.979C830.652 798.822 824.58 807.203 818.019 815.06C814.783 818.942 811.487 822.771 808.203 826.6C804.539 830.873 800.178 834.57 798.053 840.201C795.839 846.07 799.452 851.18 804.809 850.347H804.812Z" fill="#171717"/>
</g>
<g opacity="0.1">
<path d="M607.558 33.3916C593.439 35.0527 580.298 35.1622 567.191 42.4729C556.077 48.6703 546.999 59.1697 542.64 72.4763C538.894 83.9177 555.599 89.5824 558.699 77.5881C561.453 66.9338 567.552 59.2856 575.617 53.534C585.24 46.6629 597.259 41.8798 608.183 38.7326C610.692 38.0097 610.247 33.0818 607.558 33.3979V33.3916Z" fill="#171717"/>
</g>
<g opacity="0.1">
<path d="M611.764 175.604C604.893 176.201 598.234 177.241 591.426 175.699C584.736 174.177 578.37 171.152 572.689 166.797C563.793 159.921 553.659 145.816 554.954 132.522C555.581 126.079 549.43 121.32 544.528 122.085C539.535 122.865 534.85 129.264 536.876 135.347C539.951 144.573 541.749 153.543 546.812 161.815C551.619 169.666 557.891 176.849 565.379 181.237C579.41 189.459 600.045 190.361 612.741 178.325C612.927 178.1 613.054 177.816 613.104 177.509C613.154 177.202 613.126 176.885 613.022 176.596C612.919 176.308 612.744 176.06 612.522 175.883C612.298 175.707 612.035 175.61 611.764 175.604Z" fill="#171717"/>
</g>
<g opacity="0.1">
<path d="M138.938 111.64C130.987 111.435 129.153 123.462 132.587 129.87C134.57 133.924 137.524 137.23 141.094 139.391C146.279 142.387 151.751 141.715 157.345 141.004C168.495 139.586 179.704 139.023 190.815 137.12C201.445 135.299 214.437 133.056 222.428 124.137C224.635 121.674 223.097 116.31 219.753 116.679C212.354 117.498 205.574 120.941 198.325 122.737C190.59 124.551 182.741 125.647 174.855 126.011C167.065 126.471 159.417 125.879 151.641 125.456C148.404 125.281 145.097 125.621 141.896 125.195C137.072 124.551 137.611 119.223 140.422 115.77C140.703 115.426 140.893 114.997 140.967 114.532C141.042 114.066 140.998 113.586 140.841 113.149C140.684 112.712 140.421 112.337 140.084 112.068C139.747 111.8 139.349 111.652 138.94 111.638L138.938 111.64Z" fill="#171717"/>
</g>
</g>
</g>
</g>
<defs>
<linearGradient id="paint0_linear_85_446" x1="396.027" y1="467.538" x2="396.027" y2="673.212" gradientUnits="userSpaceOnUse">
<stop stop-color="#FFB800"/>
<stop offset="1" stop-color="#FF7F0A"/>
</linearGradient>
<linearGradient id="paint1_linear_85_446" x1="80.9741" y1="346.532" x2="80.9741" y2="822.969" gradientUnits="userSpaceOnUse">
<stop stop-color="#FFB800"/>
<stop offset="1" stop-color="#FF7F0A"/>
</linearGradient>
<linearGradient id="paint2_linear_85_446" x1="732.289" y1="165.944" x2="732.289" y2="222.839" gradientUnits="userSpaceOnUse">
<stop stop-color="#FFB800"/>
<stop offset="1" stop-color="#FF7F0A"/>
</linearGradient>
<linearGradient id="paint3_linear_85_446" x1="866.291" y1="318.04" x2="866.291" y2="772.174" gradientUnits="userSpaceOnUse">
<stop stop-color="#FFB800"/>
<stop offset="1" stop-color="#FF7F0A"/>
</linearGradient>
<linearGradient id="paint4_linear_85_446" x1="661.43" y1="862.453" x2="661.43" y2="938.687" gradientUnits="userSpaceOnUse">
<stop stop-color="#FFB800"/>
<stop offset="1" stop-color="#FF7F0A"/>
</linearGradient>
<linearGradient id="paint5_linear_85_446" x1="605.71" y1="774.304" x2="605.71" y2="890.25" gradientUnits="userSpaceOnUse">
<stop stop-color="#FFB800"/>
<stop offset="1" stop-color="#FF7F0A"/>
</linearGradient>
<linearGradient id="paint6_linear_85_446" x1="358.589" y1="479.569" x2="358.589" y2="501.35" gradientUnits="userSpaceOnUse">
<stop stop-color="#FFB800"/>
<stop offset="1" stop-color="#FF7F0A"/>
</linearGradient>
<clipPath id="clip0_85_446">
<rect width="1121" height="1209" fill="white"/>
</clipPath>
</defs>
</svg>
