<svg width="477" height="420" viewBox="0 0 477 420" fill="none" xmlns="http://www.w3.org/2000/svg">
<mask id="mask0_95_2733" style="mask-type:luminance" maskUnits="userSpaceOnUse" x="18" y="37" width="441" height="347">
<path d="M18.8813 37.1875H458.119V383.25H18.8813V37.1875Z" fill="white"/>
</mask>
<g mask="url(#mask0_95_2733)">
<path d="M92.4089 313.207C93.1159 313.983 94.0992 314.528 95.1998 314.752C96.2457 314.972 97.3418 314.918 98.353 314.597C99.3646 314.276 100.248 313.702 100.894 312.946C101.357 312.374 101.655 311.711 101.763 311.015C101.87 310.319 101.785 309.61 101.513 308.95C101.241 308.29 100.791 307.698 100.201 307.225C99.6116 306.751 98.9005 306.411 98.1284 306.234C93.975 305.291 89.0818 309.438 92.4089 313.207Z" fill="#171717"/>
<path d="M97.8024 211.845C102.288 213.494 107.665 213.067 111.946 210.987C115.202 209.401 119.166 206.059 120.998 202.478L121.983 198.008C121.411 192.76 114.629 188.573 109.869 186.399C107.747 185.359 105.449 184.628 103.062 184.233C105.182 187.271 106.505 190.688 106.935 194.234C107.111 195.801 107.059 197.382 106.782 198.938C106.587 200.02 106.273 201.082 105.843 202.11C104.272 205.875 101.272 209.159 97.8024 211.845Z" fill="url(#paint0_linear_95_2733)"/>
<path d="M106.273 194.294L106.936 194.235C106.506 190.689 105.183 187.273 103.063 184.234C101.756 184.044 100.42 184.07 99.1241 184.311C95.389 185.034 92.4957 187.739 90.7507 190.735C88.6852 194.193 88.0209 198.168 88.8681 202.003C89.3098 203.906 90.1977 205.706 91.4752 207.289C92.7526 208.872 94.3913 210.203 96.2869 211.195C96.7753 211.441 97.2817 211.659 97.8024 211.847C101.272 209.16 104.272 205.876 105.844 202.111L105.595 202.035C103.32 202.156 100.896 201.868 99.0898 200.642C97.2836 199.416 96.3599 197.039 97.5132 195.304C98.3246 194.079 99.9827 193.423 101.59 193.359C103.21 193.365 104.808 193.684 106.273 194.294Z" fill="#171717"/>
<path d="M131.591 158.09C133.383 158.563 135.303 158.5 137.05 157.911C138.796 157.321 140.272 156.239 141.245 154.832C141.843 153.947 142.236 152.967 142.401 151.947C142.566 150.927 142.499 149.889 142.204 148.893C141.905 147.814 141.331 146.809 140.526 145.955C139.363 144.728 137.792 143.855 136.034 143.458C134.277 143.062 132.423 143.162 130.733 143.744C129.044 144.327 127.606 145.363 126.623 146.706C125.639 148.048 125.16 149.629 125.254 151.224C125.322 152.644 125.853 154.017 126.785 155.178C127.96 156.605 129.657 157.633 131.591 158.09Z" fill="#171717"/>
<path d="M169.671 65.3725L171.136 65.7317C177.636 64.7749 204.001 61.2346 209.675 65.9504C211.496 67.4642 212.068 69.0545 211.945 70.5551L212.553 70.6046C222.194 70.4611 231.827 71.1654 241.31 72.7072C238.642 69.7554 234.657 67.8999 230.528 66.8801C226.4 65.8603 222.089 65.6114 217.813 65.3664C225.843 64.2564 233.962 63.717 242.09 63.7533C237.345 60.6265 231.365 59.2199 225.451 58.8831C219.537 58.5462 213.608 59.2112 207.73 59.8762C215.571 57.613 223.666 56.1006 231.875 55.3651C222.767 52.1215 212.475 53.959 202.883 55.8324C207.934 54.5024 212.983 53.1728 218.027 51.8428C208.858 49.3451 198.974 51.5689 189.77 53.9726C185.83 55.0016 181.866 56.0796 178.273 57.8361C174.681 59.5927 171.442 62.1061 169.671 65.3725Z" fill="#171717"/>
<path d="M169.683 65.9523C169.683 65.9523 169.999 67.1773 170.014 73.4056H170.478C170.478 73.4056 192.015 68.1713 206.787 77.6874C206.787 77.6874 211.635 74.4061 211.946 70.5561C212.068 69.0555 211.498 67.4652 209.675 65.9514C204.001 61.2339 177.637 64.7741 171.136 65.7327C170.207 65.8666 169.683 65.9523 169.683 65.9523Z" fill="url(#paint1_linear_95_2733)"/>
<path d="M308.005 190.743C304.943 146.345 240.111 105.066 204.456 106.863C203.619 106.903 202.9 107.465 202.283 108.341V108.345C199.665 112.061 198.869 121.451 198.869 121.451C198.869 121.451 212.559 137.625 208.237 145.555C203.916 153.485 167.131 142.697 167.131 142.697C167.131 142.697 166.443 144.706 165.708 147.572C165.254 149.333 164.785 151.418 164.448 153.561C163.549 159.19 163.549 165.215 167.131 166.801C172.759 169.295 206.737 173.356 227.662 170.665L239.929 190.743H308.005Z" fill="url(#paint2_linear_95_2733)"/>
<path d="M255.913 297.248C254.267 302.832 253.435 308.578 253.439 314.347C253.439 315.556 253.476 316.758 253.551 317.951C254.605 334.917 262.891 350.908 276.752 362.73C290.613 374.551 309.029 381.333 328.322 381.719C347.614 382.106 366.362 376.069 380.82 364.814C395.277 353.56 404.38 337.917 406.31 321.011C408.239 304.105 402.853 287.18 391.227 273.618C379.602 260.055 362.593 250.855 343.599 247.854C324.605 244.853 305.025 248.272 288.769 257.429C272.514 266.586 260.78 280.806 255.913 297.248Z" stroke="#171717" stroke-width="2" stroke-linecap="round" stroke-linejoin="round"/>
<path d="M20.0405 314.347C20.0281 327.739 24.5278 340.832 32.9692 351.972C41.4111 363.11 53.4161 371.794 67.4647 376.924C81.5134 382.054 96.9746 383.399 111.892 380.789C126.809 378.179 140.511 371.732 151.266 362.262C162.02 352.794 169.343 340.728 172.306 327.594C175.271 314.459 173.743 300.846 167.917 288.475C162.092 276.106 152.229 265.536 139.579 258.102C126.928 250.669 112.057 246.707 96.8484 246.718C76.4775 246.718 56.9414 253.843 42.537 266.526C28.1331 279.209 20.0405 296.411 20.0405 314.347Z" stroke="#171717" stroke-width="2" stroke-linecap="round" stroke-linejoin="round"/>
<path d="M327.644 295.91C323 296.191 318.65 298.013 315.473 301.009C312.295 304.004 310.528 307.949 310.525 312.048C310.524 312.787 310.582 313.526 310.698 314.258C311.18 317.334 312.658 320.222 314.953 322.578C317.249 324.935 320.266 326.659 323.645 327.546C327.023 328.434 330.621 328.446 334.007 327.582C337.394 326.718 340.426 325.014 342.742 322.674C345.059 320.333 346.561 317.455 347.071 314.383C347.58 311.311 347.074 308.175 345.614 305.349C344.154 302.524 341.801 300.128 338.836 298.447C335.871 296.767 332.42 295.874 328.894 295.874C328.578 295.874 328.261 295.883 327.95 295.896" stroke="#171717" stroke-width="2" stroke-linecap="round" stroke-linejoin="round"/>
<path d="M197.056 300.618C193.312 302.935 190.323 306.076 188.388 309.726C186.453 313.377 185.638 317.412 186.025 321.427C186.412 325.441 187.988 329.296 190.594 332.608C193.201 335.919 196.748 338.571 200.882 340.299" stroke="#171717" stroke-width="2" stroke-linecap="round" stroke-linejoin="round"/>
<path d="M328.894 295.874C328.894 295.874 328.568 295.883 327.95 295.896L327.644 295.91C325.726 295.959 321.715 296.067 316.408 296.197C300.608 296.591 273.333 297.208 255.913 297.247C248.162 297.27 242.361 297.176 240.382 296.901" stroke="#171717" stroke-width="2" stroke-linecap="round" stroke-linejoin="round"/>
<path d="M328.894 328.222L276.65 334.722L257.878 337.059L230.018 340.527" stroke="#171717" stroke-width="2" stroke-linecap="round" stroke-linejoin="round"/>
<path d="M176.085 207.25H176.08L122.152 197.244L121.983 198.008L120.999 202.478L110.992 247.864L98.1289 306.234L96.8484 312.048" stroke="#171717" stroke-width="2" stroke-linecap="round" stroke-linejoin="round"/>
<path d="M264.843 236.861L284.799 259.824L316.408 296.197L318.562 298.677L330.966 312.946L310.699 314.258L253.551 317.951L238.856 318.903" stroke="#171717" stroke-width="2" stroke-linecap="round" stroke-linejoin="round"/>
<path d="M133.316 150.946L131.591 158.09L122.151 197.244L197.357 298.264" stroke="#171717" stroke-width="2" stroke-linecap="round" stroke-linejoin="round"/>
<path d="M202.281 108.346C199.664 112.061 198.868 121.451 198.868 121.451C198.868 121.451 212.558 137.625 208.236 145.555C203.914 153.485 167.13 142.697 167.13 142.697C167.13 142.697 166.441 144.706 165.706 147.572C165.252 149.333 164.783 151.418 164.446 153.561C163.548 159.191 163.548 165.215 167.129 166.801C172.758 169.295 206.735 173.356 227.661 170.665C233.355 169.933 238.08 168.701 241.009 166.801C254.699 157.92 241.009 135.406 241.009 135.406" stroke="#171717" stroke-width="2" stroke-linecap="round" stroke-linejoin="round"/>
<path d="M227.661 170.66V170.665L239.928 190.743H308.005C304.943 146.345 240.111 105.066 204.456 106.863C203.619 106.903 202.9 107.465 202.283 108.341" stroke="#171717" stroke-width="2" stroke-linecap="round" stroke-linejoin="round"/>
<path d="M246.775 264.797C246.775 264.797 254.148 247.958 264.603 236.69C267.568 233.491 270.782 230.747 274.143 228.959C283.894 223.778 303.681 210.884 298.635 190.743" stroke="#171717" stroke-width="2" stroke-linecap="round" stroke-linejoin="round"/>
<path d="M239.927 190.743C239.927 190.743 188.04 191.596 176.079 207.249C174.37 209.43 173.519 212.043 173.655 214.689C174.738 237.522 201.266 264.337 201.266 264.337" stroke="#171717" stroke-width="2" stroke-linecap="round" stroke-linejoin="round"/>
<path d="M238.279 204.859C238.279 204.859 211.498 223.095 201.266 264.339C198.55 275.486 197.241 286.863 197.362 298.264C197.362 299.041 197.373 299.823 197.388 300.614C197.584 309.322 198.438 318.009 199.944 326.617" stroke="#171717" stroke-width="2" stroke-linecap="round" stroke-linejoin="round"/>
<path d="M198.868 121.45C198.868 121.45 168.977 106.862 169.697 87.8303C169.942 81.2888 170.018 76.6614 170.013 73.4042C169.998 67.1773 169.681 65.9509 169.681 65.9509C169.681 65.9509 170.207 65.8634 171.136 65.7322C177.636 64.7754 204 61.2351 209.675 65.9509C211.496 67.4647 212.068 69.055 211.945 70.5556C211.634 74.4056 206.786 77.6869 206.786 77.6869L202.281 108.341V108.345" stroke="#171717" stroke-width="2" stroke-linecap="round" stroke-linejoin="round"/>
<path d="M170.478 73.4055C170.478 73.4055 192.015 68.1713 206.787 77.6873" stroke="#171717" stroke-width="2" stroke-linecap="round" stroke-linejoin="round"/>
<path d="M190.826 106.75C191.641 107.097 192.546 107.246 193.448 107.181C194.35 107.116 195.216 106.84 195.957 106.381C196.696 105.922 197.284 105.297 197.657 104.572C198.031 103.845 198.177 103.045 198.08 102.252" stroke="#171717" stroke-width="2" stroke-linecap="round" stroke-linejoin="round"/>
<path d="M188.897 98.6012C187.122 98.7359 184.948 98.6996 184.06 97.3429C183.479 96.4579 183.708 95.3527 183.96 94.3552C185.02 90.0826 186.081 85.8095 187.141 81.5365C187.314 80.8448 187.472 80.0765 187.069 79.461C186.63 78.7916 185.686 78.5444 184.829 78.3738C181.807 77.7762 178.735 77.3903 175.644 77.2192" stroke="#171717" stroke-width="2" stroke-linecap="round" stroke-linejoin="round"/>
<path d="M177.086 84.669C177.743 84.1655 178.549 83.8369 179.41 83.7223C180.272 83.6077 181.152 83.7118 181.949 84.022" stroke="#171717" stroke-width="2" stroke-linecap="round" stroke-linejoin="round"/>
<path d="M192.745 85.1319C193.544 84.6673 194.502 84.4612 195.455 84.5487C196.408 84.6367 197.296 85.0129 197.969 85.6132" stroke="#171717" stroke-width="2" stroke-linecap="round" stroke-linejoin="round"/>
<path d="M169.671 65.3727C171.442 62.1063 174.682 59.5951 178.274 57.8381C181.866 56.0811 185.831 55.0035 189.77 53.9745C198.975 51.5709 208.858 49.3471 218.027 51.8448C212.981 53.1748 207.933 54.5048 202.883 55.8343C212.476 53.9609 222.767 52.1234 231.876 55.3671C223.666 56.1029 215.571 57.6154 207.731 59.8781C213.609 59.2131 219.533 58.5481 225.452 58.885C231.37 59.2219 237.345 60.6284 242.091 63.7553C233.962 63.7194 225.843 64.2588 217.813 65.3683C222.089 65.6151 226.406 65.8623 230.529 66.8821C234.652 67.9019 238.642 69.7573 241.311 72.7091C231.828 71.1678 222.195 70.4634 212.553 70.6065" stroke="#171717" stroke-width="2" stroke-linecap="round" stroke-linejoin="round"/>
<path d="M131.591 158.09C133.383 158.563 135.303 158.5 137.05 157.911C138.796 157.321 140.272 156.239 141.245 154.832C141.843 153.947 142.236 152.967 142.401 151.947C142.566 150.927 142.499 149.889 142.204 148.893C141.905 147.814 141.331 146.809 140.526 145.955C139.363 144.728 137.792 143.855 136.034 143.458C134.277 143.062 132.423 143.162 130.733 143.744C129.044 144.327 127.606 145.363 126.623 146.706C125.639 148.048 125.16 149.629 125.254 151.224C125.322 152.644 125.853 154.017 126.785 155.178C127.96 156.605 129.657 157.633 131.591 158.09Z" stroke="#171717" stroke-width="2" stroke-linecap="round" stroke-linejoin="round"/>
<path d="M165.512 147.532C159.971 143.825 154.327 140.069 147.823 137.903C141.319 135.738 133.695 135.338 127.597 138.29C121.499 141.241 117.66 148.093 120.183 153.804C120.785 155.156 121.841 156.49 123.428 156.872C125.015 157.254 127.031 156.61 126.786 155.178" stroke="#171717" stroke-width="2" stroke-linecap="round" stroke-linejoin="round"/>
<path d="M163.945 153.519C157.454 150.822 150.443 149.229 143.28 148.824" stroke="#171717" stroke-width="2" stroke-linecap="round" stroke-linejoin="round"/>
<path d="M121.983 198.008C121.411 192.76 114.629 188.573 109.87 186.399C107.747 185.359 105.449 184.628 103.062 184.233C101.755 184.043 100.419 184.068 99.1231 184.309C95.3881 185.033 92.4948 187.737 90.7498 190.734C88.6843 194.192 88.02 198.167 88.8671 202.002C89.3089 203.905 90.1968 205.705 91.4743 207.288C92.7517 208.871 94.3909 210.201 96.286 211.194C96.7744 211.44 97.2807 211.657 97.8015 211.845C102.287 213.494 107.664 213.067 111.946 210.987C115.201 209.401 119.166 206.059 120.998 202.478C121.687 201.224 122.036 199.846 122.018 198.453C122.014 198.304 122.004 198.156 121.983 198.008Z" stroke="#171717" stroke-width="2" stroke-linecap="round" stroke-linejoin="round"/>
<path d="M103.063 184.231C105.183 187.269 106.506 190.686 106.936 194.232C107.111 195.799 107.06 197.38 106.782 198.936C106.588 200.018 106.274 201.08 105.843 202.108C104.272 205.873 101.272 209.157 97.8019 211.844" stroke="#171717" stroke-width="2" stroke-linecap="round" stroke-linejoin="round"/>
<path d="M105.594 202.033C103.318 202.155 100.894 201.867 99.0883 200.641C97.2822 199.414 96.3585 197.037 97.5117 195.303C98.3231 194.078 99.9812 193.422 101.589 193.358C103.209 193.363 104.808 193.683 106.273 194.292C106.201 194.22 106.135 194.148 106.063 194.077" stroke="#171717" stroke-width="2" stroke-linecap="round" stroke-linejoin="round"/>
<path d="M246.774 264.797C244.162 270.526 241.841 283.182 240.381 296.902C239.6 304.23 239.064 311.859 238.855 318.903C238.779 321.689 238.748 324.38 238.774 326.928C238.799 329.684 238.58 332.952 235.921 334.409C234.533 335.173 232.799 335.218 231.161 335.209C230.936 335.209 230.713 335.204 230.487 335.2C223.284 335.098 216.114 334.321 209.097 332.881C208.203 332.697 207.302 332.499 206.424 332.248C205.125 331.908 203.897 331.388 202.786 330.706C201.123 329.637 200.362 328.419 199.949 326.638C199.949 326.633 199.943 326.624 199.943 326.619C199.903 326.44 199.867 326.256 199.831 326.062" stroke="#171717" stroke-width="2" stroke-linecap="round" stroke-linejoin="round"/>
<path d="M230.513 335.113C230.502 335.142 230.493 335.171 230.488 335.201C229.984 336.94 229.825 338.742 230.018 340.529C230.09 341.644 230.207 342.76 230.267 343.867C230.43 346.801 230.048 350.036 227.69 352.112C226.601 353.019 225.277 353.68 223.833 354.034C222.323 354.411 220.78 354.674 219.22 354.822L196.07 357.518C195.254 357.616 194.43 357.711 193.616 357.805C190.579 358.155 187.447 358.505 184.492 357.796C181.538 357.087 178.778 355.042 178.436 352.364C177.982 348.793 181.854 345.877 185.748 344.803C189.641 343.729 193.897 343.765 197.646 342.353C198.883 341.886 200.037 341.265 201.075 340.511C203.868 338.498 205.733 335.659 206.32 332.523" stroke="#171717" stroke-width="2" stroke-linecap="round" stroke-linejoin="round"/>
<path d="M224.064 354.652C224.696 355.54 225.164 356.51 225.452 357.528C225.591 358.038 225.592 358.57 225.454 359.08C225.315 359.591 225.042 360.066 224.657 360.466C223.759 361.284 222.36 361.455 221.07 361.58C214.89 362.173 208.709 362.768 202.527 363.364C200.716 363.534 198.777 363.687 197.185 362.915C195.593 362.142 194.833 358.911 196.108 357.77" stroke="#171717" stroke-width="2" stroke-linecap="round" stroke-linejoin="round"/>
<path d="M100.701 307.69C101.369 308.432 101.749 309.343 101.783 310.29C101.818 311.236 101.507 312.167 100.894 312.946C100.248 313.703 99.3651 314.276 98.3534 314.597C97.3418 314.918 96.2462 314.972 95.2003 314.753C94.0992 314.528 93.1164 313.983 92.4094 313.207C89.0803 309.437 93.9755 305.291 98.1289 306.234C99.138 306.47 100.037 306.979 100.701 307.69Z" stroke="#171717" stroke-width="2" stroke-linecap="round" stroke-linejoin="round"/>
<path d="M304.514 361.742C291.993 356.014 282.028 346.188 276.65 334.722C274.917 331.039 273.677 327.189 272.955 323.252" stroke="#171717" stroke-width="2" stroke-linecap="round" stroke-linejoin="round"/>
<path d="M390.043 310.767C392.962 296.184 385.792 280.392 372.255 271.599" stroke="#171717" stroke-width="2" stroke-linecap="round" stroke-linejoin="round"/>
<path d="M155.246 338.56C163.9 327.141 165.298 311.738 158.818 299.248" stroke="#171717" stroke-width="2" stroke-linecap="round" stroke-linejoin="round"/>
<path d="M46.8842 349.149C32.8226 335.706 28.2514 315.147 35.5057 298.03" stroke="#171717" stroke-width="2" stroke-linecap="round" stroke-linejoin="round"/>
<path d="M210.315 73.4248C210.946 71.8393 209.485 70.0832 207.687 69.5227C205.888 68.9623 203.906 69.2734 202.04 69.6238C200.174 69.9742 198.228 70.3588 196.382 69.9322C193.561 69.2804 191.372 66.819 188.456 66.8894C185.425 66.9625 183.218 69.7699 180.199 70.0092C178.559 70.1405 176.992 69.4842 175.39 69.1513C173.789 68.8184 171.807 68.9378 170.906 70.1497" stroke="#171717" stroke-width="2" stroke-linecap="round" stroke-linejoin="round"/>
<path d="M107.246 212.303C110.268 208.797 112.202 204.659 112.858 200.295C113.514 195.931 112.869 191.493 110.986 187.415" stroke="#171717" stroke-width="2" stroke-linecap="round" stroke-linejoin="round"/>
<path d="M85.9415 188.369C85.6136 187.304 85.0089 186.32 84.1751 185.495" stroke="#171717" stroke-width="2" stroke-linecap="round" stroke-linejoin="round"/>
<path d="M81.3285 195.682L68.0858 191.476" stroke="#171717" stroke-width="2" stroke-linecap="round" stroke-linejoin="round"/>
<path d="M81.803 204.055L77.2964 207.38" stroke="#171717" stroke-width="2" stroke-linecap="round" stroke-linejoin="round"/>
<path d="M331.4 111.114L273.067 109.652" stroke="#171717" stroke-width="2" stroke-linecap="round" stroke-linejoin="round"/>
<path d="M356.29 147.803L333.033 146.862" stroke="#171717" stroke-width="2" stroke-linecap="round" stroke-linejoin="round"/>
<path d="M405.425 187.811L342.756 184.934" stroke="#171717" stroke-width="2" stroke-linecap="round" stroke-linejoin="round"/>
<path d="M364.368 226.291L344.379 225.34" stroke="#171717" stroke-width="2" stroke-linecap="round" stroke-linejoin="round"/>
<path d="M175.989 168.704C175.189 161.095 175.437 153.428 176.728 145.871" stroke="#171717" stroke-width="2" stroke-linecap="round" stroke-linejoin="round"/>
<path d="M203.239 126.498C205.077 119.449 209.406 113.094 215.604 108.347L214.718 108.923" stroke="#171717" stroke-width="2" stroke-linecap="round" stroke-linejoin="round"/>
<path d="M305.659 178.748C282.327 179.226 259.043 180.529 235.805 182.655" stroke="#171717" stroke-width="2" stroke-linecap="round" stroke-linejoin="round"/>
<path d="M219.03 136.353L220.46 132.228" stroke="#171717" stroke-width="2" stroke-linecap="round" stroke-linejoin="round"/>
<path d="M238.847 122.085L235.606 121.292" stroke="#171717" stroke-width="2" stroke-linecap="round" stroke-linejoin="round"/>
<path d="M226.44 155.229L227.516 151.899" stroke="#171717" stroke-width="2" stroke-linecap="round" stroke-linejoin="round"/>
<path d="M198.336 163.783L195.993 161.722" stroke="#171717" stroke-width="2" stroke-linecap="round" stroke-linejoin="round"/>
<path d="M258.479 145.236L262.621 145.077" stroke="#171717" stroke-width="2" stroke-linecap="round" stroke-linejoin="round"/>
<path d="M288.924 164.574L286.589 161.716" stroke="#171717" stroke-width="2" stroke-linecap="round" stroke-linejoin="round"/>
<path d="M260.534 176.112L262.556 172.324" stroke="#171717" stroke-width="2" stroke-linecap="round" stroke-linejoin="round"/>
<path d="M237.265 173.062L241.566 174.536" stroke="#171717" stroke-width="2" stroke-linecap="round" stroke-linejoin="round"/>
<path d="M230.009 347.69C221.491 349.797 212.804 351.326 204.111 352.775C195.766 354.166 186.859 355.442 179.008 352.588" stroke="#171717" stroke-width="2" stroke-linecap="round" stroke-linejoin="round"/>
<path d="M192.03 343.911C194.784 344.727 197.217 346.217 199.043 348.207" stroke="#171717" stroke-width="2" stroke-linecap="round" stroke-linejoin="round"/>
<path d="M200.152 341.812C202.657 342.719 204.827 344.221 206.419 346.15" stroke="#171717" stroke-width="2" stroke-linecap="round" stroke-linejoin="round"/>
<path d="M205.343 337.286C207.805 338.095 209.909 339.576 211.348 341.513" stroke="#171717" stroke-width="2" stroke-linecap="round" stroke-linejoin="round"/>
<path fill-rule="evenodd" clip-rule="evenodd" d="M197.388 300.614C197.584 309.322 198.438 318.009 199.944 326.617C199.944 326.622 199.949 326.631 199.949 326.636C200.362 328.419 201.123 329.637 202.786 330.704C203.898 331.386 205.126 331.906 206.424 332.246C207.302 332.497 208.205 332.695 209.098 332.879C216.114 334.319 223.284 335.097 230.488 335.198L230.493 335.198C230.716 335.203 230.937 335.207 231.161 335.207C232.801 335.216 234.534 335.171 235.922 334.407C238.58 332.951 238.8 329.685 238.774 326.926C238.748 324.378 238.779 321.687 238.856 318.902C239.065 311.858 239.601 304.228 240.382 296.901C241.841 283.18 244.162 270.524 246.775 264.796C246.775 264.796 254.148 247.957 264.603 236.689C267.568 233.49 270.782 230.745 274.143 228.957C283.894 223.776 303.681 210.882 298.635 190.741H239.928C239.928 190.741 188.04 191.595 176.079 207.248C174.37 209.428 173.519 212.041 173.655 214.688C174.738 237.522 201.266 264.337 201.266 264.337C198.55 275.485 197.241 286.862 197.362 298.263C197.362 299.041 197.373 299.823 197.388 300.614ZM178.477 206.309C178.404 206.675 178.684 207.024 179.101 207.087C191.254 208.929 197.072 209.686 202.281 210.365L202.812 210.434C208.154 211.13 213.056 211.778 223.853 213.489C224.269 213.555 224.667 213.311 224.742 212.945C224.817 212.579 224.54 212.229 224.124 212.163C213.308 210.448 208.39 209.798 203.036 209.1L202.503 209.031C197.302 208.354 191.497 207.598 179.36 205.759C178.944 205.696 178.548 205.942 178.477 206.309ZM249.018 202.016C249.423 201.909 249.85 202.113 249.97 202.469C250.091 202.826 249.86 203.201 249.455 203.308C241.764 205.324 235.085 209.838 229.914 215.333C224.741 220.829 220.981 227.273 217.751 233.894C209.403 251.037 204.511 269.329 203.295 287.951C203.272 288.322 202.909 288.606 202.487 288.585C202.066 288.564 201.743 288.245 201.767 287.873C202.993 269.095 207.926 250.649 216.345 233.362C219.597 226.694 223.425 220.115 228.734 214.473C234.045 208.83 240.965 204.127 249.018 202.016Z" fill="#171717"/>
<path d="M54.1743 85.5138C55.6599 82.7715 57.9649 80.4366 60.8428 78.7596C63.7202 77.0831 67.0617 76.1272 70.5091 75.9951C73.9569 75.863 77.3798 76.5595 80.4123 78.0093C83.4442 79.4597 85.9713 81.6091 87.7218 84.2275C90.1296 87.8277 90.8407 92.6022 88.2892 96.1249C85.7378 99.6477 79.3832 100.9 76.0735 97.906C72.0687 94.2835 75.6194 87.4497 81.1829 86.2046C86.7464 84.9595 92.5459 87.7643 96.4603 91.462C100.375 95.1598 103.047 99.7465 106.763 103.6C117.642 114.881 137.793 118.21 152.575 111.169" stroke="#171717" stroke-width="2" stroke-linecap="round" stroke-linejoin="round"/>
<path d="M408.382 230.748C403.164 236.177 402.928 244.832 407.838 250.479C410.005 252.973 413.414 254.958 416.946 254.524C420.477 254.091 423.338 250.345 421.509 247.648C420.304 245.869 417.543 245.221 415.295 245.833C413.046 246.444 411.307 248.08 410.223 249.92C408.99 252.106 408.531 254.568 408.903 256.986C409.275 259.405 410.463 261.67 412.312 263.489C416.921 267.86 424.398 268.559 431.172 268.66C437.945 268.762 445.237 268.678 450.788 272.098C457.493 276.228 459.369 285.327 454.742 291.268" stroke="#171717" stroke-width="2" stroke-linecap="round" stroke-linejoin="round"/>
<path d="M92.6171 65.9515V58.9751" stroke="#171717" stroke-width="2" stroke-linecap="round" stroke-linejoin="round"/>
<path d="M97.6603 62.146C94.6984 62.5515 91.667 62.1066 89.0146 60.8772" stroke="#171717" stroke-width="2" stroke-linecap="round" stroke-linejoin="round"/>
<path d="M80.3716 166.801L73.8883 164.263" stroke="#171717" stroke-width="2" stroke-linecap="round" stroke-linejoin="round"/>
<path d="M76.0492 169.338L78.9311 162.994" stroke="#171717" stroke-width="2" stroke-linecap="round" stroke-linejoin="round"/>
<path d="M278.469 64.0501L283.511 60.8787" stroke="#171717" stroke-width="2" stroke-linecap="round" stroke-linejoin="round"/>
<path d="M284.113 66.0248L278.379 59.03" stroke="#171717" stroke-width="2" stroke-linecap="round" stroke-linejoin="round"/>
<path d="M243.17 42.4835L238.128 38.0437" stroke="#171717" stroke-width="2" stroke-linecap="round" stroke-linejoin="round"/>
<path d="M238.129 42.4835L243.893 38.0437" stroke="#171717" stroke-width="2" stroke-linecap="round" stroke-linejoin="round"/>
<path d="M28.5062 258.136L22.023 254.33" stroke="#171717" stroke-width="2" stroke-linecap="round" stroke-linejoin="round"/>
<path d="M24.1298 260.01L28.4635 253.673" stroke="#171717" stroke-width="2" stroke-linecap="round" stroke-linejoin="round"/>
<path d="M39.3113 229.594L32.828 228.325" stroke="#171717" stroke-width="2" stroke-linecap="round" stroke-linejoin="round"/>
<path d="M35.8058 233.414L37.283 225.808" stroke="#171717" stroke-width="2" stroke-linecap="round" stroke-linejoin="round"/>
<path d="M250.226 287.949C249.973 276.015 253.439 264.247 260.249 253.925" stroke="#171717" stroke-width="2" stroke-linecap="round" stroke-linejoin="round"/>
<path d="M206.673 189.035C196.248 189.171 186.163 192.325 177.975 198.009" stroke="#171717" stroke-width="2" stroke-linecap="round" stroke-linejoin="round"/>
<path d="M285.17 135.95C271.387 122.876 254.162 112.988 235.016 107.157" stroke="#171717" stroke-width="2" stroke-linecap="round" stroke-linejoin="round"/>
<path d="M181.223 52.5075C185.861 48.2612 192.912 46.8664 199.583 46.4263C206.255 45.9862 213.089 46.2797 219.488 44.5586" stroke="#171717" stroke-width="2" stroke-linecap="round" stroke-linejoin="round"/>
<path d="M432.443 260.515L436.766 255.758" stroke="#171717" stroke-width="2" stroke-linecap="round" stroke-linejoin="round"/>
<path d="M438.387 260.515L433.524 256.233" stroke="#171717" stroke-width="2" stroke-linecap="round" stroke-linejoin="round"/>
<path d="M431.903 288.581L436.226 285.727" stroke="#171717" stroke-width="2" stroke-linecap="round" stroke-linejoin="round"/>
<path d="M436.766 289.056L433.524 284.775" stroke="#171717" stroke-width="2" stroke-linecap="round" stroke-linejoin="round"/>
<path d="M238.457 176.622L240.808 171.075" stroke="#171717" stroke-width="2" stroke-linecap="round" stroke-linejoin="round"/>
<path d="M264.781 176.157L259.576 172.49" stroke="#171717" stroke-width="2" stroke-linecap="round" stroke-linejoin="round"/>
<path d="M286.212 164.898L290.175 161.885" stroke="#171717" stroke-width="2" stroke-linecap="round" stroke-linejoin="round"/>
<path d="M260.539 146.982L260.67 142.858" stroke="#171717" stroke-width="2" stroke-linecap="round" stroke-linejoin="round"/>
<path d="M236.878 123.514L237.993 119.716" stroke="#171717" stroke-width="2" stroke-linecap="round" stroke-linejoin="round"/>
<path d="M222.483 135.531L217.14 132.688L217.598 132.869" stroke="#171717" stroke-width="2" stroke-linecap="round" stroke-linejoin="round"/>
<path d="M230.249 155.002L225.207 152.306" stroke="#171717" stroke-width="2" stroke-linecap="round" stroke-linejoin="round"/>
<path d="M195.628 164.898L199.41 160.934" stroke="#171717" stroke-width="2" stroke-linecap="round" stroke-linejoin="round"/>
<path d="M337.402 73.2664C336.417 75.5904 336.247 78.1209 336.912 80.5306C337.578 82.9408 339.049 85.12 341.135 86.7864C343.221 88.4533 345.827 89.5309 348.616 89.88C351.405 90.2291 354.249 89.834 356.78 88.746C359.381 87.6277 361.689 85.5807 362.002 83.0471C362.316 80.5135 359.902 77.7464 357.026 78.0307C354.758 78.2547 353.15 80.1233 352.35 82.0059C351.374 84.304 351.186 86.8039 351.809 89.1953C352.432 91.5871 353.839 93.7645 355.855 95.4585C357.871 97.1525 360.407 98.2883 363.15 98.7245C365.892 99.1611 368.719 98.8789 371.281 97.9134C376.556 95.924 379.906 91.4222 383.586 87.5446C387.265 83.667 392.385 79.9697 398.072 80.6448C401.713 81.077 404.838 83.3039 406.84 86.0151C408.842 88.7263 409.871 91.8969 410.719 95.0434" stroke="#171717" stroke-width="2" stroke-linecap="round" stroke-linejoin="round"/>
<path d="M134.484 62.8207L131.199 65.2707C131.099 65.3446 131.029 65.4435 130.996 65.5538C130.962 65.6645 130.968 65.7813 131.012 65.8889C131.057 65.9961 131.138 66.0893 131.244 66.1553C131.35 66.221 131.476 66.2568 131.606 66.2577L135.911 66.277C136.036 66.2774 136.159 66.3111 136.263 66.3736C136.368 66.4358 136.448 66.5237 136.496 66.627L138.126 70.1318C138.175 70.2376 138.26 70.3278 138.37 70.3899C138.479 70.452 138.607 70.4831 138.737 70.4791C138.867 70.4752 138.992 70.4363 139.096 70.3676C139.2 70.2989 139.278 70.204 139.319 70.0955L140.67 66.497C140.709 66.3916 140.783 66.2993 140.882 66.2315C140.981 66.1632 141.101 66.1225 141.226 66.1142L145.519 65.8329C145.648 65.8241 145.772 65.7808 145.872 65.7086C145.973 65.6365 146.046 65.5385 146.082 65.4286C146.117 65.3188 146.115 65.202 146.072 65.0935C146.031 64.9855 145.952 64.891 145.848 64.8236L142.378 62.5801C142.277 62.5145 142.2 62.4239 142.157 62.3202C142.114 62.2161 142.107 62.1032 142.137 61.996L143.159 58.3145C143.19 58.2033 143.181 58.0865 143.134 57.9798C143.088 57.873 143.005 57.7816 142.897 57.7177C142.789 57.6538 142.662 57.6201 142.532 57.6219C142.402 57.6236 142.276 57.6604 142.171 57.7273L138.675 59.938C138.573 60.0023 138.451 60.0386 138.326 60.0426C138.2 60.0465 138.077 60.0172 137.97 59.9595L134.309 57.9658C134.198 57.9054 134.069 57.8765 133.94 57.8826C133.81 57.8892 133.686 57.9299 133.583 58.0003C133.481 58.0708 133.405 58.167 133.367 58.2764C133.329 58.3858 133.329 58.5026 133.369 58.612L134.678 62.2222C134.717 62.3276 134.719 62.4405 134.684 62.5473C134.649 62.6536 134.58 62.749 134.484 62.8207Z" fill="#171717"/>
<g opacity="0.1">
<path d="M328.077 296.396C330.939 294.572 336.474 296.596 339.051 298.093C342.708 300.159 345.377 303.335 346.55 307.018C348.96 314.718 344.682 323.028 336.924 326.957C331.234 329.838 326.03 321.791 331.822 319.271C336.166 317.382 339.2 313.091 338.132 308.742C337.524 306.53 336.235 304.508 334.406 302.898C333.492 302.03 332.422 301.299 331.238 300.736C330.085 300.203 328.569 299.721 327.722 298.842C327.537 298.671 327.397 298.465 327.314 298.24C327.23 298.016 327.205 297.777 327.239 297.542C327.273 297.308 327.367 297.082 327.512 296.884C327.658 296.685 327.852 296.517 328.081 296.392L328.077 296.396Z" fill="#171717"/>
</g>
<g opacity="0.1">
<path d="M204.821 106.591C214.519 106.79 223.908 109.02 232.945 112.054C259.775 120.934 282.225 137.808 296.396 159.746C298.992 163.788 301.303 167.967 303.316 172.259C304.349 174.438 305.302 176.645 306.176 178.878C307.223 181.573 308.633 184.244 306.826 186.935C306.179 187.866 305.148 188.541 303.949 188.818C302.75 189.095 301.475 188.953 300.392 188.422C297.778 187.217 297.334 184.952 296.533 182.689C295.856 180.774 295.115 178.878 294.31 177.001C292.852 173.618 291.175 170.311 289.286 167.097C285.396 160.378 280.66 154.066 275.169 148.278C263.701 136.299 249.256 126.804 232.952 120.528C223.632 116.931 213.7 114.843 203.906 112.553C200.184 111.682 200.892 106.51 204.821 106.591Z" fill="#171717"/>
</g>
<g opacity="0.1">
<path d="M205.421 77.7747C205.857 82.8935 205.062 87.9685 204.481 93.0675C203.9 98.1666 203.169 103.265 202.493 108.36C202.268 110.067 201.006 111.499 198.907 111.519C197.145 111.535 195.091 110.053 195.32 108.36C196.029 103.128 196.684 97.887 197.485 92.6646C198.283 87.4583 198.839 82.2171 200.66 77.2077C201.513 74.861 205.214 75.386 205.418 77.7765L205.421 77.7747Z" fill="#171717"/>
</g>
<g opacity="0.1">
<path d="M240.818 136.273C242.998 138.277 244.848 139.898 245.745 142.693C246.594 145.547 246.916 148.502 246.698 151.446C246.583 154.292 246.09 157.115 245.228 159.86C244.258 162.738 243.045 166.001 239.731 167.201C237.539 167.994 235.791 166.042 235.573 164.412C235.275 162.162 237.457 159.894 238.356 157.828C239.392 155.565 240.028 153.176 240.241 150.744C240.369 148.407 240.236 146.064 239.844 143.75C239.488 141.426 239.793 139.058 239.467 136.766C239.379 136.15 240.38 135.87 240.819 136.273H240.818Z" fill="#171717"/>
</g>
<g opacity="0.1">
<path d="M230.267 337.779C231.72 342.553 230.572 348.73 227.686 352.946C225.426 356.247 218.772 354.111 220.364 350.228C221.154 348.3 222.074 346.488 222.59 344.475C223.094 342.506 223.17 340.581 223.435 338.593C223.865 335.377 229.171 334.184 230.265 337.779H230.267Z" fill="#171717"/>
</g>
</g>
<defs>
<linearGradient id="paint0_linear_95_2733" x1="109.893" y1="184.233" x2="109.893" y2="212.856" gradientUnits="userSpaceOnUse">
<stop stop-color="#FFB800"/>
<stop offset="1" stop-color="#FF7F0A"/>
</linearGradient>
<linearGradient id="paint1_linear_95_2733" x1="190.822" y1="63.5561" x2="190.822" y2="77.6874" gradientUnits="userSpaceOnUse">
<stop stop-color="#FFB800"/>
<stop offset="1" stop-color="#FF7F0A"/>
</linearGradient>
<linearGradient id="paint2_linear_95_2733" x1="235.976" y1="106.807" x2="235.976" y2="190.743" gradientUnits="userSpaceOnUse">
<stop stop-color="#FFB800"/>
<stop offset="1" stop-color="#FF7F0A"/>
</linearGradient>
</defs>
</svg>
