<svg width="503" height="555" viewBox="0 0 503 555" fill="none" xmlns="http://www.w3.org/2000/svg">
<g clip-path="url(#clip0_85_1451)">
<mask id="mask0_85_1451" style="mask-type:luminance" maskUnits="userSpaceOnUse" x="0" y="0" width="503" height="555">
<path d="M503 0H0V555H503V0Z" fill="white"/>
</mask>
<g mask="url(#mask0_85_1451)">
<path fill-rule="evenodd" clip-rule="evenodd" d="M335.328 485.851C332.132 490.244 326.578 492.21 321.443 493.54C312.588 495.794 302.738 497.24 294.617 493.308C294.617 499.338 294.569 505.374 294.517 511.404H294.721L295.465 511.417C311.511 511.701 327.507 511.985 343.554 512.213C348.794 512.329 354.091 512.387 359.121 510.826C364.151 509.265 368.919 505.796 371.12 500.593L371.832 500.113C371.305 498.661 370.535 497.332 369.564 496.193C369.172 495.737 368.757 495.304 368.322 494.898C366.641 493.374 364.709 492.226 362.632 491.516C359.021 490.285 355.233 490.059 351.445 489.892C350.612 489.857 349.779 489.822 348.951 489.782C344.393 489.493 339.625 488.857 335.695 486.197L335.328 485.851ZM342.593 494.611C344.943 494.136 347.337 493.989 349.72 494.172H349.72C354.348 494.524 358.834 496.083 362.809 498.723C363.175 498.967 363.651 498.836 363.871 498.432C364.092 498.028 363.973 497.503 363.607 497.259C359.423 494.48 354.699 492.838 349.827 492.467C347.315 492.274 344.791 492.43 342.314 492.93C341.894 493.015 341.615 493.46 341.692 493.925C341.769 494.389 342.173 494.696 342.593 494.611Z" fill="url(#paint0_linear_85_1451)"/>
<path fill-rule="evenodd" clip-rule="evenodd" d="M220.119 321.126C217.529 332.616 214.916 344.207 210.301 354.951C205.637 365.762 198.721 375.827 189.29 381.782C174.148 391.379 155.128 389.182 138.414 383.517C138.167 383.432 137.919 383.347 137.671 383.262C133.334 381.77 128.827 380.219 124.366 381.204C121.962 381.745 119.725 382.96 117.869 384.731C117.864 384.736 117.853 384.742 117.848 384.748L117.895 384.812L117.922 384.846C113.992 388.431 111.162 393.981 108.857 399.184C106.028 405.618 103.308 412.215 102.978 419.037C102.93 419.944 102.932 420.853 102.983 421.76C103.01 422.228 103.041 422.702 103.094 423.176C103.165 423.993 103.287 424.805 103.46 425.604C103.921 427.905 104.555 429.506 105.457 430.64C105.607 430.828 105.77 431.004 105.944 431.166C108.02 433.144 111.307 433.293 116.611 433.532C118.56 433.62 120.783 433.721 123.318 433.929C183.631 438.901 225.081 425.431 241.691 390.049C246.249 380.395 248.45 369.694 250.336 358.94C250.346 358.964 250.356 358.987 250.364 359.012C250.369 359.026 250.373 359.041 250.378 359.056C252.631 364.976 254.722 370.642 256.66 376.157C257.017 377.169 257.368 378.169 257.714 379.169C258.059 380.169 258.4 381.158 258.735 382.152C258.901 382.64 259.068 383.133 259.234 383.626L259.238 383.638C259.736 385.118 260.223 386.592 260.7 388.061C261.497 390.506 262.267 392.94 263.011 395.362C263.755 397.785 264.467 400.195 265.159 402.618C265.162 402.621 265.164 402.625 265.164 402.629C270.021 419.586 273.721 436.745 276.901 457.522C278.022 464.674 279.406 472.288 282.146 478.82C282.439 479.508 282.738 480.185 283.063 480.844C285.012 485.059 287.907 488.654 291.472 491.285C292.451 492.002 293.485 492.621 294.564 493.135C294.579 493.141 294.6 493.152 294.616 493.158C302.727 497.06 312.556 495.615 321.39 493.366C326.525 492.036 332.131 490.071 335.275 485.677C335.754 485.009 336.175 484.293 336.533 483.538C339.31 477.583 337.161 470.357 334.961 464.055C325.556 436.947 316.234 410.152 306.909 383.344C298.326 358.673 289.74 333.992 281.082 309.048H281.04C276.864 308.846 272.948 308.63 269.032 308.413C265.106 308.196 261.18 307.979 256.991 307.776H256.886L255.419 324.079L229.54 325.294L229.535 325.351L221.136 320.553L220.523 320.206L220.481 320.183L220.209 320.726L220.119 321.126ZM278.82 319.006C278.654 318.572 278.199 318.368 277.805 318.551C277.411 318.735 277.226 319.237 277.393 319.671C297.282 371.666 315.37 424.393 331.659 477.856C331.796 478.303 332.235 478.544 332.64 478.393C333.046 478.243 333.264 477.758 333.127 477.311C316.826 423.808 298.724 371.04 278.82 319.006Z" fill="#171717"/>
<path d="M140.981 293.78C142.972 298.18 145.33 302.862 142.238 307.314C139.252 311.65 133.483 313.962 129.187 316.044C123.585 318.762 117.783 320.948 111.844 322.576C110.324 322.981 94.0814 326.566 93.9766 325.698C92.5158 315.608 90.5038 305.625 87.9511 295.804C92.8763 292.855 98.4827 291.525 103.984 290.311C109.486 289.097 115.092 287.883 120.07 284.993C125.047 282.16 129.396 277.361 130.654 271.291C134.059 278.807 137.518 286.38 140.981 293.78Z" fill="url(#paint1_linear_85_1451)"/>
<path d="M372.22 501.46C373.216 506.027 371.329 510.999 368.133 514.121C364.937 517.243 360.693 518.746 356.449 519.208C352.205 519.671 347.955 519.208 343.711 518.861C341.899 518.711 340.084 518.58 338.267 518.468C338.247 518.469 338.225 518.467 338.205 518.462C326.058 517.711 313.88 517.786 301.742 518.688C299.867 518.78 297.687 518.798 296.215 517.694C296.12 517.618 296.031 517.543 295.942 517.468C295.853 517.393 295.769 517.3 295.691 517.208C295.607 517.119 295.528 517.025 295.455 516.925C295.381 516.826 295.313 516.717 295.245 516.607C294.512 515.393 294.512 513.832 294.512 512.386C294.517 512.057 294.517 511.733 294.517 511.404H294.721C311.016 511.693 327.259 511.982 343.554 512.213C348.794 512.329 354.086 512.386 359.121 510.825C364.156 509.265 368.919 505.796 371.12 500.593L371.832 500.113C371.988 500.552 372.118 501.002 372.22 501.46Z" fill="url(#paint2_linear_85_1451)"/>
<path d="M296.215 517.694C297.687 518.798 299.867 518.78 301.742 518.688C299.861 518.827 297.682 518.815 296.215 517.694Z" fill="url(#paint3_linear_85_1451)"/>
<path d="M295.942 517.468C296.031 517.543 296.12 517.619 296.215 517.694C296.121 517.624 296.03 517.549 295.942 517.468Z" fill="url(#paint4_linear_85_1451)"/>
<path d="M295.454 516.925C295.527 517.025 295.606 517.119 295.69 517.208C295.605 517.121 295.526 517.026 295.454 516.925Z" fill="url(#paint5_linear_85_1451)"/>
<path d="M285.033 100.363C285.112 100.259 285.191 100.149 285.269 100.039C285.196 100.149 285.117 100.259 285.033 100.363Z" fill="#171717"/>
<path d="M284.546 101.016L284.991 100.42C284.85 100.617 284.698 100.819 284.546 101.016Z" fill="#171717"/>
<path d="M284.043 101.663C284.194 101.467 284.346 101.27 284.504 101.073C284.357 101.27 284.2 101.467 284.043 101.663Z" fill="#171717"/>
<path d="M283.534 102.305C283.686 102.109 283.843 101.918 284.001 101.721C283.849 101.918 283.691 102.109 283.534 102.305Z" fill="#171717"/>
<path d="M282.031 297.428C281.721 301.249 281.412 305.134 281.051 308.956C281.045 308.95 281.046 308.938 281.04 308.933C272.657 308.528 265.321 308.065 256.938 307.661H256.896L257.881 296.688L258.196 296.734C259.656 296.588 261.126 296.586 262.586 296.728L262.589 296.73C262.59 296.731 262.591 296.731 262.592 296.731C262.593 296.731 262.594 296.73 262.594 296.73C262.595 296.729 262.597 296.728 262.597 296.728C264.111 296.867 265.62 297.11 267.134 297.376C267.391 297.422 267.643 297.468 267.899 297.509C268.654 297.648 269.408 297.781 270.168 297.908C270.928 298.035 271.688 298.145 272.447 298.237C275.643 298.642 279.044 298.584 282.031 297.428Z" fill="url(#paint6_linear_85_1451)"/>
<path d="M272.447 298.237C275.696 298.584 279.102 298.526 282.036 297.37C282.036 297.387 282.031 297.411 282.031 297.428C279.044 298.584 275.643 298.642 272.447 298.237Z" fill="url(#paint7_linear_85_1451)"/>
<path d="M281.083 309.05H281.04C281.046 309.02 281.046 308.985 281.051 308.956C281.061 308.985 281.072 309.02 281.083 309.05Z" fill="#171717"/>
<path d="M276.336 99.0732C276.11 99.4028 275.895 99.7265 275.696 100.039L275.775 99.9C275.953 99.6282 276.137 99.3507 276.336 99.0732Z" fill="#171717"/>
<path d="M267.899 297.509C268.654 297.642 269.414 297.781 270.168 297.908C269.408 297.781 268.654 297.648 267.899 297.509Z" fill="url(#paint8_linear_85_1451)"/>
<path d="M268.518 108.422C272.576 108.72 276.653 108.526 280.673 107.843C284.157 107.216 287.58 106.229 290.896 104.895C291.974 104.461 292.966 103.804 293.82 102.958C292.956 103.832 291.944 104.51 290.844 104.953C287.525 106.28 284.103 107.267 280.621 107.901C280.275 107.959 279.924 108.017 279.573 108.069C275.894 108.644 272.17 108.782 268.465 108.479C263.262 108.109 257.132 107.248 253.449 110.931C257.127 107.179 263.289 108.046 268.518 108.422Z" fill="#171717"/>
<path d="M266.81 97.4141C268.245 96.3561 269.592 95.0438 270.944 94.0552C269.602 95.0611 268.256 96.3735 266.81 97.4141Z" fill="#171717"/>
<path d="M266.527 179.421L266.49 179.478H250.311L250.284 179.421H266.527Z" fill="url(#paint9_linear_85_1451)"/>
<path d="M266.49 179.479L258.998 190.874L258.773 190.695C257.567 190.579 256.31 190.406 255.105 190.29L250.311 179.479H266.49Z" fill="url(#paint10_linear_85_1451)"/>
<path d="M276.901 457.522C278.023 464.674 279.406 472.288 282.146 478.82C279.369 472.259 277.976 464.604 276.849 457.407C273.7 436.698 270.017 419.574 265.165 402.629C270.022 419.586 273.721 436.745 276.901 457.522Z" fill="#171717"/>
<path d="M264.64 222.555L257.829 296.676V296.682L257.776 296.676L256.791 307.661H256.781L255.314 323.964L229.551 325.172L237.709 217.583H237.704L237.709 217.537L264.64 222.555ZM250.074 319.455L257.357 246.836L241.848 245.217L234.356 319.801H234.413L234.408 319.859L250.074 319.455ZM256.781 231.458C256.816 230.591 256.692 229.726 256.415 228.914C256.139 228.102 255.716 227.359 255.172 226.733C254.629 226.105 253.976 225.606 253.253 225.265C252.53 224.925 251.751 224.749 250.965 224.749C250.179 224.749 249.4 224.925 248.677 225.265C247.954 225.606 247.302 226.105 246.758 226.733C246.215 227.359 245.792 228.102 245.515 228.914C245.239 229.726 245.115 230.591 245.149 231.458C245.15 231.913 245.19 232.365 245.27 232.811C245.466 234.029 245.969 235.162 246.72 236.081C247.471 237 248.441 237.668 249.519 238.008C249.61 238.039 249.703 238.064 249.797 238.083C249.987 238.13 250.18 238.164 250.373 238.187C250.767 238.234 251.164 238.234 251.557 238.187C251.751 238.164 251.943 238.13 252.133 238.083C252.228 238.06 252.322 238.037 252.411 238.008C253.489 237.668 254.459 237 255.211 236.081C255.962 235.162 256.464 234.029 256.66 232.811C256.741 232.365 256.781 231.913 256.781 231.458Z" fill="url(#paint11_linear_85_1451)"/>
<path d="M264.641 222.555L237.709 217.537V217.525L264.641 222.555Z" fill="url(#paint12_linear_85_1451)"/>
<path d="M263.011 395.362C263.755 397.785 264.467 400.195 265.159 402.618C264.467 400.201 263.751 397.783 263.011 395.362Z" fill="#171717"/>
<path d="M262.597 296.729C264.112 296.861 265.626 297.11 267.135 297.376C265.621 297.11 264.112 296.867 262.597 296.729Z" fill="url(#paint13_linear_85_1451)"/>
<path d="M258.196 296.734C259.656 296.585 261.126 296.583 262.586 296.729C261.126 296.586 259.656 296.588 258.196 296.734Z" fill="url(#paint14_linear_85_1451)"/>
<path d="M257.714 379.169C258.059 380.169 258.4 381.158 258.735 382.152C258.4 381.163 258.059 380.169 257.714 379.169Z" fill="#171717"/>
<path d="M257.881 296.688L256.896 307.661H256.844L257.829 296.682L257.881 296.688Z" fill="url(#paint15_linear_85_1451)"/>
<path d="M257.882 296.676V296.688L257.829 296.682V296.676L264.641 222.555L257.882 296.676Z" fill="url(#paint16_linear_85_1451)"/>
<path d="M257.829 296.682L256.844 307.661H256.792L257.777 296.676L257.829 296.682Z" fill="url(#paint17_linear_85_1451)"/>
<path d="M281.04 309.048C272.678 308.643 265.358 308.181 256.991 307.776H256.886L256.896 307.661H256.938C265.321 308.065 272.657 308.528 281.04 308.933C281.045 308.938 281.045 308.95 281.051 308.956C281.045 308.985 281.045 309.019 281.04 309.048Z" fill="url(#paint18_linear_85_1451)"/>
<path d="M256.897 307.661L256.887 307.777H256.834L256.844 307.661H256.897Z" fill="url(#paint19_linear_85_1451)"/>
<path d="M255.419 324.08L229.541 325.294L255.314 324.08L256.834 307.776H256.886L255.419 324.08Z" fill="url(#paint20_linear_85_1451)"/>
<path d="M256.845 307.661L256.834 307.777H256.781L256.792 307.661H256.845Z" fill="url(#paint21_linear_85_1451)"/>
<path d="M255.314 324.079L229.541 325.293L229.551 325.172L255.314 323.964L256.781 307.661H256.792L256.781 307.776H256.834L255.314 324.079Z" fill="url(#paint22_linear_85_1451)"/>
<path d="M250.074 319.455L234.408 319.859L234.413 319.801L250.074 319.455Z" fill="url(#paint23_linear_85_1451)"/>
<path d="M247.56 102.467C247.455 102.588 247.355 102.71 247.261 102.837C247.34 102.733 247.424 102.629 247.507 102.525C247.524 102.504 247.541 102.485 247.56 102.467Z" fill="#171717"/>
<path d="M247.261 102.837C247.166 102.958 247.072 103.086 246.983 103.218C247.072 103.086 247.161 102.958 247.261 102.837Z" fill="#171717"/>
<path d="M245.27 232.811C245.474 234.026 245.979 235.155 246.729 236.072C247.479 236.99 248.445 237.66 249.519 238.008C248.441 237.668 247.471 237 246.72 236.081C245.969 235.162 245.466 234.029 245.27 232.811Z" fill="url(#paint24_linear_85_1451)"/>
<path d="M245.732 105.722C245.69 105.837 245.648 105.953 245.616 106.069C245.653 105.953 245.69 105.837 245.732 105.722Z" fill="#171717"/>
<path d="M245.328 107.086C245.286 107.242 245.255 107.398 245.218 107.56C245.255 107.398 245.292 107.242 245.328 107.086Z" fill="#171717"/>
<path d="M245.05 141.091C245.128 141.109 245.201 141.126 245.28 141.138C245.203 141.128 245.126 141.112 245.05 141.091Z" fill="#171717"/>
<path d="M244.19 140.716C244.455 140.893 244.746 141.02 245.05 141.091C244.745 141.025 244.453 140.898 244.19 140.716Z" fill="#171717"/>
<path d="M276.587 98.7205C279.396 94.8008 283.781 90.2568 286.914 92.0605C288.916 93.0086 288.219 95.4252 286.527 98.1771C286.149 98.7841 285.725 99.4085 285.269 100.039C285.191 100.148 285.112 100.258 285.033 100.362C285.018 100.386 285.002 100.403 284.991 100.42L284.546 101.016C284.529 101.032 284.515 101.052 284.504 101.073C284.347 101.27 284.195 101.467 284.043 101.663C284.028 101.681 284.014 101.7 284.001 101.721C283.844 101.918 283.687 102.108 283.535 102.305C283.194 102.733 282.848 103.155 282.508 103.565C282.49 103.583 282.472 103.602 282.455 103.623C284.698 101.813 286.93 101.045 288.586 99.5357C288.675 99.4605 288.764 99.3738 288.853 99.2871C290.53 97.6105 293.621 96.6855 294.826 98.8246C295.523 100.096 295.109 101.415 294.208 102.53C294.087 102.681 293.957 102.825 293.82 102.958C292.967 103.804 291.974 104.461 290.896 104.895C287.58 106.229 284.158 107.217 280.674 107.843C276.654 108.526 272.577 108.72 268.518 108.421C263.289 108.046 257.127 107.178 253.449 110.931C253.302 111.072 253.162 111.222 253.03 111.381C252.857 111.58 252.692 111.788 252.537 112.006C250.546 114.781 250.389 118.539 250.284 122.065C250.127 127.153 249.97 132.298 249.813 137.391C249.812 137.521 249.803 137.65 249.787 137.779C249.771 137.905 249.749 138.031 249.719 138.154C249.703 138.212 249.687 138.276 249.666 138.334C249.624 138.455 249.577 138.576 249.53 138.692C249.195 139.343 248.729 139.9 248.169 140.322C247.609 140.744 246.969 141.019 246.297 141.126C246.234 141.138 246.177 141.143 246.114 141.155C245.837 141.184 245.557 141.178 245.281 141.138C245.202 141.126 245.129 141.109 245.05 141.091C244.747 141.02 244.456 140.893 244.191 140.716C244.128 140.669 244.06 140.623 243.997 140.571C242.058 138.952 242.687 135.073 244.835 134.032C243.054 134.784 241.272 136.408 239.543 135.42C234.67 133.05 244.207 123.915 244.521 117.671C244.668 114.711 244.568 111.52 245.029 108.601C245.082 108.248 245.144 107.901 245.218 107.56C245.254 107.398 245.286 107.242 245.328 107.086C245.412 106.745 245.506 106.404 245.616 106.068C245.647 105.953 245.689 105.837 245.731 105.722C245.784 105.571 245.836 105.427 245.894 105.276C246.009 104.987 246.135 104.704 246.276 104.427C246.334 104.305 246.397 104.19 246.46 104.074C246.512 103.976 246.564 103.877 246.622 103.785C246.737 103.588 246.858 103.403 246.983 103.218C247.073 103.085 247.167 102.958 247.261 102.837C247.356 102.715 247.455 102.588 247.56 102.467C247.693 102.306 247.835 102.153 247.984 102.01C251.537 98.4719 257.164 99.0096 262.021 99.2293C263.478 99.2414 264.904 98.7749 266.118 97.888C266.354 97.7435 266.585 97.5816 266.81 97.4139C268.256 96.3733 269.603 95.061 270.944 94.055C271.159 93.8932 271.369 93.7428 271.583 93.5983C272.552 92.8895 273.697 92.5334 274.858 92.5808C278.211 92.5808 277.006 97.7839 275.644 100.096C275.686 100.033 275.728 99.9635 275.775 99.8999L275.696 100.039C275.896 99.7264 276.11 99.4027 276.336 99.0732C276.419 98.9575 276.498 98.8361 276.587 98.7205Z" fill="#171717"/>
<path d="M237.709 217.583L229.551 325.172H229.546L237.704 217.583H237.709Z" fill="url(#paint25_linear_85_1451)"/>
<path d="M237.704 217.583L229.546 325.172L229.494 325.178L237.652 217.589L237.704 217.583Z" fill="url(#paint26_linear_85_1451)"/>
<path d="M232.208 230.591L212.507 225.446C212.512 225.434 212.517 225.417 212.523 225.405L232.208 230.591Z" fill="url(#paint27_linear_85_1451)"/>
<path d="M229.552 325.172L229.541 325.294H229.536L229.546 325.172H229.552Z" fill="url(#paint28_linear_85_1451)"/>
<path d="M229.547 325.172L229.536 325.294H229.483L229.494 325.178L229.547 325.172Z" fill="url(#paint29_linear_85_1451)"/>
<path d="M229.535 325.294H229.54L229.535 325.351L221.136 320.553L229.483 325.294H229.535Z" fill="url(#paint30_linear_85_1451)"/>
<path d="M229.43 325.178H229.493L229.483 325.293L221.136 320.553L220.523 320.206L220.481 320.183V320.177L220.523 320.09L229.43 325.178Z" fill="url(#paint31_linear_85_1451)"/>
<path d="M214.603 220.011L214.917 220.242L237.652 217.589L229.494 325.178H229.431L220.524 320.09L220.482 320.177L208.834 313.5L208.729 313.442L208.431 313.269L204.38 310.956L204.118 310.898V310.262C204.108 310.181 204.097 310.106 204.082 310.025C203.79 308.846 203.225 307.772 202.442 306.909C200.472 304.279 198.423 301.787 196.254 299.382C195.945 299.035 195.63 298.694 195.316 298.353L193.901 298.237L194.844 297.89C195.943 297.353 196.936 296.585 197.768 295.63C197.787 295.61 197.805 295.589 197.82 295.566C197.915 295.457 198.009 295.341 198.098 295.225L198.198 295.283L219.423 312.228L232.208 230.591L212.523 225.405C212.675 225.07 212.827 224.74 212.979 224.405C213.077 224.274 213.149 224.122 213.194 223.959C213.238 223.797 213.252 223.626 213.235 223.457C213.241 223.289 213.241 223.11 213.246 222.942C213.237 222.798 213.255 222.653 213.299 222.516C213.343 222.38 213.412 222.256 213.503 222.15C213.869 221.457 214.236 220.705 214.603 220.011Z" fill="url(#paint32_linear_85_1451)"/>
<path d="M198.098 295.225C198.009 295.341 197.914 295.457 197.82 295.566C197.914 295.457 198.003 295.341 198.092 295.225H198.098Z" fill="url(#paint33_linear_85_1451)"/>
<path d="M196.253 299.382C198.422 301.787 200.471 304.279 202.441 306.909C200.471 304.331 198.417 301.793 196.253 299.382Z" fill="url(#paint34_linear_85_1451)"/>
<path d="M174.253 295.052C174.565 295.651 174.953 296.199 175.406 296.676L175.039 296.792C174.927 297.21 174.839 297.634 174.777 298.064L174.714 298.052L174.462 298.006L169.013 293.954L169.018 293.936L170.271 286.322V286.149C171.26 286.101 172.252 286.14 173.236 286.264V286.276C173.213 286.319 173.202 286.37 173.205 286.421V286.438C173.053 287.228 172.955 288.031 172.911 288.837C172.886 289.307 172.885 289.778 172.906 290.248C172.98 291.949 173.443 293.602 174.253 295.052Z" fill="url(#paint35_linear_85_1451)"/>
<path d="M173.259 286.264C173.254 286.264 173.25 286.266 173.246 286.267C173.242 286.27 173.239 286.273 173.236 286.277V286.264H173.259Z" fill="url(#paint36_linear_85_1451)"/>
<path d="M173.205 286.438V286.496C173.056 287.267 172.957 288.05 172.911 288.837C172.954 288.03 173.053 287.228 173.205 286.438Z" fill="url(#paint37_linear_85_1451)"/>
<path d="M212.14 193.354C241.361 201.951 252.213 193.475 254.612 191.024C252.323 193.406 241.534 202.078 212.088 193.412C209.148 192.545 206.267 191.735 203.385 190.926C176.438 183.439 151.838 179.774 136.706 200.367C151.618 179.953 175.772 183.277 202.311 190.556C202.683 190.66 203.06 190.764 203.437 190.868C206.319 191.677 209.201 192.487 212.14 193.354Z" fill="url(#paint38_linear_85_1451)"/>
<path d="M140.929 230.591L126.096 234.638L126.101 234.62L140.877 230.591C140.877 230.591 157.203 203.702 190.469 202.049C157.24 203.731 140.929 230.591 140.929 230.591Z" fill="url(#paint39_linear_85_1451)"/>
<path d="M106.605 378.834C107.906 378.556 109.251 378.664 110.503 379.146C106.584 381.626 103.188 384.974 99.8455 388.257C94.5535 393.403 89.3139 398.548 84.022 403.693C82.0833 405.601 80.1447 407.451 78.5728 409.706C76.9475 411.924 75.8812 414.576 75.4814 417.395C75.2918 420.448 75.9493 423.493 77.3677 426.124C78.73 428.784 80.6162 430.981 82.6073 433.12L82.6963 433.455C81.9088 433.756 81.059 433.8 80.2495 433.582C79.42 433.258 78.6907 432.683 78.1431 431.923C78.0436 431.802 77.9493 431.669 77.855 431.536C77.6297 431.218 77.4201 430.894 77.2105 430.576C75.691 428.206 74.1191 425.893 72.5997 423.523C72.4477 423.292 72.2958 423.06 72.1438 422.823C71.9814 422.569 71.8242 422.303 71.667 422.037C71.5937 421.916 71.5256 421.789 71.4574 421.667C71.3893 421.546 71.3212 421.419 71.2531 421.291C71.1326 421.06 71.0173 420.829 70.9125 420.598C70.2419 419.294 70.0045 417.772 70.2419 416.296C70.6086 414.446 71.9185 413.059 73.1236 411.729L100.003 383.459C101.941 381.435 103.985 379.354 106.605 378.834Z" fill="url(#paint40_linear_85_1451)"/>
<path d="M108.857 399.126C111.157 393.934 113.981 388.396 117.895 384.812L117.922 384.846C113.992 388.431 111.162 393.981 108.857 399.184C106.028 405.618 103.308 412.215 102.978 419.037C103.293 412.197 106.017 405.578 108.857 399.126Z" fill="url(#paint41_linear_85_1451)"/>
<path d="M103.094 423.176C103.165 423.994 103.287 424.805 103.46 425.604C103.921 427.905 104.555 429.506 105.457 430.64C104.524 429.506 103.874 427.888 103.408 425.546C103.261 424.777 103.156 424.008 103.057 423.24L103.094 423.234C103.041 422.742 103.004 422.251 102.983 421.76C103.01 422.228 103.041 422.702 103.094 423.176Z" fill="#171717"/>
<path d="M102.983 421.76C103.004 422.251 103.041 422.742 103.094 423.234L103.057 423.24L103.041 423.118C102.203 414.793 105.451 406.815 108.805 399.068C111.105 393.877 113.929 388.332 117.848 384.748L117.895 384.812C113.981 388.396 111.157 393.934 108.857 399.126C106.017 405.578 103.293 412.197 102.978 419.037C102.931 419.944 102.932 420.853 102.983 421.76Z" fill="url(#paint42_linear_85_1451)"/>
<path d="M102.674 423.292C96.7012 426.413 90.6757 429.535 84.7026 432.657C83.3403 433.409 81.7684 434.103 80.3013 433.64C79.4378 433.328 78.6833 432.728 78.1426 431.923C78.6902 432.683 79.42 433.258 80.2489 433.582C81.059 433.8 81.9083 433.756 82.6958 433.455L82.6067 433.12C80.6157 430.981 78.7294 428.784 77.3672 426.124C75.9493 423.493 75.2912 420.448 75.4809 417.395C75.8807 414.576 76.9469 411.924 78.5723 409.706C80.1441 407.451 82.0828 405.601 84.0214 403.693C89.3134 398.548 94.553 393.403 99.845 388.257C103.188 384.974 106.583 381.626 110.502 379.146C110.759 379.238 111.016 379.343 111.273 379.458C111.571 379.597 111.87 379.753 112.163 379.921C112.373 380.042 112.577 380.169 112.787 380.302C112.881 380.366 112.981 380.429 113.08 380.499C114.261 381.322 115.379 382.25 116.423 383.274C116.533 383.378 116.638 383.482 116.743 383.586C117.052 383.892 117.361 384.193 117.66 384.499L117.848 384.748C113.929 388.332 111.105 393.877 108.805 399.068C105.451 406.815 102.203 414.793 103.041 423.118L103.057 423.24L102.674 423.292Z" fill="url(#paint43_linear_85_1451)"/>
<path d="M71.4569 421.667C71.525 421.788 71.5931 421.916 71.6665 422.037C71.5931 421.916 71.5198 421.794 71.4569 421.667Z" fill="url(#paint44_linear_85_1451)"/>
<path d="M71.2531 421.291C71.3212 421.418 71.3893 421.54 71.4574 421.667C71.3841 421.546 71.316 421.418 71.2531 421.291Z" fill="url(#paint45_linear_85_1451)"/>
<path d="M267.261 165.719C265.689 162.598 266.632 159.244 268.466 156.354C270.3 153.463 272.919 151.266 275.015 148.607C279.155 143.288 281.146 136.235 281.67 129.234C282.193 122.233 281.408 115.243 280.674 108.248" stroke="#171717" stroke-width="2" stroke-linecap="round" stroke-linejoin="round"/>
<path d="M244.835 134.032C242.686 135.073 242.058 138.952 243.996 140.571C244.059 140.623 244.127 140.669 244.19 140.716C244.455 140.893 244.746 141.02 245.05 141.091C245.128 141.109 245.201 141.126 245.28 141.138C245.556 141.178 245.835 141.184 246.113 141.155C246.176 141.149 246.239 141.138 246.297 141.126C246.969 141.025 247.612 140.752 248.173 140.33C248.734 139.907 249.198 139.347 249.529 138.692C249.582 138.577 249.628 138.456 249.666 138.334C249.687 138.276 249.702 138.212 249.718 138.155C249.748 138.031 249.771 137.905 249.786 137.779C249.803 137.65 249.811 137.521 249.812 137.391V137.102" stroke="#171717" stroke-width="2" stroke-linecap="round" stroke-linejoin="round"/>
<path d="M245.411 133.859C245.201 133.917 245.044 133.975 244.835 134.033" stroke="#171717" stroke-width="2" stroke-linecap="round" stroke-linejoin="round"/>
<path d="M249.027 166.008V165.893C249.289 156.412 249.551 146.873 249.865 137.391C250.022 132.24 250.18 127.153 250.337 122.007C250.442 118.481 250.651 114.665 252.59 111.948C252.731 111.751 252.878 111.561 253.03 111.381C253.162 111.222 253.302 111.072 253.449 110.931C257.127 107.179 263.289 108.046 268.518 108.421C272.577 108.72 276.653 108.526 280.674 107.843C284.158 107.216 287.58 106.229 290.896 104.895C291.974 104.461 292.967 103.804 293.82 102.958C293.957 102.824 294.086 102.681 294.208 102.53C295.146 101.403 295.586 100.062 294.878 98.7668C293.673 96.6277 290.582 97.5527 288.905 99.2293C288.801 99.3333 288.696 99.4374 288.586 99.5357C286.941 101.004 284.771 101.779 282.508 103.565C282.848 103.155 283.194 102.733 283.535 102.305C283.687 102.108 283.844 101.918 284.001 101.721C284.014 101.7 284.027 101.681 284.043 101.663C284.195 101.467 284.347 101.27 284.504 101.074C284.515 101.052 284.529 101.032 284.546 101.016L284.991 100.42C285.002 100.403 285.018 100.386 285.033 100.362C285.112 100.258 285.191 100.149 285.269 100.039C285.725 99.4085 286.149 98.7841 286.527 98.1771C288.245 95.4194 288.979 92.9913 286.967 92.0027C283.813 90.1874 279.359 94.7893 276.587 98.7205C276.498 98.8362 276.419 98.9576 276.336 99.0732C276.11 99.4027 275.895 99.7265 275.696 100.039L275.775 99.8999C277.101 97.5238 278.149 92.523 274.91 92.523C273.726 92.4803 272.56 92.8572 271.583 93.5983C271.369 93.7429 271.159 93.8932 270.944 94.0551C269.603 95.061 268.256 96.3733 266.81 97.414C266.585 97.5816 266.354 97.7435 266.118 97.888C264.911 98.7379 263.506 99.1836 262.073 99.1715C257.19 98.9518 251.537 98.4083 247.984 102.01C247.835 102.153 247.693 102.305 247.56 102.467C247.455 102.588 247.355 102.71 247.261 102.837C247.167 102.964 247.073 103.085 246.983 103.218C246.858 103.403 246.737 103.588 246.622 103.785C246.564 103.877 246.512 103.976 246.46 104.074C246.397 104.19 246.334 104.305 246.276 104.427C246.135 104.704 246.009 104.987 245.894 105.276C245.836 105.427 245.784 105.571 245.731 105.722C245.689 105.837 245.647 105.953 245.616 106.069C245.506 106.404 245.412 106.745 245.328 107.086C245.286 107.242 245.254 107.398 245.218 107.56C245.144 107.901 245.082 108.248 245.029 108.601C244.579 111.486 244.689 114.648 244.573 117.614C244.259 123.857 234.723 132.992 239.596 135.362C241.325 136.351 243.106 134.726 244.888 133.975" stroke="#171717" stroke-width="2" stroke-linecap="round" stroke-linejoin="round"/>
<path d="M239.752 175.374C239.386 173.582 239.124 172.831 239.333 170.981C239.543 169.131 240.381 167.281 241.953 166.471C243.024 166.036 244.168 165.859 245.306 165.951H249.079C255.141 165.951 261.198 166.009 267.26 166.009H269.094C271.766 166.009 274.543 166.066 276.901 167.512C279.185 168.946 280.852 172.137 279.809 174.785C279.803 174.809 279.794 174.832 279.783 174.854" stroke="#171717" stroke-width="2" stroke-linecap="round" stroke-linejoin="round"/>
<path d="M239.491 175.663H239.805C253.114 176.184 266.58 176.646 279.731 174.796C279.757 174.79 279.783 174.79 279.809 174.785C283.189 174.322 286.521 173.692 289.849 172.888C311.107 167.681 330.294 155.099 344.602 136.987C348.375 132.182 352.252 126.69 357.864 125.245C358.332 125.125 358.806 125.032 359.283 124.967C359.315 124.962 359.352 124.962 359.383 124.956C360.917 124.795 362.465 124.942 363.952 125.39C363.983 125.401 364.015 125.407 364.046 125.418C367.556 126.554 370.596 129.008 372.639 132.356L372.671 132.408C373.04 133.025 373.38 133.664 373.687 134.322C376.516 140.687 375.835 148.434 373.216 154.909C370.543 161.384 366.09 166.702 361.322 171.443C340.306 192.255 312.641 203.124 284.819 208.848C284.766 208.859 284.714 208.865 284.661 208.877C283.509 209.096 282.351 209.322 281.25 209.541" stroke="#171717" stroke-width="2" stroke-linecap="round" stroke-linejoin="round"/>
<path d="M359.225 124.436C359.959 122.817 359.592 120.851 358.859 119.233C358.125 117.614 357.077 116.169 356.396 114.55C355.715 112.931 355.395 110.908 356.181 109.347C357.129 107.497 359.121 106.861 361.059 106.514C361.3 106.451 361.545 106.412 361.793 106.398C363.993 106.051 366.299 105.704 368.447 106.225C368.457 106.225 368.468 106.231 368.478 106.231C368.935 106.332 369.381 106.486 369.809 106.687C370.947 107.12 371.911 107.979 372.534 109.115C372.838 109.683 373.002 110.328 373.012 110.987C373.021 111.646 372.874 112.296 372.586 112.873C371.8 114.261 370.124 114.723 368.604 114.781C367.871 114.781 367.085 114.781 366.351 114.839C365.619 114.827 364.89 114.964 364.203 115.244" stroke="#171717" stroke-width="2" stroke-linecap="round" stroke-linejoin="round"/>
<path d="M372.43 132.414H372.587C372.613 132.414 372.644 132.408 372.671 132.408C380.341 131.807 387.703 135.669 394.593 139.473C404.81 145.08 415.08 150.746 425.297 156.354C432.638 127.904 439.957 99.4779 447.256 71.0746C447.499 70.393 447.536 69.6426 447.361 68.9355C447.045 68.3169 446.571 67.8145 445.999 67.4902C437.93 62.0558 429.756 56.5637 421.053 52.3954C412.35 48.2271 402.924 45.5157 393.44 45.8048C390.244 45.9204 386.786 46.4407 384.376 48.7532C381.966 51.0657 381.023 54.7079 380.184 58.1246L372.168 91.0777C372.162 91.1066 372.152 91.1413 372.147 91.1702C370.947 96.1132 369.752 100.993 368.552 105.878" stroke="#171717" stroke-width="2" stroke-linecap="round" stroke-linejoin="round"/>
<path d="M366.352 114.839C365.22 118.254 364.416 121.79 363.952 125.39C363.947 125.419 363.947 125.447 363.941 125.476C363.941 125.592 363.889 125.708 363.889 125.823" stroke="#171717" stroke-width="2" stroke-linecap="round" stroke-linejoin="round"/>
<path d="M361.059 106.225C360.9 102.743 361.845 99.3086 363.731 96.5122C365.627 93.7192 368.354 91.7542 371.434 90.9622" stroke="#171717" stroke-width="2" stroke-linecap="round" stroke-linejoin="round"/>
<path d="M284.661 208.79V208.905C287.594 231.294 289.483 253.834 290.32 276.436C290.582 282.969 290.372 290.427 286.023 294.821C284.863 295.971 283.508 296.857 282.036 297.428H282.031C279.044 298.584 275.643 298.642 272.447 298.237C271.688 298.145 270.928 298.029 270.168 297.908C269.408 297.786 268.654 297.648 267.899 297.509C267.643 297.468 267.391 297.422 267.134 297.376C265.62 297.11 264.111 296.867 262.597 296.728L262.595 296.73C262.594 296.731 262.593 296.731 262.592 296.731C262.591 296.731 262.59 296.731 262.589 296.73C262.588 296.73 262.587 296.729 262.586 296.728C261.126 296.586 259.656 296.588 258.196 296.734" stroke="#171717" stroke-width="2" stroke-linecap="round" stroke-linejoin="round"/>
<path d="M282.089 297.428C281.774 301.301 281.408 305.175 281.093 309.048H281.041C272.678 308.644 265.359 308.181 256.991 307.776" stroke="#171717" stroke-width="2" stroke-linecap="round" stroke-linejoin="round"/>
<path d="M281.093 309.048C299.174 361.137 316.937 412.076 335.013 464.171C337.214 470.472 339.362 477.699 336.585 483.654C336.228 484.409 335.807 485.124 335.328 485.793C332.184 490.186 326.577 492.152 321.443 493.482C312.588 495.736 302.737 497.182 294.616 493.251C293.538 492.737 292.503 492.117 291.525 491.4C287.815 488.753 285.106 485.082 283.063 480.844C282.738 480.185 282.439 479.508 282.146 478.82C279.406 472.288 278.022 464.674 276.901 457.522C273.721 436.745 270.021 419.586 265.164 402.629C265.164 402.625 265.162 402.621 265.159 402.618C264.467 400.196 263.755 397.785 263.011 395.362C262.267 392.94 261.497 390.506 260.7 388.061C260.223 386.592 259.736 385.118 259.238 383.638C259.071 383.141 258.903 382.644 258.735 382.152C258.4 381.158 258.059 380.169 257.714 379.169C257.368 378.169 257.017 377.169 256.66 376.157C254.722 370.642 252.631 364.976 250.378 359.056C250.367 359.017 250.353 358.978 250.336 358.941C249.76 357.38 249.131 355.819 248.502 354.2" stroke="#171717" stroke-width="2" stroke-linecap="round" stroke-linejoin="round"/>
<path d="M220.261 320.784C217.641 332.462 215.021 344.198 210.353 355.009C205.69 365.878 198.774 375.879 189.342 381.84C174.2 391.437 155.128 389.24 138.466 383.574C133.902 382.013 129.082 380.221 124.419 381.262C122.023 381.828 119.79 383.04 117.922 384.788C117.911 384.794 117.906 384.806 117.895 384.812C113.981 388.396 111.157 393.934 108.857 399.126C106.017 405.578 103.293 412.197 102.978 419.037C102.93 419.944 102.932 420.853 102.983 421.76C103.01 422.228 103.041 422.702 103.094 423.176C103.165 423.993 103.287 424.805 103.46 425.604C103.921 427.905 104.555 429.506 105.457 430.64C105.607 430.828 105.77 431.004 105.944 431.166C108.768 433.935 113.882 433.212 123.371 433.987C183.684 438.901 225.134 425.431 241.743 390.107C246.291 380.47 248.492 369.792 250.378 359.056C250.383 359.039 250.383 359.016 250.389 358.998C251.122 354.72 251.856 350.384 252.642 346.164" stroke="#171717" stroke-width="2" stroke-linecap="round" stroke-linejoin="round"/>
<path d="M193.901 202.43C191.263 206.657 189.099 211.221 187.457 216.022C187.037 217.178 186.671 218.335 186.304 219.491C185.308 222.613 184.418 225.735 183.527 228.914C179.44 248.166 176.349 266.319 173.257 286.149C173.259 286.171 173.256 286.193 173.247 286.212C173.246 286.23 173.242 286.248 173.236 286.264V286.276C173.22 286.322 173.209 286.371 173.205 286.42V286.438C173.052 287.228 172.954 288.03 172.911 288.837C172.886 289.306 172.884 289.778 172.906 290.248C172.988 291.929 173.451 293.561 174.253 294.994C174.566 295.593 174.954 296.14 175.406 296.619C177.763 299.047 181.536 299.104 184.575 299.567C187.823 300.087 191.072 299.22 193.954 298.179L194.897 297.833C195.971 297.305 196.946 296.558 197.768 295.63C197.787 295.61 197.804 295.589 197.82 295.566C197.915 295.457 198.009 295.341 198.098 295.225C198.114 295.208 198.13 295.185 198.145 295.167C198.345 294.903 198.531 294.625 198.701 294.335C198.709 294.325 198.716 294.313 198.722 294.3C200.294 291.757 200.922 288.519 201.603 285.282C204.48 265.764 204.223 246.299 211.124 228.567C211.129 228.55 211.139 228.527 211.145 228.51C211.537 227.445 211.981 226.405 212.476 225.394C212.486 225.37 212.497 225.353 212.507 225.33L212.979 224.289C213.159 224.059 213.251 223.76 213.235 223.457C213.241 223.289 213.241 223.11 213.246 222.942C213.228 222.779 213.242 222.614 213.286 222.458C213.33 222.302 213.404 222.157 213.503 222.035C213.869 221.341 214.236 220.589 214.603 219.896C217.765 214.431 221.65 209.518 226.13 205.321" stroke="#171717" stroke-width="2" stroke-linecap="round" stroke-linejoin="round"/>
<path d="M239.752 175.779C229.426 175.658 219.283 178.786 210.51 184.798C208.04 186.483 205.693 188.377 203.489 190.463" stroke="#171717" stroke-width="2" stroke-linecap="round" stroke-linejoin="round"/>
<path d="M275.748 115.706C273.356 115.302 270.937 115.128 268.518 115.186C268.009 115.149 267.501 115.269 267.051 115.533C266.369 116.111 266.369 117.209 266.422 118.134C266.789 122.875 267.155 127.673 267.522 132.414C267.64 133.21 267.568 134.027 267.313 134.784C267.086 135.25 266.755 135.643 266.351 135.927C265.948 136.212 265.485 136.377 265.007 136.409C264.053 136.468 263.097 136.351 262.178 136.062" stroke="#171717" stroke-width="2" stroke-linecap="round" stroke-linejoin="round"/>
<path d="M270.666 121.776C270.689 121.731 270.715 121.689 270.745 121.649C270.771 121.603 270.803 121.556 270.829 121.516C270.855 121.476 270.876 121.452 270.897 121.418" stroke="#171717" stroke-width="2" stroke-linecap="round" stroke-linejoin="round"/>
<path d="M270.897 121.418C270.876 121.447 270.849 121.482 270.828 121.517" stroke="#171717" stroke-width="2" stroke-linecap="round" stroke-linejoin="round"/>
<path d="M270.897 121.418C270.938 121.36 270.984 121.306 271.034 121.256" stroke="#171717" stroke-width="2" stroke-linecap="round" stroke-linejoin="round"/>
<path d="M275.067 121.892C274.878 121.435 274.577 121.046 274.197 120.77C273.817 120.494 273.374 120.341 272.919 120.331C272.565 120.339 272.215 120.424 271.891 120.583C271.567 120.742 271.275 120.97 271.033 121.256" stroke="#171717" stroke-width="2" stroke-linecap="round" stroke-linejoin="round"/>
<path d="M260.397 121.256C260.274 120.703 260.003 120.204 259.62 119.823C259.237 119.441 258.759 119.196 258.249 119.117C257.747 119.056 257.24 119.16 256.792 119.418C256.344 119.675 255.976 120.073 255.734 120.562" stroke="#171717" stroke-width="2" stroke-linecap="round" stroke-linejoin="round"/>
<path d="M259.82 143.866C259.336 144.135 258.795 144.257 258.254 144.217C257.713 144.179 257.191 143.981 256.742 143.645C256.294 143.309 255.934 142.847 255.702 142.307C255.469 141.766 255.372 141.167 255.419 140.571" stroke="#171717" stroke-width="2" stroke-linecap="round" stroke-linejoin="round"/>
<path d="M117.66 384.499C117.361 384.193 117.052 383.892 116.743 383.586C116.638 383.482 116.528 383.378 116.423 383.274C115.379 382.25 114.261 381.322 113.08 380.499C112.981 380.429 112.881 380.366 112.787 380.302C112.577 380.169 112.373 380.042 112.163 379.921C111.87 379.753 111.571 379.597 111.272 379.458C111.021 379.337 110.769 379.233 110.518 379.134C109.246 378.64 107.88 378.516 106.552 378.776C103.932 379.296 101.888 381.435 99.9497 383.401L73.0707 411.671C71.8132 412.943 70.5557 414.389 70.1889 416.239C69.9537 417.74 70.2099 419.285 70.912 420.598C71.0168 420.829 71.132 421.06 71.2526 421.291C71.3207 421.419 71.3888 421.54 71.4569 421.667C71.525 421.794 71.5931 421.916 71.6665 422.037C71.8237 422.303 71.9809 422.569 72.1433 422.823C72.2795 423.043 72.4105 423.257 72.5467 423.465C74.0662 425.835 75.6381 428.148 77.1576 430.518C77.3829 430.859 77.6134 431.206 77.8544 431.536C77.9487 431.669 78.0431 431.802 78.1426 431.923C78.6901 432.683 79.42 433.258 80.2489 433.582C81.059 433.8 81.9083 433.756 82.6958 433.455C83.3633 433.216 84.0162 432.93 84.6502 432.6C90.6233 429.478 96.6488 426.356 102.622 423.234" stroke="#171717" stroke-width="2" stroke-linecap="round" stroke-linejoin="round"/>
<path d="M294.617 492.846V493.308C294.564 499.668 294.512 506.027 294.512 512.387C294.512 513.832 294.512 515.393 295.245 516.607C295.313 516.717 295.381 516.827 295.455 516.925C295.528 517.025 295.607 517.119 295.691 517.208C295.769 517.301 295.858 517.387 295.942 517.468C296.026 517.549 296.12 517.619 296.215 517.694C297.687 518.798 299.867 518.781 301.742 518.688C313.881 517.815 326.057 517.74 338.205 518.463C338.225 518.467 338.247 518.47 338.267 518.468C340.086 518.578 341.9 518.709 343.711 518.862C347.955 519.208 352.2 519.671 356.449 519.208C360.698 518.746 364.937 517.243 368.133 514.121C371.329 510.999 373.216 506.027 372.22 501.46C372.118 501.002 371.988 500.552 371.832 500.113C371.305 498.661 370.535 497.332 369.564 496.193C369.174 495.734 368.759 495.301 368.322 494.898C366.641 493.362 364.71 492.194 362.632 491.458C359.032 490.181 355.249 489.99 351.471 489.828C350.628 489.799 349.789 489.764 348.951 489.724C344.34 489.493 339.572 488.857 335.695 486.14" stroke="#171717" stroke-width="2" stroke-linecap="round" stroke-linejoin="round"/>
<path d="M204.327 310.898L208.43 313.269L208.729 313.442L208.755 313.459L208.834 313.5L220.481 320.183L220.523 320.206L221.136 320.553L229.483 325.294M229.483 325.294L229.493 325.178L237.651 217.589L237.657 217.525L237.709 217.537L264.64 222.555L257.829 296.676V296.682L256.844 307.661L256.833 307.776L255.314 324.08L229.54 325.294H229.535H229.483Z" stroke="#171717" stroke-width="2" stroke-linecap="round" stroke-linejoin="round"/>
<path d="M237.657 217.525L214.865 220.185" stroke="#171717" stroke-width="2" stroke-linecap="round" stroke-linejoin="round"/>
<path d="M212.245 225.33L212.455 225.388L212.476 225.394L212.523 225.405L232.208 230.591L219.423 312.228L198.198 295.283" stroke="#171717" stroke-width="2" stroke-linecap="round" stroke-linejoin="round"/>
<path d="M211.249 228.625L227.283 231.4L218.533 305.001L198.722 294.358L198.701 294.335L198.669 294.3" stroke="#171717" stroke-width="2" stroke-linecap="round" stroke-linejoin="round"/>
<path d="M185.466 219.202C182.374 217.294 178.287 219.202 176.191 222.324C174.096 225.446 173.414 229.435 172.838 233.308C170.376 249.727 167.861 266.088 165.398 282.507C165.136 284.125 164.926 285.802 164.664 287.421C166.442 286.664 168.316 286.216 170.218 286.091C171.215 286.043 172.214 286.082 173.205 286.207" stroke="#171717" stroke-width="2" stroke-linecap="round" stroke-linejoin="round"/>
<path d="M164.926 282.391C163.878 282.391 162.882 282.391 161.887 282.333C164.192 261.058 166.951 239.822 170.165 218.624C175.4 215.301 181.606 214.367 187.456 216.022H187.561" stroke="#171717" stroke-width="2" stroke-linecap="round" stroke-linejoin="round"/>
<path d="M195.316 298.353C195.63 298.694 195.945 299.035 196.254 299.382C198.423 301.787 200.472 304.279 202.442 306.909C203.128 307.828 203.862 308.852 204.082 310.025C204.097 310.106 204.108 310.181 204.118 310.262V310.898C203.992 311.835 203.599 312.704 202.996 313.38C202.394 314.055 201.612 314.502 200.765 314.656C198.879 315.003 197.202 313.673 196.311 311.823C195.421 309.973 195.316 308.586 195.054 306.678" stroke="#171717" stroke-width="2" stroke-linecap="round" stroke-linejoin="round"/>
<path d="M184.155 315.754H183.946C180.225 315.812 176.82 312.806 175.353 309.048C173.996 305.591 174.043 301.741 174.713 298.052C174.719 298.035 174.719 298.023 174.724 298.006C174.829 297.601 174.881 297.139 174.986 296.734" stroke="#171717" stroke-width="2" stroke-linecap="round" stroke-linejoin="round"/>
<path d="M180.802 306.967C181.341 309.65 182.395 312.173 183.894 314.367C184.119 314.702 184.349 315.032 184.591 315.344C185.262 316.235 186.011 317.051 186.828 317.778C189.605 320.206 193.639 320.958 196.835 319.165" stroke="#171717" stroke-width="2" stroke-linecap="round" stroke-linejoin="round"/>
<path d="M188.19 307.314C188.19 312.344 192.277 317.142 196.731 318.761C196.767 318.761 196.809 318.796 196.872 318.807C196.894 318.814 196.917 318.818 196.94 318.819C199.083 319.584 201.399 319.52 203.504 318.637C205.609 317.754 207.379 316.105 208.52 313.962" stroke="#171717" stroke-width="2" stroke-linecap="round" stroke-linejoin="round"/>
<path d="M170.218 286.264L168.96 293.896L169.018 293.936L174.409 297.948" stroke="#171717" stroke-width="2" stroke-linecap="round" stroke-linejoin="round"/>
<path d="M234.413 319.801L234.408 319.859L250.074 319.455L257.357 246.836L241.848 245.275L234.413 319.801Z" stroke="#171717" stroke-width="2" stroke-linecap="round" stroke-linejoin="round"/>
<path d="M245.27 232.811C245.19 232.365 245.15 231.913 245.15 231.458C245.115 230.592 245.239 229.726 245.516 228.914C245.792 228.102 246.215 227.359 246.759 226.733C247.302 226.105 247.955 225.606 248.678 225.265C249.401 224.925 250.179 224.749 250.966 224.749C251.752 224.749 252.53 224.925 253.253 225.265C253.976 225.606 254.629 226.105 255.173 226.733C255.716 227.359 256.139 228.102 256.416 228.914C256.692 229.726 256.817 230.592 256.782 231.458C256.782 231.913 256.741 232.365 256.661 232.811C256.457 234.026 255.952 235.155 255.202 236.072C254.452 236.99 253.486 237.66 252.412 238.008C252.323 238.037 252.228 238.06 252.134 238.083C251.944 238.13 251.752 238.164 251.558 238.188C251.164 238.234 250.767 238.234 250.374 238.188C250.18 238.164 249.987 238.13 249.797 238.083C249.703 238.064 249.611 238.04 249.519 238.008C248.441 237.668 247.471 237 246.72 236.081C245.969 235.162 245.467 234.029 245.27 232.811Z" stroke="#171717" stroke-width="2" stroke-linecap="round" stroke-linejoin="round"/>
<path d="M389.929 60.4373C405.618 61.7854 420.956 66.2509 435.205 73.6185" stroke="#171717" stroke-width="2" stroke-linecap="round" stroke-linejoin="round"/>
<path d="M387.048 75.1794C401.935 76.686 416.446 81.1925 429.86 88.4763" stroke="#171717" stroke-width="2" stroke-linecap="round" stroke-linejoin="round"/>
<path d="M383.17 90.7887C396.359 90.4302 409.363 94.2632 420.633 101.831" stroke="#171717" stroke-width="2" stroke-linecap="round" stroke-linejoin="round"/>
<path d="M130.654 271.291C129.396 277.361 125.047 282.16 120.07 284.993C115.092 287.883 109.486 289.097 103.984 290.311C98.4827 291.525 92.8763 292.855 87.9511 295.804C90.5038 305.625 92.5158 315.608 93.9766 325.698C94.0814 326.566 110.324 322.981 111.844 322.576C117.783 320.948 123.585 318.762 129.187 316.044C133.483 313.962 139.252 311.65 142.238 307.314C145.33 302.862 142.972 298.18 140.981 293.78C137.518 286.38 134.059 278.807 130.654 271.291Z" stroke="#171717" stroke-width="2" stroke-linecap="round" stroke-linejoin="round"/>
<path d="M97.6443 262.041C92.5095 260.885 87.27 259.728 82.5019 257.185C77.7863 254.699 73.4899 250.652 71.4988 245.275C74.433 239.957 77.3672 234.58 80.3013 229.261C79.3582 230.996 89.9422 237.355 91.1473 237.875C95.6009 239.841 99.8974 239.957 104.561 240.072C103.827 247.241 99.845 255.219 97.6443 262.041Z" stroke="#171717" stroke-width="2" stroke-linecap="round" stroke-linejoin="round"/>
<path d="M47.4966 289.964C41.7236 295.465 37.1404 302.321 34.0832 310.031C33.3497 311.939 32.6685 314.02 32.9305 316.044C33.3497 319.165 35.7599 321.478 38.2225 323.212C39.9516 324.426 41.5234 325.294 42.8857 326.623C43.0287 326.756 43.1976 326.85 43.3791 326.9C43.5606 326.949 43.75 326.951 43.9324 326.907C44.1149 326.861 44.2855 326.771 44.4311 326.642C44.5767 326.512 44.6934 326.348 44.772 326.161C45.7675 323.559 48.1253 319.744 48.5445 318.703C50.1476 315.168 52.1169 311.851 54.4125 308.817C58.7614 303.151 60.0189 303.73 56.9275 299.914C54.0458 296.387 50.5879 293.26 47.4966 289.964Z" stroke="#171717" stroke-width="2" stroke-linecap="round" stroke-linejoin="round"/>
<path d="M226.129 205.206C250.441 206.651 257.986 201.506 258.772 191.273L266.527 179.479H250.231L255.104 190.463C255.104 190.463 255.047 190.544 254.926 190.689C254.848 190.776 254.743 190.891 254.612 191.024C252.322 193.406 241.534 202.078 212.087 193.412C209.148 192.545 206.266 191.735 203.384 190.926C176.437 183.439 151.837 179.774 136.705 200.367C136.386 200.8 136.066 201.251 135.752 201.714C134.099 204.162 132.639 206.761 131.387 209.484L126.043 234.638L126.101 234.621L140.876 230.591C140.876 230.591 157.203 203.702 190.469 202.049C191.595 201.991 192.739 201.964 193.901 201.968C195.08 201.968 196.281 202.001 197.506 202.066C199.544 202.182 201.643 202.4 203.804 202.72C212.454 204.049 219.842 204.801 226.129 205.206Z" stroke="#171717" stroke-width="2" stroke-linecap="round" stroke-linejoin="round"/>
<path d="M175.856 123.123C173.892 128.785 170.011 133.383 165.031 135.946C158.953 138.895 151.985 138.259 145.33 137.449C138.676 136.64 131.807 135.715 125.572 138.259C119.337 140.745 113.992 147.913 115.459 155.082" stroke="#171717" stroke-width="2" stroke-linecap="round" stroke-linejoin="round"/>
<path d="M175.856 123.123C175.357 123.164 174.855 123.158 174.357 123.106C171.109 122.759 167.965 119.637 168.017 115.995C168.07 112.353 172.261 109.347 174.986 111.428C177.239 113.104 177.344 116.689 176.82 119.579C176.588 120.788 176.265 121.973 175.856 123.123Z" stroke="#171717" stroke-width="2" stroke-linecap="round" stroke-linejoin="round"/>
<path d="M180.802 91.0201C183.212 90.0951 186.041 91.3092 187.718 93.4482C189.395 95.5873 190.076 98.4779 190.233 101.311C190.387 104.693 189.849 108.069 188.661 111.191C187.473 114.313 185.665 117.101 183.369 119.348C181.242 121.354 178.585 122.904 175.856 123.123" stroke="#171717" stroke-width="2" stroke-linecap="round" stroke-linejoin="round"/>
<path d="M382.537 243.154C383.235 242.555 383.885 241.892 384.481 241.171C391.03 233.193 390.663 219.433 383.695 211.854" stroke="#171717" stroke-width="2" stroke-linecap="round" stroke-linejoin="round"/>
<path d="M382.536 243.154C382.091 239.731 380.687 236.28 378.088 234.407C375.363 232.441 371.119 232.846 369.338 235.91C367.242 239.61 370.124 244.928 373.949 245.853C376.93 246.576 380.042 245.293 382.536 243.154Z" stroke="#171717" stroke-width="2" stroke-linecap="round" stroke-linejoin="round"/>
<path d="M330.613 283.027C330.874 275.28 336.166 268.053 342.978 266.146C350.68 263.949 358.859 268.111 366.718 266.724C376.255 265.047 383.695 254.236 382.594 243.657C382.579 243.489 382.558 243.321 382.537 243.154" stroke="#171717" stroke-width="2" stroke-linecap="round" stroke-linejoin="round"/>
<path d="M302.109 64.4262C302.136 62.397 302.162 60.3851 302.188 58.3675C302.215 56.3614 302.241 54.3553 302.267 52.3376" stroke="#171717" stroke-width="2" stroke-linecap="round" stroke-linejoin="round"/>
<path d="M297.132 59.281C298.819 58.9688 300.501 58.6682 302.188 58.3676C303.906 58.0612 305.63 57.7547 307.349 57.4309" stroke="#171717" stroke-width="2" stroke-linecap="round" stroke-linejoin="round"/>
<path d="M275.486 75.6997C274.795 74.474 274.101 73.2484 273.406 72.0228C272.882 71.1093 272.353 70.1959 271.819 69.2825" stroke="#171717" stroke-width="2" stroke-linecap="round" stroke-linejoin="round"/>
<path d="M270.613 74.8326C271.546 73.8961 272.474 72.9595 273.406 72.0229C274.255 71.1673 275.109 70.3117 275.958 69.4561" stroke="#171717" stroke-width="2" stroke-linecap="round" stroke-linejoin="round"/>
<path d="M310.493 92.0029C310.933 90.9507 311.367 89.8985 311.808 88.8463C312.258 87.7594 312.714 86.6726 313.165 85.5857" stroke="#171717" stroke-width="2" stroke-linecap="round" stroke-linejoin="round"/>
<path d="M314.422 90.9043C313.557 90.2221 312.682 89.5341 311.807 88.8462C310.979 88.1929 310.151 87.5338 309.339 86.8574" stroke="#171717" stroke-width="2" stroke-linecap="round" stroke-linejoin="round"/>
<path d="M100.317 319.108L96.5446 300.897" stroke="#171717" stroke-width="2" stroke-linecap="round" stroke-linejoin="round"/>
<path d="M105.189 318.067C104.613 315.408 104.089 312.691 103.513 310.031" stroke="#171717" stroke-width="2" stroke-linecap="round" stroke-linejoin="round"/>
<path d="M115.617 315.87C114.569 310.667 113.521 305.522 112.473 300.319" stroke="#171717" stroke-width="2" stroke-linecap="round" stroke-linejoin="round"/>
<path d="M85.2271 253.716C85.6478 251.684 86.5731 249.823 87.8992 248.339" stroke="#171717" stroke-width="2" stroke-linecap="round" stroke-linejoin="round"/>
<path d="M79.8298 251.519C81.1947 247.534 83.0264 243.763 85.2789 240.303" stroke="#171717" stroke-width="2" stroke-linecap="round" stroke-linejoin="round"/>
<path d="M51.2163 305.695C49.8943 303.456 48.1632 301.546 46.1339 300.087" stroke="#171717" stroke-width="2" stroke-linecap="round" stroke-linejoin="round"/>
<path d="M48.3345 309.742C47.7582 308.933 47.1818 308.123 46.6579 307.314" stroke="#171717" stroke-width="2" stroke-linecap="round" stroke-linejoin="round"/>
<path d="M244.783 312.17C245.988 293.317 248.031 274.471 250.913 255.855" stroke="#171717" stroke-width="2" stroke-linecap="round" stroke-linejoin="round"/>
<path d="M212.245 292.046C214.708 274.875 217.223 257.705 219.685 240.535" stroke="#171717" stroke-width="2" stroke-linecap="round" stroke-linejoin="round"/>
<path d="M208.048 273.546C209.672 262.272 211.25 250.999 212.874 239.783" stroke="#171717" stroke-width="2" stroke-linecap="round" stroke-linejoin="round"/>
<path d="M356.344 160.632C356.973 157.973 357.602 155.256 358.283 152.596" stroke="#171717" stroke-width="2" stroke-linecap="round" stroke-linejoin="round"/>
<path d="M343.344 154.677C341.772 154.099 340.2 153.463 338.681 152.885L338.943 153.174" stroke="#171717" stroke-width="2" stroke-linecap="round" stroke-linejoin="round"/>
<path d="M329.041 181.849C329.931 179.537 330.77 177.167 331.66 174.854" stroke="#171717" stroke-width="2" stroke-linecap="round" stroke-linejoin="round"/>
<path d="M316.36 175.374C315.005 174.565 313.499 174.11 311.959 174.044" stroke="#171717" stroke-width="2" stroke-linecap="round" stroke-linejoin="round"/>
<path d="M303.419 196.302L305.62 190.926" stroke="#171717" stroke-width="2" stroke-linecap="round" stroke-linejoin="round"/>
<path d="M288.59 187.284C287.019 186.474 285.394 185.723 283.822 184.913" stroke="#171717" stroke-width="2" stroke-linecap="round" stroke-linejoin="round"/>
<path d="M265.793 205.726C266.493 203.571 267.621 201.615 269.094 200.002" stroke="#171717" stroke-width="2" stroke-linecap="round" stroke-linejoin="round"/>
<path d="M278.84 231.053C277.477 230.128 276.115 229.261 274.753 228.336" stroke="#171717" stroke-width="2" stroke-linecap="round" stroke-linejoin="round"/>
<path d="M267.313 251.057C268.204 249.496 269.042 247.993 269.933 246.432" stroke="#171717" stroke-width="2" stroke-linecap="round" stroke-linejoin="round"/>
<path d="M283.771 270.597C282.56 269.152 281.355 267.764 280.098 266.319" stroke="#171717" stroke-width="2" stroke-linecap="round" stroke-linejoin="round"/>
<path d="M264.536 288.288C265.583 286.843 266.579 285.397 267.627 283.952" stroke="#171717" stroke-width="2" stroke-linecap="round" stroke-linejoin="round"/>
<path d="M241.01 213.704C239.936 212.799 239.044 211.657 238.391 210.351" stroke="#171717" stroke-width="2" stroke-linecap="round" stroke-linejoin="round"/>
<path d="M231.002 188.787C231.893 187.341 232.784 185.896 233.674 184.509" stroke="#171717" stroke-width="2" stroke-linecap="round" stroke-linejoin="round"/>
<path d="M207.21 218.046C206.791 216.369 206.371 214.629 206.005 212.952" stroke="#171717" stroke-width="2" stroke-linecap="round" stroke-linejoin="round"/>
<path d="M187.09 234.927C188.4 233.655 189.657 232.441 190.967 231.169" stroke="#171717" stroke-width="2" stroke-linecap="round" stroke-linejoin="round"/>
<path d="M199.665 257.474C198.264 255.755 197.147 253.778 196.364 251.635" stroke="#171717" stroke-width="2" stroke-linecap="round" stroke-linejoin="round"/>
<path d="M180.54 283.489C181.743 281.296 183.167 279.259 184.784 277.419" stroke="#171717" stroke-width="2" stroke-linecap="round" stroke-linejoin="round"/>
<path d="M195.63 275.916L193.43 272.968" stroke="#171717" stroke-width="2" stroke-linecap="round" stroke-linejoin="round"/>
<path d="M384.847 36.5548L384.533 20.2517" stroke="#171717" stroke-width="2" stroke-linecap="round" stroke-linejoin="round"/>
<path d="M372.062 37.6532C365.618 28.6345 359.225 19.6735 352.775 10.6548" stroke="#171717" stroke-width="2" stroke-linecap="round" stroke-linejoin="round"/>
<path d="M368.186 52.0486C363.47 50.6033 358.702 49.158 353.981 47.7705" stroke="#171717" stroke-width="2" stroke-linecap="round" stroke-linejoin="round"/>
<path d="M422.834 166.124C428.074 167.685 434.157 163.638 435.31 157.741" stroke="#171717" stroke-width="2" stroke-linecap="round" stroke-linejoin="round"/>
<path d="M322.7 212.374C336.185 208.864 348.422 201.017 357.863 189.827" stroke="#171717" stroke-width="2" stroke-linecap="round" stroke-linejoin="round"/>
<path d="M180.069 444.104C191.822 445.097 203.506 441.382 212.979 433.64" stroke="#171717" stroke-width="2" stroke-linecap="round" stroke-linejoin="round"/>
<path d="M197.097 451.678C199.822 450.29 202.599 448.903 205.324 447.515" stroke="#171717" stroke-width="2" stroke-linecap="round" stroke-linejoin="round"/>
<path d="M96.9632 425.026C94.4372 421.426 93.2562 416.896 93.6623 412.365" stroke="#171717" stroke-width="2" stroke-linecap="round" stroke-linejoin="round"/>
<path d="M89.8898 428.032C88.6055 427.155 87.5681 425.901 86.8927 424.41C86.2173 422.92 85.9307 421.251 86.0649 419.592" stroke="#171717" stroke-width="2" stroke-linecap="round" stroke-linejoin="round"/>
<path d="M351.518 489.724L351.471 489.828C351.465 489.85 351.457 489.872 351.445 489.892C350.954 491.072 350.396 492.217 349.773 493.32C348.106 496.313 346.005 498.985 343.554 501.229" stroke="#171717" stroke-width="2" stroke-linecap="round" stroke-linejoin="round"/>
<path d="M341.93 489.146C339.014 493.368 335.223 496.758 330.874 499.032" stroke="#171717" stroke-width="2" stroke-linecap="round" stroke-linejoin="round"/>
<path d="M294.721 511.404C311.016 511.693 327.259 511.982 343.554 512.213C348.794 512.329 354.086 512.387 359.121 510.826C364.156 509.265 368.919 505.796 371.12 500.593" stroke="#171717" stroke-width="2" stroke-linecap="round" stroke-linejoin="round"/>
<path d="M110.534 379.123C110.528 379.129 110.523 379.129 110.518 379.134C110.513 379.14 110.508 379.14 110.502 379.146C106.583 381.626 103.188 384.973 99.845 388.257C94.553 393.402 89.3134 398.548 84.0214 403.693C82.0828 405.601 80.1441 407.451 78.5723 409.706C76.9469 411.924 75.8807 414.576 75.4809 417.395C75.2912 420.448 75.9493 423.493 77.3672 426.124C78.7294 428.784 80.6157 430.981 82.6067 433.12" stroke="#171717" stroke-width="2" stroke-linecap="round" stroke-linejoin="round"/>
<path d="M255.104 190.29C256.309 190.405 257.567 190.579 258.772 190.694" stroke="#171717" stroke-width="2" stroke-linecap="round" stroke-linejoin="round"/>
<path fill-rule="evenodd" clip-rule="evenodd" d="M226.13 205.148C250.442 206.593 257.987 201.448 258.773 191.215L258.998 190.874L258.773 190.694C258.17 190.637 257.554 190.564 256.939 190.492C256.323 190.42 255.707 190.348 255.105 190.29L255.157 190.405C255.157 190.405 255.084 190.509 254.927 190.689C254.848 190.775 254.743 190.891 254.612 191.024C252.323 193.406 241.534 202.078 212.088 193.412C209.149 192.544 206.267 191.735 203.386 190.926H203.385C176.438 183.439 151.838 179.774 136.706 200.366C136.386 200.8 136.067 201.251 135.752 201.714C134.122 204.146 132.679 206.726 131.44 209.426L126.101 234.62L140.877 230.591C140.877 230.591 157.203 203.702 190.469 202.049C191.594 201.989 192.738 201.962 193.901 201.968C195.079 201.97 196.28 202.003 197.506 202.066C199.56 202.172 201.677 202.39 203.856 202.719C212.507 203.991 219.895 204.801 226.13 205.148ZM153.407 193.264C170.173 189.209 187.658 190.847 203.565 197.961C203.961 198.138 204.413 197.928 204.573 197.49C204.734 197.053 204.543 196.555 204.147 196.377C187.951 189.134 170.147 187.466 153.075 191.594C152.658 191.695 152.393 192.151 152.485 192.612C152.577 193.073 152.99 193.365 153.407 193.264Z" fill="url(#paint46_linear_85_1451)"/>
<g opacity="0.1">
<path d="M264.026 107.589C262.635 107.195 261.184 107.119 259.765 107.365C258.346 107.611 256.987 108.174 255.772 109.02C252.791 111.116 251.153 113.816 250.113 117.524C248.918 121.795 248.794 126.422 248.513 130.854C248.206 135.714 248.022 140.582 247.996 145.454C247.973 149.956 248.249 154.459 248.217 158.957C248.205 160.615 248.147 162.021 246.76 162.849C245.465 163.625 243.91 163.827 242.603 164.628C241.314 165.408 240.25 166.572 239.533 167.988C238.611 169.846 238.753 171.857 238.19 173.804C237.332 176.773 232.099 175.936 229.775 176.328C221.258 177.838 213.21 181.642 206.343 187.403C203.192 190.005 206.274 195.939 209.466 193.3C217.198 186.91 225.783 184.054 235.232 182.605C238.94 182.037 242.842 180.734 244.324 176.535C244.916 174.858 244.562 172.025 245.955 170.954C247.37 169.869 249.406 169.758 250.903 168.699C254.848 165.916 254.942 160.741 254.805 156.125C254.637 150.506 254.637 144.889 254.769 139.269C254.906 133.423 255.232 127.591 255.746 121.772C256.165 117.056 257.602 109.157 263.384 110.145C264.878 110.401 265.552 108.068 264.025 107.585L264.026 107.589Z" fill="#171717"/>
</g>
<g opacity="0.1">
<path d="M196.402 199.994C188.873 203.483 186.427 215.093 184.721 222.926C182.346 233.833 180.18 244.8 178.111 255.782C176.059 266.676 174.003 277.626 173.244 288.742C172.887 293.7 173.314 298.688 174.505 303.484C175.553 307.792 175.84 311.556 178.63 315.061C180.49 317.399 183.572 313.976 181.721 311.65C179.128 308.392 178.626 303.412 179.445 299.29C180.312 294.922 180.339 290.451 180.738 285.976C181.648 275.789 183.665 265.745 185.574 255.743C187.445 245.942 189.353 236.148 191.378 226.384C192.142 222.306 193.176 218.295 194.469 214.383C195.16 212.424 196.033 210.593 196.857 208.703C197.659 206.865 198.777 205.24 199.421 203.33C200.031 201.522 198.088 199.214 196.4 199.996L196.402 199.994Z" fill="#171717"/>
</g>
<g opacity="0.1">
<path d="M280.325 209.923C284.355 209.398 288.418 209.038 292.382 208.053C296.536 206.963 300.637 205.638 304.669 204.084C312.469 201.148 320.112 197.727 327.562 193.839C335.095 189.95 342.524 185.737 349.69 181.077C356.378 176.728 362.975 171.689 368.018 165.099C370.842 161.475 373.149 157.397 374.859 153.005C376.41 148.942 377.64 143.782 376.104 139.527C375.422 137.642 372.855 136.761 371.839 138.912C369.811 143.213 369.176 148.117 367.098 152.44C365.056 156.605 362.403 160.368 359.246 163.576C352.215 170.869 343.416 175.811 334.963 180.766C326.291 185.932 317.339 190.501 308.156 194.446C303.573 196.375 298.921 198.11 294.205 199.599C289.341 201.133 284.547 202.924 279.62 204.172C276.768 204.894 277.314 210.312 280.325 209.921V209.923Z" fill="#171717"/>
</g>
</g>
</g>
<defs>
<linearGradient id="paint0_linear_85_1451" x1="333.175" y1="485.851" x2="333.175" y2="512.265" gradientUnits="userSpaceOnUse">
<stop stop-color="#FFB800"/>
<stop offset="1" stop-color="#FF7F0A"/>
</linearGradient>
<linearGradient id="paint1_linear_85_1451" x1="115.841" y1="271.291" x2="115.841" y2="325.833" gradientUnits="userSpaceOnUse">
<stop stop-color="#FFB800"/>
<stop offset="1" stop-color="#FF7F0A"/>
</linearGradient>
<linearGradient id="paint2_linear_85_1451" x1="333.499" y1="500.113" x2="333.499" y2="519.403" gradientUnits="userSpaceOnUse">
<stop stop-color="#FFB800"/>
<stop offset="1" stop-color="#FF7F0A"/>
</linearGradient>
<linearGradient id="paint3_linear_85_1451" x1="298.978" y1="517.694" x2="298.978" y2="518.749" gradientUnits="userSpaceOnUse">
<stop stop-color="#FFB800"/>
<stop offset="1" stop-color="#FF7F0A"/>
</linearGradient>
<linearGradient id="paint4_linear_85_1451" x1="296.078" y1="517.468" x2="296.078" y2="517.694" gradientUnits="userSpaceOnUse">
<stop stop-color="#FFB800"/>
<stop offset="1" stop-color="#FF7F0A"/>
</linearGradient>
<linearGradient id="paint5_linear_85_1451" x1="295.572" y1="516.925" x2="295.572" y2="517.208" gradientUnits="userSpaceOnUse">
<stop stop-color="#FFB800"/>
<stop offset="1" stop-color="#FF7F0A"/>
</linearGradient>
<linearGradient id="paint6_linear_85_1451" x1="269.463" y1="296.623" x2="269.463" y2="308.956" gradientUnits="userSpaceOnUse">
<stop stop-color="#FFB800"/>
<stop offset="1" stop-color="#FF7F0A"/>
</linearGradient>
<linearGradient id="paint7_linear_85_1451" x1="277.242" y1="297.37" x2="277.242" y2="298.465" gradientUnits="userSpaceOnUse">
<stop stop-color="#FFB800"/>
<stop offset="1" stop-color="#FF7F0A"/>
</linearGradient>
<linearGradient id="paint8_linear_85_1451" x1="269.034" y1="297.509" x2="269.034" y2="297.908" gradientUnits="userSpaceOnUse">
<stop stop-color="#FFB800"/>
<stop offset="1" stop-color="#FF7F0A"/>
</linearGradient>
<linearGradient id="paint9_linear_85_1451" x1="258.406" y1="179.421" x2="258.406" y2="179.478" gradientUnits="userSpaceOnUse">
<stop stop-color="#FFB800"/>
<stop offset="1" stop-color="#FF7F0A"/>
</linearGradient>
<linearGradient id="paint10_linear_85_1451" x1="258.401" y1="179.479" x2="258.401" y2="190.874" gradientUnits="userSpaceOnUse">
<stop stop-color="#FFB800"/>
<stop offset="1" stop-color="#FF7F0A"/>
</linearGradient>
<linearGradient id="paint11_linear_85_1451" x1="247.096" y1="217.537" x2="247.096" y2="325.172" gradientUnits="userSpaceOnUse">
<stop stop-color="#FFB800"/>
<stop offset="1" stop-color="#FF7F0A"/>
</linearGradient>
<linearGradient id="paint12_linear_85_1451" x1="251.175" y1="217.525" x2="251.175" y2="222.555" gradientUnits="userSpaceOnUse">
<stop stop-color="#FFB800"/>
<stop offset="1" stop-color="#FF7F0A"/>
</linearGradient>
<linearGradient id="paint13_linear_85_1451" x1="264.866" y1="296.729" x2="264.866" y2="297.376" gradientUnits="userSpaceOnUse">
<stop stop-color="#FFB800"/>
<stop offset="1" stop-color="#FF7F0A"/>
</linearGradient>
<linearGradient id="paint14_linear_85_1451" x1="260.391" y1="296.621" x2="260.391" y2="296.734" gradientUnits="userSpaceOnUse">
<stop stop-color="#FFB800"/>
<stop offset="1" stop-color="#FF7F0A"/>
</linearGradient>
<linearGradient id="paint15_linear_85_1451" x1="257.363" y1="296.682" x2="257.363" y2="307.661" gradientUnits="userSpaceOnUse">
<stop stop-color="#FFB800"/>
<stop offset="1" stop-color="#FF7F0A"/>
</linearGradient>
<linearGradient id="paint16_linear_85_1451" x1="261.235" y1="222.555" x2="261.235" y2="296.688" gradientUnits="userSpaceOnUse">
<stop stop-color="#FFB800"/>
<stop offset="1" stop-color="#FF7F0A"/>
</linearGradient>
<linearGradient id="paint17_linear_85_1451" x1="257.311" y1="296.676" x2="257.311" y2="307.661" gradientUnits="userSpaceOnUse">
<stop stop-color="#FFB800"/>
<stop offset="1" stop-color="#FF7F0A"/>
</linearGradient>
<linearGradient id="paint18_linear_85_1451" x1="268.968" y1="307.661" x2="268.968" y2="309.048" gradientUnits="userSpaceOnUse">
<stop stop-color="#FFB800"/>
<stop offset="1" stop-color="#FF7F0A"/>
</linearGradient>
<linearGradient id="paint19_linear_85_1451" x1="256.866" y1="307.661" x2="256.866" y2="307.777" gradientUnits="userSpaceOnUse">
<stop stop-color="#FFB800"/>
<stop offset="1" stop-color="#FF7F0A"/>
</linearGradient>
<linearGradient id="paint20_linear_85_1451" x1="243.214" y1="307.776" x2="243.214" y2="325.294" gradientUnits="userSpaceOnUse">
<stop stop-color="#FFB800"/>
<stop offset="1" stop-color="#FF7F0A"/>
</linearGradient>
<linearGradient id="paint21_linear_85_1451" x1="256.813" y1="307.661" x2="256.813" y2="307.777" gradientUnits="userSpaceOnUse">
<stop stop-color="#FFB800"/>
<stop offset="1" stop-color="#FF7F0A"/>
</linearGradient>
<linearGradient id="paint22_linear_85_1451" x1="243.187" y1="307.661" x2="243.187" y2="325.293" gradientUnits="userSpaceOnUse">
<stop stop-color="#FFB800"/>
<stop offset="1" stop-color="#FF7F0A"/>
</linearGradient>
<linearGradient id="paint23_linear_85_1451" x1="242.241" y1="319.455" x2="242.241" y2="319.859" gradientUnits="userSpaceOnUse">
<stop stop-color="#FFB800"/>
<stop offset="1" stop-color="#FF7F0A"/>
</linearGradient>
<linearGradient id="paint24_linear_85_1451" x1="247.394" y1="232.811" x2="247.394" y2="238.008" gradientUnits="userSpaceOnUse">
<stop stop-color="#FFB800"/>
<stop offset="1" stop-color="#FF7F0A"/>
</linearGradient>
<linearGradient id="paint25_linear_85_1451" x1="233.628" y1="217.583" x2="233.628" y2="325.172" gradientUnits="userSpaceOnUse">
<stop stop-color="#FFB800"/>
<stop offset="1" stop-color="#FF7F0A"/>
</linearGradient>
<linearGradient id="paint26_linear_85_1451" x1="233.599" y1="217.583" x2="233.599" y2="325.178" gradientUnits="userSpaceOnUse">
<stop stop-color="#FFB800"/>
<stop offset="1" stop-color="#FF7F0A"/>
</linearGradient>
<linearGradient id="paint27_linear_85_1451" x1="222.357" y1="225.405" x2="222.357" y2="230.591" gradientUnits="userSpaceOnUse">
<stop stop-color="#FFB800"/>
<stop offset="1" stop-color="#FF7F0A"/>
</linearGradient>
<linearGradient id="paint28_linear_85_1451" x1="229.544" y1="325.172" x2="229.544" y2="325.294" gradientUnits="userSpaceOnUse">
<stop stop-color="#FFB800"/>
<stop offset="1" stop-color="#FF7F0A"/>
</linearGradient>
<linearGradient id="paint29_linear_85_1451" x1="229.515" y1="325.172" x2="229.515" y2="325.294" gradientUnits="userSpaceOnUse">
<stop stop-color="#FFB800"/>
<stop offset="1" stop-color="#FF7F0A"/>
</linearGradient>
<linearGradient id="paint30_linear_85_1451" x1="225.338" y1="320.553" x2="225.338" y2="325.351" gradientUnits="userSpaceOnUse">
<stop stop-color="#FFB800"/>
<stop offset="1" stop-color="#FF7F0A"/>
</linearGradient>
<linearGradient id="paint31_linear_85_1451" x1="224.987" y1="320.09" x2="224.987" y2="325.293" gradientUnits="userSpaceOnUse">
<stop stop-color="#FFB800"/>
<stop offset="1" stop-color="#FF7F0A"/>
</linearGradient>
<linearGradient id="paint32_linear_85_1451" x1="215.777" y1="217.589" x2="215.777" y2="325.178" gradientUnits="userSpaceOnUse">
<stop stop-color="#FFB800"/>
<stop offset="1" stop-color="#FF7F0A"/>
</linearGradient>
<linearGradient id="paint33_linear_85_1451" x1="197.959" y1="295.225" x2="197.959" y2="295.566" gradientUnits="userSpaceOnUse">
<stop stop-color="#FFB800"/>
<stop offset="1" stop-color="#FF7F0A"/>
</linearGradient>
<linearGradient id="paint34_linear_85_1451" x1="199.347" y1="299.382" x2="199.347" y2="306.909" gradientUnits="userSpaceOnUse">
<stop stop-color="#FFB800"/>
<stop offset="1" stop-color="#FF7F0A"/>
</linearGradient>
<linearGradient id="paint35_linear_85_1451" x1="172.209" y1="286.129" x2="172.209" y2="298.064" gradientUnits="userSpaceOnUse">
<stop stop-color="#FFB800"/>
<stop offset="1" stop-color="#FF7F0A"/>
</linearGradient>
<linearGradient id="paint36_linear_85_1451" x1="173.247" y1="286.264" x2="173.247" y2="286.277" gradientUnits="userSpaceOnUse">
<stop stop-color="#FFB800"/>
<stop offset="1" stop-color="#FF7F0A"/>
</linearGradient>
<linearGradient id="paint37_linear_85_1451" x1="173.058" y1="286.438" x2="173.058" y2="288.837" gradientUnits="userSpaceOnUse">
<stop stop-color="#FFB800"/>
<stop offset="1" stop-color="#FF7F0A"/>
</linearGradient>
<linearGradient id="paint38_linear_85_1451" x1="195.659" y1="184.93" x2="195.659" y2="200.367" gradientUnits="userSpaceOnUse">
<stop stop-color="#FFB800"/>
<stop offset="1" stop-color="#FF7F0A"/>
</linearGradient>
<linearGradient id="paint39_linear_85_1451" x1="158.283" y1="202.049" x2="158.283" y2="234.638" gradientUnits="userSpaceOnUse">
<stop stop-color="#FFB800"/>
<stop offset="1" stop-color="#FF7F0A"/>
</linearGradient>
<linearGradient id="paint40_linear_85_1451" x1="90.3273" y1="378.683" x2="90.3273" y2="433.719" gradientUnits="userSpaceOnUse">
<stop stop-color="#FFB800"/>
<stop offset="1" stop-color="#FF7F0A"/>
</linearGradient>
<linearGradient id="paint41_linear_85_1451" x1="110.45" y1="384.812" x2="110.45" y2="419.037" gradientUnits="userSpaceOnUse">
<stop stop-color="#FFB800"/>
<stop offset="1" stop-color="#FF7F0A"/>
</linearGradient>
<linearGradient id="paint42_linear_85_1451" x1="110.402" y1="384.748" x2="110.402" y2="423.24" gradientUnits="userSpaceOnUse">
<stop stop-color="#FFB800"/>
<stop offset="1" stop-color="#FF7F0A"/>
</linearGradient>
<linearGradient id="paint43_linear_85_1451" x1="96.6488" y1="379.146" x2="96.6488" y2="433.789" gradientUnits="userSpaceOnUse">
<stop stop-color="#FFB800"/>
<stop offset="1" stop-color="#FF7F0A"/>
</linearGradient>
<linearGradient id="paint44_linear_85_1451" x1="71.5617" y1="421.667" x2="71.5617" y2="422.037" gradientUnits="userSpaceOnUse">
<stop stop-color="#FFB800"/>
<stop offset="1" stop-color="#FF7F0A"/>
</linearGradient>
<linearGradient id="paint45_linear_85_1451" x1="71.3553" y1="421.291" x2="71.3553" y2="421.667" gradientUnits="userSpaceOnUse">
<stop stop-color="#FFB800"/>
<stop offset="1" stop-color="#FF7F0A"/>
</linearGradient>
<linearGradient id="paint46_linear_85_1451" x1="192.549" y1="185.002" x2="192.549" y2="234.62" gradientUnits="userSpaceOnUse">
<stop stop-color="#FFB800"/>
<stop offset="1" stop-color="#FF7F0A"/>
</linearGradient>
<clipPath id="clip0_85_1451">
<rect width="503" height="555" fill="white"/>
</clipPath>
</defs>
</svg>
