<svg width="510" height="503" viewBox="0 0 510 503" fill="none" xmlns="http://www.w3.org/2000/svg">
<path d="M352.265 228.303L352.26 228.288C353.227 227.879 354.354 227.999 355.415 228.004C356.374 228.073 357.326 227.795 358.103 227.219C359.523 227.209 360.763 228.322 361.371 229.632C361.898 230.987 362.167 232.433 362.164 233.891C364.346 271.346 364.522 308.895 362.692 346.37L362.815 347.063C360.593 347.469 358.348 347.722 356.094 347.82C353.963 347.912 351.746 347.907 349.549 347.999C347.706 348.051 345.87 348.242 344.055 348.572L344.031 348.441C344.704 313.527 345.38 278.615 346.059 243.704C346.116 240.765 346.177 237.779 347.031 234.975C347.884 232.17 349.648 229.517 352.265 228.303Z" fill="url(#paint0_linear_95_2539)"/>
<path d="M358.422 235.259C360.713 268.423 360.331 301.722 357.279 334.821" stroke="white" stroke-width="3" stroke-linecap="round" stroke-linejoin="round"/>
<path d="M154.88 210.935C157.365 213.638 157.478 217.743 157.45 221.447C157.171 254.177 156.897 286.904 156.625 319.628L156.606 320.216C151.862 320.067 147.137 319.535 142.475 318.626L142.593 318.034C142.678 292.352 142.764 266.669 142.852 240.987C142.885 231.309 142.946 221.449 145.865 212.241L145.983 212.068C147.167 212.843 148.784 212.809 150.237 212.713C151.571 212.622 153.005 212.491 154.009 211.591C154.232 211.388 154.428 211.154 154.589 210.897L154.88 210.935Z" fill="#171717"/>
<path d="M155.437 218.55L153.471 308.319" stroke="white" stroke-width="3" stroke-linecap="round" stroke-linejoin="round"/>
<path d="M175.922 321.497C177.366 321.974 178.729 322.676 179.963 323.578C182.49 325.523 184.377 328.208 185.372 331.277C186.976 335.757 187.305 341.018 187.433 345.859C187.56 350.99 187.592 356.482 185.308 360.957C185.013 361.546 184.676 362.111 184.299 362.649C179.847 369.032 171.099 370.231 163.431 369.962C149.477 369.465 135.792 366 122.347 362.152C109.256 358.404 96.0234 354.155 84.9272 346.134C72.4492 337.116 63.3431 323.632 58.4572 308.837C53.5713 294.042 52.7729 278.011 55.0572 262.574C56.8778 250.28 60.6974 238.131 67.5591 227.864C74.4207 217.598 84.5214 209.321 96.2827 206.137C98.8104 205.453 101.574 204.904 103.348 202.939C104.39 201.782 104.956 200.26 105.932 199.046C106.681 198.135 107.608 197.396 108.653 196.875C119.64 201.191 131.17 203.895 142.899 204.907L143.47 204.801C143.659 206.155 143.907 207.495 144.214 208.824C144.374 209.86 144.805 210.832 145.463 211.637C145.622 211.799 145.796 211.944 145.982 212.071L145.864 212.245C142.942 221.451 142.884 231.313 142.85 240.991C142.767 266.673 142.68 292.355 142.591 318.037L142.473 318.63C147.136 319.538 151.86 320.07 156.605 320.22C158.538 320.292 160.467 320.311 162.395 320.292C166.919 320.245 171.729 320.076 175.922 321.497Z" fill="url(#paint1_linear_95_2539)"/>
<path d="M114.841 245.343C101.628 256.459 95.7939 275.925 100.65 292.692C105.506 309.459 120.771 322.549 137.777 324.529" stroke="white" stroke-width="3" stroke-linecap="round" stroke-linejoin="round"/>
<path d="M344.554 165.503C345.967 165.973 347.339 166.561 348.657 167.262C350.818 168.307 353.065 169.155 355.372 169.796C359.228 170.91 363.227 171.413 367.232 171.289C371.001 171.115 374.589 169.199 378.084 167.946C380.12 167.154 382.276 166.732 384.454 166.698C385.729 166.697 386.992 166.959 388.166 167.469C390.944 168.707 392.886 171.453 393.754 174.421C394.622 177.388 394.542 180.558 394.15 183.627C393.396 189.586 391.344 195.666 386.959 199.674C385.113 201.31 383.004 202.608 380.725 203.509C378.661 204.334 376.535 204.985 374.368 205.455C370.198 206.387 365.96 206.966 361.696 207.184C359.23 207.315 356.759 207.339 354.292 207.271C353.312 207.242 352.316 207.194 351.317 207.108C349.346 206.958 347.396 206.59 345.503 206.01C343.159 205.332 341.036 204.026 339.353 202.228C336.316 198.851 335.528 194.005 335.085 189.443C334.439 182.775 334.289 175.766 337.028 169.676C337.787 167.994 338.863 166.318 340.528 165.586C341.819 165.079 343.244 165.05 344.554 165.503ZM380.347 179.988C380.347 176.303 375.683 173.313 369.925 173.313C364.168 173.313 359.503 176.298 359.503 179.988C359.503 183.679 364.167 186.66 369.925 186.66C375.684 186.66 380.347 183.673 380.347 179.988Z" fill="#171717"/>
<path d="M345.248 107.715C350.119 110.556 354.401 114.341 357.853 118.858C356.611 117.056 355.751 115.009 355.328 112.848C354.905 110.687 354.928 108.46 355.396 106.309C355.714 104.864 356.877 103.149 358.216 103.712C358.718 103.99 359.122 104.421 359.371 104.945C362.516 110.124 365.66 115.301 368.803 120.477C369.949 119.148 370.17 117.264 370.875 115.65C371.579 114.036 373.336 112.533 374.907 113.275C375.897 113.747 376.359 114.927 376.51 116.035C376.661 117.143 376.59 118.294 376.944 119.35C377.802 121.9 380.716 122.992 383.315 123.478C385.914 123.965 388.804 124.302 390.577 126.301C391.832 127.707 392.256 129.665 392.638 131.527C394.515 140.748 396.395 149.969 398.278 159.189C396.434 157.807 394.589 156.427 392.742 155.051C392.836 156.679 394.114 157.937 394.911 159.353C395.708 160.77 395.75 163.039 394.242 163.578C393.378 163.891 392.449 163.448 391.639 163.015C389.681 161.974 387.726 160.933 385.772 159.893L385.64 159.874C386.342 155.243 386.708 150.565 386.734 145.879C386.757 142.873 386.588 139.678 384.918 137.202C382.829 134.119 378.948 132.944 375.327 132.365C367.489 131.113 359.442 131.667 351.63 130.27C350.592 130.082 349.555 129.856 348.517 129.576C341.764 127.77 335.327 123.978 332.367 117.633C332.221 117.41 332.131 117.154 332.105 116.887C332.079 116.62 332.117 116.35 332.216 116.101C332.527 115.586 333.244 115.562 333.839 115.613C337.737 115.957 341.557 116.94 345.152 118.522C343.343 116.125 342.149 113.305 341.676 110.318C341.502 109.186 341.563 107.768 342.553 107.225C343.394 106.771 344.417 107.234 345.248 107.715Z" fill="#171717"/>
<path d="M352.519 218.595C352.105 218.57 351.71 218.406 351.397 218.128C350.84 217.585 350.84 216.692 350.878 215.907C351.015 213.045 351.155 210.184 351.297 207.322L351.317 207.105C352.317 207.192 353.311 207.24 354.291 207.268C356.758 207.335 359.229 207.311 361.695 207.181L361.723 207.658C361.719 210.322 361.715 212.986 361.714 215.65C361.709 216.455 361.676 217.351 361.12 217.924C360.617 218.35 359.976 218.568 359.323 218.536C359.181 218.545 359.045 218.55 358.908 218.55C357.064 218.575 355.216 218.604 353.372 218.627C353.087 218.639 352.802 218.628 352.519 218.595Z" fill="url(#paint2_linear_95_2539)"/>
<path d="M358.909 218.552C359.046 218.552 359.182 218.547 359.324 218.538L359.343 218.88C359.206 220.873 359.071 222.868 358.937 224.863C358.945 225.52 358.795 226.168 358.499 226.751C358.391 226.927 358.258 227.085 358.103 227.219C357.325 227.795 356.373 228.073 355.415 228.004C354.352 227.999 353.227 227.879 352.26 228.288C352.175 228.322 352.095 228.365 352.01 228.408C351.861 225.128 352.032 221.841 352.519 218.595C352.803 218.628 353.088 218.639 353.373 218.629C355.219 218.605 357.065 218.576 358.909 218.552Z" fill="url(#paint3_linear_95_2539)"/>
<path d="M276.27 174.958C278.979 178.528 279.298 183.394 279.118 187.908C278.245 209.779 268.215 230.692 253.525 246.629C243.16 257.883 230.15 267.035 215.417 270.534C200.684 274.033 184.156 271.28 172.607 261.303L171.824 261.376C170.122 242.106 168.048 222.874 165.604 203.681C165.335 201.552 165.058 199.424 164.774 197.298L164.835 197.288C167.905 206.514 172.47 215.426 179.426 222.084C186.382 228.742 195.983 232.933 205.457 231.815C215.832 230.596 224.783 223.231 230.373 214.222C235.963 205.213 238.66 194.672 240.776 184.228C241.559 180.379 242.393 176.27 245.095 173.475C246.925 171.576 249.321 170.57 251.895 170.031C254.067 169.619 256.27 169.403 258.479 169.385C262.892 169.27 267.749 169.486 271.64 171.308C273.453 172.118 275.043 173.372 276.27 174.958Z" fill="url(#paint4_linear_95_2539)"/>
<path d="M178.983 119.128C181.326 121.744 179.869 126.297 176.988 128.277C174.107 130.257 170.423 130.393 166.947 130.459L166.179 130.474C156.78 130.657 147.38 130.841 137.978 131.028C134.969 131.085 131.65 131.273 129.504 133.427C127.094 135.846 127.127 139.752 127.259 143.201C127.584 151.623 127.536 160.045 127.113 168.469L127.014 168.464C124.335 168.436 123.713 172.444 121.105 173.077C119.36 173.501 117.535 172.076 117.073 170.31C116.611 168.544 117.281 166.619 118.394 165.184C119.507 163.748 121.016 162.698 122.501 161.672C120.525 161.287 118.747 162.794 116.97 163.748C115.192 164.702 112.381 164.755 111.782 162.794C111.324 161.287 112.575 159.864 113.579 158.661C115.741 156.043 117.107 152.836 117.51 149.435C118.231 143.259 115.774 136.548 118.538 131.008C120.726 126.624 125.657 124.346 130.426 123.7C135.196 123.054 140.042 123.709 144.852 123.537C149.662 123.364 154.76 122.174 158.07 118.609C159.806 116.744 161.159 114.182 163.595 113.536C164.485 113.295 165.426 113.352 166.281 113.699C167.137 114.045 167.861 114.663 168.346 115.461C168.832 116.26 169.054 117.196 168.979 118.133C168.905 119.07 168.539 119.958 167.933 120.666C167.523 121.003 167.122 121.35 166.722 121.697C167.189 121.44 167.601 121.089 167.933 120.666C169.284 119.456 170.839 118.505 172.522 117.861C174.724 117.119 177.417 117.385 178.983 119.128Z" fill="#171717"/>
<path d="M171.824 261.375C173.592 281.382 174.958 301.424 175.922 321.497C171.73 320.076 166.92 320.245 162.397 320.288C160.468 320.308 158.54 320.288 156.607 320.216L156.626 319.628C156.899 286.903 157.174 254.176 157.451 221.447C157.479 217.743 157.366 213.638 154.881 210.936L154.593 210.897C155.291 209.799 155.404 208.32 155.456 206.971C155.48 206.325 155.503 205.714 155.527 205.121H155.56C158.842 205.148 162.109 204.679 165.255 203.728L165.604 203.681C168.047 222.869 170.12 242.1 171.824 261.375Z" fill="url(#paint5_linear_95_2539)"/>
<path d="M155.526 205.121C155.658 201.691 155.753 199.003 155.809 195.26L155.908 194.604C158.832 195.096 161.732 195.697 164.609 196.411L164.662 196.406C164.7 196.705 164.737 196.998 164.775 197.297C165.058 199.426 165.335 201.554 165.605 203.681L165.256 203.728C162.109 204.679 158.842 205.148 155.561 205.121H155.526Z" fill="url(#paint6_linear_95_2539)"/>
<path d="M155.908 194.605L155.809 195.26C155.753 199.004 155.658 201.691 155.526 205.121C155.503 205.714 155.479 206.325 155.455 206.971C155.402 208.32 155.291 209.799 154.593 210.897C154.432 211.154 154.236 211.388 154.013 211.591C153.008 212.492 151.575 212.622 150.241 212.714C148.788 212.81 147.171 212.843 145.987 212.068C145.8 211.941 145.627 211.795 145.468 211.634C144.81 210.828 144.378 209.856 144.218 208.82C143.912 207.491 143.664 206.15 143.475 204.798C142.936 201.015 142.849 197.18 143.215 193.375L143.225 193.183C145.833 193.332 148.431 193.568 151.02 193.891C152.655 194.094 154.285 194.332 155.908 194.605Z" fill="#171717"/>
<path d="M143.473 204.798L142.902 204.904C131.173 203.892 119.643 201.188 108.656 196.872C110.382 196.059 112.209 195.493 114.085 195.19C117.707 194.472 121.354 193.932 125.025 193.571C131.073 192.97 137.157 192.841 143.224 193.185L143.214 193.378C142.848 197.181 142.934 201.016 143.473 204.798Z" fill="url(#paint7_linear_95_2539)"/>
<path d="M142.525 169.158L142.341 169.538C138.988 170.704 136.866 174.245 137.757 177.747L137.687 178.07C137.17 177.952 136.673 177.759 136.21 177.496C135.185 176.858 134.326 175.976 133.706 174.925C133.087 173.874 132.726 172.685 132.655 171.46C132.546 168.995 133.232 166.562 134.607 164.533C135.423 163.266 136.866 162.013 138.238 162.596C139.497 163.131 139.738 164.793 140.21 166.103C140.669 167.333 141.475 168.396 142.525 169.158Z" fill="#171717"/>
<path d="M145.689 162.693C146.439 163.873 148.387 163.473 149.155 162.313C149.924 161.153 149.872 159.629 149.787 158.228C149.485 153.223 149.185 148.219 148.884 143.216C148.804 141.94 148.738 140.611 149.247 139.444C149.95 137.849 151.624 136.886 153.312 136.611C155 136.337 156.721 136.63 158.412 136.925" stroke="#171717" stroke-width="3" stroke-linecap="round" stroke-linejoin="round"/>
<path d="M143.426 137.627C143.065 136.971 142.531 136.431 141.884 136.07C141.236 135.71 140.502 135.543 139.767 135.59C139.031 135.636 138.323 135.893 137.724 136.333C137.125 136.771 136.659 137.374 136.38 138.071" stroke="#171717" stroke-width="3" stroke-linecap="round" stroke-linejoin="round"/>
<path d="M141.526 147.349L141.072 143.722" stroke="#171717" stroke-width="3" stroke-linecap="round" stroke-linejoin="round"/>
<path d="M156.333 148.717V143.958" stroke="#171717" stroke-width="3" stroke-linecap="round" stroke-linejoin="round"/>
<path d="M147.972 170.377C147.031 170.578 146.059 170.574 145.12 170.364C144.181 170.154 143.297 169.743 142.525 169.158C141.475 168.396 140.669 167.333 140.21 166.104C139.738 164.793 139.497 163.131 138.238 162.596C136.866 162.013 135.423 163.266 134.607 164.533C133.232 166.562 132.546 168.996 132.655 171.461C132.726 172.686 133.087 173.874 133.706 174.926C134.326 175.977 135.185 176.859 136.21 177.497C136.673 177.759 137.17 177.952 137.687 178.071C138.59 178.308 139.539 178.306 140.442 178.064C141.345 177.823 142.172 177.348 142.846 176.688" stroke="#171717" stroke-width="3" stroke-linecap="round" stroke-linejoin="round"/>
<path d="M137.757 177.748C136.866 174.245 138.988 170.705 142.341 169.539" stroke="#171717" stroke-width="3" stroke-linecap="round" stroke-linejoin="round"/>
<path d="M151.113 193.127C151 190.376 150.887 187.587 151.476 184.903C152.065 182.22 153.447 179.6 155.73 178.135C158.357 176.458 162.011 176.344 163.874 173.813C164.902 172.421 165.124 170.596 165.293 168.856C166.53 156.292 166.829 143.649 166.189 131.039" stroke="#171717" stroke-width="3" stroke-linecap="round" stroke-linejoin="round"/>
<path d="M167.933 120.665C168.539 119.958 168.905 119.07 168.979 118.133C169.054 117.196 168.832 116.259 168.346 115.461C167.861 114.663 167.137 114.044 166.281 113.698C165.426 113.351 164.485 113.294 163.595 113.535C161.157 114.181 159.804 116.744 158.07 118.608C154.76 122.173 149.662 123.363 144.852 123.536C140.041 123.71 135.199 123.055 130.426 123.699C125.653 124.343 120.726 126.623 118.538 131.007C115.775 136.548 118.231 143.258 117.51 149.434C117.107 152.836 115.741 156.042 113.579 158.66C112.575 159.865 111.324 161.286 111.782 162.794C112.381 164.755 115.187 164.706 116.97 163.748C118.752 162.789 120.525 161.286 122.501 161.671C121.013 162.698 119.502 163.743 118.394 165.183C117.286 166.624 116.616 168.536 117.073 170.309C117.531 172.082 119.36 173.503 121.105 173.077C123.713 172.441 124.335 168.433 127.014 168.464" stroke="#171717" stroke-width="3" stroke-linecap="round" stroke-linejoin="round"/>
<path d="M167.933 120.665C167.523 121.002 167.122 121.349 166.722 121.696C167.189 121.439 167.601 121.088 167.933 120.665Z" stroke="#171717" stroke-width="3" stroke-linecap="round" stroke-linejoin="round"/>
<path d="M124.911 192.446C125.982 184.492 126.716 176.5 127.114 168.469C127.533 160.053 127.582 151.63 127.26 143.201C127.128 139.752 127.095 135.845 129.504 133.426C131.65 131.273 134.97 131.085 137.979 131.028C147.382 130.84 156.782 130.655 166.179 130.474L166.948 130.459C170.423 130.392 174.111 130.257 176.989 128.277C179.866 126.297 181.327 121.744 178.983 119.128C177.417 117.385 174.725 117.12 172.522 117.861C170.84 118.505 169.285 119.455 167.934 120.665" stroke="#171717" stroke-width="3" stroke-linecap="round" stroke-linejoin="round"/>
<path d="M122.846 245.814C118.625 248.169 114.908 251.363 111.915 255.208C108.921 259.053 106.71 263.47 105.413 268.201C104.116 272.932 103.758 277.88 104.362 282.754C104.965 287.628 106.518 292.329 108.927 296.582C114.034 305.59 122.782 312.069 132.327 315.721C135.628 316.972 139.023 317.943 142.48 318.626C147.142 319.535 151.867 320.067 156.611 320.216C158.545 320.288 160.473 320.308 162.402 320.288C166.924 320.245 171.734 320.076 175.927 321.497C177.371 321.974 178.734 322.677 179.968 323.579C182.495 325.523 184.382 328.208 185.377 331.277C186.98 335.757 187.31 341.018 187.438 345.859C187.565 350.99 187.597 356.482 185.313 360.958C185.018 361.546 184.681 362.111 184.303 362.649C179.852 369.032 171.103 370.231 163.436 369.962C149.482 369.466 135.797 366 122.352 362.153C109.261 358.404 96.0282 354.155 84.932 346.134C72.454 337.116 63.3478 323.632 58.4619 308.837C53.576 294.042 52.7776 278.011 55.0619 262.574C56.8825 250.28 60.7022 238.131 67.5638 227.864C74.4255 217.598 84.5261 209.322 96.2875 206.138C98.8152 205.453 101.579 204.904 103.353 202.939C104.395 201.782 104.961 200.26 105.937 199.046C106.685 198.135 107.612 197.396 108.658 196.875C110.383 196.062 112.209 195.495 114.085 195.19C117.707 194.472 121.354 193.932 125.025 193.571C131.073 192.97 137.157 192.841 143.224 193.185C145.832 193.334 148.43 193.57 151.019 193.894C152.655 194.096 154.285 194.334 155.906 194.607C158.83 195.097 161.731 195.7 164.607 196.413" stroke="#171717" stroke-width="3" stroke-linecap="round" stroke-linejoin="round"/>
<path d="M164.647 196.31C164.651 196.343 164.656 196.372 164.661 196.406C164.699 196.705 164.736 196.998 164.774 197.297C165.057 199.426 165.334 201.554 165.604 203.681C168.048 222.869 170.121 242.1 171.824 261.375C173.592 281.382 174.958 301.423 175.922 321.497C175.927 321.565 175.927 321.632 175.931 321.7" stroke="#171717" stroke-width="3" stroke-linecap="round" stroke-linejoin="round"/>
<path d="M164.835 197.288C167.905 206.514 172.47 215.426 179.426 222.084C186.382 228.741 195.983 232.932 205.457 231.815C215.832 230.596 224.782 223.23 230.373 214.221C235.963 205.212 238.66 194.672 240.776 184.227C241.559 180.379 242.393 176.269 245.095 173.475C246.925 171.575 249.321 170.57 251.895 170.03C254.067 169.618 256.27 169.402 258.479 169.385C262.892 169.269 267.749 169.486 271.64 171.307C273.452 172.119 275.041 173.372 276.266 174.959C278.976 178.528 279.295 183.394 279.115 187.908C278.242 209.779 268.212 230.693 253.522 246.629C243.157 257.883 230.147 267.035 215.414 270.534C200.681 274.033 184.152 271.281 172.604 261.303" stroke="#171717" stroke-width="3" stroke-linecap="round" stroke-linejoin="round"/>
<path d="M251.785 169.495C245.206 164.533 234.007 153.506 236.105 150.514C237.316 148.788 243.261 152.021 246.334 154.04C249.407 156.058 251.944 158.822 253.719 162.084C250.812 149.36 244.241 123.274 249.3 123.274C254.44 122.566 257.453 144.563 259.995 155.674C258.817 145.151 256.46 124.003 260.005 124.003C265.131 123.271 264.018 145.533 265.711 158.275C266.819 149.602 267.774 124.878 271.148 124.076C274.522 123.274 276.1 155.462 271.644 171.307" stroke="#171717" stroke-width="3" stroke-linecap="round" stroke-linejoin="round"/>
<path d="M313.128 316.959C302.998 331.59 290.495 344.346 276.161 354.677C276.055 354.759 275.944 354.836 275.836 354.913C271.733 357.847 266.782 360.704 261.97 359.273C258.377 358.204 255.844 354.99 253.765 351.811C253.166 350.888 252.581 349.951 252.024 348.992C249.205 344.136 247.106 338.779 247.37 333.2C247.592 329.516 248.714 325.949 250.634 322.823C252.917 319.13 255.795 315.858 259.145 313.144C260.254 312.215 261.39 311.343 262.541 310.519C270.148 305.075 278.787 300.903 285.092 293.932C291.901 286.402 295.311 276.348 297.923 266.448C300.536 256.548 302.582 246.349 307.336 237.317C312.09 228.284 320.177 220.384 330.123 219.001C334.112 218.447 338.357 218.924 342.002 217.179C345.646 215.435 348.444 208.816 345.501 206.008" stroke="#171717" stroke-width="3" stroke-linecap="round" stroke-linejoin="round"/>
<path d="M380.725 203.507C378.871 205.66 380.149 210.074 382.337 211.88C384.526 213.686 387.421 214.216 390.156 214.886C414.782 220.893 433.471 242.071 444.642 265.282C451.876 280.315 456.686 297.077 454.956 313.736C452.485 337.516 436.602 358.433 416.518 370.713C396.607 382.882 373.019 387.429 349.817 388.09C349.604 388.099 349.397 388.104 349.185 388.109C344.229 388.239 338.726 387.989 335.175 384.452C333.743 382.988 332.718 381.161 332.203 379.158C331.27 375.834 331.345 372.018 331.529 368.497C331.751 364.2 332.114 359.57 333.949 355.827C334.602 354.455 335.49 353.214 336.57 352.161C338.664 350.147 341.248 349.111 344.054 348.572C345.869 348.242 347.705 348.051 349.548 347.999C351.746 347.907 353.962 347.912 356.094 347.82C358.348 347.723 360.593 347.47 362.814 347.063C369.814 345.83 376.499 343.165 382.465 339.226C388.432 335.287 393.558 330.157 397.535 324.144C401.512 318.131 404.258 311.358 405.608 304.233C406.958 297.108 406.885 289.778 405.393 282.683" stroke="#171717" stroke-width="3" stroke-linecap="round" stroke-linejoin="round"/>
<path d="M301.159 369.653C292.704 370.622 284.97 371.918 285.267 374.288C285.812 378.625 305.361 376.065 315.863 373.763C307.917 375.565 299.969 377.366 292.02 379.168C290.95 379.325 289.93 379.738 289.045 380.372C288.22 381.078 287.767 382.376 288.333 383.311C288.865 384.192 290.012 384.4 291.021 384.505C304.414 385.916 319.264 383.738 331.98 379.22" stroke="#171717" stroke-width="3" stroke-linecap="round" stroke-linejoin="round"/>
<path d="M301.159 369.653C305.803 369.645 310.433 369.146 314.977 368.165C311.039 368.646 305.979 369.094 301.159 369.653Z" stroke="#171717" stroke-width="3" stroke-linecap="round" stroke-linejoin="round"/>
<path d="M315.199 359.667C303.711 359.744 285.333 363.439 286.234 367.991C286.234 370.484 296.141 369.669 301.162 369.653" stroke="#171717" stroke-width="3" stroke-linecap="round" stroke-linejoin="round"/>
<path d="M315.199 359.666C316.079 359.731 316.962 359.747 317.844 359.715C317.019 359.671 316.132 359.657 315.199 359.666Z" stroke="#171717" stroke-width="3" stroke-linecap="round" stroke-linejoin="round"/>
<path d="M333.949 355.827C326.577 355.172 319.631 353.914 312.265 353.259C311.647 353.205 311.025 353.151 310.402 353.144C309.54 353.114 308.679 353.243 307.86 353.524C306.47 354.044 305.257 355.398 305.39 356.911C305.39 358.816 311.782 359.424 315.199 359.666" stroke="#171717" stroke-width="3" stroke-linecap="round" stroke-linejoin="round"/>
<path d="M324.281 245.728C319.354 269.257 315.648 293.035 313.178 316.964C311.952 328.825 311.029 340.752 310.41 352.744" stroke="#171717" stroke-width="3" stroke-linecap="round" stroke-linejoin="round"/>
<path d="M368.293 169.197C366.133 168.754 363.972 168.308 361.809 167.862C362.536 158.609 364.115 149.446 366.525 140.494C371.132 141.057 375.739 141.619 380.347 142.18" stroke="#171717" stroke-width="3" stroke-linecap="round" stroke-linejoin="round"/>
<path d="M362.54 140.504C359.202 139.616 355.706 139.541 352.335 140.287" stroke="#171717" stroke-width="3" stroke-linecap="round" stroke-linejoin="round"/>
<path d="M369.925 186.66C375.681 186.66 380.347 183.673 380.347 179.988C380.347 176.304 375.681 173.316 369.925 173.316C364.169 173.316 359.503 176.304 359.503 179.988C359.503 183.673 364.169 186.66 369.925 186.66Z" stroke="#171717" stroke-width="3" stroke-linecap="round" stroke-linejoin="round"/>
<path d="M384.454 166.697C382.276 166.731 380.12 167.154 378.084 167.945C374.589 169.198 371.001 171.115 367.232 171.288C363.227 171.413 359.228 170.909 355.372 169.795C353.065 169.155 350.818 168.306 348.657 167.261C347.339 166.56 345.967 165.973 344.554 165.503C343.244 165.049 341.819 165.078 340.527 165.585C338.862 166.317 337.787 167.993 337.028 169.674C334.288 175.764 334.439 182.773 335.085 189.441C335.528 194.003 336.316 198.849 339.353 202.227C341.036 204.025 343.159 205.33 345.502 206.008C347.396 206.588 349.345 206.956 351.317 207.107C352.317 207.194 353.312 207.242 354.292 207.269C356.758 207.337 359.229 207.313 361.696 207.183C365.959 206.964 370.197 206.385 374.367 205.453C376.535 204.983 378.661 204.332 380.724 203.507C383.003 202.606 385.113 201.309 386.958 199.672C391.344 195.664 393.395 189.584 394.15 183.625C394.541 180.556 394.628 177.384 393.753 174.419C392.879 171.453 390.943 168.705 388.165 167.467C386.992 166.958 385.729 166.696 384.454 166.697Z" stroke="#171717" stroke-width="3" stroke-linecap="round" stroke-linejoin="round"/>
<path d="M384.459 166.354C384.921 164.172 385.318 162.018 385.638 159.875C386.34 155.244 386.706 150.566 386.732 145.88C386.756 142.874 386.586 139.679 384.917 137.204C382.828 134.121 378.946 132.945 375.325 132.366C367.487 131.114 359.441 131.668 351.628 130.271C350.59 130.083 349.553 129.857 348.515 129.578C341.763 127.771 335.326 123.979 332.365 117.635C332.219 117.411 332.13 117.155 332.103 116.888C332.077 116.621 332.115 116.351 332.215 116.103C332.526 115.588 333.242 115.563 333.837 115.614C337.736 115.959 341.555 116.941 345.15 118.524C343.342 116.126 342.147 113.307 341.674 110.319C341.5 109.187 341.561 107.769 342.552 107.226C343.396 106.769 344.419 107.231 345.249 107.714C350.121 110.555 354.402 114.34 357.854 118.857C356.613 117.055 355.753 115.008 355.33 112.847C354.907 110.686 354.93 108.459 355.397 106.308C355.716 104.863 356.878 103.148 358.218 103.711C358.719 103.989 359.123 104.42 359.373 104.945C362.518 110.123 365.661 115.3 368.804 120.476C369.95 119.147 370.172 117.263 370.876 115.649C371.581 114.035 373.338 112.532 374.908 113.274C375.899 113.746 376.361 114.926 376.512 116.034C376.663 117.142 376.592 118.294 376.945 119.349C377.804 121.899 380.717 122.991 383.317 123.477C385.916 123.964 388.806 124.301 390.579 126.3C391.834 127.706 392.257 129.664 392.639 131.526C394.516 140.747 396.396 149.968 398.28 159.188C396.435 157.806 394.59 156.426 392.744 155.05C392.838 156.678 394.116 157.936 394.913 159.352C395.71 160.769 395.752 163.038 394.243 163.577C393.38 163.89 392.451 163.447 391.64 163.014C389.683 161.973 387.727 160.932 385.774 159.892" stroke="#171717" stroke-width="3" stroke-linecap="round" stroke-linejoin="round"/>
<path d="M348.487 129.688C346.426 141.528 345.113 153.49 344.556 165.502C344.556 165.535 344.551 165.564 344.551 165.598" stroke="#171717" stroke-width="3" stroke-linecap="round" stroke-linejoin="round"/>
<path d="M364.969 178.474C366.224 179.529 367.506 180.608 369.034 181.167C370.562 181.725 372.415 181.668 373.65 180.594C374.3 179.953 374.821 179.191 375.188 178.349" stroke="#171717" stroke-width="3" stroke-linecap="round" stroke-linejoin="round"/>
<path d="M185.751 331.118C192.65 326.939 199.657 322.721 207.396 320.568C214.847 318.496 223.184 318.544 229.932 322.312C230.192 322.456 230.451 322.61 230.706 322.764C231.691 323.367 232.691 324.121 233.073 325.231C233.748 327.185 232.13 329.316 230.211 329.977C228.291 330.637 226.198 330.27 224.184 330.034C218.044 329.31 211.823 329.854 205.892 331.633" stroke="#171717" stroke-width="3" stroke-linecap="round" stroke-linejoin="round"/>
<path d="M215.77 329.981C208.906 333.81 203.806 340.263 201.59 347.926C201.185 349.371 200.911 351.029 201.713 352.291C202.482 353.5 204.075 353.953 205.472 353.708C206.857 353.378 208.142 352.707 209.216 351.754C211.441 349.988 213.398 347.894 215.022 345.541C216.338 343.639 217.583 341.437 219.714 340.603C221.356 339.962 223.186 340.277 224.94 340.386C229.051 340.626 233.148 339.701 236.777 337.712C237.946 337.082 239.054 336.339 240.087 335.496" stroke="#171717" stroke-width="3" stroke-linecap="round" stroke-linejoin="round"/>
<path d="M230.031 322.114C236.69 320.325 243.708 320.494 250.276 322.603" stroke="#171717" stroke-width="3" stroke-linecap="round" stroke-linejoin="round"/>
<path d="M236.916 337.976C237.991 337.942 239.104 337.433 240.109 337.822C240.624 337.991 241.08 338.309 241.422 338.737C241.764 339.166 241.978 339.686 242.037 340.235C242.08 341.921 240.279 342.962 238.727 343.53C232.447 345.829 225.806 346.925 219.137 346.763" stroke="#171717" stroke-width="3" stroke-linecap="round" stroke-linejoin="round"/>
<path d="M238.902 343.798C239.821 343.918 240.764 343.562 241.58 344.015C241.998 344.222 242.353 344.541 242.607 344.938C242.861 345.336 243.005 345.796 243.023 346.27C242.959 346.897 242.711 347.49 242.311 347.97C241.534 349.003 240.568 349.872 239.467 350.528C238.216 351.281 236.893 351.902 235.52 352.383C229.382 354.65 222.886 355.739 216.36 355.596C216.544 355.591 216.732 355.591 216.916 355.587" stroke="#171717" stroke-width="3" stroke-linecap="round" stroke-linejoin="round"/>
<path d="M219.272 361.28C223.017 360.876 233.434 359.483 236.857 357.884C238.257 357.229 239.691 356.41 240.459 355.046C240.841 354.346 240.984 353.536 240.865 352.744C240.822 352.36 240.692 351.992 240.486 351.669C240.28 351.345 240.002 351.075 239.677 350.879" stroke="#171717" stroke-width="3" stroke-linecap="round" stroke-linejoin="round"/>
<path d="M240.873 352.744C244.777 352.398 248.551 351.14 251.903 349.068" stroke="#171717" stroke-width="3" stroke-linecap="round" stroke-linejoin="round"/>
<path d="M185.608 361.112C187.278 361.502 195.017 361.121 196.723 360.924" stroke="#171717" stroke-width="3" stroke-linecap="round" stroke-linejoin="round"/>
<path d="M197.591 360.505C198.754 358.683 200.413 357.247 202.364 356.374C203.123 356.042 204.075 355.825 204.717 356.36C205.311 356.856 205.339 357.762 205.297 358.547C205.259 359.187 205.203 359.828 205.113 360.464C205.008 361.327 204.815 362.176 204.538 362.998C204.43 363.317 204.305 363.631 204.166 363.938C203.804 364.788 203.274 365.553 202.609 366.183C201.943 366.814 201.157 367.295 200.299 367.599C199.618 367.807 198.899 367.847 198.201 367.716C197.502 367.585 196.844 367.285 196.281 366.843C195.097 365.86 195.894 364.444 196.328 363.138C196.636 362.208 197.061 361.324 197.591 360.505Z" stroke="#171717" stroke-width="3" stroke-linecap="round" stroke-linejoin="round"/>
<path d="M204.538 363C204.335 364.277 203.712 366.454 204.401 367.485C204.643 367.791 204.988 367.995 205.367 368.059C207.164 368.483 209.531 367.462 210.659 365.973C210.86 365.705 211.044 365.425 211.211 365.134C211.922 363.765 212.414 362.288 212.667 360.76C212.682 360.693 212.696 360.625 212.706 360.553C212.809 359.932 212.766 359.295 212.58 358.694C212.395 358.093 212.072 357.547 211.639 357.099C209.48 355.123 206.231 358.351 205.236 360.211C205.193 360.293 205.151 360.379 205.113 360.466C204.818 361.209 204.635 361.993 204.571 362.793C204.561 362.86 204.552 362.928 204.538 363Z" stroke="#171717" stroke-width="3" stroke-linecap="round" stroke-linejoin="round"/>
<path d="M211.333 364.816C211.29 364.925 211.248 365.029 211.211 365.134C210.904 365.831 210.736 366.582 210.716 367.346C210.705 367.787 210.826 368.22 211.06 368.589C211.295 368.959 211.633 369.248 212.031 369.417C212.785 369.663 213.601 369.297 214.275 368.868C216.428 367.483 218.064 365.4 218.921 362.953C219.119 362.417 219.236 361.853 219.265 361.281C219.302 360.771 219.197 360.26 218.963 359.807C218.644 359.304 218.181 358.913 217.636 358.69C217.091 358.468 216.492 358.423 215.921 358.564C214.781 358.881 213.794 359.615 213.149 360.626" stroke="#171717" stroke-width="3" stroke-linecap="round" stroke-linejoin="round"/>
<path d="M143.213 193.375C142.847 197.18 142.933 201.015 143.473 204.798C143.661 206.151 143.909 207.492 144.216 208.82C144.376 209.856 144.808 210.829 145.466 211.634C145.624 211.796 145.798 211.942 145.985 212.068C147.168 212.844 148.786 212.81 150.239 212.714C151.573 212.622 153.006 212.492 154.01 211.591C154.234 211.388 154.429 211.155 154.591 210.897C155.289 209.799 155.402 208.32 155.453 206.971C155.477 206.326 155.501 205.714 155.524 205.121C155.656 201.691 155.751 199.003 155.807 195.26" stroke="#171717" stroke-width="3" stroke-linecap="round" stroke-linejoin="round"/>
<path d="M145.868 212.241C142.947 221.447 142.888 231.309 142.855 240.987C142.77 266.669 142.684 292.352 142.595 318.034" stroke="#171717" stroke-width="3" stroke-linecap="round" stroke-linejoin="round"/>
<path d="M154.88 210.936C157.365 213.638 157.478 217.743 157.45 221.447C157.172 254.177 156.897 286.904 156.625 319.628" stroke="#171717" stroke-width="3" stroke-linecap="round" stroke-linejoin="round"/>
<path d="M351.297 207.322C351.156 210.184 351.016 213.046 350.878 215.907C350.84 216.693 350.84 217.584 351.397 218.128C351.71 218.406 352.105 218.57 352.519 218.595C352.803 218.628 353.087 218.639 353.373 218.629C355.217 218.605 357.065 218.575 358.909 218.552C359.045 218.552 359.182 218.547 359.324 218.538C359.977 218.57 360.617 218.351 361.12 217.926C361.677 217.353 361.71 216.457 361.715 215.652C361.715 212.988 361.718 210.324 361.724 207.66" stroke="#171717" stroke-width="3" stroke-linecap="round" stroke-linejoin="round"/>
<path d="M352.524 218.547C352.52 218.563 352.519 218.579 352.519 218.595C352.032 221.841 351.861 225.128 352.01 228.408C352.095 228.365 352.175 228.322 352.26 228.288C353.227 227.879 354.354 227.999 355.415 228.004C356.373 228.074 357.325 227.796 358.103 227.219C358.258 227.085 358.391 226.927 358.499 226.752C358.795 226.169 358.945 225.52 358.937 224.863C359.074 222.868 359.209 220.874 359.343 218.88" stroke="#171717" stroke-width="3" stroke-linecap="round" stroke-linejoin="round"/>
<path d="M352.274 228.298C352.269 228.298 352.269 228.303 352.264 228.303C349.647 229.517 347.889 232.171 347.03 234.975C346.172 237.778 346.115 240.765 346.058 243.704C345.385 278.618 344.71 313.531 344.031 348.442" stroke="#171717" stroke-width="3" stroke-linecap="round" stroke-linejoin="round"/>
<path d="M358.093 227.219H358.103C359.522 227.209 360.762 228.322 361.371 229.632C361.897 230.987 362.166 232.433 362.163 233.891C364.346 271.346 364.522 308.895 362.691 346.37" stroke="#171717" stroke-width="3" stroke-linecap="round" stroke-linejoin="round"/>
<path d="M373.654 251.484C375.861 251.836 378.076 252.155 380.298 252.443C382.477 252.732 384.661 252.986 386.844 253.209C390.819 253.618 394.799 253.931 398.784 254.149" stroke="#171717" stroke-width="3" stroke-linecap="round" stroke-linejoin="round"/>
<path d="M373.229 251.522C372.822 258.201 373.13 264.905 374.148 271.515C374.516 273.914 375.049 276.444 376.695 278.197C378.114 279.71 380.198 280.428 382.25 280.572C384.304 280.633 386.358 280.436 388.366 279.984C391.313 279.45 394.619 278.674 396.152 276.044C396.939 274.694 397.105 273.076 397.251 271.515C397.793 265.816 398.333 260.115 398.873 254.413" stroke="#171717" stroke-width="3" stroke-linecap="round" stroke-linejoin="round"/>
<path d="M386.869 252.949C387.072 251.113 387.256 249.153 386.435 247.505C385.614 245.858 383.384 244.812 381.932 245.915C380.922 246.686 380.692 248.112 380.564 249.393C380.461 250.41 380.372 251.426 380.299 252.443C379.889 257.971 379.887 263.523 380.294 269.052" stroke="#171717" stroke-width="3" stroke-linecap="round" stroke-linejoin="round"/>
<path d="M259.316 313.36C259.227 328.839 265.333 343.297 275.935 354.353" stroke="#171717" stroke-width="3" stroke-linecap="round" stroke-linejoin="round"/>
<path d="M349.558 348.201C347.519 361.423 347.606 374.896 349.817 388.09C349.818 388.114 349.821 388.138 349.827 388.162" stroke="#171717" stroke-width="3" stroke-linecap="round" stroke-linejoin="round"/>
<path d="M108.17 196.685C108.33 196.748 108.496 196.815 108.656 196.873C119.643 201.19 131.173 203.894 142.902 204.905" stroke="#171717" stroke-width="3" stroke-linecap="round" stroke-linejoin="round"/>
<path d="M155.56 205.121C158.841 205.148 162.108 204.679 165.255 203.729" stroke="#171717" stroke-width="3" stroke-linecap="round" stroke-linejoin="round"/>
<path d="M359.668 149.594C359.423 149.128 359.06 148.734 358.619 148.455C358.178 148.175 357.673 148.018 357.154 148C356.635 147.982 356.12 148.103 355.661 148.351C355.202 148.6 354.814 148.967 354.538 149.416" stroke="#171717" stroke-width="3" stroke-linecap="round" stroke-linejoin="round"/>
<path d="M368.755 150.784C369.082 150.23 369.547 149.775 370.102 149.464C370.657 149.154 371.283 148.999 371.916 149.016C372.549 149.033 373.166 149.222 373.704 149.562C374.243 149.902 374.683 150.382 374.981 150.953" stroke="#171717" stroke-width="3" stroke-linecap="round" stroke-linejoin="round"/>
<path d="M453.887 212.768C449.533 223.848 449.216 236.157 452.994 247.455C456.772 258.754 464.394 268.292 474.474 274.336C479.343 277.255 485.083 279.686 487.542 284.877C489.802 289.645 488.548 295.363 486.571 300.262C485.161 303.756 483.31 307.22 480.34 309.474C477.37 311.727 473.051 312.472 469.959 310.396C466.867 308.321 466.088 303.059 469.008 300.736C469.553 300.274 470.212 299.975 470.913 299.871C471.613 299.767 472.328 299.862 472.979 300.147C474.239 300.794 474.907 302.576 474.147 303.793" stroke="#171717" stroke-width="3" stroke-linecap="round" stroke-linejoin="round"/>
<path d="M425.745 376.358C430.387 376.09 434.884 374.604 438.801 372.046C442.718 369.486 445.923 365.939 448.108 361.747" stroke="#171717" stroke-width="3" stroke-linecap="round" stroke-linejoin="round"/>
<path d="M196.352 381.845C208.202 387.961 223.413 386.548 233.989 378.349" stroke="#171717" stroke-width="3" stroke-linecap="round" stroke-linejoin="round"/>
<path d="M209.545 393.203L219.583 391.466" stroke="#171717" stroke-width="3" stroke-linecap="round" stroke-linejoin="round"/>
<path d="M203.568 313.113C206.288 311.441 209.394 310.539 212.569 310.499C215.743 310.46 218.871 311.285 221.63 312.888" stroke="#171717" stroke-width="3" stroke-linecap="round" stroke-linejoin="round"/>
<path d="M68.7188 354.471C56.7056 352.503 46.7641 341.313 46.0071 328.91" stroke="#171717" stroke-width="3" stroke-linecap="round" stroke-linejoin="round"/>
<path d="M30.2835 279.924C27.6253 277.859 25.4151 275.253 23.7921 272.271" stroke="#171717" stroke-width="3" stroke-linecap="round" stroke-linejoin="round"/>
<path d="M21.25 281.923L28.2423 273.763" stroke="#171717" stroke-width="3" stroke-linecap="round" stroke-linejoin="round"/>
<path d="M32.5232 244.319C34.3954 240.102 41.5826 240.966 43.0914 245.332C44.6001 249.698 40.7257 254.724 36.2074 255.088C31.6892 255.451 27.436 251.984 25.8268 247.655C24.2177 243.327 24.8647 238.405 26.5408 234.101C28.8758 228.152 33.023 223.129 38.3691 219.774C47.3865 214.15 60.0398 212.907 64.9931 203.375C66.8121 199.874 67.1261 195.361 65.0038 192.043C62.8814 188.725 58.0279 187.277 54.8702 189.579C52.451 191.343 51.5855 194.843 52.4621 197.742C53.3386 200.641 55.7117 202.912 58.4407 204.115C64.302 206.697 71.8564 204.195 75.1219 198.592C78.5071 192.782 77.2321 185.48 77.0504 178.721C76.8687 171.962 78.939 163.85 85.2577 161.836" stroke="#171717" stroke-width="3" stroke-linecap="round" stroke-linejoin="round"/>
<path d="M108.666 132.507C108.572 130.144 109.241 127.816 110.569 125.88C111.898 123.944 113.812 122.508 116.018 121.792" stroke="#171717" stroke-width="3" stroke-linecap="round" stroke-linejoin="round"/>
<path d="M168.117 101.909C169.229 98.4758 171.285 95.4426 174.039 93.1714" stroke="#171717" stroke-width="3" stroke-linecap="round" stroke-linejoin="round"/>
<path d="M174.682 100.256L164.661 91.627" stroke="#171717" stroke-width="3" stroke-linecap="round" stroke-linejoin="round"/>
<path d="M190.021 114.592L195.501 110.494" stroke="#171717" stroke-width="3" stroke-linecap="round" stroke-linejoin="round"/>
<path d="M195.059 115.674L191.063 109.043" stroke="#171717" stroke-width="3" stroke-linecap="round" stroke-linejoin="round"/>
<path d="M285.36 137.082C285.937 134.132 285.703 131.077 284.686 128.253C283.668 125.43 281.906 122.95 279.595 121.086" stroke="#171717" stroke-width="3" stroke-linecap="round" stroke-linejoin="round"/>
<path d="M292.096 129.862L289.096 124.253" stroke="#171717" stroke-width="3" stroke-linecap="round" stroke-linejoin="round"/>
<path d="M390.292 102.412L388.794 94.7603" stroke="#171717" stroke-width="3" stroke-linecap="round" stroke-linejoin="round"/>
<path d="M385.299 99.8599L391.79 97.8193" stroke="#171717" stroke-width="3" stroke-linecap="round" stroke-linejoin="round"/>
<path d="M405.247 119.727L418.732 106.98" stroke="#171717" stroke-width="3" stroke-linecap="round" stroke-linejoin="round"/>
<path d="M416.278 118.722L407.284 105.974" stroke="#171717" stroke-width="3" stroke-linecap="round" stroke-linejoin="round"/>
<path d="M445.122 174.92L438.607 166.267" stroke="#171717" stroke-width="3" stroke-linecap="round" stroke-linejoin="round"/>
<path d="M437.228 174.335C440.765 172.501 443.711 169.669 445.717 166.173" stroke="#171717" stroke-width="3" stroke-linecap="round" stroke-linejoin="round"/>
<path d="M337.635 244.847L333.86 239.861" stroke="#171717" stroke-width="3" stroke-linecap="round" stroke-linejoin="round"/>
<path d="M365.628 215.687C369.641 214.613 373.563 213.21 377.356 211.493" stroke="#171717" stroke-width="3" stroke-linecap="round" stroke-linejoin="round"/>
<path d="M348.515 216.049L346.962 215.142" stroke="#171717" stroke-width="3" stroke-linecap="round" stroke-linejoin="round"/>
<path d="M376.674 234.156L381.891 229.054" stroke="#171717" stroke-width="3" stroke-linecap="round" stroke-linejoin="round"/>
<path d="M406.272 237.017L403.297 232.394" stroke="#171717" stroke-width="3" stroke-linecap="round" stroke-linejoin="round"/>
<path d="M423.401 263.744L428.448 257.799" stroke="#171717" stroke-width="3" stroke-linecap="round" stroke-linejoin="round"/>
<path d="M416.861 284.745L413.553 277.933" stroke="#171717" stroke-width="3" stroke-linecap="round" stroke-linejoin="round"/>
<path d="M378.45 305.579L382.629 299.657" stroke="#171717" stroke-width="3" stroke-linecap="round" stroke-linejoin="round"/>
<path d="M388.222 319.207L386.448 313.992" stroke="#171717" stroke-width="3" stroke-linecap="round" stroke-linejoin="round"/>
<path d="M324.387 338.296L329.086 332.661L328.767 333.029" stroke="#171717" stroke-width="3" stroke-linecap="round" stroke-linejoin="round"/>
<path d="M330.091 307.188L326.096 301.067" stroke="#171717" stroke-width="3" stroke-linecap="round" stroke-linejoin="round"/>
<path d="M333.746 282.116L337.954 277.573" stroke="#171717" stroke-width="3" stroke-linecap="round" stroke-linejoin="round"/>
<path d="M305.246 283.149C304.028 282.181 303.15 280.837 302.742 279.316" stroke="#171717" stroke-width="3" stroke-linecap="round" stroke-linejoin="round"/>
<path d="M301.212 308.75L305.428 301.947" stroke="#171717" stroke-width="3" stroke-linecap="round" stroke-linejoin="round"/>
<path d="M284.31 332.379L282.013 326.518" stroke="#171717" stroke-width="3" stroke-linecap="round" stroke-linejoin="round"/>
<path d="M272.201 314.033C273.784 313.132 275.486 312.466 277.254 312.055" stroke="#171717" stroke-width="3" stroke-linecap="round" stroke-linejoin="round"/>
<path d="M428.167 309.138L435.127 304.331" stroke="#171717" stroke-width="3" stroke-linecap="round" stroke-linejoin="round"/>
<path d="M410.88 330.429L411.371 321.558" stroke="#171717" stroke-width="3" stroke-linecap="round" stroke-linejoin="round"/>
<path d="M435.341 331.779L435.654 325.997" stroke="#171717" stroke-width="3" stroke-linecap="round" stroke-linejoin="round"/>
<path d="M405.768 350.521L412.759 351.191" stroke="#171717" stroke-width="3" stroke-linecap="round" stroke-linejoin="round"/>
<path d="M377.786 359.322L379.111 353.2" stroke="#171717" stroke-width="3" stroke-linecap="round" stroke-linejoin="round"/>
<path d="M361.834 372.875L367.162 373.194" stroke="#171717" stroke-width="3" stroke-linecap="round" stroke-linejoin="round"/>
<path d="M473.18 261.56L474.677 254.419" stroke="#171717" stroke-width="3" stroke-linecap="round" stroke-linejoin="round"/>
<path d="M476.675 259.012C474.567 259.194 472.459 258.655 470.683 257.481" stroke="#171717" stroke-width="3" stroke-linecap="round" stroke-linejoin="round"/>
<path d="M232.326 272.902C239.231 270.654 245.287 266.282 249.666 260.382" stroke="#171717" stroke-width="3" stroke-linecap="round" stroke-linejoin="round"/>
<path d="M117.941 226.024L111.685 222.624C111.685 222.624 110.618 226.704 110.618 227.384C110.618 228.064 117.941 226.024 117.941 226.024Z" stroke="#171717" stroke-width="3" stroke-linecap="round" stroke-linejoin="round"/>
<path d="M90.6451 267.738L84.2095 271.977L93.7524 276.098L90.6451 267.738Z" stroke="#171717" stroke-width="3" stroke-linecap="round" stroke-linejoin="round"/>
<path d="M80.215 230.845L72.8918 234.412L80.215 239.853V230.845Z" stroke="#171717" stroke-width="3" stroke-linecap="round" stroke-linejoin="round"/>
<path d="M132.631 272.272L125.535 274.766L130.147 281.233L132.631 272.272Z" stroke="#171717" stroke-width="3" stroke-linecap="round" stroke-linejoin="round"/>
<path d="M212.75 245.521L205.31 255.114H214.993L212.75 245.521Z" stroke="#171717" stroke-width="3" stroke-linecap="round" stroke-linejoin="round"/>
<path d="M253.091 212.241L261.745 212.761L258.195 220.668L253.091 212.241Z" stroke="#171717" stroke-width="3" stroke-linecap="round" stroke-linejoin="round"/>
<path d="M236.225 222.624L237.112 227.523L229.692 226.024L236.225 222.624Z" stroke="#171717" stroke-width="3" stroke-linecap="round" stroke-linejoin="round"/>
<path d="M172.534 328.908L175.93 335.977H161.438L172.534 328.908Z" stroke="#171717" stroke-width="3" stroke-linecap="round" stroke-linejoin="round"/>
<path d="M120.659 346.78L115.279 333.856L109.065 343.777L120.659 346.78Z" stroke="#171717" stroke-width="3" stroke-linecap="round" stroke-linejoin="round"/>
<path d="M87.3162 308.75L81.3248 318.036L78.6617 308.75H87.3162Z" stroke="#171717" stroke-width="3" stroke-linecap="round" stroke-linejoin="round"/>
<path d="M168.684 292.449L163.435 297.436L170.288 301.067L168.684 292.449Z" stroke="#171717" stroke-width="3" stroke-linecap="round" stroke-linejoin="round"/>
<g opacity="0.1">
<path d="M166.182 128.532C158.221 126.922 149.657 127.332 141.568 127.618C134.948 127.853 129.615 130.75 129.114 138.087C128.849 141.988 129.232 145.998 129.304 149.906C129.388 154.425 129.317 158.943 129.092 163.46C128.71 172.249 127.878 181.013 126.598 189.713C126.126 192.779 130.591 194.184 131.257 191.024C134.463 175.822 135.979 160.244 134.783 144.695C134.559 141.781 133.295 137.008 135.28 134.475C137.016 132.257 140.536 132.308 143.042 132.231C150.761 131.994 158.611 132.433 166.183 130.69C167.211 130.453 167.245 128.746 166.183 128.532H166.182Z" fill="#171717"/>
</g>
<g opacity="0.1">
<path d="M122.349 191.635C117.617 193.387 113.158 196.008 108.737 198.461C106.469 199.719 104.191 200.636 102.003 202.062C99.7507 203.529 97.5008 205 95.2531 206.475C87.2764 211.707 79.2227 217.175 73.1218 224.702C61.6824 238.816 55.8296 257.651 55.1767 275.81C54.5482 293.3 58.8099 311.505 68.8234 325.884C79.5621 341.305 95.5984 351.324 112.711 357.877C134.287 366.04 157.346 369.302 180.282 367.435C182.87 367.227 185.088 365.326 185.088 362.525C185.088 360.021 182.884 357.416 180.282 357.615C161.367 359.102 142.346 356.954 124.206 351.282C108.298 346.277 92.6043 338.551 81.2998 325.749C70.8358 313.899 65.5796 297.943 64.9814 282.15C64.3641 265.851 68.0792 248.732 76.7863 234.945C82.152 226.451 89.7642 220.371 97.8286 214.714C102.173 211.667 106.851 208.899 110.71 205.24C114.844 201.321 119.855 198.447 123.997 194.529C125.198 193.393 123.953 191.043 122.35 191.638L122.349 191.635Z" fill="#171717"/>
</g>
<g opacity="0.1">
<path d="M347.929 207.108C350.116 212.725 342.634 214.978 338.659 215.127C333.331 215.323 328.14 216.555 323.593 219.513C314.133 225.671 308.951 236.46 305.797 247.08C302.393 258.543 301.125 271.039 295.025 281.484C290.159 289.82 282.176 295.442 274.55 300.906C270.159 304.054 265.751 307.22 261.709 310.83C257.851 314.275 252.66 318.971 251.728 324.337C251.06 328.177 254.937 330.307 257.846 327.973C259.762 326.437 261.055 324.277 262.658 322.405C264.281 320.53 266.026 318.769 267.88 317.133C271.558 313.854 275.591 311.033 279.584 308.179C287.78 302.317 296.032 296.257 301.631 287.61C308.655 276.756 310.381 263.618 313.605 251.315C316.374 240.748 320.98 229.882 331.001 224.611C336.333 221.806 343.283 222.583 348.173 218.817C352.227 215.696 354.344 209.631 350.886 205.351C349.79 203.994 347.286 205.452 347.93 207.108H347.929Z" fill="#171717"/>
</g>
<g opacity="0.1">
<path d="M328.299 243.791C324.835 245.833 324.493 251.438 323.624 255.043C322.548 259.506 321.708 264.035 320.915 268.56C319.355 277.484 318.163 286.491 317.064 295.485C315.969 304.456 315.066 313.449 314.355 322.464C313.994 327.059 313.682 331.657 313.421 336.258C313.301 338.381 313.192 340.506 313.092 342.631C312.979 345.073 312.526 347.746 313.368 350.066C314.403 352.923 318.987 354.443 320.514 351.02C322.317 346.976 321.72 341.724 321.951 337.317C322.183 332.893 322.462 328.471 322.787 324.053C323.451 315.039 324.308 306.044 325.358 297.066C326.386 288.293 327.69 279.569 329.012 270.838C329.703 266.272 330.45 261.711 331.053 257.132C331.531 253.496 333.51 247.786 331.193 244.564C330.9 244.08 330.436 243.729 329.897 243.585C329.358 243.44 328.785 243.513 328.297 243.789L328.299 243.791Z" fill="#171717"/>
</g>
<g opacity="0.1">
<path d="M336.475 358.412C338.114 358.172 339.666 357.34 341.231 356.799C343.257 356.118 345.318 355.552 347.405 355.102C351.926 354.083 356.608 354.173 361.21 353.948C369.706 353.598 378.032 351.403 385.632 347.506C393.064 343.645 399.573 338.159 404.696 331.438C409.82 324.718 413.432 316.927 415.275 308.619C416.344 303.767 416.824 298.798 416.702 293.826C416.561 288.861 416.353 282.848 413.231 278.841C411.499 276.616 407.228 277.794 406.78 280.581C406.125 284.664 407.577 288.827 407.767 292.944C408.379 305.035 404.713 316.948 397.44 326.507C392.689 332.522 386.673 337.368 379.838 340.682C372.42 344.332 364.735 345.212 356.622 345.629C351.726 345.881 346.55 346.263 342.133 348.635C339.064 350.283 335.06 353.477 335.213 357.431C335.218 357.587 335.255 357.739 335.324 357.878C335.394 358.016 335.492 358.137 335.613 358.231C335.735 358.325 335.875 358.39 336.024 358.422C336.173 358.453 336.327 358.45 336.475 358.412Z" fill="#171717"/>
</g>
<defs>
<linearGradient id="paint0_linear_95_2539" x1="353.988" y1="227.219" x2="353.988" y2="348.572" gradientUnits="userSpaceOnUse">
<stop stop-color="#FFB800"/>
<stop offset="1" stop-color="#FF7F0A"/>
</linearGradient>
<linearGradient id="paint1_linear_95_2539" x1="120.658" y1="196.875" x2="120.658" y2="369.996" gradientUnits="userSpaceOnUse">
<stop stop-color="#FFB800"/>
<stop offset="1" stop-color="#FF7F0A"/>
</linearGradient>
<linearGradient id="paint2_linear_95_2539" x1="356.293" y1="207.105" x2="356.293" y2="218.632" gradientUnits="userSpaceOnUse">
<stop stop-color="#FFB800"/>
<stop offset="1" stop-color="#FF7F0A"/>
</linearGradient>
<linearGradient id="paint3_linear_95_2539" x1="355.65" y1="218.538" x2="355.65" y2="228.408" gradientUnits="userSpaceOnUse">
<stop stop-color="#FFB800"/>
<stop offset="1" stop-color="#FF7F0A"/>
</linearGradient>
<linearGradient id="paint4_linear_95_2539" x1="221.966" y1="169.359" x2="221.966" y2="271.982" gradientUnits="userSpaceOnUse">
<stop stop-color="#FFB800"/>
<stop offset="1" stop-color="#FF7F0A"/>
</linearGradient>
<linearGradient id="paint5_linear_95_2539" x1="165.258" y1="203.681" x2="165.258" y2="321.497" gradientUnits="userSpaceOnUse">
<stop stop-color="#FFB800"/>
<stop offset="1" stop-color="#FF7F0A"/>
</linearGradient>
<linearGradient id="paint6_linear_95_2539" x1="160.566" y1="194.604" x2="160.566" y2="205.122" gradientUnits="userSpaceOnUse">
<stop stop-color="#FFB800"/>
<stop offset="1" stop-color="#FF7F0A"/>
</linearGradient>
<linearGradient id="paint7_linear_95_2539" x1="126.065" y1="192.998" x2="126.065" y2="204.904" gradientUnits="userSpaceOnUse">
<stop stop-color="#FFB800"/>
<stop offset="1" stop-color="#FF7F0A"/>
</linearGradient>
</defs>
</svg>
